*
G04 Mass Parameters ***
*
G04 Image ***
*
%INC:\CAINPCB\SAKC_V3\SIE_V3MAX.DRD*%
%ICAS*%
%MOIN*%
%IPPOS*%
%ASAXBY*%
G74*%FSLAN2X34Y34*%
*
G04 Aperture Definitions ***
*
%ADD10R,0.0380X0.0320*%
%ADD11R,0.0320X0.0380*%
%ADD12R,0.0600X0.0600*%
%ADD13R,0.0350X0.0300*%
%ADD14R,0.0300X0.0350*%
%ADD15C,0.0600*%
%ADD16R,0.0472X0.0551*%
%ADD17R,0.0551X0.0945*%
%ADD18R,0.0709X0.0630*%
%ADD19R,0.0276X0.0630*%
%ADD20C,0.0550*%
%ADD21R,0.0550X0.0550*%
%ADD22R,0.0866X0.0905*%
%ADD23R,0.0216X0.0630*%
%ADD24C,0.3150X0.1575*%
%ADD25C,0.0620*%
%ADD26R,0.0620X0.0620*%
%ADD27C,0.1496*%
%ADD28R,0.0500X0.0500*%
%ADD29C,0.0775*%
%ADD30C,0.0669*%
%ADD31R,0.0650X0.0079*%
%ADD32R,0.0079X0.0650*%
%ADD33R,0.0197X0.0551*%
%ADD34R,0.0100X0.0600*%
%ADD35R,0.0700X0.0160*%
%ADD36R,0.1420X0.0880*%
%ADD37R,0.0480X0.0880*%
%ADD38R,0.0600X0.0100*%
%ADD39R,0.0472X0.0567*%
%ADD40R,0.0394X0.0567*%
%ADD41R,0.0272X0.0390*%
%ADD42R,0.0276X0.0590*%
%ADD43R,0.0787X0.0984*%
%ADD44R,0.0551X0.0472*%
%ADD45C,0.0236*%
%ADD46C,0.0079*%
%ADD47C,0.0138*%
%ADD48C,0.0059*%
%ADD49C,0.0080*%
%ADD50C,0.0315*%
%ADD51C,0.0394*%
%ADD52C,0.0197*%
%ADD53C,0.0276*%
%ADD54C,0.0236*%
%ADD55C,0.0236*%
%ADD56C,0.0118*%
%ADD57C,0.0094*%
%ADD58C,0.0216*%
%ADD59C,0.0098*%
%ADD60C,0.0157*%
%ADD61C,0.0600*%
%ADD62C,0.0550*%
%ADD63R,0.0550X0.0550*%
%ADD64C,0.3150X0.1575*%
%ADD65C,0.0620*%
%ADD66R,0.0620X0.0620*%
%ADD67C,0.1496*%
%ADD68C,0.0775*%
%ADD69C,0.0669*%
%ADD70C,0.0236*%
%ADD71C,0.0039*%
%ADD72R,0.0453X0.0378*%
%ADD73R,0.0378X0.0453*%
%ADD74R,0.0650X0.0650*%
%ADD75R,0.0400X0.0350*%
%ADD76R,0.0350X0.0400*%
%ADD77C,0.0650*%
%ADD78R,0.0591X0.0669*%
%ADD79R,0.0669X0.1063*%
%ADD80R,0.0827X0.0748*%
%ADD81R,0.0433X0.0709*%
%ADD82R,0.0945X0.0984*%
%ADD83R,0.0315X0.0787*%
%ADD84C,0.3150*%
%ADD85C,0.1390*%
%ADD86R,0.0571X0.0571*%
%ADD87C,0.0827*%
%ADD88C,0.0768*%
%ADD89R,0.0433X0.0358*%
%ADD90R,0.0358X0.0433*%
%ADD91R,0.0709X0.0118*%
%ADD92R,0.0118X0.0709*%
%ADD93R,0.0236X0.0590*%
%ADD94R,0.0140X0.0650*%
%ADD95R,0.0750X0.0210*%
%ADD96R,0.1470X0.0930*%
%ADD97R,0.0530X0.0930*%
%ADD98R,0.0650X0.0150*%
%ADD99R,0.0150X0.0650*%
%ADD100R,0.0630X0.0787*%
%ADD101R,0.0567X0.0787*%
%ADD102R,0.0394X0.0512*%
%ADD103R,0.0394X0.0709*%
%ADD104R,0.0905X0.1102*%
%ADD105R,0.0669X0.0590*%
%ADD106R,0.0380X0.0320*%
%ADD107R,0.0320X0.0380*%
%ADD108R,0.0600X0.0600*%
%ADD109R,0.0350X0.0300*%
%ADD110R,0.0300X0.0350*%
%ADD111R,0.0472X0.0551*%
%ADD112R,0.0551X0.0945*%
%ADD113R,0.0709X0.0630*%
%ADD114R,0.0276X0.0630*%
%ADD115R,0.0866X0.0905*%
%ADD116R,0.0216X0.0630*%
%ADD117R,0.0500X0.0500*%
%ADD118R,0.0382X0.0319*%
%ADD119R,0.0319X0.0382*%
%ADD120R,0.0650X0.0079*%
%ADD121R,0.0079X0.0650*%
%ADD122R,0.0197X0.0551*%
%ADD123R,0.0100X0.0600*%
%ADD124R,0.0700X0.0160*%
%ADD125R,0.1420X0.0880*%
%ADD126R,0.0480X0.0880*%
%ADD127R,0.0600X0.0100*%
%ADD128R,0.0472X0.0567*%
%ADD129R,0.0394X0.0567*%
%ADD130R,0.0272X0.0390*%
%ADD131R,0.0276X0.0590*%
%ADD132R,0.0787X0.0984*%
%ADD133R,0.0551X0.0472*%
%ADD134C,0.0394*%
%ADD135C,0.0433*%
%ADD136C,0.0060*%
%ADD137C,0.0100*%
%ADD138C,0.0030*%
%ADD139C,0.0010*%
%ADD140C,0.0047*%
*
G04 Plot Data ***
*
G54D46*
G01X0038170Y0085756D02*
X0038534D01*
Y0053712D01*
X0003024D01*
Y0085756D01*
X0038170D01*
G54D137*
G01X0024125Y-0018333D02*
X0024625D01*
X0024708Y-0018500D01*
Y-0018667D01*
X0024625Y-0018833D01*
X0024125D01*
X0024042Y-0018667D01*
Y-0018500D01*
X0024375Y-0017833D01*
X0023342Y-0018833D02*
X0023175Y-0018667D01*
X0023092Y-0018500D01*
Y-0018167D01*
X0023175Y-0018000D01*
X0023342Y-0017833D01*
X0023508D01*
X0023675Y-0018000D01*
X0023758Y-0018167D01*
Y-0018500D01*
X0023675Y-0018667D01*
X0023508Y-0018833D01*
X0023342D01*
X0022808Y-0018500D02*
X0022142D01*
X0022475Y-0017833D01*
X0022642D01*
Y-0018833D01*
X0012312D02*
X0011729D01*
Y-0017833D01*
X0011446Y-0018500D02*
X0010779D01*
X0011446Y-0018833D02*
Y-0018333D01*
X0011196Y-0017833D01*
X0011029D01*
X0010779Y-0018333D01*
Y-0018833D01*
X0010162D02*
Y-0017833D01*
X0010496D02*
X0009829D01*
X0008962Y-0018833D02*
X0008879Y-0018667D01*
Y-0018000D01*
X0008962Y-0017833D01*
X0009462D01*
X0009546Y-0018000D01*
Y-0018667D01*
X0009462Y-0018833D01*
X0008962D01*
X0008262D02*
Y-0017833D01*
X0008596D02*
X0007929D01*
X0024375Y-0016972D02*
X0024708Y-0016306D01*
X0024264D01*
X0010869Y-0016972D02*
Y-0016639D01*
X0011092Y-0016972D02*
Y-0016639D01*
X0011036Y-0016528D01*
X0010925D01*
X0010869Y-0016639D01*
X0010814Y-0016528D01*
X0010703D01*
X0010647Y-0016639D01*
Y-0016972D01*
X0010169D02*
Y-0016639D01*
X0010392Y-0016972D02*
Y-0016639D01*
X0010336Y-0016528D01*
X0010225D01*
X0010169Y-0016639D01*
X0010114Y-0016528D01*
X0010003D01*
X0009947Y-0016639D01*
Y-0016972D01*
X0008464D02*
X0008353Y-0016861D01*
X0008297Y-0016750D01*
Y-0016528D01*
X0008353Y-0016417D01*
X0008464Y-0016306D01*
X0008575D01*
X0008686Y-0016417D01*
X0008742Y-0016528D01*
Y-0016750D01*
X0008686Y-0016861D01*
X0008575Y-0016972D01*
X0008464D01*
X0007764D02*
X0007653Y-0016861D01*
X0007597Y-0016750D01*
Y-0016528D01*
X0007653Y-0016417D01*
X0007764Y-0016306D01*
X0007875D01*
X0007986Y-0016417D01*
X0008042Y-0016528D01*
Y-0016750D01*
X0007986Y-0016861D01*
X0007875Y-0016972D01*
X0007764D01*
X0007064D02*
X0006953Y-0016861D01*
X0006897Y-0016750D01*
Y-0016528D01*
X0006953Y-0016417D01*
X0007064Y-0016306D01*
X0007175D01*
X0007286Y-0016417D01*
X0007342Y-0016528D01*
Y-0016750D01*
X0007286Y-0016861D01*
X0007175Y-0016972D01*
X0007064D01*
X0006531D02*
X0006642D01*
Y-0016861D01*
X0006531D01*
Y-0016972D01*
X0005719Y-0016861D02*
X0005831Y-0016972D01*
X0006053D01*
X0006164Y-0016861D01*
Y-0016750D01*
X0005942Y-0016528D01*
X0006164Y-0016306D01*
X0005719D01*
X0024319Y-0015139D02*
X0024653D01*
X0024708Y-0015250D01*
Y-0015361D01*
X0024653Y-0015472D01*
X0024319D01*
X0024264Y-0015361D01*
Y-0015250D01*
X0024486Y-0014806D01*
X0010869Y-0015472D02*
Y-0015139D01*
X0011092Y-0015472D02*
Y-0015139D01*
X0011036Y-0015028D01*
X0010925D01*
X0010869Y-0015139D01*
X0010814Y-0015028D01*
X0010703D01*
X0010647Y-0015139D01*
Y-0015472D01*
X0010169D02*
Y-0015139D01*
X0010392Y-0015472D02*
Y-0015139D01*
X0010336Y-0015028D01*
X0010225D01*
X0010169Y-0015139D01*
X0010114Y-0015028D01*
X0010003D01*
X0009947Y-0015139D01*
Y-0015472D01*
X0008464D02*
X0008353Y-0015361D01*
X0008297Y-0015250D01*
Y-0015028D01*
X0008353Y-0014917D01*
X0008464Y-0014806D01*
X0008575D01*
X0008686Y-0014917D01*
X0008742Y-0015028D01*
Y-0015250D01*
X0008686Y-0015361D01*
X0008575Y-0015472D01*
X0008464D01*
X0007597Y-0015361D02*
X0007653Y-0015472D01*
X0007986D01*
X0008042Y-0015361D01*
Y-0015139D01*
X0007930Y-0015028D01*
X0007597D01*
Y-0014806D01*
X0008042D01*
X0006897Y-0015361D02*
X0007008Y-0015472D01*
X0007230D01*
X0007342Y-0015361D01*
Y-0015250D01*
X0007119Y-0015028D01*
X0007342Y-0014806D01*
X0006897D01*
X0006531Y-0015472D02*
X0006642D01*
Y-0015361D01*
X0006531D01*
Y-0015472D01*
X0006164D02*
X0005942D01*
X0006053D02*
Y-0014806D01*
X0005942Y-0014917D01*
X0024708Y-0013972D02*
X0024264D01*
X0024708Y-0013528D01*
Y-0013417D01*
X0024653Y-0013306D01*
X0024319D01*
X0024264Y-0013417D01*
X0010869Y-0013972D02*
Y-0013639D01*
X0011092Y-0013972D02*
Y-0013639D01*
X0011036Y-0013528D01*
X0010925D01*
X0010869Y-0013639D01*
X0010814Y-0013528D01*
X0010703D01*
X0010647Y-0013639D01*
Y-0013972D01*
X0010169D02*
Y-0013639D01*
X0010392Y-0013972D02*
Y-0013639D01*
X0010336Y-0013528D01*
X0010225D01*
X0010169Y-0013639D01*
X0010114Y-0013528D01*
X0010003D01*
X0009947Y-0013639D01*
Y-0013972D01*
X0008464D02*
X0008353Y-0013861D01*
X0008297Y-0013750D01*
Y-0013528D01*
X0008353Y-0013417D01*
X0008464Y-0013306D01*
X0008575D01*
X0008686Y-0013417D01*
X0008742Y-0013528D01*
Y-0013750D01*
X0008686Y-0013861D01*
X0008575Y-0013972D01*
X0008464D01*
X0007764D02*
X0007653Y-0013861D01*
X0007597Y-0013750D01*
Y-0013528D01*
X0007653Y-0013417D01*
X0007764Y-0013306D01*
X0007875D01*
X0007986Y-0013417D01*
X0008042Y-0013528D01*
Y-0013750D01*
X0007986Y-0013861D01*
X0007875Y-0013972D01*
X0007764D01*
X0007342D02*
X0007119D01*
X0007230D02*
Y-0013306D01*
X0007119Y-0013417D01*
X0006642Y-0013972D02*
X0006753D01*
Y-0013861D01*
X0006642D01*
Y-0013972D01*
X0006275D02*
X0006053D01*
X0006164D02*
Y-0013306D01*
X0006053Y-0013417D01*
X0024708Y-0012250D02*
X0024264D01*
X0024486Y-0011806D01*
X0024597D01*
Y-0012472D01*
X0010869D02*
Y-0012139D01*
X0011092Y-0012472D02*
Y-0012139D01*
X0011036Y-0012028D01*
X0010925D01*
X0010869Y-0012139D01*
X0010814Y-0012028D01*
X0010703D01*
X0010647Y-0012139D01*
Y-0012472D01*
X0010169D02*
Y-0012139D01*
X0010392Y-0012472D02*
Y-0012139D01*
X0010336Y-0012028D01*
X0010225D01*
X0010169Y-0012139D01*
X0010114Y-0012028D01*
X0010003D01*
X0009947Y-0012139D01*
Y-0012472D01*
X0008408D02*
X0008742Y-0011806D01*
X0008297D01*
X0007653Y-0012139D02*
X0007986D01*
X0008042Y-0012250D01*
Y-0012361D01*
X0007986Y-0012472D01*
X0007653D01*
X0007597Y-0012361D01*
Y-0012250D01*
X0007819Y-0011806D01*
X0007064Y-0012472D02*
X0006953Y-0012361D01*
X0006897Y-0012250D01*
Y-0012028D01*
X0006953Y-0011917D01*
X0007064Y-0011806D01*
X0007175D01*
X0007286Y-0011917D01*
X0007342Y-0012028D01*
Y-0012250D01*
X0007286Y-0012361D01*
X0007175Y-0012472D01*
X0007064D01*
X0006531D02*
X0006642D01*
Y-0012361D01*
X0006531D01*
Y-0012472D01*
X0006164D02*
X0005942D01*
X0006053D02*
Y-0011806D01*
X0005942Y-0011917D01*
X0024319Y-0010639D02*
X0024653D01*
X0024708Y-0010750D01*
Y-0010861D01*
X0024653Y-0010972D01*
X0024319D01*
X0024264Y-0010861D01*
Y-0010750D01*
X0024486Y-0010306D01*
X0010869Y-0010972D02*
Y-0010639D01*
X0011092Y-0010972D02*
Y-0010639D01*
X0011036Y-0010528D01*
X0010925D01*
X0010869Y-0010639D01*
X0010814Y-0010528D01*
X0010703D01*
X0010647Y-0010639D01*
Y-0010972D01*
X0010169D02*
Y-0010639D01*
X0010392Y-0010972D02*
Y-0010639D01*
X0010336Y-0010528D01*
X0010225D01*
X0010169Y-0010639D01*
X0010114Y-0010528D01*
X0010003D01*
X0009947Y-0010639D01*
Y-0010972D01*
X0008686Y-0010639D02*
X0008353D01*
X0008297Y-0010528D01*
Y-0010417D01*
X0008353Y-0010306D01*
X0008686D01*
X0008742Y-0010417D01*
Y-0010528D01*
X0008519Y-0010972D01*
X0007597Y-0010861D02*
X0007653Y-0010972D01*
X0007986D01*
X0008042Y-0010861D01*
Y-0010639D01*
X0007930Y-0010528D01*
X0007597D01*
Y-0010306D01*
X0008042D01*
X0007064Y-0010972D02*
X0006953Y-0010861D01*
X0006897Y-0010750D01*
Y-0010528D01*
X0006953Y-0010417D01*
X0007064Y-0010306D01*
X0007175D01*
X0007286Y-0010417D01*
X0007342Y-0010528D01*
Y-0010750D01*
X0007286Y-0010861D01*
X0007175Y-0010972D01*
X0007064D01*
X0006531D02*
X0006642D01*
Y-0010861D01*
X0006531D01*
Y-0010972D01*
X0006164D02*
X0005942D01*
X0006053D02*
Y-0010306D01*
X0005942Y-0010417D01*
X0024708Y-0009472D02*
X0024264D01*
X0024708Y-0009028D01*
Y-0008917D01*
X0024653Y-0008806D01*
X0024319D01*
X0024264Y-0008917D01*
X0010869Y-0009472D02*
Y-0009139D01*
X0011092Y-0009472D02*
Y-0009139D01*
X0011036Y-0009028D01*
X0010925D01*
X0010869Y-0009139D01*
X0010814Y-0009028D01*
X0010703D01*
X0010647Y-0009139D01*
Y-0009472D01*
X0010169D02*
Y-0009139D01*
X0010392Y-0009472D02*
Y-0009139D01*
X0010336Y-0009028D01*
X0010225D01*
X0010169Y-0009139D01*
X0010114Y-0009028D01*
X0010003D01*
X0009947Y-0009139D01*
Y-0009472D01*
X0008464D02*
X0008353Y-0009361D01*
X0008297Y-0009250D01*
Y-0009028D01*
X0008353Y-0008917D01*
X0008464Y-0008806D01*
X0008575D01*
X0008686Y-0008917D01*
X0008742Y-0009028D01*
Y-0009250D01*
X0008686Y-0009361D01*
X0008575Y-0009472D01*
X0008464D01*
X0007764D02*
X0007653Y-0009361D01*
X0007597Y-0009250D01*
Y-0009028D01*
X0007653Y-0008917D01*
X0007764Y-0008806D01*
X0007875D01*
X0007986Y-0008917D01*
X0008042Y-0009028D01*
Y-0009250D01*
X0007986Y-0009361D01*
X0007875Y-0009472D01*
X0007764D01*
X0007064D02*
X0006953Y-0009361D01*
X0006897Y-0009250D01*
Y-0009028D01*
X0006953Y-0008917D01*
X0007064Y-0008806D01*
X0007175D01*
X0007286Y-0008917D01*
X0007342Y-0009028D01*
Y-0009250D01*
X0007286Y-0009361D01*
X0007175Y-0009472D01*
X0007064D01*
X0006531D02*
X0006642D01*
Y-0009361D01*
X0006531D01*
Y-0009472D01*
X0006164D02*
X0005942D01*
X0006053D02*
Y-0008806D01*
X0005942Y-0008917D01*
X0024430Y-0007972D02*
X0024319Y-0007861D01*
X0024264Y-0007750D01*
Y-0007528D01*
X0024319Y-0007417D01*
X0024430Y-0007306D01*
X0024542D01*
X0024653Y-0007417D01*
X0024708Y-0007528D01*
Y-0007750D01*
X0024653Y-0007861D01*
X0024542Y-0007972D01*
X0024430D01*
X0023675D02*
X0024008Y-0007306D01*
X0023564D01*
X0010869Y-0007972D02*
Y-0007639D01*
X0011092Y-0007972D02*
Y-0007639D01*
X0011036Y-0007528D01*
X0010925D01*
X0010869Y-0007639D01*
X0010814Y-0007528D01*
X0010703D01*
X0010647Y-0007639D01*
Y-0007972D01*
X0010169D02*
Y-0007639D01*
X0010392Y-0007972D02*
Y-0007639D01*
X0010336Y-0007528D01*
X0010225D01*
X0010169Y-0007639D01*
X0010114Y-0007528D01*
X0010003D01*
X0009947Y-0007639D01*
Y-0007972D01*
X0008464D02*
X0008353Y-0007861D01*
X0008297Y-0007750D01*
Y-0007528D01*
X0008353Y-0007417D01*
X0008464Y-0007306D01*
X0008575D01*
X0008686Y-0007417D01*
X0008742Y-0007528D01*
Y-0007750D01*
X0008686Y-0007861D01*
X0008575Y-0007972D01*
X0008464D01*
X0008042Y-0007750D02*
X0007597D01*
X0007819Y-0007306D01*
X0007930D01*
Y-0007972D01*
X0007286Y-0007639D02*
X0006953D01*
X0006897Y-0007528D01*
Y-0007417D01*
X0006953Y-0007306D01*
X0007286D01*
X0007342Y-0007417D01*
Y-0007528D01*
X0007119Y-0007972D01*
X0006531D02*
X0006642D01*
Y-0007861D01*
X0006531D01*
Y-0007972D01*
X0005886D02*
X0005775Y-0007861D01*
X0005719Y-0007750D01*
Y-0007528D01*
X0005775Y-0007417D01*
X0005886Y-0007306D01*
X0005997D01*
X0006108Y-0007417D01*
X0006164Y-0007528D01*
Y-0007750D01*
X0006108Y-0007861D01*
X0005997Y-0007972D01*
X0005886D01*
X0024653Y-0006139D02*
X0024708Y-0006028D01*
Y-0005917D01*
X0024653Y-0005806D01*
X0024319D01*
X0024264Y-0005917D01*
Y-0006028D01*
X0024319Y-0006139D01*
X0024653D01*
X0024708Y-0006250D01*
Y-0006361D01*
X0024653Y-0006472D01*
X0024319D01*
X0024264Y-0006361D01*
Y-0006250D01*
X0024319Y-0006139D01*
X0010869Y-0006472D02*
Y-0006139D01*
X0011092Y-0006472D02*
Y-0006139D01*
X0011036Y-0006028D01*
X0010925D01*
X0010869Y-0006139D01*
X0010814Y-0006028D01*
X0010703D01*
X0010647Y-0006139D01*
Y-0006472D01*
X0010169D02*
Y-0006139D01*
X0010392Y-0006472D02*
Y-0006139D01*
X0010336Y-0006028D01*
X0010225D01*
X0010169Y-0006139D01*
X0010114Y-0006028D01*
X0010003D01*
X0009947Y-0006139D01*
Y-0006472D01*
X0008742Y-0006250D02*
X0008297D01*
X0008519Y-0005806D01*
X0008630D01*
Y-0006472D01*
X0007653Y-0006139D02*
X0007986D01*
X0008042Y-0006250D01*
Y-0006361D01*
X0007986Y-0006472D01*
X0007653D01*
X0007597Y-0006361D01*
Y-0006250D01*
X0007819Y-0005806D01*
X0007286Y-0006139D02*
X0007342Y-0006028D01*
Y-0005917D01*
X0007286Y-0005806D01*
X0006953D01*
X0006897Y-0005917D01*
Y-0006028D01*
X0006953Y-0006139D01*
X0007286D01*
X0007342Y-0006250D01*
Y-0006361D01*
X0007286Y-0006472D01*
X0006953D01*
X0006897Y-0006361D01*
Y-0006250D01*
X0006953Y-0006139D01*
X0006531Y-0006472D02*
X0006642D01*
Y-0006361D01*
X0006531D01*
Y-0006472D01*
X0005886D02*
X0005775Y-0006361D01*
X0005719Y-0006250D01*
Y-0006028D01*
X0005775Y-0005917D01*
X0005886Y-0005806D01*
X0005997D01*
X0006108Y-0005917D01*
X0006164Y-0006028D01*
Y-0006250D01*
X0006108Y-0006361D01*
X0005997Y-0006472D01*
X0005886D01*
X0024708Y-0004972D02*
X0024486D01*
X0024597D02*
Y-0004306D01*
X0024486Y-0004417D01*
X0023842Y-0004972D02*
X0023730Y-0004861D01*
X0023675Y-0004750D01*
Y-0004528D01*
X0023730Y-0004417D01*
X0023842Y-0004306D01*
X0023953D01*
X0024064Y-0004417D01*
X0024119Y-0004528D01*
Y-0004750D01*
X0024064Y-0004861D01*
X0023953Y-0004972D01*
X0023842D01*
X0022975Y-0004861D02*
X0023086Y-0004972D01*
X0023308D01*
X0023419Y-0004861D01*
Y-0004750D01*
X0023197Y-0004528D01*
X0023419Y-0004306D01*
X0022975D01*
X0010869Y-0004972D02*
Y-0004639D01*
X0011092Y-0004972D02*
Y-0004639D01*
X0011036Y-0004528D01*
X0010925D01*
X0010869Y-0004639D01*
X0010814Y-0004528D01*
X0010703D01*
X0010647Y-0004639D01*
Y-0004972D01*
X0010169D02*
Y-0004639D01*
X0010392Y-0004972D02*
Y-0004639D01*
X0010336Y-0004528D01*
X0010225D01*
X0010169Y-0004639D01*
X0010114Y-0004528D01*
X0010003D01*
X0009947Y-0004639D01*
Y-0004972D01*
X0008464D02*
X0008353Y-0004861D01*
X0008297Y-0004750D01*
Y-0004528D01*
X0008353Y-0004417D01*
X0008464Y-0004306D01*
X0008575D01*
X0008686Y-0004417D01*
X0008742Y-0004528D01*
Y-0004750D01*
X0008686Y-0004861D01*
X0008575Y-0004972D01*
X0008464D01*
X0007764D02*
X0007653Y-0004861D01*
X0007597Y-0004750D01*
Y-0004528D01*
X0007653Y-0004417D01*
X0007764Y-0004306D01*
X0007875D01*
X0007986Y-0004417D01*
X0008042Y-0004528D01*
Y-0004750D01*
X0007986Y-0004861D01*
X0007875Y-0004972D01*
X0007764D01*
X0006897Y-0004861D02*
X0007008Y-0004972D01*
X0007230D01*
X0007342Y-0004861D01*
Y-0004750D01*
X0007119Y-0004528D01*
X0007342Y-0004306D01*
X0006897D01*
X0006531Y-0004972D02*
X0006642D01*
Y-0004861D01*
X0006531D01*
Y-0004972D01*
X0005886D02*
X0005775Y-0004861D01*
X0005719Y-0004750D01*
Y-0004528D01*
X0005775Y-0004417D01*
X0005886Y-0004306D01*
X0005997D01*
X0006108Y-0004417D01*
X0006164Y-0004528D01*
Y-0004750D01*
X0006108Y-0004861D01*
X0005997Y-0004972D01*
X0005886D01*
X0033112Y-0002833D02*
X0032612D01*
X0033279Y-0003333D02*
X0032612D01*
Y-0002333D01*
X0033279D01*
X0031996Y-0003333D02*
Y-0002333D01*
X0032329D02*
X0031662D01*
X0030796Y-0003333D02*
X0030712Y-0003167D01*
Y-0002500D01*
X0030796Y-0002333D01*
X0031296D01*
X0031379Y-0002500D01*
Y-0003167D01*
X0031296Y-0003333D01*
X0030796D01*
X0030429Y-0002333D02*
Y-0003333D01*
X0030262Y-0003167D01*
X0029929Y-0002500D01*
X0029762Y-0002333D01*
Y-0003333D01*
X0023925D02*
Y-0002833D01*
X0024258Y-0002333D02*
X0024008Y-0002833D01*
X0023842D01*
X0023592Y-0002333D01*
X0022975Y-0003333D02*
Y-0002333D01*
X0023308D02*
X0022642D01*
X0022025Y-0003000D02*
X0022358Y-0003333D01*
X0021692Y-0003167D02*
X0021775Y-0003333D01*
X0022108D01*
X0022192Y-0003167D01*
X0022358Y-0003000D01*
Y-0002500D01*
X0022275Y-0002333D01*
X0021775D01*
X0021692Y-0002500D01*
Y-0003167D01*
X0017408Y-0003333D02*
X0016825D01*
Y-0002333D01*
X0015958Y-0003333D02*
X0015875Y-0003167D01*
Y-0002500D01*
X0015958Y-0002333D01*
X0016458D01*
X0016542Y-0002500D01*
Y-0003167D01*
X0016458Y-0003333D01*
X0015958D01*
X0015258D02*
Y-0002333D01*
X0015592D02*
X0014925D01*
X0009587Y-0003333D02*
Y-0002333D01*
X0009421Y-0002500D01*
X0009254Y-0002833D01*
X0009087Y-0002500D01*
X0008921Y-0002333D01*
Y-0003333D01*
X0008637Y-0003000D02*
X0007971D01*
X0008637Y-0003333D02*
Y-0002833D01*
X0008387Y-0002333D01*
X0008221D01*
X0007971Y-0002833D01*
Y-0003333D01*
X0007687D02*
X0007354D01*
X0007521D02*
Y-0002333D01*
X0007687D02*
X0007354D01*
X0006321Y-0003333D02*
Y-0002333D01*
X0006237Y-0003333D02*
X0006737D01*
X0006904Y-0003000D01*
Y-0002667D01*
X0006737Y-0002333D01*
X0006237D01*
X0003150Y-0003333D02*
Y-0002333D01*
X0002983Y-0002500D01*
X0002817Y-0002833D01*
X0002650Y-0002500D01*
X0002483Y-0002333D01*
Y-0003333D01*
X0001867D02*
Y-0002833D01*
X0002200Y-0002333D02*
X0001950Y-0002833D01*
X0001783D01*
X0001533Y-0002333D01*
X0001250Y-0002500D02*
X0001167Y-0002333D01*
X0000667D01*
X0000583Y-0002500D01*
Y-0002667D01*
X0000667Y-0002833D01*
X0001167D01*
X0001250Y-0003000D01*
Y-0003167D01*
X0001167Y-0003333D01*
X0000667D01*
X0000583Y-0003167D01*
X0023437Y-0001333D02*
Y-0000333D01*
X0023771D02*
X0023104D01*
X0022571Y-0000833D02*
X0022821Y-0001333D01*
X0022154Y-0000833D02*
X0022654D01*
X0022821Y-0000667D01*
Y-0000500D01*
X0022654Y-0000333D01*
X0022154D01*
Y-0001333D01*
X0021871Y-0001000D02*
X0021204D01*
X0021871Y-0001333D02*
Y-0000833D01*
X0021621Y-0000333D01*
X0021454D01*
X0021204Y-0000833D01*
Y-0001333D01*
X0020921Y-0000833D02*
X0020254D01*
X0020921Y-0001333D02*
Y-0000333D01*
X0020254Y-0001333D02*
Y-0000333D01*
X0019971Y-0001167D02*
X0019887Y-0001333D01*
X0019387D01*
X0019304Y-0001167D01*
Y-0000500D01*
X0019387Y-0000333D01*
X0019887D01*
X0019971Y-0000500D01*
X0017696Y-0001333D02*
X0017112D01*
Y-0000333D01*
X0016829Y-0001333D02*
X0016246D01*
Y-0000333D01*
X0015962Y-0001333D02*
X0015629D01*
X0015796D02*
Y-0000333D01*
X0015962D02*
X0015629D01*
X0014929Y-0000833D02*
X0015179Y-0001333D01*
X0014512Y-0000833D02*
X0015012D01*
X0015179Y-0000667D01*
Y-0000500D01*
X0015012Y-0000333D01*
X0014512D01*
Y-0001333D01*
X0013646D02*
Y-0000333D01*
X0013562Y-0001333D02*
X0014062D01*
X0014229Y-0001000D01*
Y-0000667D01*
X0014062Y-0000333D01*
X0013562D01*
X0019674Y0076068D02*
X0019424Y0075818D01*
X0019924D02*
X0019674Y0076068D01*
X0019424Y0075818D02*
X0019924D01*
X0029945Y0067666D02*
X0029695Y0067416D01*
X0030195D02*
X0029945Y0067666D01*
X0029695Y0067416D02*
X0030195D01*
X0030749Y0068471D02*
X0030499Y0068221D01*
X0030999D02*
X0030749Y0068471D01*
X0030499Y0068221D02*
X0030999D01*
X0025258Y0080007D02*
X0025008Y0079757D01*
X0025508D02*
X0025258Y0080007D01*
X0025008Y0079757D02*
X0025508D01*
X0001575Y-0016650D02*
Y-0016850D01*
X0001825Y-0016900D02*
X0001575Y-0016650D01*
X0002075D02*
X0001825Y-0016900D01*
X0002075Y-0016850D02*
Y-0016650D01*
X0001825Y-0016600D02*
X0002075Y-0016850D01*
X0001575D02*
X0001825Y-0016600D01*
X0001575Y-0015000D02*
Y-0015250D01*
X0001825Y-0015000D02*
X0001575D01*
X0001825Y-0015500D02*
Y-0015000D01*
X0002075Y-0015500D02*
X0001825D01*
X0002075Y-0015250D02*
Y-0015500D01*
X0001575Y-0015250D02*
X0002075D01*
X0001825Y-0013500D02*
X0001575Y-0013750D01*
X0002075D02*
X0001825Y-0013500D01*
Y-0014000D02*
X0002075Y-0013750D01*
X0001575D02*
X0001825Y-0014000D01*
X0001575Y-0012000D02*
Y-0012500D01*
X0002075Y-0012000D02*
X0001575D01*
X0002075Y-0012500D02*
Y-0012000D01*
X0001575Y-0012500D02*
X0002075D01*
Y-0012000D02*
X0001575Y-0012500D01*
X0002075D02*
X0001575Y-0012000D01*
Y-0010500D02*
Y-0011000D01*
X0002075Y-0010500D02*
X0001575D01*
X0002075Y-0011000D02*
Y-0010500D01*
X0001575Y-0011000D02*
X0002075D01*
Y-0010750D02*
X0001575D01*
X0001825Y-0010500D02*
Y-0011000D01*
X0001575Y-0009150D02*
Y-0009350D01*
X0001725Y-0009000D02*
X0001575Y-0009150D01*
X0001925Y-0009000D02*
X0001725D01*
X0002075Y-0009150D02*
X0001925Y-0009000D01*
X0002075Y-0009350D02*
Y-0009150D01*
X0001925Y-0009500D02*
X0002075Y-0009350D01*
X0001725Y-0009500D02*
X0001925D01*
X0001575Y-0009350D02*
X0001725Y-0009500D01*
X0002075Y-0007500D02*
X0001575Y-0008000D01*
X0002075D02*
X0001575Y-0007500D01*
X0002075Y-0006250D02*
X0001575D01*
X0001825Y-0006000D02*
Y-0006500D01*
Y-0004600D02*
X0001575Y-0004850D01*
X0002075D02*
X0001825Y-0004600D01*
X0001575Y-0004850D02*
X0002075D01*
X0037300Y-0019550D02*
X-0000050D01*
X0037250Y-0019500D02*
X0000000D01*
X0037250Y-0017500D02*
X0000000D01*
X0037250Y-0016000D02*
X0000000D01*
X0037250Y-0014500D02*
X0000000D01*
X0037250Y-0013000D02*
X0000000D01*
X0037250Y-0011500D02*
X0000000D01*
X0037250Y-0010000D02*
X0000000D01*
X0037250Y-0008500D02*
X0000000D01*
X0037250Y-0007000D02*
X0000000D01*
X0037250Y-0005500D02*
X0000000D01*
X0037250Y-0004000D02*
X0000000D01*
X0037250Y-0003950D02*
X0000000D01*
X0037250Y-0002000D02*
X0000000D01*
X0037250Y-0001950D02*
X0000000D01*
X0037250Y0000000D02*
X0000000D01*
X0037300Y0000050D02*
X-0000050D01*
X0037300Y-0019500D02*
Y0000000D01*
X0037250Y-0019500D02*
Y0000000D01*
X0025708Y-0019500D02*
Y-0002000D01*
X0020158Y-0019500D02*
Y-0002000D01*
X0012092Y-0017500D02*
Y-0002000D01*
X0003700Y-0017500D02*
Y-0002000D01*
X0003650Y-0017500D02*
Y-0002000D01*
X-0000050Y-0019500D02*
Y0000000D01*
X0000000Y-0019500D02*
Y0000000D01*
X0033173Y0058478D02*
X0032923Y0058228D01*
X0033423D02*
X0033173Y0058478D01*
X0032923Y0058228D02*
X0033423D01*
X0034604Y0065743D02*
X0034354Y0065493D01*
X0034854D02*
X0034604Y0065743D01*
X0034354Y0065493D02*
X0034854D01*
X0034304Y0062078D02*
X0034054Y0061828D01*
X0034554D02*
X0034304Y0062078D01*
X0034054Y0061828D02*
X0034554D01*
X0016647Y0066121D02*
X0016397Y0065871D01*
X0016897D02*
X0016647Y0066121D01*
X0016397Y0065871D02*
X0016897D01*
X0015175Y0067130D02*
X0014925Y0066880D01*
X0015425D02*
X0015175Y0067130D01*
X0014925Y0066880D02*
X0015425D01*
X0014436Y0067149D02*
X0014186Y0066899D01*
X0014686D02*
X0014436Y0067149D01*
X0014186Y0066899D02*
X0014686D01*
X0024198Y0068271D02*
X0023948Y0068021D01*
X0024448D02*
X0024198Y0068271D01*
X0023948Y0068021D02*
X0024448D01*
X0008678Y0071321D02*
X0008428Y0071071D01*
X0008928D02*
X0008678Y0071321D01*
X0008428Y0071071D02*
X0008928D01*
X0007957Y0072269D02*
X0007707Y0072019D01*
X0008207D02*
X0007957Y0072269D01*
X0007707Y0072019D02*
X0008207D01*
X0029233Y0073127D02*
X0028983Y0072877D01*
X0029483D02*
X0029233Y0073127D01*
X0028983Y0072877D02*
X0029483D01*
X0029669Y0073928D02*
X0029419Y0073678D01*
X0029919D02*
X0029669Y0073928D01*
X0029419Y0073678D02*
X0029919D01*
X0022928Y0079060D02*
X0022678Y0078810D01*
X0023178D02*
X0022928Y0079060D01*
X0022678Y0078810D02*
X0023178D01*
X0023073Y0079557D02*
X0022823Y0079307D01*
X0023323D02*
X0023073Y0079557D01*
X0022823Y0079307D02*
X0023323D01*
X0011844Y0071828D02*
X0011594Y0071578D01*
X0012094D02*
X0011844Y0071828D01*
X0011594Y0071578D02*
X0012094D01*
X0013910Y0072181D02*
X0013660Y0071931D01*
X0014160D02*
X0013910Y0072181D01*
X0013660Y0071931D02*
X0014160D01*
X0010512Y0070246D02*
X0010262Y0069996D01*
X0010762D02*
X0010512Y0070246D01*
X0010262Y0069996D02*
X0010762D01*
X0010586Y0069556D02*
X0010336Y0069306D01*
X0010836D02*
X0010586Y0069556D01*
X0010336Y0069306D02*
X0010836D01*
X0008293Y0061530D02*
X0008043Y0061280D01*
X0008543D02*
X0008293Y0061530D01*
X0008043Y0061280D02*
X0008543D01*
X0028559Y0070785D02*
X0028309Y0070535D01*
X0028809D02*
X0028559Y0070785D01*
X0028309Y0070535D02*
X0028809D01*
X0032919Y0073064D02*
X0032669Y0072814D01*
X0033169D02*
X0032919Y0073064D01*
X0032669Y0072814D02*
X0033169D01*
X0033274Y0072512D02*
X0033024Y0072262D01*
X0033524D02*
X0033274Y0072512D01*
X0033024Y0072262D02*
X0033524D01*
X0013021Y0068202D02*
X0012771Y0067952D01*
X0013271D02*
X0013021Y0068202D01*
X0012771Y0067952D02*
X0013271D01*
X0012672Y0076479D02*
X0012422Y0076229D01*
X0012922D02*
X0012672Y0076479D01*
X0012422Y0076229D02*
X0012922D01*
X0011529Y0076490D02*
X0011279Y0076240D01*
X0011779D02*
X0011529Y0076490D01*
X0011279Y0076240D02*
X0011779D01*
X0010601Y0077636D02*
X0010351Y0077386D01*
X0010851D02*
X0010601Y0077636D01*
X0010351Y0077386D02*
X0010851D01*
X0028541Y0072201D02*
X0028291Y0071951D01*
X0028791D02*
X0028541Y0072201D01*
X0028291Y0071951D02*
X0028791D01*
X0022926Y0078742D02*
X0022676Y0078492D01*
X0023176D02*
X0022926Y0078742D01*
X0022676Y0078492D02*
X0023176D01*
X0022925Y0078361D02*
X0022675Y0078111D01*
X0023175D02*
X0022925Y0078361D01*
X0022675Y0078111D02*
X0023175D01*
X0024587Y0082608D02*
X0024337Y0082358D01*
X0024837D02*
X0024587Y0082608D01*
X0024337Y0082358D02*
X0024837D01*
X0023857Y0082430D02*
X0023607Y0082180D01*
X0024107D02*
X0023857Y0082430D01*
X0023607Y0082180D02*
X0024107D01*
X0031724Y0056357D02*
X0031474Y0056107D01*
X0031974D02*
X0031724Y0056357D01*
X0031474Y0056107D02*
X0031974D01*
X0027573Y0056359D02*
X0027323Y0056109D01*
X0027823D02*
X0027573Y0056359D01*
X0027323Y0056109D02*
X0027823D01*
X0028094Y0058564D02*
X0027844Y0058314D01*
X0028344D02*
X0028094Y0058564D01*
X0027844Y0058314D02*
X0028344D01*
X0030356Y0066140D02*
X0030106Y0065890D01*
X0030606D02*
X0030356Y0066140D01*
X0030106Y0065890D02*
X0030606D01*
X0012309Y0066712D02*
X0012059Y0066462D01*
X0012559D02*
X0012309Y0066712D01*
X0012059Y0066462D02*
X0012559D01*
X0022763Y0066781D02*
X0022513Y0066531D01*
X0023013D02*
X0022763Y0066781D01*
X0022513Y0066531D02*
X0023013D01*
X0009203Y0081889D02*
X0008953Y0081639D01*
X0009453D02*
X0009203Y0081889D01*
X0008953Y0081639D02*
X0009453D01*
X0009512Y0081669D02*
X0009262Y0081419D01*
X0009762D02*
X0009512Y0081669D01*
X0009262Y0081419D02*
X0009762D01*
X0010881Y0083205D02*
X0010631Y0082955D01*
X0011131D02*
X0010881Y0083205D01*
X0010631Y0082955D02*
X0011131D01*
X0010877Y0085308D02*
X0010627Y0085058D01*
X0011127D02*
X0010877Y0085308D01*
X0010627Y0085058D02*
X0011127D01*
X0009151Y0060634D02*
X0008901Y0060384D01*
X0009401D02*
X0009151Y0060634D01*
X0008901Y0060384D02*
X0009401D01*
X0009582Y0061099D02*
X0009332Y0060849D01*
X0009832D02*
X0009582Y0061099D01*
X0009332Y0060849D02*
X0009832D01*
X0031372Y0076042D02*
X0031122Y0075792D01*
X0031622D02*
X0031372Y0076042D01*
X0031122Y0075792D02*
X0031622D01*
X0012464Y0063941D02*
X0012214Y0063691D01*
X0012714D02*
X0012464Y0063941D01*
X0012214Y0063691D02*
X0012714D01*
X0010518Y0056207D02*
X0010268Y0055957D01*
X0010768D02*
X0010518Y0056207D01*
X0010268Y0055957D02*
X0010768D01*
X0010518Y0056729D02*
X0010268Y0056479D01*
X0010768D02*
X0010518Y0056729D01*
X0010268Y0056479D02*
X0010768D01*
X0010520Y0057435D02*
X0010270Y0057185D01*
X0010770D02*
X0010520Y0057435D01*
X0010270Y0057185D02*
X0010770D01*
X0036553Y0076961D02*
X0036303Y0076711D01*
X0036803D02*
X0036553Y0076961D01*
X0036303Y0076711D02*
X0036803D01*
X0036215Y0076961D02*
X0035965Y0076711D01*
X0036465D02*
X0036215Y0076961D01*
X0035965Y0076711D02*
X0036465D01*
X0035885Y0076975D02*
X0035635Y0076725D01*
X0036135D02*
X0035885Y0076975D01*
X0035635Y0076725D02*
X0036135D01*
X0015305Y0075032D02*
X0015055Y0074782D01*
X0015555D02*
X0015305Y0075032D01*
X0015055Y0074782D02*
X0015555D01*
X0014774Y0073323D02*
X0014524Y0073073D01*
X0015024D02*
X0014774Y0073323D01*
X0014524Y0073073D02*
X0015024D01*
X0014666Y0074389D02*
X0014416Y0074139D01*
X0014916D02*
X0014666Y0074389D01*
X0014416Y0074139D02*
X0014916D01*
X0019585Y0074131D02*
X0019335Y0073881D01*
X0019835D02*
X0019585Y0074131D01*
X0019335Y0073881D02*
X0019835D01*
X0026729Y0081185D02*
X0026479Y0080935D01*
X0026979D02*
X0026729Y0081185D01*
X0026479Y0080935D02*
X0026979D01*
X0019317Y0076439D02*
X0019067Y0076189D01*
X0019567D02*
X0019317Y0076439D01*
X0019067Y0076189D02*
X0019567D01*
X0014364Y0080418D02*
X0014114Y0080168D01*
X0014614D02*
X0014364Y0080418D01*
X0014114Y0080168D02*
X0014614D01*
X0020106Y0078784D02*
X0019856Y0078534D01*
X0020356D02*
X0020106Y0078784D01*
X0019856Y0078534D02*
X0020356D01*
X0020108Y0079549D02*
X0019858Y0079299D01*
X0020358D02*
X0020108Y0079549D01*
X0019858Y0079299D02*
X0020358D01*
X0019757Y0084287D02*
X0019507Y0084037D01*
X0020007D02*
X0019757Y0084287D01*
X0019507Y0084037D02*
X0020007D01*
X0020101Y0084837D02*
X0019851Y0084587D01*
X0020351D02*
X0020101Y0084837D01*
X0019851Y0084587D02*
X0020351D01*
X0014000Y0083732D02*
X0013750Y0083482D01*
X0014250D02*
X0014000Y0083732D01*
X0013750Y0083482D02*
X0014250D01*
X0014346Y0084294D02*
X0014096Y0084044D01*
X0014596D02*
X0014346Y0084294D01*
X0014096Y0084044D02*
X0014596D01*
X0017029Y0078524D02*
X0016779Y0078274D01*
X0017279D02*
X0017029Y0078524D01*
X0016779Y0078274D02*
X0017279D01*
X0017898Y0077225D02*
X0017648Y0076975D01*
X0018148D02*
X0017898Y0077225D01*
X0017648Y0076975D02*
X0018148D01*
X0019067Y0078085D02*
X0018817Y0077835D01*
X0019317D02*
X0019067Y0078085D01*
X0018817Y0077835D02*
X0019317D01*
X0020648Y0077777D02*
X0020398Y0077527D01*
X0020898D02*
X0020648Y0077777D01*
X0020398Y0077527D02*
X0020898D01*
X0018328Y0078409D02*
X0018078Y0078159D01*
X0018578D02*
X0018328Y0078409D01*
X0018078Y0078159D02*
X0018578D01*
X0018328Y0079394D02*
X0018078Y0079144D01*
X0018578D02*
X0018328Y0079394D01*
X0018078Y0079144D02*
X0018578D01*
X0013027Y0082737D02*
X0012777Y0082487D01*
X0013277D02*
X0013027Y0082737D01*
X0012777Y0082487D02*
X0013277D01*
X0013344Y0083139D02*
X0013094Y0082889D01*
X0013594D02*
X0013344Y0083139D01*
X0013094Y0082889D02*
X0013594D01*
X0012558Y0082867D02*
X0012308Y0082617D01*
X0012808D02*
X0012558Y0082867D01*
X0012308Y0082617D02*
X0012808D01*
X0012125Y0082178D02*
X0011875Y0081928D01*
X0012375D02*
X0012125Y0082178D01*
X0011875Y0081928D02*
X0012375D01*
X0034354Y0068189D02*
X0034104Y0067939D01*
X0034604D02*
X0034354Y0068189D01*
X0034104Y0067939D02*
X0034604D01*
X0034007Y0071056D02*
X0033757Y0070806D01*
X0034257D02*
X0034007Y0071056D01*
X0033757Y0070806D02*
X0034257D01*
X0033822Y0069305D02*
X0033572Y0069055D01*
X0034072D02*
X0033822Y0069305D01*
X0033572Y0069055D02*
X0034072D01*
X0034960Y0067875D02*
X0034710Y0067625D01*
X0035210D02*
X0034960Y0067875D01*
X0034710Y0067625D02*
X0035210D01*
X0027550Y0073669D02*
X0027300Y0073419D01*
X0027800D02*
X0027550Y0073669D01*
X0027300Y0073419D02*
X0027800D01*
X0023675Y0080908D02*
X0023425Y0080658D01*
X0023925D02*
X0023675Y0080908D01*
X0023425Y0080658D02*
X0023925D01*
X0022721Y0081088D02*
X0022471Y0080838D01*
X0022971D02*
X0022721Y0081088D01*
X0022471Y0080838D02*
X0022971D01*
X0025608Y0080270D02*
X0025358Y0080020D01*
X0025858D02*
X0025608Y0080270D01*
X0025358Y0080020D02*
X0025858D01*
X0034372Y0076369D02*
X0034122Y0076119D01*
X0034622D02*
X0034372Y0076369D01*
X0034122Y0076119D02*
X0034622D01*
X0034817Y0076881D02*
X0034567Y0076631D01*
X0035067D02*
X0034817Y0076881D01*
X0034567Y0076631D02*
X0035067D01*
X0023740Y0059046D02*
X0023490Y0058796D01*
X0023990D02*
X0023740Y0059046D01*
X0023490Y0058796D02*
X0023990D01*
X0026658Y0060081D02*
X0026408Y0059831D01*
X0026908D02*
X0026658Y0060081D01*
X0026408Y0059831D02*
X0026908D01*
X0027623Y0060949D02*
X0027373Y0060699D01*
X0027873D02*
X0027623Y0060949D01*
X0027373Y0060699D02*
X0027873D01*
X0029830Y0066260D02*
X0029580Y0066010D01*
X0030080D02*
X0029830Y0066260D01*
X0029580Y0066010D02*
X0030080D01*
X0033494Y0063432D02*
X0033244Y0063182D01*
X0033744D02*
X0033494Y0063432D01*
X0033244Y0063182D02*
X0033744D01*
X0033398Y0076690D02*
X0033148Y0076440D01*
X0033648D02*
X0033398Y0076690D01*
X0033148Y0076440D02*
X0033648D01*
X0034260Y0078635D02*
X0034010Y0078385D01*
X0034510D02*
X0034260Y0078635D01*
X0034010Y0078385D02*
X0034510D01*
X0026362Y0075049D02*
X0026112Y0074799D01*
X0026612D02*
X0026362Y0075049D01*
X0026112Y0074799D02*
X0026612D01*
X0026919Y0072327D02*
X0026669Y0072077D01*
X0027169D02*
X0026919Y0072327D01*
X0026669Y0072077D02*
X0027169D01*
X0029677Y0074901D02*
X0029427Y0074651D01*
X0029927D02*
X0029677Y0074901D01*
X0029427Y0074651D02*
X0029927D01*
X0029268Y0075294D02*
X0029018Y0075044D01*
X0029518D02*
X0029268Y0075294D01*
X0029018Y0075044D02*
X0029518D01*
X0026788Y0075617D02*
X0026538Y0075367D01*
X0027038D02*
X0026788Y0075617D01*
X0026538Y0075367D02*
X0027038D01*
X0031037Y0076802D02*
X0030787Y0076552D01*
X0031287D02*
X0031037Y0076802D01*
X0030787Y0076552D02*
X0031287D01*
X0030709Y0077311D02*
X0030459Y0077061D01*
X0030959D02*
X0030709Y0077311D01*
X0030459Y0077061D02*
X0030959D01*
X0031339Y0077311D02*
X0031089Y0077061D01*
X0031589D02*
X0031339Y0077311D01*
X0031089Y0077061D02*
X0031589D01*
X0031037Y0077813D02*
X0030787Y0077563D01*
X0031287D02*
X0031037Y0077813D01*
X0030787Y0077563D02*
X0031287D01*
X0034302Y0079726D02*
X0034052Y0079476D01*
X0034552D02*
X0034302Y0079726D01*
X0034052Y0079476D02*
X0034552D01*
X0033994Y0079231D02*
X0033744Y0078981D01*
X0034244D02*
X0033994Y0079231D01*
X0033744Y0078981D02*
X0034244D01*
X0033650Y0079726D02*
X0033400Y0079476D01*
X0033900D02*
X0033650Y0079726D01*
X0033400Y0079476D02*
X0033900D01*
X0033994Y0080244D02*
X0033744Y0079994D01*
X0034244D02*
X0033994Y0080244D01*
X0033744Y0079994D02*
X0034244D01*
X0027658Y0077026D02*
X0027408Y0076776D01*
X0027908D02*
X0027658Y0077026D01*
X0027408Y0076776D02*
X0027908D01*
X0028025Y0076462D02*
X0027775Y0076212D01*
X0028275D02*
X0028025Y0076462D01*
X0027775Y0076212D02*
X0028275D01*
X0027260Y0076462D02*
X0027010Y0076212D01*
X0027510D02*
X0027260Y0076462D01*
X0027010Y0076212D02*
X0027510D01*
X0027668Y0075893D02*
X0027418Y0075643D01*
X0027918D02*
X0027668Y0075893D01*
X0027418Y0075643D02*
X0027918D01*
X0033903Y0063908D02*
X0033653Y0063658D01*
X0034153D02*
X0033903Y0063908D01*
X0033653Y0063658D02*
X0034153D01*
X0031357Y0066131D02*
X0031107Y0065881D01*
X0031607D02*
X0031357Y0066131D01*
X0031107Y0065881D02*
X0031607D01*
X0023176Y0071494D02*
X0022926Y0071244D01*
X0023426D02*
X0023176Y0071494D01*
X0022926Y0071244D02*
X0023426D01*
X0026948Y0074165D02*
X0026698Y0073915D01*
X0027198D02*
X0026948Y0074165D01*
X0026698Y0073915D02*
X0027198D01*
X0021816Y0077137D02*
X0021566Y0076887D01*
X0022066D02*
X0021816Y0077137D01*
X0021566Y0076887D02*
X0022066D01*
X0027105Y0079755D02*
X0026855Y0079505D01*
X0027355D02*
X0027105Y0079755D01*
X0026855Y0079505D02*
X0027355D01*
X0026938Y0063547D02*
X0026688Y0063297D01*
X0027188D02*
X0026938Y0063547D01*
X0026688Y0063297D02*
X0027188D01*
X0028484Y0073530D02*
X0028234Y0073280D01*
X0028734D02*
X0028484Y0073530D01*
X0028234Y0073280D02*
X0028734D01*
X0032876Y0063409D02*
X0032626Y0063159D01*
X0033126D02*
X0032876Y0063409D01*
X0032626Y0063159D02*
X0033126D01*
X0029043Y0072857D02*
X0028793Y0072607D01*
X0029293D02*
X0029043Y0072857D01*
X0028793Y0072607D02*
X0029293D01*
X0012105Y0069300D02*
X0011855Y0069050D01*
X0012355D02*
X0012105Y0069300D01*
X0011855Y0069050D02*
X0012355D01*
X0031941Y0070721D02*
X0031691Y0070471D01*
X0032191D02*
X0031941Y0070721D01*
X0031691Y0070471D02*
X0032191D01*
X0028433Y0070041D02*
X0028183Y0069791D01*
X0028683D02*
X0028433Y0070041D01*
X0028183Y0069791D02*
X0028683D01*
X0029063Y0066215D02*
X0028813Y0065965D01*
X0029313D02*
X0029063Y0066215D01*
X0028813Y0065965D02*
X0029313D01*
X0032320Y0066793D02*
X0032070Y0066543D01*
X0032570D02*
X0032320Y0066793D01*
X0032070Y0066543D02*
X0032570D01*
X0027985Y0069700D02*
X0027735Y0069450D01*
X0028235D02*
X0027985Y0069700D01*
X0027735Y0069450D02*
X0028235D01*
X0035202Y0069944D02*
X0034952Y0069694D01*
X0035452D02*
X0035202Y0069944D01*
X0034952Y0069694D02*
X0035452D01*
X0035205Y0069375D02*
X0034955Y0069125D01*
X0035455D02*
X0035205Y0069375D01*
X0034955Y0069125D02*
X0035455D01*
X0035284Y0066186D02*
X0035034Y0065936D01*
X0035534D02*
X0035284Y0066186D01*
X0035034Y0065936D02*
X0035534D01*
X0032273Y0063519D02*
X0032023Y0063269D01*
X0032523D02*
X0032273Y0063519D01*
X0032023Y0063269D02*
X0032523D01*
X0029047Y0072477D02*
X0028797Y0072227D01*
X0029297D02*
X0029047Y0072477D01*
X0028797Y0072227D02*
X0029297D01*
X0031677Y0063489D02*
X0031427Y0063239D01*
X0031927D02*
X0031677Y0063489D01*
X0031427Y0063239D02*
X0031927D01*
X0032402Y0067361D02*
X0032152Y0067111D01*
X0032652D02*
X0032402Y0067361D01*
X0032152Y0067111D02*
X0032652D01*
X0032492Y0070865D02*
X0032242Y0070615D01*
X0032742D02*
X0032492Y0070865D01*
X0032242Y0070615D02*
X0032742D01*
X0031056Y0070661D02*
X0030806Y0070411D01*
X0031306D02*
X0031056Y0070661D01*
X0030806Y0070411D02*
X0031306D01*
X0030066Y0070663D02*
X0029816Y0070413D01*
X0030316D02*
X0030066Y0070663D01*
X0029816Y0070413D02*
X0030316D01*
X0030372Y0064751D02*
X0030122Y0064501D01*
X0030622D02*
X0030372Y0064751D01*
X0030122Y0064501D02*
X0030622D01*
X0029130Y0064723D02*
X0028880Y0064473D01*
X0029380D02*
X0029130Y0064723D01*
X0028880Y0064473D02*
X0029380D01*
X0032718Y0069170D02*
X0032468Y0068920D01*
X0032968D02*
X0032718Y0069170D01*
X0032468Y0068920D02*
X0032968D01*
X0032539Y0068072D02*
X0032289Y0067822D01*
X0032789D02*
X0032539Y0068072D01*
X0032289Y0067822D02*
X0032789D01*
X0027941Y0067491D02*
X0027691Y0067241D01*
X0028191D02*
X0027941Y0067491D01*
X0027691Y0067241D02*
X0028191D01*
X0028143Y0068460D02*
X0027893Y0068210D01*
X0028393D02*
X0028143Y0068460D01*
X0027893Y0068210D02*
X0028393D01*
X0032239Y0069508D02*
X0031989Y0069258D01*
X0032489D02*
X0032239Y0069508D01*
X0031989Y0069258D02*
X0032489D01*
X0031842Y0067255D02*
X0031592Y0067005D01*
X0032092D02*
X0031842Y0067255D01*
X0031592Y0067005D02*
X0032092D01*
X0028342Y0066901D02*
X0028092Y0066651D01*
X0028592D02*
X0028342Y0066901D01*
X0028092Y0066651D02*
X0028592D01*
X0028863Y0069705D02*
X0028613Y0069455D01*
X0029113D02*
X0028863Y0069705D01*
X0028613Y0069455D02*
X0029113D01*
X0008863Y0059260D02*
X0008613Y0059010D01*
X0009113D02*
X0008863Y0059260D01*
X0008613Y0059010D02*
X0009113D01*
X0025982Y0065821D02*
X0025732Y0065571D01*
X0026232D02*
X0025982Y0065821D01*
X0025732Y0065571D02*
X0026232D01*
X0025724Y0065599D02*
X0025474Y0065349D01*
X0025974D02*
X0025724Y0065599D01*
X0025474Y0065349D02*
X0025974D01*
X0024705Y0063452D02*
X0024455Y0063202D01*
X0024955D02*
X0024705Y0063452D01*
X0024455Y0063202D02*
X0024955D01*
X0022628Y0062241D02*
X0022378Y0061991D01*
X0022878D02*
X0022628Y0062241D01*
X0022378Y0061991D02*
X0022878D01*
X0019327Y0075890D02*
X0019077Y0075640D01*
X0019577D02*
X0019327Y0075890D01*
X0019077Y0075640D02*
X0019577D01*
X0024461Y0071270D02*
X0024211Y0071020D01*
X0024711D02*
X0024461Y0071270D01*
X0024211Y0071020D02*
X0024711D01*
X0009893Y0072413D02*
X0009643Y0072163D01*
X0010143D02*
X0009893Y0072413D01*
X0009643Y0072163D02*
X0010143D01*
X0010235Y0072249D02*
X0009985Y0071999D01*
X0010485D02*
X0010235Y0072249D01*
X0009985Y0071999D02*
X0010485D01*
X0010009Y0074054D02*
X0009759Y0073804D01*
X0010259D02*
X0010009Y0074054D01*
X0009759Y0073804D02*
X0010259D01*
X0020193Y0076221D02*
X0019943Y0075971D01*
X0020443D02*
X0020193Y0076221D01*
X0019943Y0075971D02*
X0020443D01*
X0016932Y0066301D02*
X0016682Y0066051D01*
X0017182D02*
X0016932Y0066301D01*
X0016682Y0066051D02*
X0017182D01*
X0012464Y0066238D02*
X0012214Y0065988D01*
X0012714D02*
X0012464Y0066238D01*
X0012214Y0065988D02*
X0012714D01*
X0015138Y0066238D02*
X0014888Y0065988D01*
X0015388D02*
X0015138Y0066238D01*
X0014888Y0065988D02*
X0015388D01*
X0015833Y0066277D02*
X0015583Y0066027D01*
X0016083D02*
X0015833Y0066277D01*
X0015583Y0066027D02*
X0016083D01*
X0017658Y0064093D02*
X0017408Y0063843D01*
X0017908D02*
X0017658Y0064093D01*
X0017408Y0063843D02*
X0017908D01*
X0017765Y0063731D02*
X0017515Y0063481D01*
X0018015D02*
X0017765Y0063731D01*
X0017515Y0063481D02*
X0018015D01*
X0024253Y0066782D02*
X0024003Y0066532D01*
X0024503D02*
X0024253Y0066782D01*
X0024003Y0066532D02*
X0024503D01*
X0023964Y0067031D02*
X0023714Y0066781D01*
X0024214D02*
X0023964Y0067031D01*
X0023714Y0066781D02*
X0024214D01*
X0024178Y0067277D02*
X0023928Y0067027D01*
X0024428D02*
X0024178Y0067277D01*
X0023928Y0067027D02*
X0024428D01*
X0023923Y0067528D02*
X0023673Y0067278D01*
X0024173D02*
X0023923Y0067528D01*
X0023673Y0067278D02*
X0024173D01*
X0016534Y0067093D02*
X0016284Y0066843D01*
X0016784D02*
X0016534Y0067093D01*
X0016284Y0066843D02*
X0016784D01*
X0016219Y0067124D02*
X0015969Y0066874D01*
X0016469D02*
X0016219Y0067124D01*
X0015969Y0066874D02*
X0016469D01*
X0015865Y0067461D02*
X0015615Y0067211D01*
X0016115D02*
X0015865Y0067461D01*
X0015615Y0067211D02*
X0016115D01*
X0015897Y0067781D02*
X0015647Y0067531D01*
X0016147D02*
X0015897Y0067781D01*
X0015647Y0067531D02*
X0016147D01*
X0024138Y0067796D02*
X0023888Y0067546D01*
X0024388D02*
X0024138Y0067796D01*
X0023888Y0067546D02*
X0024388D01*
X0023875Y0068019D02*
X0023625Y0067769D01*
X0024125D02*
X0023875Y0068019D01*
X0023625Y0067769D02*
X0024125D01*
X0023879Y0068500D02*
X0023629Y0068250D01*
X0024129D02*
X0023879Y0068500D01*
X0023629Y0068250D02*
X0024129D01*
X0024079Y0068764D02*
X0023829Y0068514D01*
X0024329D02*
X0024079Y0068764D01*
X0023829Y0068514D02*
X0024329D01*
X0023848Y0068988D02*
X0023598Y0068738D01*
X0024098D02*
X0023848Y0068988D01*
X0023598Y0068738D02*
X0024098D01*
X0024007Y0069261D02*
X0023757Y0069011D01*
X0024257D02*
X0024007Y0069261D01*
X0023757Y0069011D02*
X0024257D01*
X0023765Y0069480D02*
X0023515Y0069230D01*
X0024015D02*
X0023765Y0069480D01*
X0023515Y0069230D02*
X0024015D01*
X0023941Y0069812D02*
X0023691Y0069562D01*
X0024191D02*
X0023941Y0069812D01*
X0023691Y0069562D02*
X0024191D01*
X0024088Y0070163D02*
X0023838Y0069913D01*
X0024338D02*
X0024088Y0070163D01*
X0023838Y0069913D02*
X0024338D01*
X0014697Y0066511D02*
X0014447Y0066261D01*
X0014947D02*
X0014697Y0066511D01*
X0014447Y0066261D02*
X0014947D01*
X0014543Y0066792D02*
X0014293Y0066542D01*
X0014793D02*
X0014543Y0066792D01*
X0014293Y0066542D02*
X0014793D01*
X0014039Y0066611D02*
X0013789Y0066361D01*
X0014289D02*
X0014039Y0066611D01*
X0013789Y0066361D02*
X0014289D01*
X0013860Y0066913D02*
X0013610Y0066663D01*
X0014110D02*
X0013860Y0066913D01*
X0013610Y0066663D02*
X0014110D01*
X0013471Y0066359D02*
X0013221Y0066109D01*
X0013721D02*
X0013471Y0066359D01*
X0013221Y0066109D02*
X0013721D01*
X0013306Y0066636D02*
X0013056Y0066386D01*
X0013556D02*
X0013306Y0066636D01*
X0013056Y0066386D02*
X0013556D01*
X0013106Y0066899D02*
X0012856Y0066649D01*
X0013356D02*
X0013106Y0066899D01*
X0012856Y0066649D02*
X0013356D01*
X0012728Y0067092D02*
X0012478Y0066842D01*
X0012978D02*
X0012728Y0067092D01*
X0012478Y0066842D02*
X0012978D01*
X0012337Y0067111D02*
X0012087Y0066861D01*
X0012587D02*
X0012337Y0067111D01*
X0012087Y0066861D02*
X0012587D01*
X0011380Y0072751D02*
X0011130Y0072501D01*
X0011630D02*
X0011380Y0072751D01*
X0011130Y0072501D02*
X0011630D01*
X0025674Y0065219D02*
X0025424Y0064969D01*
X0025924D02*
X0025674Y0065219D01*
X0025424Y0064969D02*
X0025924D01*
X0025429Y0064999D02*
X0025179Y0064749D01*
X0025679D02*
X0025429Y0064999D01*
X0025179Y0064749D02*
X0025679D01*
X0025085Y0065126D02*
X0024835Y0064876D01*
X0025335D02*
X0025085Y0065126D01*
X0024835Y0064876D02*
X0025335D01*
X0024756Y0064978D02*
X0024506Y0064728D01*
X0025006D02*
X0024756Y0064978D01*
X0024506Y0064728D02*
X0025006D01*
X0023169Y0065202D02*
X0022919Y0064952D01*
X0023419D02*
X0023169Y0065202D01*
X0022919Y0064952D02*
X0023419D01*
X0022790Y0065158D02*
X0022540Y0064908D01*
X0023040D02*
X0022790Y0065158D01*
X0022540Y0064908D02*
X0023040D01*
X0022420Y0065162D02*
X0022170Y0064912D01*
X0022670D02*
X0022420Y0065162D01*
X0022170Y0064912D02*
X0022670D01*
X0022229Y0064911D02*
X0021979Y0064661D01*
X0022479D02*
X0022229Y0064911D01*
X0021979Y0064661D02*
X0022479D01*
X0024970Y0076850D02*
X0024720Y0076600D01*
X0025220D02*
X0024970Y0076850D01*
X0024720Y0076600D02*
X0025220D01*
X0025804Y0076848D02*
X0025554Y0076598D01*
X0026054D02*
X0025804Y0076848D01*
X0025554Y0076598D02*
X0026054D01*
X0023870Y0076000D02*
X0023620Y0075750D01*
X0024120D02*
X0023870Y0076000D01*
X0023620Y0075750D02*
X0024120D01*
X0015802Y0063318D02*
X0015552Y0063068D01*
X0016052D02*
X0015802Y0063318D01*
X0015552Y0063068D02*
X0016052D01*
X0017820Y0074334D02*
X0017570Y0074084D01*
X0018070D02*
X0017820Y0074334D01*
X0017570Y0074084D02*
X0018070D01*
X0016970Y0074206D02*
X0016720Y0073956D01*
X0017220D02*
X0016970Y0074206D01*
X0016720Y0073956D02*
X0017220D01*
X0017496Y0058990D02*
X0017246Y0058740D01*
X0017746D02*
X0017496Y0058990D01*
X0017246Y0058740D02*
X0017746D01*
X0014383Y0070237D02*
X0014133Y0069987D01*
X0014633D02*
X0014383Y0070237D01*
X0014133Y0069987D02*
X0014633D01*
X0013821Y0069998D02*
X0013571Y0069748D01*
X0014071D02*
X0013821Y0069998D01*
X0013571Y0069748D02*
X0014071D01*
X0012800Y0070271D02*
X0012550Y0070021D01*
X0013050D02*
X0012800Y0070271D01*
X0012550Y0070021D02*
X0013050D01*
X0013257Y0070025D02*
X0013007Y0069775D01*
X0013507D02*
X0013257Y0070025D01*
X0013007Y0069775D02*
X0013507D01*
X0026269Y0079045D02*
X0026019Y0078795D01*
X0026519D02*
X0026269Y0079045D01*
X0026019Y0078795D02*
X0026519D01*
X0010968Y0059460D02*
X0010718Y0059210D01*
X0011218D02*
X0010968Y0059460D01*
X0010718Y0059210D02*
X0011218D01*
X0011620Y0059172D02*
X0011370Y0058922D01*
X0011870D02*
X0011620Y0059172D01*
X0011370Y0058922D02*
X0011870D01*
X0011864Y0064364D02*
X0011614Y0064114D01*
X0012114D02*
X0011864Y0064364D01*
X0011614Y0064114D02*
X0012114D01*
X0015120Y0066764D02*
X0014870Y0066514D01*
X0015370D02*
X0015120Y0066764D01*
X0014870Y0066514D02*
X0015370D01*
X0016024Y0066703D02*
X0015774Y0066453D01*
X0016274D02*
X0016024Y0066703D01*
X0015774Y0066453D02*
X0016274D01*
X0012078Y0066308D02*
X0011828Y0066058D01*
X0012328D02*
X0012078Y0066308D01*
X0011828Y0066058D02*
X0012328D01*
X0012096Y0061556D02*
X0011846Y0061306D01*
X0012346D02*
X0012096Y0061556D01*
X0011846Y0061306D02*
X0012346D01*
X0021103Y0055887D02*
X0020853Y0055637D01*
X0021353D02*
X0021103Y0055887D01*
X0020853Y0055637D02*
X0021353D01*
X0020473Y0055853D02*
X0020223Y0055603D01*
X0020723D02*
X0020473Y0055853D01*
X0020223Y0055603D02*
X0020723D01*
X0018583Y0055787D02*
X0018333Y0055537D01*
X0018833D02*
X0018583Y0055787D01*
X0018333Y0055537D02*
X0018833D01*
X0017009Y0055941D02*
X0016759Y0055691D01*
X0017259D02*
X0017009Y0055941D01*
X0016759Y0055691D02*
X0017259D01*
X0017354Y0063164D02*
X0017104Y0062914D01*
X0017604D02*
X0017354Y0063164D01*
X0017104Y0062914D02*
X0017604D01*
X0019540Y0062194D02*
X0019290Y0061944D01*
X0019790D02*
X0019540Y0062194D01*
X0019290Y0061944D02*
X0019790D01*
X0019498Y0062938D02*
X0019248Y0062688D01*
X0019748D02*
X0019498Y0062938D01*
X0019248Y0062688D02*
X0019748D01*
X0019584Y0063358D02*
X0019334Y0063108D01*
X0019834D02*
X0019584Y0063358D01*
X0019334Y0063108D02*
X0019834D01*
X0019528Y0060516D02*
X0019278Y0060266D01*
X0019778D02*
X0019528Y0060516D01*
X0019278Y0060266D02*
X0019778D01*
X0017638Y0060513D02*
X0017388Y0060263D01*
X0017888D02*
X0017638Y0060513D01*
X0017388Y0060263D02*
X0017888D01*
X0016234Y0070698D02*
X0015984Y0070448D01*
X0016484D02*
X0016234Y0070698D01*
X0015984Y0070448D02*
X0016484D01*
X0011830Y0071486D02*
X0011580Y0071236D01*
X0012080D02*
X0011830Y0071486D01*
X0011580Y0071236D02*
X0012080D01*
X0014538Y0070731D02*
X0014288Y0070481D01*
X0014788D02*
X0014538Y0070731D01*
X0014288Y0070481D02*
X0014788D01*
X0013180Y0070740D02*
X0012930Y0070490D01*
X0013430D02*
X0013180Y0070740D01*
X0012930Y0070490D02*
X0013430D01*
X0012652Y0072020D02*
X0012402Y0071770D01*
X0012902D02*
X0012652Y0072020D01*
X0012402Y0071770D02*
X0012902D01*
X0012822Y0072962D02*
X0012572Y0072712D01*
X0013072D02*
X0012822Y0072962D01*
X0012572Y0072712D02*
X0013072D01*
X0011994Y0073214D02*
X0011744Y0072964D01*
X0012244D02*
X0011994Y0073214D01*
X0011744Y0072964D02*
X0012244D01*
X0014002Y0074808D02*
X0013752Y0074558D01*
X0014252D02*
X0014002Y0074808D01*
X0013752Y0074558D02*
X0014252D01*
X0015672Y0071854D02*
X0015422Y0071604D01*
X0015922D02*
X0015672Y0071854D01*
X0015422Y0071604D02*
X0015922D01*
X0016616Y0073642D02*
X0016366Y0073392D01*
X0016866D02*
X0016616Y0073642D01*
X0016366Y0073392D02*
X0016866D01*
X0016920Y0072422D02*
X0016670Y0072172D01*
X0017170D02*
X0016920Y0072422D01*
X0016670Y0072172D02*
X0017170D01*
X0018528Y0071930D02*
X0018278Y0071680D01*
X0018778D02*
X0018528Y0071930D01*
X0018278Y0071680D02*
X0018778D01*
X0018518Y0075532D02*
X0018268Y0075282D01*
X0018768D02*
X0018518Y0075532D01*
X0018268Y0075282D02*
X0018768D01*
X0021677Y0077797D02*
X0021427Y0077547D01*
X0021927D02*
X0021677Y0077797D01*
X0021427Y0077547D02*
X0021927D01*
X0024882Y0077452D02*
X0024632Y0077202D01*
X0025132D02*
X0024882Y0077452D01*
X0024632Y0077202D02*
X0025132D01*
X0023990Y0071480D02*
X0023740Y0071230D01*
X0024240D02*
X0023990Y0071480D01*
X0023740Y0071230D02*
X0024240D01*
X0025530Y0073510D02*
X0025280Y0073260D01*
X0025780D02*
X0025530Y0073510D01*
X0025280Y0073260D02*
X0025780D01*
X0023530Y0063452D02*
X0023280Y0063202D01*
X0023780D02*
X0023530Y0063452D01*
X0023280Y0063202D02*
X0023780D01*
X0017346Y0071032D02*
X0017096Y0070782D01*
X0017596D02*
X0017346Y0071032D01*
X0017096Y0070782D02*
X0017596D01*
X0015951Y0070197D02*
X0015701Y0069947D01*
X0016201D02*
X0015951Y0070197D01*
X0015701Y0069947D02*
X0016201D01*
X0026269Y0077883D02*
X0026019Y0077633D01*
X0026519D02*
X0026269Y0077883D01*
X0026019Y0077633D02*
X0026519D01*
X0024154Y0078276D02*
X0023904Y0078026D01*
X0024404D02*
X0024154Y0078276D01*
X0023904Y0078026D02*
X0024404D01*
X0025844Y0079944D02*
X0025594Y0079694D01*
X0026094D02*
X0025844Y0079944D01*
X0025594Y0079694D02*
X0026094D01*
X0024100Y0079182D02*
X0023850Y0078932D01*
X0024350D02*
X0024100Y0079182D01*
X0023850Y0078932D02*
X0024350D01*
X0014965Y0070701D02*
X0014715Y0070451D01*
X0015215D02*
X0014965Y0070701D01*
X0014715Y0070451D02*
X0015215D01*
X0014834Y0071860D02*
X0014584Y0071610D01*
X0015084D02*
X0014834Y0071860D01*
X0014584Y0071610D02*
X0015084D01*
X0014248Y0059950D02*
X0013998Y0059700D01*
X0014498D02*
X0014248Y0059950D01*
X0013998Y0059700D02*
X0014498D01*
X0014080Y0060242D02*
X0013830Y0059992D01*
X0014330D02*
X0014080Y0060242D01*
X0013830Y0059992D02*
X0014330D01*
X0023886Y0079810D02*
X0023636Y0079560D01*
X0024136D02*
X0023886Y0079810D01*
X0023636Y0079560D02*
X0024136D01*
X0022843Y0079813D02*
X0022593Y0079563D01*
X0023093D02*
X0022843Y0079813D01*
X0022593Y0079563D02*
X0023093D01*
X0019610Y0070896D02*
X0019360Y0070646D01*
X0019860D02*
X0019610Y0070896D01*
X0019360Y0070646D02*
X0019860D01*
X0018606Y0070754D02*
X0018356Y0070504D01*
X0018856D02*
X0018606Y0070754D01*
X0018356Y0070504D02*
X0018856D01*
X0016304Y0058686D02*
X0016054Y0058436D01*
X0016554D02*
X0016304Y0058686D01*
X0016054Y0058436D02*
X0016554D01*
X0016450Y0058332D02*
X0016200Y0058082D01*
X0016700D02*
X0016450Y0058332D01*
X0016200Y0058082D02*
X0016700D01*
X0016667Y0058019D02*
X0016417Y0057769D01*
X0016917D02*
X0016667Y0058019D01*
X0016417Y0057769D02*
X0016917D01*
X0016966Y0057706D02*
X0016716Y0057456D01*
X0017216D02*
X0016966Y0057706D01*
X0016716Y0057456D02*
X0017216D01*
X0016008Y0063074D02*
X0015758Y0062824D01*
X0016258D02*
X0016008Y0063074D01*
X0015758Y0062824D02*
X0016258D01*
X0014492Y0056914D02*
X0014242Y0056664D01*
X0014742D02*
X0014492Y0056914D01*
X0014242Y0056664D02*
X0014742D01*
X0014802Y0056840D02*
X0014552Y0056590D01*
X0015052D02*
X0014802Y0056840D01*
X0014552Y0056590D02*
X0015052D01*
X0015119Y0056943D02*
X0014869Y0056693D01*
X0015369D02*
X0015119Y0056943D01*
X0014869Y0056693D02*
X0015369D01*
X0015432Y0056830D02*
X0015182Y0056580D01*
X0015682D02*
X0015432Y0056830D01*
X0015182Y0056580D02*
X0015682D01*
X0015748Y0056920D02*
X0015498Y0056670D01*
X0015998D02*
X0015748Y0056920D01*
X0015498Y0056670D02*
X0015998D01*
X0016062Y0056840D02*
X0015812Y0056590D01*
X0016312D02*
X0016062Y0056840D01*
X0015812Y0056590D02*
X0016312D01*
X0016380Y0056942D02*
X0016130Y0056692D01*
X0016630D02*
X0016380Y0056942D01*
X0016130Y0056692D02*
X0016630D01*
X0015334Y0064486D02*
X0015084Y0064236D01*
X0015584D02*
X0015334Y0064486D01*
X0015084Y0064236D02*
X0015584D01*
X0015148Y0064212D02*
X0014898Y0063962D01*
X0015398D02*
X0015148Y0064212D01*
X0014898Y0063962D02*
X0015398D01*
X0015045Y0063882D02*
X0014795Y0063632D01*
X0015295D02*
X0015045Y0063882D01*
X0014795Y0063632D02*
X0015295D01*
X0015279Y0063531D02*
X0015029Y0063281D01*
X0015529D02*
X0015279Y0063531D01*
X0015029Y0063281D02*
X0015529D01*
X0015458Y0063212D02*
X0015208Y0062962D01*
X0015708D02*
X0015458Y0063212D01*
X0015208Y0062962D02*
X0015708D01*
X0016020Y0062280D02*
X0015770Y0062030D01*
X0016270D02*
X0016020Y0062280D01*
X0015770Y0062030D02*
X0016270D01*
X0017176Y0062512D02*
X0016926Y0062262D01*
X0017426D02*
X0017176Y0062512D01*
X0016926Y0062262D02*
X0017426D01*
X0017032Y0062920D02*
X0016782Y0062670D01*
X0017282D02*
X0017032Y0062920D01*
X0016782Y0062670D02*
X0017282D01*
X0016976Y0063406D02*
X0016726Y0063156D01*
X0017226D02*
X0016976Y0063406D01*
X0016726Y0063156D02*
X0017226D01*
X0016956Y0063860D02*
X0016706Y0063610D01*
X0017206D02*
X0016956Y0063860D01*
X0016706Y0063610D02*
X0017206D01*
X0016956Y0064294D02*
X0016706Y0064044D01*
X0017206D02*
X0016956Y0064294D01*
X0016706Y0064044D02*
X0017206D01*
X0016952Y0064608D02*
X0016702Y0064358D01*
X0017202D02*
X0016952Y0064608D01*
X0016702Y0064358D02*
X0017202D01*
X0018552Y0059216D02*
X0018302Y0058966D01*
X0018802D02*
X0018552Y0059216D01*
X0018302Y0058966D02*
X0018802D01*
X0018560Y0062514D02*
X0018310Y0062264D01*
X0018810D02*
X0018560Y0062514D01*
X0018310Y0062264D02*
X0018810D01*
X0022680Y0071478D02*
X0022430Y0071228D01*
X0022930D02*
X0022680Y0071478D01*
X0022430Y0071228D02*
X0022930D01*
X0023619Y0071476D02*
X0023369Y0071226D01*
X0023869D02*
X0023619Y0071476D01*
X0023369Y0071226D02*
X0023869D01*
X0025210Y0071061D02*
X0024960Y0070811D01*
X0025460D02*
X0025210Y0071061D01*
X0024960Y0070811D02*
X0025460D01*
X0024709Y0071052D02*
X0024459Y0070802D01*
X0024959D02*
X0024709Y0071052D01*
X0024459Y0070802D02*
X0024959D01*
X0022732Y0070505D02*
X0022482Y0070255D01*
X0022982D02*
X0022732Y0070505D01*
X0022482Y0070255D02*
X0022982D01*
X0023467Y0070513D02*
X0023217Y0070263D01*
X0023717D02*
X0023467Y0070513D01*
X0023217Y0070263D02*
X0023717D01*
X0023234Y0070259D02*
X0022984Y0070009D01*
X0023484D02*
X0023234Y0070259D01*
X0022984Y0070009D02*
X0023484D01*
X0017654Y0061489D02*
X0017404Y0061239D01*
X0017904D02*
X0017654Y0061489D01*
X0017404Y0061239D02*
X0017904D01*
X0017953Y0061669D02*
X0017703Y0061419D01*
X0018203D02*
X0017953Y0061669D01*
X0017703Y0061419D02*
X0018203D01*
X0018268Y0061392D02*
X0018018Y0061142D01*
X0018518D02*
X0018268Y0061392D01*
X0018018Y0061142D02*
X0018518D01*
X0018898Y0061628D02*
X0018648Y0061378D01*
X0019148D02*
X0018898Y0061628D01*
X0018648Y0061378D02*
X0019148D01*
X0019213Y0061407D02*
X0018963Y0061157D01*
X0019463D02*
X0019213Y0061407D01*
X0018963Y0061157D02*
X0019463D01*
X0019843Y0061651D02*
X0019593Y0061401D01*
X0020093D02*
X0019843Y0061651D01*
X0019593Y0061401D02*
X0020093D01*
X0020158Y0061388D02*
X0019908Y0061138D01*
X0020408D02*
X0020158Y0061388D01*
X0019908Y0061138D02*
X0020408D01*
X0020788Y0061394D02*
X0020538Y0061144D01*
X0021038D02*
X0020788Y0061394D01*
X0020538Y0061144D02*
X0021038D01*
X0026804Y0054845D02*
Y0054345D01*
X0027304Y0054845D02*
X0026804D01*
X0027304Y0054345D02*
Y0054845D01*
X0026804Y0054345D02*
X0027304D01*
Y0054595D02*
X0026804D01*
X0027054Y0054845D02*
Y0054345D01*
X0028575Y0054845D02*
Y0054345D01*
X0029075Y0054845D02*
X0028575D01*
X0029075Y0054345D02*
Y0054845D01*
X0028575Y0054345D02*
X0029075D01*
Y0054595D02*
X0028575D01*
X0028825Y0054845D02*
Y0054345D01*
X0026312Y0055829D02*
Y0055579D01*
X0026562Y0055829D02*
X0026312D01*
X0026562Y0055329D02*
Y0055829D01*
X0026812Y0055329D02*
X0026562D01*
X0026812Y0055579D02*
Y0055329D01*
X0026312Y0055579D02*
X0026812D01*
X0029068Y0055829D02*
Y0055579D01*
X0029318Y0055829D02*
X0029068D01*
X0029318Y0055329D02*
Y0055829D01*
X0029568Y0055329D02*
X0029318D01*
X0029568Y0055579D02*
Y0055329D01*
X0029068Y0055579D02*
X0029568D01*
X0031327Y0054845D02*
Y0054345D01*
X0031827Y0054845D02*
X0031327D01*
X0031827Y0054345D02*
Y0054845D01*
X0031327Y0054345D02*
X0031827D01*
Y0054595D02*
X0031327D01*
X0031577Y0054845D02*
Y0054345D01*
X0033098Y0054845D02*
Y0054345D01*
X0033598Y0054845D02*
X0033098D01*
X0033598Y0054345D02*
Y0054845D01*
X0033098Y0054345D02*
X0033598D01*
Y0054595D02*
X0033098D01*
X0033348Y0054845D02*
Y0054345D01*
X0030835Y0055829D02*
Y0055579D01*
X0031085Y0055829D02*
X0030835D01*
X0031085Y0055329D02*
Y0055829D01*
X0031335Y0055329D02*
X0031085D01*
X0031335Y0055579D02*
Y0055329D01*
X0030835Y0055579D02*
X0031335D01*
X0033590Y0055829D02*
Y0055579D01*
X0033840Y0055829D02*
X0033590D01*
X0033840Y0055329D02*
Y0055829D01*
X0034090Y0055329D02*
X0033840D01*
X0034090Y0055579D02*
Y0055329D01*
X0033590Y0055579D02*
X0034090D01*
X0003622Y0081208D02*
Y0080708D01*
X0004122Y0081208D02*
X0003622D01*
X0004122Y0080708D02*
Y0081208D01*
X0003622Y0080708D02*
X0004122D01*
Y0080958D02*
X0003622D01*
X0003872Y0081208D02*
Y0080708D01*
X0003622Y0079437D02*
Y0078937D01*
X0004122Y0079437D02*
X0003622D01*
X0004122Y0078937D02*
Y0079437D01*
X0003622Y0078937D02*
X0004122D01*
Y0079187D02*
X0003622D01*
X0003872Y0079437D02*
Y0078937D01*
X0004606Y0081700D02*
Y0081450D01*
X0004856Y0081700D02*
X0004606D01*
X0004856Y0081200D02*
Y0081700D01*
X0005106Y0081200D02*
X0004856D01*
X0005106Y0081450D02*
Y0081200D01*
X0004606Y0081450D02*
X0005106D01*
X0004606Y0078944D02*
Y0078694D01*
X0004856Y0078944D02*
X0004606D01*
X0004856Y0078444D02*
Y0078944D01*
X0005106Y0078444D02*
X0004856D01*
X0005106Y0078694D02*
Y0078444D01*
X0004606Y0078694D02*
X0005106D01*
X0026125Y0084851D02*
Y0084351D01*
X0026625Y0084851D02*
X0026125D01*
X0026625Y0084351D02*
Y0084851D01*
X0026125Y0084351D02*
X0026625D01*
Y0084851D02*
X0026125Y0084351D01*
X0026625D02*
X0026125Y0084851D01*
Y0083851D02*
Y0083351D01*
X0026625Y0083851D02*
X0026125D01*
X0026625Y0083351D02*
Y0083851D01*
X0026125Y0083351D02*
X0026625D01*
Y0083851D02*
X0026125Y0083351D01*
X0026625D02*
X0026125Y0083851D01*
X0029417Y0083443D02*
Y0083243D01*
X0029667Y0083193D02*
X0029417Y0083443D01*
X0029917D02*
X0029667Y0083193D01*
X0029917Y0083243D02*
Y0083443D01*
X0029667Y0083493D02*
X0029917Y0083243D01*
X0029417D02*
X0029667Y0083493D01*
X0029417Y0080943D02*
Y0080743D01*
X0029667Y0080693D02*
X0029417Y0080943D01*
X0029917D02*
X0029667Y0080693D01*
X0029917Y0080743D02*
Y0080943D01*
X0029667Y0080993D02*
X0029917Y0080743D01*
X0029417D02*
X0029667Y0080993D01*
X0027917Y0081943D02*
Y0081743D01*
X0028167Y0081693D02*
X0027917Y0081943D01*
X0028417D02*
X0028167Y0081693D01*
X0028417Y0081743D02*
Y0081943D01*
X0028167Y0081993D02*
X0028417Y0081743D01*
X0027917D02*
X0028167Y0081993D01*
X0008303Y0079643D02*
Y0079143D01*
X0008803Y0079643D02*
X0008303D01*
X0008803Y0079143D02*
Y0079643D01*
X0008303Y0079143D02*
X0008803D01*
Y0079643D02*
X0008303Y0079143D01*
X0008803D02*
X0008303Y0079643D01*
X0009303D02*
Y0079143D01*
X0009803Y0079643D02*
X0009303D01*
X0009803Y0079143D02*
Y0079643D01*
X0009303Y0079143D02*
X0009803D01*
Y0079643D02*
X0009303Y0079143D01*
X0009803D02*
X0009303Y0079643D01*
X0036421Y0083977D02*
Y0083777D01*
X0036671Y0083727D02*
X0036421Y0083977D01*
X0036921D02*
X0036671Y0083727D01*
X0036921Y0083777D02*
Y0083977D01*
X0036671Y0084027D02*
X0036921Y0083777D01*
X0036421D02*
X0036671Y0084027D01*
X0004789Y0083950D02*
Y0083750D01*
X0005039Y0083700D02*
X0004789Y0083950D01*
X0005289D02*
X0005039Y0083700D01*
X0005289Y0083750D02*
Y0083950D01*
X0005039Y0084000D02*
X0005289Y0083750D01*
X0004789D02*
X0005039Y0084000D01*
X0036419Y0055676D02*
Y0055476D01*
X0036669Y0055426D02*
X0036419Y0055676D01*
X0036919D02*
X0036669Y0055426D01*
X0036919Y0055476D02*
Y0055676D01*
X0036669Y0055726D02*
X0036919Y0055476D01*
X0036419D02*
X0036669Y0055726D01*
X0004793Y0055683D02*
Y0055483D01*
X0005043Y0055433D02*
X0004793Y0055683D01*
X0005293D02*
X0005043Y0055433D01*
X0005293Y0055483D02*
Y0055683D01*
X0005043Y0055733D02*
X0005293Y0055483D01*
X0004793D02*
X0005043Y0055733D01*
X0010050Y0083713D02*
X0009800Y0083463D01*
X0010300D02*
X0010050Y0083713D01*
Y0083213D02*
X0010300Y0083463D01*
X0009800D02*
X0010050Y0083213D01*
X0008318Y0083713D02*
X0008068Y0083463D01*
X0008568D02*
X0008318Y0083713D01*
Y0083213D02*
X0008568Y0083463D01*
X0008068D02*
X0008318Y0083213D01*
X0025651Y0084521D02*
X0025151D01*
X0025401Y0084771D02*
Y0084271D01*
X0024647Y0084498D02*
X0024147D01*
X0024397Y0084748D02*
Y0084248D01*
X0023651Y0084521D02*
X0023151D01*
X0023401Y0084771D02*
Y0084271D01*
X0022651Y0084521D02*
X0022151D01*
X0022401Y0084771D02*
Y0084271D01*
X0025666Y0083537D02*
X0025166D01*
X0025416Y0083787D02*
Y0083287D01*
X0024666Y0083537D02*
X0024166D01*
X0024416Y0083787D02*
Y0083287D01*
X0023666Y0083537D02*
X0023166D01*
X0023416Y0083787D02*
Y0083287D01*
X0022666Y0083537D02*
X0022166D01*
X0022416Y0083787D02*
Y0083287D01*
X0018748Y0084396D02*
Y0084196D01*
X0018898Y0084546D02*
X0018748Y0084396D01*
X0019098Y0084546D02*
X0018898D01*
X0019248Y0084396D02*
X0019098Y0084546D01*
X0019248Y0084196D02*
Y0084396D01*
X0019098Y0084046D02*
X0019248Y0084196D01*
X0018898Y0084046D02*
X0019098D01*
X0018748Y0084196D02*
X0018898Y0084046D01*
X0015598Y0084396D02*
Y0084196D01*
X0015748Y0084546D02*
X0015598Y0084396D01*
X0015948Y0084546D02*
X0015748D01*
X0016098Y0084396D02*
X0015948Y0084546D01*
X0016098Y0084196D02*
Y0084396D01*
X0015948Y0084046D02*
X0016098Y0084196D01*
X0015748Y0084046D02*
X0015948D01*
X0015598Y0084196D02*
X0015748Y0084046D01*
X0037555Y0075366D02*
X0037055Y0074866D01*
X0037555D02*
X0037055Y0075366D01*
X0036555D02*
X0036055Y0074866D01*
X0036555D02*
X0036055Y0075366D01*
X0037555Y0074366D02*
X0037055Y0073866D01*
X0037555D02*
X0037055Y0074366D01*
X0036555D02*
X0036055Y0073866D01*
X0036555D02*
X0036055Y0074366D01*
X0037555Y0073366D02*
X0037055Y0072866D01*
X0037555D02*
X0037055Y0073366D01*
X0036555D02*
X0036055Y0072866D01*
X0036555D02*
X0036055Y0073366D01*
X0037555Y0072366D02*
X0037055Y0071866D01*
X0037555D02*
X0037055Y0072366D01*
X0036555D02*
X0036055Y0071866D01*
X0036555D02*
X0036055Y0072366D01*
X0037555Y0071366D02*
X0037055Y0070866D01*
X0037555D02*
X0037055Y0071366D01*
X0036555D02*
X0036055Y0070866D01*
X0036555D02*
X0036055Y0071366D01*
X0037555Y0070366D02*
X0037055Y0069866D01*
X0037555D02*
X0037055Y0070366D01*
X0036555D02*
X0036055Y0069866D01*
X0036555D02*
X0036055Y0070366D01*
X0037555Y0069366D02*
X0037055Y0068866D01*
X0037555D02*
X0037055Y0069366D01*
X0036555D02*
X0036055Y0068866D01*
X0036555D02*
X0036055Y0069366D01*
X0037555Y0068366D02*
X0037055Y0067866D01*
X0037555D02*
X0037055Y0068366D01*
X0036555D02*
X0036055Y0067866D01*
X0036555D02*
X0036055Y0068366D01*
X0037555Y0067366D02*
X0037055Y0066866D01*
X0037555D02*
X0037055Y0067366D01*
X0036555D02*
X0036055Y0066866D01*
X0036555D02*
X0036055Y0067366D01*
X0037555Y0066366D02*
X0037055Y0065866D01*
X0037555D02*
X0037055Y0066366D01*
X0036555D02*
X0036055Y0065866D01*
X0036555D02*
X0036055Y0066366D01*
X0037555Y0065366D02*
X0037055Y0064866D01*
X0037555D02*
X0037055Y0065366D01*
X0036555D02*
X0036055Y0064866D01*
X0036555D02*
X0036055Y0065366D01*
X0037555Y0064366D02*
X0037055Y0063866D01*
X0037555D02*
X0037055Y0064366D01*
X0036555D02*
X0036055Y0063866D01*
X0036555D02*
X0036055Y0064366D01*
X0037555Y0063366D02*
X0037055Y0062866D01*
X0037555D02*
X0037055Y0063366D01*
X0036555D02*
X0036055Y0062866D01*
X0036555D02*
X0036055Y0063366D01*
X0037555Y0062366D02*
X0037055Y0061866D01*
X0037555D02*
X0037055Y0062366D01*
X0036555D02*
X0036055Y0061866D01*
X0036555D02*
X0036055Y0062366D01*
X0037555Y0061366D02*
X0037055Y0060866D01*
X0037555D02*
X0037055Y0061366D01*
X0036555D02*
X0036055Y0060866D01*
X0036555D02*
X0036055Y0061366D01*
X0005213Y0077571D02*
X0004713Y0077071D01*
X0005213D02*
X0004713Y0077571D01*
X0004213D02*
X0003713Y0077071D01*
X0004213D02*
X0003713Y0077571D01*
X0005213Y0076571D02*
X0004713Y0076071D01*
X0005213D02*
X0004713Y0076571D01*
X0004213D02*
X0003713Y0076071D01*
X0004213D02*
X0003713Y0076571D01*
X0005213Y0075571D02*
X0004713Y0075071D01*
X0005213D02*
X0004713Y0075571D01*
X0004213D02*
X0003713Y0075071D01*
X0004213D02*
X0003713Y0075571D01*
X0005213Y0074571D02*
X0004713Y0074071D01*
X0005213D02*
X0004713Y0074571D01*
X0004213D02*
X0003713Y0074071D01*
X0004213D02*
X0003713Y0074571D01*
X0005213Y0073571D02*
X0004713Y0073071D01*
X0005213D02*
X0004713Y0073571D01*
X0004213D02*
X0003713Y0073071D01*
X0004213D02*
X0003713Y0073571D01*
X0005213Y0072571D02*
X0004713Y0072071D01*
X0005213D02*
X0004713Y0072571D01*
X0004213D02*
X0003713Y0072071D01*
X0004213D02*
X0003713Y0072571D01*
X0005213Y0071571D02*
X0004713Y0071071D01*
X0005213D02*
X0004713Y0071571D01*
X0004213D02*
X0003713Y0071071D01*
X0004213D02*
X0003713Y0071571D01*
X0005213Y0070571D02*
X0004713Y0070071D01*
X0005213D02*
X0004713Y0070571D01*
X0004213D02*
X0003713Y0070071D01*
X0004213D02*
X0003713Y0070571D01*
X0005213Y0069571D02*
X0004713Y0069071D01*
X0005213D02*
X0004713Y0069571D01*
X0004213D02*
X0003713Y0069071D01*
X0004213D02*
X0003713Y0069571D01*
X0005213Y0068571D02*
X0004713Y0068071D01*
X0005213D02*
X0004713Y0068571D01*
X0004213D02*
X0003713Y0068071D01*
X0004213D02*
X0003713Y0068571D01*
X0005213Y0067571D02*
X0004713Y0067071D01*
X0005213D02*
X0004713Y0067571D01*
X0004213D02*
X0003713Y0067071D01*
X0004213D02*
X0003713Y0067571D01*
X0005213Y0066571D02*
X0004713Y0066071D01*
X0005213D02*
X0004713Y0066571D01*
X0004213D02*
X0003713Y0066071D01*
X0004213D02*
X0003713Y0066571D01*
X0005213Y0065571D02*
X0004713Y0065071D01*
X0005213D02*
X0004713Y0065571D01*
X0004213D02*
X0003713Y0065071D01*
X0004213D02*
X0003713Y0065571D01*
X0005213Y0064571D02*
X0004713Y0064071D01*
X0005213D02*
X0004713Y0064571D01*
X0004213D02*
X0003713Y0064071D01*
X0004213D02*
X0003713Y0064571D01*
X0005213Y0063571D02*
X0004713Y0063071D01*
X0005213D02*
X0004713Y0063571D01*
X0004213D02*
X0003713Y0063071D01*
X0004213D02*
X0003713Y0063571D01*
X0005213Y0062571D02*
X0004713Y0062071D01*
X0005213D02*
X0004713Y0062571D01*
X0004213D02*
X0003713Y0062071D01*
X0004213D02*
X0003713Y0062571D01*
X0005213Y0061571D02*
X0004713Y0061071D01*
X0005213D02*
X0004713Y0061571D01*
X0004213D02*
X0003713Y0061071D01*
X0004213D02*
X0003713Y0061571D01*
X0005213Y0060571D02*
X0004713Y0060071D01*
X0005213D02*
X0004713Y0060571D01*
X0004213D02*
X0003713Y0060071D01*
X0004213D02*
X0003713Y0060571D01*
X0005213Y0059571D02*
X0004713Y0059071D01*
X0005213D02*
X0004713Y0059571D01*
X0004213D02*
X0003713Y0059071D01*
X0004213D02*
X0003713Y0059571D01*
X0005213Y0058571D02*
X0004713Y0058071D01*
X0005213D02*
X0004713Y0058571D01*
X0004213D02*
X0003713Y0058071D01*
X0004213D02*
X0003713Y0058571D01*
M02*
