%
T1C0.0118F200S100
X007957Y072119
X008293Y061380
X008678Y071171
X008863Y059110
X009151Y060484
X009203Y081739
X009512Y081519
X009582Y060949
X009893Y072263
X010009Y073904
X010235Y072099
X010512Y070096
X010518Y056057
X010518Y056579
X010520Y057285
X010586Y069406
X010601Y077486
X010877Y085158
X010881Y083055
X010968Y059310
X011380Y072601
X011529Y076340
X011620Y059022
X011830Y071336
X011844Y071678
X011864Y064214
X011994Y073064
X012078Y066158
X012096Y061406
X012105Y069150
X012125Y082028
X012309Y066562
X012337Y066961
X012464Y066088
X012464Y063791
X012558Y082717
X012652Y071870
X012672Y076329
X012728Y066942
X012800Y070121
X012822Y072812
X013021Y068052
X013027Y082587
X013106Y066749
X013180Y070590
X013257Y069875
X013306Y066486
X013344Y082989
X013471Y066209
X013821Y069848
X013860Y066763
X013910Y072031
X014000Y083582
X014002Y074658
X014039Y066461
X014080Y060092
X014248Y059800
X014346Y084144
X014364Y080268
X014383Y070087
X014436Y066999
X014492Y056764
X014538Y070581
X014543Y066642
X014666Y074239
X014697Y066361
X014774Y073173
X014802Y056690
X014834Y071710
X014965Y070551
X015045Y063732
X015119Y056793
X015120Y066614
X015138Y066088
X015148Y064062
X015175Y066980
X015279Y063381
X015305Y074882
X015334Y064336
X015432Y056680
X015458Y063062
X015672Y071704
X015748Y056770
X015802Y063168
X015833Y066127
X015865Y067311
X015897Y067631
X015951Y070047
X016008Y062924
X016020Y062130
X016024Y066553
X016062Y056690
X016219Y066974
X016234Y070548
X016304Y058536
X016380Y056792
X016450Y058182
X016534Y066943
X016616Y073492
X016647Y065971
X016667Y057869
X016920Y072272
X016932Y066151
X016952Y064458
X016956Y063710
X016956Y064144
X016966Y057556
X016970Y074056
X016976Y063256
X017009Y055791
X017029Y078374
X017032Y062770
X017176Y062362
X017346Y070882
X017354Y063014
X017496Y058840
X017638Y060363
X017654Y061339
X017658Y063943
X017765Y063581
X017820Y074184
X017898Y077075
X017953Y061519
X018268Y061242
X018328Y078259
X018328Y079244
X018518Y075382
X018528Y071780
X018552Y059066
X018560Y062364
X018583Y055637
X018606Y070604
X018898Y061478
X019067Y077935
X019213Y061257
X019317Y076289
X019327Y075740
X019498Y062788
X019528Y060366
X019540Y062044
X019584Y063208
X019585Y073981
X019610Y070746
X019674Y075918
X019757Y084137
X019843Y061501
X020101Y084687
X020106Y078634
X020108Y079399
X020158Y061238
X020193Y076071
X020473Y055703
X020648Y077627
X020788Y061244
X021103Y055737
X021677Y077647
X021816Y076987
X022229Y064761
X022420Y065012
X022628Y062091
X022680Y071328
X022721Y080938
X022732Y070355
X022763Y066631
X022790Y065008
X022843Y079663
X022925Y078211
X022926Y078592
X022928Y078910
X023073Y079407
X023169Y065052
X023176Y071344
X023234Y070109
X023467Y070363
X023530Y063302
X023619Y071326
X023675Y080758
X023740Y058896
X023765Y069330
X023848Y068838
X023857Y082280
X023870Y075850
X023875Y067869
X023879Y068350
X023886Y079660
X023923Y067378
X023941Y069662
X023964Y066881
X023990Y071330
X024007Y069111
X024079Y068614
X024088Y070013
X024100Y079032
X024138Y067646
X024154Y078126
X024178Y067127
X024198Y068121
X024253Y066632
X024461Y071120
X024587Y082458
X024705Y063302
X024709Y070902
X024756Y064828
X024882Y077302
X024970Y076700
X025085Y064976
X025210Y070911
X025258Y079857
X025429Y064849
X025530Y073360
X025608Y080120
X025674Y065069
X025724Y065449
X025804Y076698
X025844Y079794
X025982Y065671
X026269Y077733
X026269Y078895
X026362Y074899
X026658Y059931
X026729Y081035
X026788Y075467
X026919Y072177
X026938Y063397
X026948Y074015
X027105Y079605
X027260Y076312
X027550Y073519
X027573Y056209
X027623Y060799
X027658Y076876
X027668Y075743
X027941Y067341
X027985Y069550
X028025Y076312
X028094Y058414
X028143Y068310
X028342Y066751
X028433Y069891
X028484Y073380
X028541Y072051
X028559Y070635
X028863Y069555
X029043Y072707
X029047Y072327
X029063Y066065
X029130Y064573
X029233Y072977
X029268Y075144
X029669Y073778
X029677Y074751
X029830Y066110
X029945Y067516
X030066Y070513
X030356Y065990
X030372Y064601
X030709Y077161
X030749Y068321
X031037Y076652
X031037Y077663
X031056Y070511
X031339Y077161
X031357Y065981
X031372Y075892
X031677Y063339
X031724Y056207
X031842Y067105
X031941Y070571
X032239Y069358
X032273Y063369
X032320Y066643
X032402Y067211
X032492Y070715
X032539Y067922
X032718Y069020
X032876Y063259
X032919Y072914
X033173Y058328
X033274Y072362
X033398Y076540
X033494Y063282
X033650Y079576
X033822Y069155
X033903Y063758
X033994Y079081
X033994Y080094
X034007Y070906
X034260Y078485
X034302Y079576
X034304Y061928
X034354Y068039
X034372Y076219
X034604Y065593
X034817Y076731
X034960Y067725
X035202Y069794
X035205Y069225
X035284Y066036
X035885Y076825
X036215Y076811
X036553Y076811
T2C0.0340F200S100
X022401Y084521
X022416Y083537
X023401Y084521
X023416Y083537
X024397Y084498
X024416Y083537
X025401Y084521
X025416Y083537
T5C0.0417F200S100
X003872Y079187
X003872Y080958
X027054Y054595
X028825Y054595
X031577Y054595
X033348Y054595
T8C0.0531F200S100
X004856Y078694
X004856Y081450
X026562Y055579
X029318Y055579
X031085Y055579
X033840Y055579
T6C0.0420F200S100
X008553Y079393
X009553Y079393
X026375Y083601
X026375Y084601
T9C0.1181F200S100
X005039Y083850
X005043Y055583
X028167Y081843
X029667Y080843
X029667Y083343
X036669Y055576
X036671Y083877
T7C0.0433F200S100
X008318Y083463
X010050Y083463
T4C0.0394F200S100
X015848Y084296
X018998Y084296
T3C0.0370F200S100
X003963Y058321
X003963Y059321
X003963Y060321
X003963Y061321
X003963Y062321
X003963Y063321
X003963Y064321
X003963Y065321
X003963Y066321
X003963Y067321
X003963Y068321
X003963Y069321
X003963Y070321
X003963Y071321
X003963Y072321
X003963Y073321
X003963Y074321
X003963Y075321
X003963Y076321
X003963Y077321
X004963Y058321
X004963Y059321
X004963Y060321
X004963Y061321
X004963Y062321
X004963Y063321
X004963Y064321
X004963Y065321
X004963Y066321
X004963Y067321
X004963Y068321
X004963Y069321
X004963Y070321
X004963Y071321
X004963Y072321
X004963Y073321
X004963Y074321
X004963Y075321
X004963Y076321
X004963Y077321
X036305Y061116
X036305Y062116
X036305Y063116
X036305Y064116
X036305Y065116
X036305Y066116
X036305Y067116
X036305Y068116
X036305Y069116
X036305Y070116
X036305Y071116
X036305Y072116
X036305Y073116
X036305Y074116
X036305Y075116
X037305Y061116
X037305Y062116
X037305Y063116
X037305Y064116
X037305Y065116
X037305Y066116
X037305Y067116
X037305Y068116
X037305Y069116
X037305Y070116
X037305Y071116
X037305Y072116
X037305Y073116
X037305Y074116
X037305Y075116
M30
