M48
;DRILL file {PCBnew (20090216-final)} date Fri 23 Apr 2010 01:13:58 PM COT
;FORMAT={-.-/ absolute / inch / decimal}
R,T
VER,1
FMAT,2
INCH,TZ
TCST,OFF
ICI,OFF
ATC,ON
T1C0.012
T2C0.030
T3C0.034
T4C0.038
T5C0.040
T6C0.042
T7C0.052
T8C0.118
%
M47
G05
M72
T1
X6.466Y5.799
X6.496Y5.734
X6.501Y6.072
X6.501Y6.091
X6.501Y6.112
X6.502Y5.899
X6.505Y6.206
X6.515Y6.554
X6.531Y5.500
X6.532Y5.434
X6.532Y5.467
X6.537Y6.410
X6.540Y6.137
X6.548Y6.548
X6.565Y6.109
X6.568Y6.424
X6.579Y6.778
X6.592Y6.453
X6.597Y6.138
X6.607Y6.493
X6.607Y5.997
X6.634Y6.522
X6.636Y6.984
X6.641Y5.972
X6.664Y5.202
X6.665Y6.851
X6.699Y4.806
X6.708Y6.805
X6.710Y4.771
X6.712Y6.032
X6.722Y5.762
X6.733Y5.571
X6.747Y5.159
X6.747Y5.832
X6.749Y5.641
X6.784Y5.897
X6.802Y7.076
X6.803Y7.160
X6.803Y7.120
X6.816Y6.075
X6.822Y6.130
X6.833Y5.202
X6.834Y5.889
X6.837Y4.383
X6.838Y4.598
X6.847Y6.969
X6.881Y5.477
X6.888Y5.640
X6.905Y5.392
X6.907Y5.222
X6.909Y5.355
X6.912Y6.997
X6.933Y5.767
X6.936Y6.478
X6.946Y5.592
X6.955Y6.064
X6.957Y6.284
X6.958Y5.985
X6.959Y6.759
X6.962Y4.697
X6.975Y6.254
X6.984Y6.587
X6.985Y6.310
X6.991Y6.198
X7.006Y4.628
X7.012Y5.221
X7.016Y5.714
X7.019Y6.217
X7.030Y5.385
X7.030Y5.888
X7.032Y5.618
X7.044Y6.066
X7.052Y4.641
X7.052Y6.196
X7.057Y5.914
X7.065Y5.364
X7.071Y5.855
X7.078Y6.237
X7.084Y4.601
X7.103Y6.190
X7.107Y5.485
X7.110Y5.084
X7.115Y5.997
X7.122Y5.007
X7.129Y6.255
X7.139Y5.929
X7.145Y5.081
X7.147Y6.230
X7.148Y5.430
X7.150Y4.541
X7.153Y6.891
X7.172Y6.203
X7.175Y6.920
X7.176Y4.813
X7.184Y4.486
X7.191Y5.899
X7.199Y7.225
X7.202Y6.243
X7.209Y5.844
X7.218Y5.384
X7.225Y5.708
X7.226Y5.590
X7.230Y7.232
X7.231Y6.226
X7.245Y4.866
X7.246Y5.845
X7.254Y6.527
X7.257Y7.214
X7.264Y6.222
X7.264Y6.291
X7.264Y6.497
X7.278Y6.562
X7.291Y6.462
X7.291Y7.215
X7.296Y6.593
X7.298Y6.163
X7.299Y5.877
X7.325Y7.210
X7.326Y5.728
X7.329Y6.599
X7.335Y6.284
X7.336Y6.177
X7.352Y6.687
X7.355Y6.580
X7.355Y7.228
X7.356Y6.223
X7.362Y5.858
X7.379Y7.047
X7.381Y6.195
X7.385Y7.218
X7.395Y7.080
X7.405Y5.910
X7.410Y5.549
X7.416Y7.112
X7.418Y6.218
X7.425Y6.470
X7.442Y5.672
X7.443Y6.281
X7.445Y6.529
X7.446Y7.144
X7.447Y5.494
X7.447Y6.574
X7.451Y7.325
X7.453Y5.050
X7.453Y6.623
X7.459Y6.663
X7.460Y6.461
X7.484Y5.811
X7.486Y6.599
X7.499Y7.016
X7.514Y6.757
X7.514Y6.863
X7.515Y6.506
X7.526Y6.543
X7.537Y5.479
X7.542Y5.197
X7.545Y6.739
X7.576Y6.752
X7.582Y4.826
X7.602Y5.361
X7.603Y5.722
X7.606Y6.663
X7.606Y7.026
X7.608Y7.336
X7.610Y5.839
X7.640Y6.757
X7.655Y5.106
X7.672Y6.776
X7.681Y5.271
X7.682Y5.326
X7.699Y6.622
X7.703Y6.863
X7.704Y6.695
X7.708Y6.579
X7.720Y5.280
X7.725Y5.824
X7.726Y4.486
X7.734Y6.768
X7.760Y4.431
X7.762Y4.817
X7.763Y4.922
X7.766Y6.763
X7.770Y5.294
X7.797Y7.329
X7.814Y5.144
X7.829Y6.768
X7.860Y7.326
X7.917Y5.134
X7.931Y5.202
X7.973Y6.424
X7.985Y6.391
X8.006Y5.766
X8.013Y6.691
X8.015Y5.887
X8.031Y6.401
X8.043Y4.933
X8.045Y4.817
X8.065Y5.771
X8.068Y5.909
X8.075Y6.412
X8.093Y5.885
X8.096Y5.770
X8.103Y6.569
X8.117Y4.824
X8.121Y6.014
X8.133Y6.162
X8.137Y5.315
X8.138Y6.111
X8.138Y4.934
X8.138Y6.267
X8.139Y6.063
X8.141Y5.937
X8.146Y6.212
X8.149Y5.767
X8.150Y5.989
X8.158Y6.038
X8.160Y4.996
X8.164Y6.135
X8.164Y6.088
X8.165Y5.087
X8.173Y5.910
X8.174Y6.187
X8.175Y6.237
X8.179Y5.965
X8.183Y6.422
X8.213Y5.794
X8.217Y5.826
X8.226Y6.570
X8.238Y5.169
X8.247Y5.230
X8.264Y6.419
X8.274Y5.816
X8.276Y4.914
X8.298Y6.409
X8.303Y5.564
X8.310Y4.888
X8.322Y6.355
X8.330Y5.230
X8.337Y6.412
X8.341Y4.928
X8.348Y6.333
X8.349Y5.126
X8.377Y5.007
X8.389Y5.409
X8.413Y7.076
X8.429Y5.353
X8.439Y4.786
X8.443Y5.684
X8.444Y6.560
X8.445Y5.490
X8.454Y7.038
X8.461Y4.937
X8.476Y5.268
X8.500Y5.335
X8.505Y5.548
X8.517Y6.821
X8.517Y5.213
X8.543Y6.166
X8.548Y5.945
X8.550Y5.910
X8.552Y5.269
X8.558Y7.066
X8.564Y6.069
X8.569Y6.206
X8.598Y5.562
X8.607Y5.700
X8.609Y5.833
X8.638Y6.266
X8.643Y6.084
X8.657Y5.696
X8.663Y6.438
X8.664Y5.634
X8.677Y5.385
X8.688Y6.720
X8.709Y6.296
X8.717Y5.425
X8.726Y6.697
X8.756Y5.848
X8.765Y6.316
X8.776Y6.676
X8.779Y6.744
X8.787Y6.440
X8.813Y6.142
X8.814Y6.914
X8.821Y5.183
X8.834Y6.969
X8.850Y7.066
X8.852Y5.233
X8.853Y5.134
X8.855Y5.849
X8.867Y7.026
X8.882Y6.075
X8.884Y5.184
X8.884Y7.067
X8.885Y6.302
X8.887Y5.311
X8.897Y6.896
X8.902Y7.026
X8.905Y5.572
X8.914Y5.813
X8.918Y6.566
X8.919Y7.067
X8.933Y6.189
X8.943Y5.909
X8.963Y5.560
X8.970Y6.426
X8.975Y5.963
X8.976Y6.317
X8.977Y6.563
X8.990Y6.179
X8.994Y5.826
X9.004Y6.107
X9.006Y6.266
X9.022Y5.998
X9.027Y6.434
X9.037Y6.574
X9.048Y6.914
X9.070Y7.042
X9.071Y6.363
X9.073Y6.987
X9.090Y5.246
X9.099Y6.572
X9.115Y4.942
X9.128Y7.051
X9.129Y6.993
X9.130Y6.341
X9.136Y4.528
X9.137Y6.241
X9.139Y5.981
X9.149Y4.890
X9.149Y4.992
X9.150Y5.809
X9.153Y6.524
X9.168Y6.095
X9.176Y5.051
X9.179Y6.990
X9.179Y7.048
X9.180Y4.942
X9.187Y5.278
X9.228Y6.991
X9.228Y7.049
X9.234Y5.090
X9.239Y4.698
X9.246Y6.127
X9.270Y5.977
X9.270Y5.920
X9.286Y6.277
X9.322Y5.230
X9.323Y5.230
X9.361Y5.048
X9.362Y5.227
X9.406Y5.230
T2
X6.608Y5.455
X6.608Y5.533
X6.608Y5.612
X6.608Y5.691
X6.686Y5.455
X6.686Y5.533
X6.686Y5.612
X6.686Y5.691
T3
X7.990Y4.448
X7.991Y4.546
X8.090Y4.448
X8.091Y4.546
X8.190Y4.450
X8.191Y4.546
X8.290Y4.448
X8.291Y4.546
X9.369Y5.307
X9.369Y5.386
X9.369Y5.464
X9.369Y5.543
X9.369Y5.622
X9.369Y5.701
X9.369Y5.779
X9.369Y5.858
X9.369Y5.937
X9.369Y6.016
X9.369Y6.094
X9.369Y6.173
X9.369Y6.252
X9.369Y6.331
X9.369Y6.409
X9.369Y6.488
X9.369Y6.567
X9.369Y6.646
X9.369Y6.724
X9.369Y6.803
X9.448Y5.307
X9.448Y5.386
X9.448Y5.464
X9.448Y5.543
X9.448Y5.622
X9.448Y5.701
X9.448Y5.779
X9.448Y5.858
X9.448Y5.937
X9.448Y6.016
X9.448Y6.094
X9.448Y6.173
X9.448Y6.252
X9.448Y6.331
X9.448Y6.409
X9.448Y6.488
X9.448Y6.567
X9.448Y6.646
X9.448Y6.724
X9.448Y6.803
T4
X7.335Y4.469
X7.650Y4.469
T5
X6.505Y4.921
X6.505Y5.098
X8.456Y7.385
X8.633Y7.385
X8.886Y7.394
X9.063Y7.394
T6
X6.496Y5.319
X6.582Y4.553
X6.596Y5.319
X6.755Y4.553
X8.405Y4.452
X8.405Y4.552
T7
X6.603Y4.871
X6.603Y5.147
X8.406Y7.287
X8.682Y7.287
X8.836Y7.296
X9.112Y7.296
T8
X6.589Y7.343
X6.847Y4.987
X8.567Y4.715
X8.717Y4.565
X8.717Y4.815
X9.380Y4.494
X9.381Y7.342
T0
M30
