G04 (created by PCBnew (20090216-final)) date Fri 23 Apr 2010 01:14:00 PM COT*
G01*
G70*
G90*
%MOIN*%
G04 Gerber Fmt 3.4, Leading zero omitted, Abs format*
%FSLAX34Y34*%
G04 APERTURE LIST*
%ADD10C,0.334000*%
%ADD11C,0.066000*%
%ADD12C,0.076000*%
%ADD13C,0.034000*%
%ADD14R,0.054000X0.054000*%
%ADD15C,0.054000*%
%ADD16C,0.038000*%
%ADD17R,0.062000X0.062000*%
%ADD18C,0.062000*%
%ADD19C,0.046000*%
%ADD20C,0.134000*%
%ADD21C,0.052000*%
%ADD22C,0.023600*%
%ADD23C,0.007500*%
%ADD24C,0.007900*%
%ADD25C,0.005000*%
%ADD26C,0.031000*%
%ADD27C,0.017000*%
%ADD28C,0.010000*%
%ADD29R,0.038000X0.010000*%
%ADD30R,0.038000X0.046000*%
%ADD31R,0.032000X0.038000*%
%ADD32R,0.034000X0.030000*%
%ADD33R,0.038000X0.032000*%
%ADD34R,0.060000X0.060000*%
%ADD35R,0.030000X0.034000*%
%ADD36R,0.026000X0.062000*%
%ADD37R,0.062000X0.054000*%
%ADD38R,0.046000X0.086000*%
%ADD39R,0.046000X0.054000*%
%ADD40R,0.020000X0.062000*%
%ADD41R,0.086000X0.090000*%
%ADD42R,0.050000X0.050000*%
%ADD43R,0.024000X0.034000*%
%ADD44R,0.034000X0.024000*%
%ADD45R,0.034000X0.020000*%
%ADD46R,0.006000X0.064000*%
%ADD47R,0.064000X0.006000*%
%ADD48R,0.018000X0.054000*%
%ADD49R,0.010000X0.060000*%
%ADD50R,0.070000X0.016000*%
%ADD51R,0.048000X0.088000*%
%ADD52R,0.142000X0.088000*%
%ADD53R,0.060000X0.010000*%
%ADD54R,0.016000X0.070000*%
%ADD55R,0.038000X0.056000*%
%ADD56R,0.046000X0.056000*%
%ADD57R,0.026000X0.038000*%
%ADD58R,0.070000X0.078000*%
%ADD59R,0.078000X0.098000*%
%ADD60R,0.026000X0.058000*%
%ADD61R,0.164000X0.066000*%
%ADD62R,0.094000X0.094000*%
%ADD63C,0.015700*%
%ADD64C,0.017700*%
%ADD65C,0.015000*%
%ADD66C,0.020000*%
%ADD67C,0.007000*%
%ADD68C,0.003000*%
%ADD69C,0.006000*%
%ADD70C,0.008000*%
%ADD71C,0.001000*%
%ADD72C,0.004000*%
%ADD73C,0.002000*%
%ADD74C,0.003900*%
%ADD75C,0.003100*%
%ADD76C,0.086000*%
%ADD77C,0.096000*%
%ADD78R,0.074000X0.074000*%
%ADD79C,0.074000*%
%ADD80C,0.058000*%
%ADD81R,0.082000X0.082000*%
%ADD82C,0.082000*%
%ADD83C,0.154000*%
%ADD84C,0.072000*%
%ADD85R,0.058000X0.030000*%
%ADD86R,0.058000X0.066000*%
%ADD87R,0.052000X0.058000*%
%ADD88R,0.054000X0.050000*%
%ADD89R,0.058000X0.052000*%
%ADD90R,0.080000X0.080000*%
%ADD91R,0.050000X0.054000*%
%ADD92R,0.046000X0.082000*%
%ADD93R,0.082000X0.074000*%
%ADD94R,0.066000X0.106000*%
%ADD95R,0.066000X0.074000*%
%ADD96R,0.040000X0.082000*%
%ADD97R,0.106000X0.110000*%
%ADD98R,0.070000X0.070000*%
%ADD99R,0.044000X0.054000*%
%ADD100R,0.054000X0.044000*%
%ADD101R,0.054000X0.040000*%
%ADD102R,0.026000X0.084000*%
%ADD103R,0.084000X0.026000*%
%ADD104R,0.038000X0.074000*%
%ADD105R,0.030000X0.080000*%
%ADD106R,0.090000X0.036000*%
%ADD107R,0.068000X0.108000*%
%ADD108R,0.162000X0.108000*%
%ADD109R,0.080000X0.030000*%
%ADD110R,0.036000X0.090000*%
%ADD111R,0.058000X0.076000*%
%ADD112R,0.066000X0.076000*%
%ADD113R,0.046000X0.058000*%
%ADD114R,0.090000X0.098000*%
%ADD115R,0.098000X0.118000*%
%ADD116R,0.046000X0.078000*%
%ADD117R,0.184000X0.086000*%
%ADD118R,0.114000X0.114000*%
%ADD119C,0.000400*%
G04 APERTURE END LIST*
G54D10*
X93810Y-73420D03*
X93800Y-44940D03*
G54D85*
X64634Y-60728D03*
X64634Y-60918D03*
X64634Y-61118D03*
X64634Y-61318D03*
X64634Y-61508D03*
X64634Y-61708D03*
X64634Y-61908D03*
X64634Y-62098D03*
X64634Y-62298D03*
X64634Y-62498D03*
X64634Y-62688D03*
X64634Y-62888D03*
X64634Y-63088D03*
X64634Y-63278D03*
X64634Y-63478D03*
X64634Y-63678D03*
G54D86*
X65474Y-59898D03*
X65474Y-66078D03*
G54D85*
X64634Y-63868D03*
X64634Y-64068D03*
X64634Y-64268D03*
X64634Y-64468D03*
X64634Y-64658D03*
X64634Y-64858D03*
X64634Y-65058D03*
X64634Y-65248D03*
G54D87*
X85152Y-71912D03*
X85712Y-71912D03*
X89824Y-72420D03*
X90384Y-72420D03*
G54D88*
X90338Y-45280D03*
X90988Y-45280D03*
X66018Y-58948D03*
X65368Y-58948D03*
G54D76*
X84560Y-73848D03*
X86330Y-73848D03*
G54D77*
X84060Y-72868D03*
X86820Y-72868D03*
G54D76*
X88864Y-73936D03*
X90634Y-73936D03*
G54D77*
X88364Y-72956D03*
X91124Y-72956D03*
G54D88*
X88966Y-45280D03*
X89616Y-45280D03*
X67558Y-58956D03*
X66908Y-58956D03*
G54D89*
X69464Y-56760D03*
X69464Y-56200D03*
G54D87*
X74360Y-56050D03*
X73800Y-56050D03*
G54D89*
X71780Y-55220D03*
X71780Y-54660D03*
G36*
X71490Y-53710D02*
X71490Y-53190D01*
X72070Y-53190D01*
X72070Y-53710D01*
X71490Y-53710D01*
G37*
G36*
X71490Y-54270D02*
X71490Y-53750D01*
X72070Y-53750D01*
X72070Y-54270D01*
X71490Y-54270D01*
G37*
X76020Y-54440D03*
X76020Y-53880D03*
G36*
X75740Y-56560D02*
X75740Y-56040D01*
X76320Y-56040D01*
X76320Y-56560D01*
X75740Y-56560D01*
G37*
G36*
X75740Y-57120D02*
X75740Y-56600D01*
X76320Y-56600D01*
X76320Y-57120D01*
X75740Y-57120D01*
G37*
G54D87*
X68740Y-53920D03*
X68180Y-53920D03*
G54D89*
X69070Y-53190D03*
X69070Y-52630D03*
X69970Y-53310D03*
X69970Y-52750D03*
X74700Y-55070D03*
X74700Y-54510D03*
X73870Y-55070D03*
X73870Y-54510D03*
G54D90*
X70320Y-56600D03*
X70320Y-55300D03*
G54D87*
X66360Y-70190D03*
X65800Y-70190D03*
G54D90*
X67080Y-68500D03*
X65780Y-68500D03*
G54D87*
X66360Y-69470D03*
X65800Y-69470D03*
G36*
X69420Y-65040D02*
X69420Y-64520D01*
X70000Y-64520D01*
X70000Y-65040D01*
X69420Y-65040D01*
G37*
G36*
X69420Y-65600D02*
X69420Y-65080D01*
X70000Y-65080D01*
X70000Y-65600D01*
X69420Y-65600D01*
G37*
G54D90*
X68900Y-69520D03*
X68900Y-68220D03*
X77250Y-64860D03*
X75950Y-64860D03*
G54D87*
X67890Y-55150D03*
X68450Y-55150D03*
G54D89*
X73170Y-65540D03*
X73170Y-64980D03*
G36*
X75030Y-55360D02*
X75030Y-54840D01*
X75610Y-54840D01*
X75610Y-55360D01*
X75030Y-55360D01*
G37*
G36*
X75030Y-55920D02*
X75030Y-55400D01*
X75610Y-55400D01*
X75610Y-55920D01*
X75030Y-55920D01*
G37*
G54D87*
X77030Y-73650D03*
X76470Y-73650D03*
X75130Y-73660D03*
X74570Y-73660D03*
G54D89*
X69750Y-68810D03*
X69750Y-68250D03*
X75070Y-66930D03*
X75070Y-66370D03*
X76610Y-66980D03*
X76610Y-66420D03*
G54D87*
X77850Y-66250D03*
X77290Y-66250D03*
X77850Y-66950D03*
X77290Y-66950D03*
G54D90*
X81570Y-52300D03*
X82870Y-52300D03*
G54D87*
X81840Y-65690D03*
X81280Y-65690D03*
X82170Y-55640D03*
X82730Y-55640D03*
X75980Y-52710D03*
X76540Y-52710D03*
G54D88*
X91882Y-62648D03*
X92532Y-62648D03*
G54D91*
X89050Y-56670D03*
X89050Y-56020D03*
G54D88*
X83180Y-70750D03*
X83830Y-70750D03*
G54D87*
X81090Y-53150D03*
X80530Y-53150D03*
G54D89*
X83770Y-50960D03*
X83770Y-50400D03*
G36*
X82780Y-51210D02*
X82780Y-50690D01*
X83360Y-50690D01*
X83360Y-51210D01*
X82780Y-51210D01*
G37*
G36*
X82780Y-51770D02*
X82780Y-51250D01*
X83360Y-51250D01*
X83360Y-51770D01*
X82780Y-51770D01*
G37*
G36*
X83480Y-49450D02*
X83480Y-48930D01*
X84060Y-48930D01*
X84060Y-49450D01*
X83480Y-49450D01*
G37*
G36*
X83480Y-50010D02*
X83480Y-49490D01*
X84060Y-49490D01*
X84060Y-50010D01*
X83480Y-50010D01*
G37*
G36*
X82780Y-50000D02*
X82780Y-49480D01*
X83360Y-49480D01*
X83360Y-50000D01*
X82780Y-50000D01*
G37*
G36*
X82780Y-50560D02*
X82780Y-50040D01*
X83360Y-50040D01*
X83360Y-50560D01*
X82780Y-50560D01*
G37*
G54D87*
X89430Y-52830D03*
X88870Y-52830D03*
X84950Y-53900D03*
X84390Y-53900D03*
G54D88*
X85450Y-65810D03*
X84800Y-65810D03*
G54D91*
X86290Y-56270D03*
X86290Y-55620D03*
G54D88*
X91750Y-59200D03*
X92400Y-59200D03*
G36*
X89520Y-64980D02*
X89520Y-64440D01*
X90020Y-64440D01*
X90020Y-64980D01*
X89520Y-64980D01*
G37*
G36*
X89520Y-65630D02*
X89520Y-65090D01*
X90020Y-65090D01*
X90020Y-65630D01*
X89520Y-65630D01*
G37*
G36*
X90120Y-64980D02*
X90120Y-64440D01*
X90620Y-64440D01*
X90620Y-64980D01*
X90120Y-64980D01*
G37*
G36*
X90120Y-65630D02*
X90120Y-65090D01*
X90620Y-65090D01*
X90620Y-65630D01*
X90120Y-65630D01*
G37*
G54D91*
X85050Y-56530D03*
X85050Y-55880D03*
X89630Y-56550D03*
X89630Y-55900D03*
G54D88*
X91760Y-59770D03*
X92410Y-59770D03*
G36*
X88930Y-64980D02*
X88930Y-64440D01*
X89430Y-64440D01*
X89430Y-64980D01*
X88930Y-64980D01*
G37*
G36*
X88930Y-65630D02*
X88930Y-65090D01*
X89430Y-65090D01*
X89430Y-65630D01*
X88930Y-65630D01*
G37*
G54D91*
X85660Y-56520D03*
X85660Y-55870D03*
G54D87*
X90340Y-52820D03*
X90900Y-52820D03*
X93050Y-50780D03*
X93610Y-50780D03*
G54D89*
X70520Y-46010D03*
X70520Y-45450D03*
G54D90*
X87170Y-53850D03*
X85870Y-53850D03*
G54D87*
X92320Y-50810D03*
X91760Y-50810D03*
G54D90*
X65271Y-57970D03*
X66571Y-57970D03*
G36*
X67510Y-61000D02*
X67510Y-60480D01*
X68090Y-60480D01*
X68090Y-61000D01*
X67510Y-61000D01*
G37*
G36*
X67510Y-61560D02*
X67510Y-61040D01*
X68090Y-61040D01*
X68090Y-61560D01*
X67510Y-61560D01*
G37*
G36*
X90740Y-64970D02*
X90740Y-64430D01*
X91240Y-64430D01*
X91240Y-64970D01*
X90740Y-64970D01*
G37*
G36*
X90740Y-65620D02*
X90740Y-65080D01*
X91240Y-65080D01*
X91240Y-65620D01*
X90740Y-65620D01*
G37*
G54D87*
X78552Y-50696D03*
X79112Y-50696D03*
G54D88*
X91380Y-60650D03*
X92030Y-60650D03*
G54D92*
X73670Y-48830D03*
X74100Y-48830D03*
X74530Y-48830D03*
X74970Y-48830D03*
X75400Y-48830D03*
X75830Y-48830D03*
X76270Y-48830D03*
X76700Y-48830D03*
X77130Y-48830D03*
G54D93*
X71860Y-48630D03*
G54D15*
X76500Y-44690D03*
X73350Y-44690D03*
G54D94*
X71500Y-44850D03*
X77600Y-44850D03*
G54D95*
X77610Y-48630D03*
G54D78*
X82910Y-45460D03*
G54D79*
X81910Y-45460D03*
X80910Y-45460D03*
X79910Y-45460D03*
G54D78*
X82900Y-44480D03*
G54D79*
X81900Y-44500D03*
X80900Y-44480D03*
X79900Y-44480D03*
G54D96*
X67310Y-46700D03*
X67000Y-46700D03*
X66680Y-46700D03*
X66370Y-46700D03*
X66050Y-46700D03*
G54D80*
X67550Y-45530D03*
X65820Y-45530D03*
G54D97*
X68380Y-46560D03*
X64990Y-44390D03*
X68380Y-44390D03*
X64990Y-46560D03*
G54D10*
X65890Y-73430D03*
X68470Y-49870D03*
G54D81*
X64960Y-53190D03*
G54D82*
X65960Y-53190D03*
G54D11*
X66080Y-54550D03*
X66860Y-54550D03*
X66080Y-55330D03*
X66860Y-55330D03*
X66080Y-56120D03*
X66860Y-56120D03*
X66080Y-56910D03*
X66860Y-56910D03*
G54D83*
X87170Y-45650D03*
X87170Y-48150D03*
X85670Y-47150D03*
G54D81*
X84050Y-44520D03*
G54D82*
X84050Y-45520D03*
G54D84*
X93690Y-53070D03*
X94480Y-53070D03*
X93690Y-53860D03*
X94480Y-53860D03*
X93690Y-54640D03*
X94480Y-54640D03*
X93690Y-55430D03*
X94480Y-55430D03*
X93690Y-56220D03*
X94480Y-56220D03*
X93690Y-57010D03*
X94480Y-57010D03*
X93690Y-57790D03*
X94480Y-57790D03*
X93690Y-58580D03*
X94480Y-58580D03*
X93690Y-59370D03*
X94480Y-59370D03*
X93690Y-60160D03*
X94480Y-60160D03*
X93690Y-60940D03*
X94480Y-60940D03*
X93690Y-61730D03*
X94480Y-61730D03*
X93690Y-62520D03*
X94480Y-62520D03*
X93690Y-63310D03*
X94480Y-63310D03*
X93690Y-64090D03*
X94480Y-64090D03*
X93690Y-64880D03*
X94480Y-64880D03*
X93690Y-65670D03*
X94480Y-65670D03*
X93690Y-66460D03*
X94480Y-66460D03*
X93690Y-67240D03*
X94480Y-67240D03*
X93690Y-68030D03*
X94480Y-68030D03*
G54D98*
X74690Y-53780D03*
X74690Y-52940D03*
X73880Y-53780D03*
X73880Y-52940D03*
X70360Y-54400D03*
X69520Y-54400D03*
X67220Y-70420D03*
X67220Y-69580D03*
G36*
X67670Y-68760D02*
X67670Y-68060D01*
X68370Y-68060D01*
X68370Y-68760D01*
X67670Y-68760D01*
G37*
G36*
X67670Y-69600D02*
X67670Y-68900D01*
X68370Y-68900D01*
X68370Y-69600D01*
X67670Y-69600D01*
G37*
X76320Y-64024D03*
X75480Y-64024D03*
X69690Y-47670D03*
X70530Y-47670D03*
G36*
X69260Y-46090D02*
X69260Y-45390D01*
X69960Y-45390D01*
X69960Y-46090D01*
X69260Y-46090D01*
G37*
G36*
X69260Y-46930D02*
X69260Y-46230D01*
X69960Y-46230D01*
X69960Y-46930D01*
X69260Y-46930D01*
G37*
G36*
X66870Y-60920D02*
X66870Y-60480D01*
X67410Y-60480D01*
X67410Y-60920D01*
X66870Y-60920D01*
G37*
G36*
X66870Y-61520D02*
X66870Y-61080D01*
X67410Y-61080D01*
X67410Y-61520D01*
X66870Y-61520D01*
G37*
G54D99*
X68080Y-65270D03*
X67480Y-65270D03*
G54D100*
X88700Y-69560D03*
X88700Y-68960D03*
G54D76*
X65050Y-49210D03*
X65050Y-50980D03*
G54D77*
X66030Y-48710D03*
X66030Y-51470D03*
G36*
X71490Y-56150D02*
X71490Y-55630D01*
X72070Y-55630D01*
X72070Y-56150D01*
X71490Y-56150D01*
G37*
G36*
X71490Y-56710D02*
X71490Y-56190D01*
X72070Y-56190D01*
X72070Y-56710D01*
X71490Y-56710D01*
G37*
G54D87*
X73570Y-56720D03*
X74130Y-56720D03*
X71850Y-52770D03*
X71290Y-52770D03*
G36*
X75030Y-56560D02*
X75030Y-56040D01*
X75610Y-56040D01*
X75610Y-56560D01*
X75030Y-56560D01*
G37*
G36*
X75030Y-57120D02*
X75030Y-56600D01*
X75610Y-56600D01*
X75610Y-57120D01*
X75030Y-57120D01*
G37*
G54D89*
X76020Y-55650D03*
X76020Y-55090D03*
G36*
X68220Y-56100D02*
X68220Y-55580D01*
X68800Y-55580D01*
X68800Y-56100D01*
X68220Y-56100D01*
G37*
G36*
X68220Y-56660D02*
X68220Y-56140D01*
X68800Y-56140D01*
X68800Y-56660D01*
X68220Y-56660D01*
G37*
G36*
X67500Y-56110D02*
X67500Y-55590D01*
X68080Y-55590D01*
X68080Y-56110D01*
X67500Y-56110D01*
G37*
G36*
X67500Y-56670D02*
X67500Y-56150D01*
X68080Y-56150D01*
X68080Y-56670D01*
X67500Y-56670D01*
G37*
X68390Y-53190D03*
X68390Y-52630D03*
G36*
X70370Y-53012D02*
X70370Y-52492D01*
X70950Y-52492D01*
X70950Y-53012D01*
X70370Y-53012D01*
G37*
G36*
X70370Y-53572D02*
X70370Y-53052D01*
X70950Y-53052D01*
X70950Y-53572D01*
X70370Y-53572D01*
G37*
G54D87*
X81810Y-56350D03*
X82370Y-56350D03*
X72940Y-66380D03*
X73500Y-66380D03*
G54D89*
X76260Y-51620D03*
X76260Y-51060D03*
X74540Y-51610D03*
X74540Y-51050D03*
X75400Y-51620D03*
X75400Y-51060D03*
X77710Y-51620D03*
X77710Y-51060D03*
X77060Y-51620D03*
X77060Y-51060D03*
G54D91*
X84760Y-64390D03*
X84760Y-63740D03*
G36*
X83600Y-55820D02*
X83600Y-55280D01*
X84100Y-55280D01*
X84100Y-55820D01*
X83600Y-55820D01*
G37*
G36*
X83600Y-56470D02*
X83600Y-55930D01*
X84100Y-55930D01*
X84100Y-56470D01*
X83600Y-56470D01*
G37*
G36*
X84180Y-56850D02*
X84180Y-56310D01*
X84680Y-56310D01*
X84680Y-56850D01*
X84180Y-56850D01*
G37*
G36*
X84180Y-57500D02*
X84180Y-56960D01*
X84680Y-56960D01*
X84680Y-57500D01*
X84180Y-57500D01*
G37*
G36*
X84200Y-55540D02*
X84200Y-55000D01*
X84700Y-55000D01*
X84700Y-55540D01*
X84200Y-55540D01*
G37*
G36*
X84200Y-56190D02*
X84200Y-55650D01*
X84700Y-55650D01*
X84700Y-56190D01*
X84200Y-56190D01*
G37*
G54D89*
X73890Y-51610D03*
X73890Y-51050D03*
X73240Y-51620D03*
X73240Y-51060D03*
G54D91*
X92740Y-61280D03*
X92740Y-60630D03*
G36*
X83480Y-48240D02*
X83480Y-47720D01*
X84060Y-47720D01*
X84060Y-48240D01*
X83480Y-48240D01*
G37*
G36*
X83480Y-48800D02*
X83480Y-48280D01*
X84060Y-48280D01*
X84060Y-48800D01*
X83480Y-48800D01*
G37*
G54D87*
X79310Y-52370D03*
X78750Y-52370D03*
X78550Y-49250D03*
X79110Y-49250D03*
X79110Y-49960D03*
X78550Y-49960D03*
G54D101*
X68040Y-62890D03*
X68040Y-62570D03*
X68040Y-62260D03*
X68040Y-61940D03*
X67340Y-61940D03*
X67340Y-62260D03*
X67340Y-62570D03*
X67340Y-62890D03*
X68060Y-64550D03*
X68060Y-64230D03*
X68060Y-63920D03*
X68060Y-63600D03*
X67360Y-63600D03*
X67360Y-63920D03*
X67360Y-64230D03*
X67360Y-64550D03*
G54D102*
X69580Y-63890D03*
X69730Y-63890D03*
X69890Y-63890D03*
X70050Y-63890D03*
X70210Y-63890D03*
X70360Y-63890D03*
X70520Y-63890D03*
X70680Y-63890D03*
X70840Y-63890D03*
X70990Y-63890D03*
X71150Y-63890D03*
X71310Y-63890D03*
X71470Y-63890D03*
X71620Y-63890D03*
X71780Y-63890D03*
X71940Y-63890D03*
X72090Y-63890D03*
X72250Y-63890D03*
X72410Y-63890D03*
X72570Y-63890D03*
X72720Y-63890D03*
X72880Y-63890D03*
X73040Y-63890D03*
X73200Y-63890D03*
X73350Y-63890D03*
X73510Y-63890D03*
X73670Y-63890D03*
X73830Y-63890D03*
X73980Y-63890D03*
X74140Y-63890D03*
X74300Y-63890D03*
X74460Y-63890D03*
G54D103*
X75040Y-63310D03*
X75040Y-63160D03*
X75040Y-63000D03*
X75040Y-62840D03*
X75040Y-62680D03*
X75040Y-62530D03*
X75040Y-62370D03*
X75040Y-62210D03*
X75040Y-62050D03*
X75040Y-61900D03*
X75040Y-61740D03*
X75040Y-61580D03*
X75040Y-61420D03*
X75040Y-61270D03*
X75040Y-61110D03*
X75040Y-60950D03*
X75040Y-60800D03*
X75040Y-60640D03*
X75040Y-60480D03*
X75040Y-60320D03*
X75040Y-60170D03*
X75040Y-60010D03*
X75040Y-59850D03*
X75040Y-59690D03*
X75040Y-59540D03*
X75040Y-59380D03*
X75040Y-59220D03*
X75040Y-59060D03*
X75040Y-58910D03*
X75040Y-58750D03*
X75040Y-58590D03*
X75040Y-58430D03*
G54D102*
X74460Y-57840D03*
X74300Y-57840D03*
X74140Y-57840D03*
X73980Y-57840D03*
X73830Y-57840D03*
X73670Y-57840D03*
X73510Y-57840D03*
X73350Y-57840D03*
X73200Y-57840D03*
X73040Y-57840D03*
X72880Y-57840D03*
X72720Y-57840D03*
X72570Y-57840D03*
X72410Y-57840D03*
X72250Y-57840D03*
X72090Y-57840D03*
X71940Y-57840D03*
X71780Y-57840D03*
X71620Y-57840D03*
X71470Y-57840D03*
X71310Y-57840D03*
X71150Y-57840D03*
X70990Y-57850D03*
X70840Y-57840D03*
X70680Y-57840D03*
X70520Y-57840D03*
X70360Y-57840D03*
X70210Y-57840D03*
X70050Y-57840D03*
X69890Y-57840D03*
X69730Y-57840D03*
X69580Y-57840D03*
G54D103*
X69000Y-58430D03*
X69000Y-58590D03*
X69000Y-58750D03*
X69000Y-58910D03*
X69000Y-59060D03*
X69000Y-59220D03*
X69000Y-59380D03*
X69000Y-59540D03*
X69000Y-59690D03*
X69000Y-59850D03*
X69000Y-60010D03*
X69000Y-60170D03*
X69000Y-60320D03*
X69000Y-60480D03*
X69000Y-60640D03*
X69000Y-60800D03*
X69000Y-60950D03*
X69000Y-61110D03*
X69000Y-61270D03*
X69000Y-61420D03*
X69000Y-61580D03*
X69000Y-61740D03*
X69000Y-61900D03*
X69000Y-62050D03*
X69000Y-62210D03*
X69000Y-62370D03*
X69000Y-62530D03*
X69000Y-62680D03*
X69000Y-62840D03*
X69000Y-63000D03*
X69000Y-63160D03*
X69000Y-63310D03*
G54D104*
X78600Y-68180D03*
X78290Y-68180D03*
X77970Y-68180D03*
X77660Y-68180D03*
X77340Y-68180D03*
X77030Y-68180D03*
X76710Y-68180D03*
X76400Y-68180D03*
X76080Y-68180D03*
X75770Y-68180D03*
X75450Y-68180D03*
X75140Y-68180D03*
X74820Y-68180D03*
X74510Y-68180D03*
X74190Y-68180D03*
X73880Y-68180D03*
X73560Y-68180D03*
X73250Y-68180D03*
X72930Y-68180D03*
X72620Y-68180D03*
X72300Y-68180D03*
X71990Y-68180D03*
X71990Y-72740D03*
X72300Y-72740D03*
X72620Y-72740D03*
X72930Y-72740D03*
X73250Y-72740D03*
X73560Y-72740D03*
X73880Y-72740D03*
X74190Y-72740D03*
X74510Y-72740D03*
X74820Y-72740D03*
X75140Y-72740D03*
X75450Y-72740D03*
X75770Y-72740D03*
X76080Y-72740D03*
X76400Y-72740D03*
X76710Y-72740D03*
X77030Y-72740D03*
X77340Y-72740D03*
X77660Y-72740D03*
X77970Y-72740D03*
X78290Y-72740D03*
X78600Y-72740D03*
X71680Y-68170D03*
X71360Y-68170D03*
X71050Y-68170D03*
X70730Y-68170D03*
X70420Y-68170D03*
X70420Y-72740D03*
X70730Y-72740D03*
X71050Y-72740D03*
X71360Y-72740D03*
X71680Y-72740D03*
G54D105*
X83830Y-57100D03*
X83630Y-57100D03*
X83430Y-57100D03*
X83240Y-57100D03*
X83040Y-57100D03*
X82840Y-57100D03*
X82650Y-57100D03*
X82450Y-57100D03*
X82250Y-57100D03*
X82060Y-57100D03*
X81860Y-57100D03*
X81660Y-57100D03*
X81460Y-57100D03*
X81270Y-57100D03*
X81070Y-57100D03*
X80870Y-57100D03*
X80680Y-57100D03*
X80480Y-57100D03*
X80280Y-57100D03*
X80090Y-57100D03*
X79890Y-57100D03*
X79690Y-57100D03*
X79500Y-57100D03*
X79300Y-57100D03*
X79300Y-64800D03*
X79500Y-64800D03*
X79690Y-64800D03*
X79890Y-64800D03*
X80090Y-64800D03*
X80280Y-64800D03*
X80480Y-64800D03*
X80680Y-64800D03*
X80870Y-64800D03*
X81070Y-64800D03*
X81270Y-64800D03*
X81460Y-64800D03*
X81660Y-64800D03*
X81860Y-64800D03*
X82060Y-64800D03*
X82250Y-64800D03*
X82450Y-64800D03*
X82650Y-64800D03*
X82840Y-64800D03*
X83040Y-64800D03*
X83240Y-64800D03*
X83430Y-64800D03*
X83630Y-64800D03*
X83830Y-64800D03*
G54D106*
X82200Y-51390D03*
X82200Y-51130D03*
X82200Y-50870D03*
X82200Y-50620D03*
X82200Y-50360D03*
X82200Y-50110D03*
X82200Y-49850D03*
X82200Y-49600D03*
X82200Y-49340D03*
X82200Y-49080D03*
X79860Y-49080D03*
X79860Y-49340D03*
X79860Y-49600D03*
X79860Y-49850D03*
X79860Y-50110D03*
X79860Y-50360D03*
X79860Y-50620D03*
X79860Y-50870D03*
X79860Y-51130D03*
X79860Y-51390D03*
G54D107*
X88530Y-51840D03*
X89430Y-51840D03*
X90330Y-51840D03*
G54D108*
X89430Y-49400D03*
G54D107*
X85170Y-52690D03*
X86070Y-52690D03*
X86970Y-52690D03*
G54D108*
X86070Y-50250D03*
G54D105*
X85400Y-63730D03*
X85590Y-63730D03*
X85790Y-63730D03*
X85990Y-63730D03*
X86190Y-63730D03*
X86380Y-63730D03*
X86580Y-63730D03*
X86780Y-63730D03*
X86970Y-63730D03*
X87170Y-63730D03*
X87370Y-63730D03*
X87560Y-63730D03*
X87760Y-63730D03*
X87960Y-63730D03*
X88150Y-63730D03*
X88350Y-63730D03*
X88550Y-63730D03*
X88740Y-63730D03*
X88940Y-63730D03*
X89140Y-63730D03*
X89330Y-63730D03*
X89530Y-63730D03*
X89730Y-63730D03*
X89930Y-63730D03*
X90120Y-63730D03*
G54D109*
X90810Y-63040D03*
X90810Y-62850D03*
X90810Y-62650D03*
X90810Y-62450D03*
X90810Y-62250D03*
X90810Y-62060D03*
X90810Y-61860D03*
X90810Y-61660D03*
X90810Y-61470D03*
X90810Y-61270D03*
X90810Y-61070D03*
X90810Y-60880D03*
X90810Y-60680D03*
X90810Y-60480D03*
X90810Y-60290D03*
X90810Y-60090D03*
X90810Y-59890D03*
X90810Y-59700D03*
X90810Y-59500D03*
X90810Y-59300D03*
X90810Y-59110D03*
X90810Y-58910D03*
X90810Y-58710D03*
X90810Y-58510D03*
X90810Y-58320D03*
G54D105*
X90120Y-57630D03*
X89930Y-57630D03*
X89730Y-57630D03*
X89530Y-57630D03*
X89330Y-57630D03*
X89140Y-57630D03*
X88940Y-57630D03*
X88740Y-57630D03*
X88550Y-57630D03*
X88350Y-57630D03*
X88150Y-57630D03*
X87960Y-57630D03*
X87760Y-57630D03*
X87560Y-57630D03*
X87370Y-57630D03*
X87170Y-57630D03*
X86970Y-57630D03*
X86780Y-57630D03*
X86580Y-57630D03*
X86380Y-57630D03*
X86190Y-57630D03*
X85990Y-57630D03*
X85790Y-57630D03*
X85590Y-57630D03*
X85400Y-57630D03*
G54D109*
X84710Y-58320D03*
X84710Y-58510D03*
X84710Y-58710D03*
X84710Y-58910D03*
X84710Y-59110D03*
X84710Y-59300D03*
X84710Y-59500D03*
X84710Y-59700D03*
X84710Y-59890D03*
X84710Y-60090D03*
X84710Y-60290D03*
X84710Y-60480D03*
X84710Y-60680D03*
X84710Y-60880D03*
X84710Y-61070D03*
X84710Y-61270D03*
X84710Y-61470D03*
X84710Y-61660D03*
X84710Y-61860D03*
X84710Y-62060D03*
X84710Y-62250D03*
X84710Y-62450D03*
X84710Y-62650D03*
X84710Y-62850D03*
X84710Y-63040D03*
G54D107*
X91490Y-49420D03*
X92390Y-49420D03*
X93290Y-49420D03*
G54D108*
X92390Y-46980D03*
G54D110*
X85960Y-70330D03*
X86220Y-70330D03*
X86480Y-70330D03*
X86730Y-70330D03*
X86990Y-70330D03*
X87240Y-70330D03*
X87500Y-70330D03*
X87750Y-70330D03*
X88010Y-70330D03*
X88270Y-70330D03*
X88270Y-67990D03*
X88010Y-67990D03*
X87750Y-67990D03*
X87500Y-67990D03*
X87240Y-67990D03*
X86990Y-67990D03*
X86730Y-67990D03*
X86480Y-67990D03*
X86220Y-67990D03*
X85960Y-67990D03*
G54D111*
X67000Y-52240D03*
X67000Y-53100D03*
X67740Y-53100D03*
G54D112*
X67740Y-52240D03*
G54D113*
X91540Y-65730D03*
X91910Y-65730D03*
X92290Y-65730D03*
X91540Y-64720D03*
X92290Y-64720D03*
G54D114*
X82540Y-69860D03*
X84540Y-69860D03*
X84540Y-68210D03*
X82540Y-68210D03*
G54D115*
X72805Y-53555D03*
G54D116*
X72555Y-55875D03*
X73065Y-55875D03*
G54D115*
X77080Y-54355D03*
G54D116*
X76830Y-56675D03*
X77340Y-56675D03*
G54D117*
X71920Y-51470D03*
G54D118*
X72270Y-50150D03*
G54D91*
X70540Y-51780D03*
X70540Y-51130D03*
X70550Y-49270D03*
X70550Y-48620D03*
G54D89*
X70570Y-50480D03*
X70570Y-49920D03*
M02*
