%
T1C0.0118F200S100
X004243Y062080
X005045Y071383
X005451Y077340
X005535Y068845
X005686Y062400
X005739Y072678
X005759Y062991
X005834Y070219
X005836Y063581
X005862Y069684
X006000Y074000
X006030Y073470
X006130Y075940
X006171Y072108
X006230Y074310
X006269Y072800
X006426Y070783
X006631Y071763
X006857Y063659
X006884Y066526
X006857Y068699
X006991Y069338
X006996Y071444
X007153Y065084
X007157Y063793
X007168Y064600
X007206Y069684
X007252Y070065
X007286Y062934
X007429Y065331
X007431Y064834
X007438Y063978
X007443Y064322
X007546Y069684
X008279Y061509
X008369Y070805
X008483Y063841
X008485Y069282
X008757Y063621
X008806Y064227
X008818Y071243
X008823Y070835
X008863Y059110
X009009Y071747
X009010Y072290
X009034Y063999
X009081Y064691
X009111Y075861
X009116Y064369
X009151Y060484
X009189Y063583
X009203Y081739
X009370Y064879
X009435Y064457
X009512Y081519
X009515Y072215
X009582Y060949
X009687Y070869
X009893Y072263
X009903Y073902
X010129Y071014
X010221Y069099
X010237Y072153
X010409Y069735
X010473Y069313
X010518Y056057
X010518Y056579
X010520Y057285
X010601Y077486
X010877Y085158
X010881Y083055
X010883Y070044
X010968Y059310
X011380Y072601
X011529Y076340
X011620Y059022
X011830Y071336
X011864Y064214
X011994Y073064
X012078Y066158
X012096Y061406
X012105Y069150
X012125Y082028
X012133Y068363
X012309Y066562
X012337Y066961
X012464Y066088
X012464Y063791
X012558Y082717
X012652Y071870
X012672Y076329
X012727Y068048
X012728Y066942
X012800Y070121
X012822Y072812
X013027Y082587
X013106Y066749
X013180Y070590
X013257Y069875
X013301Y077754
X013306Y066486
X013344Y082989
X013471Y066209
X013749Y073165
X013821Y069848
X013860Y066763
X014000Y083582
X014002Y074658
X014039Y066461
X014080Y060092
X014248Y059800
X014346Y084144
X014364Y080268
X014383Y070087
X014385Y066938
X014492Y056764
X014538Y070581
X014543Y066642
X014666Y074239
X014697Y066361
X014774Y073173
X014802Y056690
X014825Y079865
X014834Y071710
X014965Y070551
X015045Y063732
X015119Y056793
X015120Y066614
X015138Y066088
X015148Y064062
X015279Y063381
X015305Y074882
X015334Y064336
X015432Y056680
X015458Y063062
X015672Y071704
X015748Y056770
X015748Y067330
X015802Y063168
X015848Y066156
X015897Y067631
X015951Y070047
X016008Y062924
X016020Y062130
X016060Y066769
X016062Y056690
X016234Y070548
X016304Y058536
X016322Y067145
X016380Y056792
X016450Y058182
X016607Y066579
X016616Y073492
X016667Y057869
X016920Y072272
X016932Y066151
X016952Y064458
X016956Y063710
X016956Y064144
X016966Y057556
X016970Y074056
X016976Y063256
X017009Y055791
X017029Y078374
X017032Y062770
X017176Y062362
X017346Y070882
X017354Y063014
X017496Y058840
X017638Y060363
X017654Y061339
X017658Y063943
X017765Y063581
X017820Y074184
X017898Y077075
X017953Y061519
X018268Y061242
X018328Y078259
X018328Y079244
X018518Y075382
X018528Y071780
X018552Y059066
X018560Y062364
X018583Y055637
X018606Y070604
X018898Y061478
X019067Y077935
X019213Y061257
X019317Y076289
X019327Y075740
X019498Y062788
X019528Y060366
X019540Y062044
X019584Y063208
X019585Y073981
X019610Y070746
X019674Y075918
X019757Y084137
X019843Y061501
X020101Y084687
X020106Y078634
X020108Y079399
X020158Y061238
X020193Y076071
X020473Y055703
X020648Y077627
X020788Y061244
X021103Y055737
X021677Y077647
X021816Y076987
X022229Y064761
X022420Y065012
X022628Y062091
X022680Y071328
X022721Y080938
X022732Y070355
X022763Y066631
X022790Y065008
X022843Y079663
X022913Y078916
X022925Y078211
X022926Y078592
X023091Y079405
X023169Y065052
X023176Y071344
X023234Y070109
X023467Y070363
X023530Y063302
X023619Y071326
X023675Y080758
X023740Y058896
X023765Y069330
X023848Y068838
X023857Y082280
X023870Y075850
X023873Y067885
X023881Y068361
X023886Y079660
X023914Y067392
X023941Y069662
X023964Y066881
X023990Y071330
X024007Y069111
X024079Y068614
X024088Y070013
X024097Y068130
X024100Y079032
X024138Y067646
X024154Y078126
X024178Y067127
X024253Y066632
X024461Y071120
X024587Y082458
X024705Y063302
X024709Y070902
X024756Y064828
X024882Y077302
X024970Y076700
X025085Y064976
X025210Y070911
X025258Y079857
X025429Y064849
X025530Y073360
X025608Y080120
X025674Y065069
X025724Y065449
X025804Y076698
X025844Y079794
X025982Y065671
X026269Y077733
X026269Y078895
X026362Y074899
X026658Y059931
X026788Y075467
X026877Y081105
X026887Y061431
X026919Y072177
X026938Y063397
X026948Y074015
X027105Y079605
X027260Y076312
X027550Y073519
X027573Y056209
X027623Y060799
X027658Y076876
X027668Y075743
X027941Y067341
X027985Y069550
X028025Y076312
X028094Y058414
X028143Y068310
X028342Y066751
X028433Y069891
X028484Y073380
X028521Y070632
X028541Y072051
X028863Y069555
X029059Y072660
X029063Y066065
X029097Y072130
X029130Y064573
X029268Y075144
X029382Y061798
X029677Y074751
X029760Y062025
X029830Y066110
X029945Y067516
X030066Y070513
X030262Y062238
X030266Y061491
X030356Y065990
X030372Y064601
X030638Y059855
X030709Y077161
X030749Y068321
X030809Y075344
X030844Y059304
X031016Y058324
X031037Y076652
X031037Y077663
X031056Y070511
X031168Y058739
X031229Y075095
X031339Y077161
X031357Y065981
X031372Y075892
X031377Y058324
X031523Y058739
X031550Y073282
X031677Y063339
X031688Y060033
X031694Y058324
X031724Y056207
X031842Y067105
X031908Y069898
X031941Y070571
X032131Y073401
X032239Y069358
X032252Y064738
X032273Y063369
X032320Y066643
X032373Y065891
X032402Y067211
X032492Y070715
X032539Y067922
X032718Y069020
X032819Y059069
X032829Y064738
X032876Y063259
X033207Y065367
X033299Y059058
X033310Y058507
X033398Y076540
X033445Y062671
X033494Y063282
X033650Y079576
X033776Y065639
X033789Y059068
X033791Y058501
X033818Y066595
X033822Y069155
X033903Y063758
X033994Y079081
X033994Y080094
X034007Y070906
X034204Y068005
X034260Y078485
X034289Y059096
X034291Y058521
X034302Y079576
X034372Y076219
X034777Y058508
X034786Y059085
X034817Y076731
X034960Y067725
X035193Y066352
X035202Y069794
X035205Y069225
X035885Y076825
X036115Y078519
X036215Y076811
X036553Y076811
T3C0.0340F200S100
X022401Y084521
X022416Y083537
X023401Y084521
X023416Y083537
X024397Y084498
X024416Y083537
X025401Y084521
X025416Y083537
X036197Y060969
X036197Y061759
X036197Y062539
X036197Y063329
X036197Y064119
X036197Y064909
X036197Y065689
X036197Y066479
X036197Y067269
X036197Y068059
X036197Y068839
X036197Y069629
X036197Y070419
X036197Y071209
X036197Y071989
X036197Y072779
X036197Y073569
X036197Y074359
X036197Y075139
X036197Y075929
X036987Y060969
X036987Y061759
X036987Y062539
X036987Y063329
X036987Y064119
X036987Y064909
X036987Y065689
X036987Y066479
X036987Y067269
X036987Y068059
X036987Y068839
X036987Y069629
X036987Y070419
X036987Y071209
X036987Y071989
X036987Y072779
X036987Y073569
X036987Y074359
X036987Y075139
X036987Y075929
T5C0.0417F200S100
X003872Y078608
X003872Y080379
X027054Y054595
X028825Y054595
X031577Y054595
X033348Y054595
T8C0.0531F200S100
X004856Y078116
X004856Y080871
X026562Y055579
X029318Y055579
X031085Y055579
X033840Y055579
T6C0.0420F200S100
X003695Y076473
X004695Y076473
X026375Y083601
X026375Y084601
T9C0.1181F200S100
X005039Y083850
X005043Y055583
X028167Y081843
X029667Y080843
X029667Y083343
X036669Y055576
X036671Y083877
T2C0.0315F200S100
X003709Y073007
X003709Y073794
X003709Y074582
X003709Y075369
X004496Y073007
X004496Y073794
X004496Y074582
X004496Y075369
M30
