M48
;DRILL file {PCBnew (20090216-final)} date Tue 28 Sep 2010 03:28:56 PM COT
;FORMAT={-.-/ absolute / metric / decimal}
R,T
VER,1
FMAT,2
METRIC,TZ
TCST,OFF
ICI,OFF
ATC,ON
T1C0.300
T2C0.762
T3C0.864
T4C0.965
T5C1.016
T6C1.067
T7C1.321
T8C2.997
%
M47
G05
M71
T1
X155.499Y-157.300
X158.399Y-139.400
X158.801Y-137.399
X158.999Y-143.401
X159.499Y-146.101
X160.299Y-169.700
X160.500Y-168.100
X160.701Y-151.900
X160.800Y-150.701
X162.799Y-143.401
X163.200Y-152.799
X163.401Y-153.700
X163.627Y-148.488
X163.800Y-152.199
X163.800Y-162.001
X163.901Y-163.299
X164.000Y-164.701
X164.000Y-166.101
X164.099Y-168.900
X164.201Y-143.401
X164.399Y-151.300
X164.399Y-162.601
X164.399Y-164.000
X164.501Y-160.299
X164.600Y-165.499
X164.600Y-166.700
X165.001Y-144.899
X165.100Y-167.401
X165.400Y-159.400
X167.112Y-175.750
X167.401Y-129.499
X167.401Y-147.300
X168.554Y-180.993
X168.699Y-134.501
X168.999Y-166.901
X169.266Y-132.121
X169.291Y-177.615
X169.400Y-120.000
X169.400Y-163.700
X169.400Y-164.501
X169.601Y-154.701
X169.601Y-166.299
X169.863Y-151.399
X169.901Y-144.800
X170.000Y-142.499
X170.000Y-163.101
X170.000Y-167.000
X170.101Y-164.099
X170.101Y-164.899
X170.139Y-141.564
X170.200Y-120.401
X170.383Y-176.446
X170.401Y-165.699
X170.729Y-146.365
X171.023Y-141.508
X171.099Y-129.499
X171.425Y-143.281
X172.601Y-131.300
X172.799Y-184.201
X173.553Y-132.121
X173.594Y-149.576
X173.660Y-111.323
X173.690Y-116.799
X173.914Y-180.612
X174.772Y-139.121
X174.955Y-143.256
X175.387Y-136.957
X175.443Y-132.629
X175.484Y-136.022
X175.565Y-181.323
X176.111Y-146.472
X176.174Y-164.536
X176.439Y-142.047
X176.713Y-159.614
X176.743Y-152.019
X176.835Y-119.304
X177.170Y-158.841
X177.383Y-167.315
X177.414Y-160.284
X177.576Y-157.439
X177.942Y-117.551
X178.097Y-132.621
X178.201Y-145.128
X178.283Y-157.922
X178.562Y-136.779
X178.562Y-149.555
X178.613Y-142.697
X178.918Y-154.076
X179.121Y-117.881
X179.121Y-157.368
X179.243Y-150.205
X179.446Y-136.246
X179.608Y-148.722
X179.791Y-158.415
X179.934Y-116.865
X180.421Y-157.216
X180.518Y-139.319
X180.594Y-129.134
X180.721Y-152.324
X180.899Y-127.178
X181.072Y-158.882
X181.336Y-150.592
X181.483Y-129.057
X181.539Y-158.232
X181.564Y-137.919
X181.610Y-115.341
X181.681Y-175.026
X182.169Y-157.551
X182.245Y-175.768
X182.270Y-122.245
X182.474Y-113.944
X182.659Y-149.824
X182.855Y-183.510
X182.941Y-158.577
X183.119Y-148.448
X183.337Y-136.754
X183.505Y-144.978
X183.530Y-141.996
X183.642Y-183.693
X183.672Y-158.151
X184.018Y-123.586
X184.059Y-148.468
X184.252Y-165.786
X184.318Y-183.223
X184.506Y-158.029
X184.506Y-159.791
X184.516Y-165.029
X184.861Y-166.675
X185.186Y-164.145
X185.196Y-183.266
X185.318Y-167.462
X185.379Y-156.535
X185.395Y-149.276
X186.050Y-183.144
X186.080Y-145.491
X186.162Y-167.615
X186.309Y-159.614
X186.345Y-156.891
X186.741Y-169.850
X186.817Y-167.142
X186.822Y-183.591
X186.842Y-158.064
X186.995Y-148.793
X187.432Y-178.989
X187.482Y-157.358
X187.574Y-183.327
X187.838Y-179.832
X188.087Y-150.114
X188.206Y-140.937
X188.366Y-180.645
X188.407Y-157.937
X188.590Y-164.328
X189.027Y-144.069
X189.057Y-159.532
X189.103Y-165.837
X189.128Y-181.453
X189.154Y-139.548
X189.154Y-166.980
X189.255Y-186.050
X189.301Y-128.260
X189.306Y-168.224
X189.456Y-169.235
X189.489Y-164.099
X190.094Y-147.599
X190.142Y-167.612
X190.475Y-178.206
X190.845Y-171.623
X190.856Y-174.320
X190.886Y-165.242
X191.171Y-166.197
X191.435Y-139.172
X191.577Y-131.999
X191.643Y-171.176
X192.430Y-171.501
X192.593Y-122.570
X193.091Y-136.169
X193.116Y-145.339
X193.192Y-169.240
X193.203Y-178.450
X193.243Y-186.334
X193.294Y-148.311
X194.056Y-171.623
X194.442Y-129.703
X194.869Y-172.110
X195.097Y-133.883
X195.123Y-135.280
X195.562Y-168.191
X195.656Y-174.320
X195.682Y-170.053
X195.783Y-167.107
X196.088Y-134.112
X196.225Y-147.930
X196.240Y-113.944
X196.454Y-171.907
X197.104Y-112.547
X197.145Y-122.347
X197.185Y-125.029
X197.267Y-171.785
X197.348Y-134.478
X198.044Y-186.157
X198.486Y-130.658
X198.852Y-171.907
X199.644Y-186.080
X201.092Y-130.414
X201.447Y-132.121
X202.514Y-163.170
X202.809Y-162.326
X203.342Y-146.467
X203.530Y-169.951
X203.576Y-149.535
X203.987Y-162.585
X204.287Y-125.303
X204.343Y-122.352
X204.851Y-146.583
X204.927Y-150.089
X205.110Y-162.870
X205.567Y-149.479
X205.649Y-146.548
X205.816Y-166.853
X206.172Y-122.530
X206.268Y-152.751
X206.568Y-156.510
X206.680Y-135.001
X206.695Y-155.224
X206.705Y-125.324
X206.715Y-159.187
X206.731Y-154.000
X206.781Y-150.800
X206.908Y-157.785
X206.985Y-146.482
X207.010Y-152.121
X207.213Y-153.365
X207.264Y-126.898
X207.366Y-155.829
X207.376Y-154.635
X207.391Y-129.210
X207.594Y-150.114
X207.609Y-157.145
X207.645Y-158.420
X207.747Y-151.511
X207.858Y-163.119
X208.610Y-147.168
X208.712Y-147.980
X208.930Y-166.878
X209.245Y-131.293
X209.474Y-132.842
X209.906Y-163.048
X210.160Y-147.726
X210.210Y-124.816
X210.759Y-162.799
X210.896Y-141.326
X211.074Y-124.155
X211.379Y-161.417
X211.582Y-132.842
X211.750Y-162.875
X211.856Y-125.171
X212.039Y-160.858
X212.060Y-130.211
X212.776Y-127.173
X213.086Y-137.394
X213.685Y-179.730
X214.097Y-135.966
X214.356Y-121.554
X214.452Y-144.374
X214.478Y-166.624
X214.498Y-139.436
X214.742Y-178.755
X214.904Y-125.405
X215.290Y-133.807
X215.910Y-135.504
X216.027Y-140.919
X216.327Y-173.248
X216.332Y-132.410
X216.997Y-156.616
X217.119Y-151.003
X217.180Y-150.124
X217.221Y-133.833
X217.363Y-179.466
X217.526Y-154.153
X217.653Y-157.632
X218.389Y-141.275
X218.618Y-144.780
X218.669Y-148.158
X219.415Y-159.146
X219.532Y-154.534
X219.885Y-144.683
X220.035Y-163.525
X220.066Y-143.093
X220.396Y-136.779
X220.675Y-170.688
X221.204Y-159.918
X221.412Y-137.795
X221.640Y-170.104
X222.402Y-148.539
X222.626Y-160.426
X222.910Y-169.570
X222.976Y-171.308
X223.190Y-163.576
X223.845Y-156.017
X223.865Y-175.626
X224.053Y-131.648
X224.384Y-177.013
X224.800Y-179.487
X224.841Y-132.918
X224.866Y-130.393
X224.917Y-148.565
X225.222Y-178.460
X225.593Y-154.310
X225.654Y-131.674
X225.654Y-179.502
X225.679Y-160.071
X225.730Y-134.899
X225.984Y-175.158
X226.111Y-178.460
X226.187Y-141.529
X226.416Y-147.650
X226.517Y-166.776
X226.543Y-179.502
X226.893Y-157.196
X227.157Y-150.084
X227.660Y-141.224
X227.828Y-163.210
X227.965Y-151.460
X227.990Y-160.447
X228.016Y-166.700
X228.346Y-156.947
X228.448Y-147.980
X228.702Y-155.118
X228.763Y-159.146
X229.159Y-152.349
X229.291Y-163.413
X229.540Y-166.980
X229.819Y-175.605
X230.388Y-178.877
X230.403Y-161.620
X230.454Y-177.470
X230.886Y-133.248
X231.115Y-166.929
X231.521Y-125.527
X231.851Y-179.095
X231.877Y-177.622
X231.892Y-161.056
X232.054Y-115.001
X232.080Y-158.532
X232.126Y-151.922
X232.385Y-124.206
X232.385Y-126.797
X232.410Y-147.549
X232.491Y-165.720
X232.867Y-154.818
X233.070Y-128.295
X233.147Y-177.546
X233.147Y-179.019
X233.172Y-125.527
X233.350Y-134.061
X234.389Y-177.576
X234.391Y-179.045
X234.533Y-129.276
X234.671Y-119.329
X234.848Y-155.626
X235.448Y-151.816
X235.458Y-150.368
X235.869Y-159.431
X236.799Y-131.900
X237.769Y-128.219
X238.201Y-131.900
T2
X155.499Y-136.500
X155.499Y-138.481
X155.499Y-140.487
X155.499Y-142.494
X157.480Y-136.500
X157.480Y-138.481
X157.480Y-140.487
X157.480Y-142.494
T3
X202.946Y-112.979
X202.971Y-115.468
X205.486Y-112.979
X205.511Y-115.468
X208.026Y-113.030
X208.051Y-115.468
X210.566Y-112.979
X210.591Y-115.468
X237.973Y-134.798
X237.973Y-136.804
X237.973Y-138.786
X237.973Y-140.792
X237.973Y-142.799
X237.973Y-144.805
X237.973Y-146.787
X237.973Y-148.793
X237.973Y-150.800
X237.973Y-152.806
X237.973Y-154.788
X237.973Y-156.794
X237.973Y-158.801
X237.973Y-160.807
X237.973Y-162.789
X237.973Y-164.795
X237.973Y-166.802
X237.973Y-168.808
X237.973Y-170.790
X237.973Y-172.796
X239.979Y-134.798
X239.979Y-136.804
X239.979Y-138.786
X239.979Y-140.792
X239.979Y-142.799
X239.979Y-144.805
X239.979Y-146.787
X239.979Y-148.793
X239.979Y-150.800
X239.979Y-152.806
X239.979Y-154.788
X239.979Y-156.794
X239.979Y-158.801
X239.979Y-160.807
X239.979Y-162.789
X239.979Y-164.795
X239.979Y-166.802
X239.979Y-168.808
X239.979Y-170.790
X239.979Y-172.796
T4
X186.309Y-113.513
X194.310Y-113.513
T5
X155.699Y-123.599
X155.699Y-128.095
X214.782Y-187.574
X219.278Y-187.574
X225.715Y-187.797
X230.210Y-187.797
T6
X155.499Y-133.701
X158.039Y-133.701
X167.183Y-115.646
X171.577Y-115.646
X213.487Y-113.081
X213.487Y-115.621
T7
X158.189Y-122.329
X158.189Y-129.339
X213.512Y-185.085
X220.523Y-185.085
X224.445Y-185.308
X231.455Y-185.308
T8
X158.775Y-114.699
X158.847Y-186.108
X217.602Y-119.761
X221.412Y-115.951
X221.412Y-122.301
X238.252Y-114.148
X238.277Y-186.487
T0
M30
