%
T1C0.0340F200S100
X-053288Y004452
X-052478Y004452
X-053288Y005432
X-051459Y004452
X-050649Y004452
X-050649Y005432
X-045257Y004452
X-044447Y004452
X-045257Y005432
X-043427Y004452
X-042617Y004452
X-042617Y005432
X-040598Y031654
X-040559Y030472
X-039598Y031654
X-039559Y030472
X-038598Y031654
X-038559Y030472
X-037598Y031654
X-037559Y030472
X-026693Y008032
X-025903Y008032
X-025903Y008822
X-025903Y009602
X-025903Y010392
X-025903Y011182
X-025903Y011972
X-025903Y012752
X-025903Y013542
X-025903Y014332
X-025903Y015122
X-025903Y015902
X-025903Y016692
X-025903Y017482
X-025903Y018272
X-025903Y019052
X-025903Y019842
X-025903Y020632
X-025903Y021422
X-025903Y022202
X-025903Y022992
X-026693Y008822
X-026693Y009602
X-026693Y010392
X-026693Y011182
X-026693Y011972
X-026693Y012752
X-026693Y013542
X-026693Y014332
X-026693Y015122
X-026693Y015902
X-026693Y016692
X-026693Y017482
X-026693Y018272
X-026693Y019052
X-026693Y019842
X-026693Y020632
X-026693Y021422
X-026693Y022202
X-026693Y022992
T3C0.0910F200S100
X-054628Y003272
X-051969Y002952
X-049309Y003272
X-046597Y003272
X-043937Y002952
X-041277Y003272
T2C0.0420F200S100
X-036378Y030732
X-036378Y031732
T4C0.1181F200S100
X-058033Y002835
X-057876Y030945
X-026222Y002913
X-026144Y030945
M30
