*
G04 Mass Parameters ***
*
G04 Image ***
*
%INC:\DOCUMENTS AND SETTINGS\BLUEDEEP\MIS DOCUMENTOS\ORCAD\CONECTOR_PS2\NUEVA CARPETA\PS2-6.DRD*%
%ICAS*%
%MOIN*%
%IPPOS*%
%ASAXBY*%
G74*%FSLAN2X34Y34*%
*
G04 Aperture Definitions ***
*
%ADD10C,0.0531*%
%ADD11C,0.0620*%
%ADD12R,0.0620X0.0620*%
%ADD13C,0.0550*%
%ADD14R,0.0550X0.0550*%
%ADD15C,0.1120*%
%ADD16R,0.0350X0.0300*%
%ADD17R,0.0300X0.0350*%
%ADD18C,0.3150X0.1575*%
%ADD19C,0.0004*%
%ADD20C,0.0100*%
%ADD21C,0.0394*%
%ADD22C,0.0531*%
%ADD23C,0.0620*%
%ADD24R,0.0620X0.0620*%
%ADD25C,0.0550*%
%ADD26R,0.0550X0.0550*%
%ADD27C,0.1120*%
%ADD28C,0.3150X0.1575*%
%ADD29C,0.0640*%
%ADD30C,0.0820*%
%ADD31R,0.0820X0.0820*%
%ADD32C,0.0750*%
%ADD33R,0.0750X0.0750*%
%ADD34C,0.1320*%
%ADD35C,0.1181*%
%ADD36C,0.0079*%
%ADD37C,0.0600*%
%ADD38R,0.0400X0.0350*%
%ADD39R,0.0350X0.0400*%
%ADD40C,0.3150*%
%ADD41C,0.0080*%
%ADD42C,0.0060*%
%ADD43C,0.0000*%
%ADD44C,0.1181*%
%ADD45C,0.0040*%
%ADD46C,0.0050*%
*
G04 Plot Data ***
*
G54D20*
G01X0024708Y-0011333D02*
X0024042D01*
X0024708Y-0010667D01*
Y-0010500D01*
X0024625Y-0010333D01*
X0024125D01*
X0024042Y-0010500D01*
X0023258Y-0011333D02*
X0023758Y-0010333D01*
X0023092D01*
X0012312Y-0011333D02*
X0011729D01*
Y-0010333D01*
X0011446Y-0011000D02*
X0010779D01*
X0011446Y-0011333D02*
Y-0010833D01*
X0011196Y-0010333D01*
X0011029D01*
X0010779Y-0010833D01*
Y-0011333D01*
X0010162D02*
Y-0010333D01*
X0010496D02*
X0009829D01*
X0008962Y-0011333D02*
X0008879Y-0011167D01*
Y-0010500D01*
X0008962Y-0010333D01*
X0009462D01*
X0009546Y-0010500D01*
Y-0011167D01*
X0009462Y-0011333D01*
X0008962D01*
X0008262D02*
Y-0010333D01*
X0008596D02*
X0007929D01*
X0024708Y-0009250D02*
X0024264D01*
X0024486Y-0008806D01*
X0024597D01*
Y-0009472D01*
X0010869D02*
Y-0009139D01*
X0011092Y-0009472D02*
Y-0009139D01*
X0011036Y-0009028D01*
X0010925D01*
X0010869Y-0009139D01*
X0010814Y-0009028D01*
X0010703D01*
X0010647Y-0009139D01*
Y-0009472D01*
X0010169D02*
Y-0009139D01*
X0010392Y-0009472D02*
Y-0009139D01*
X0010336Y-0009028D01*
X0010225D01*
X0010169Y-0009139D01*
X0010114Y-0009028D01*
X0010003D01*
X0009947Y-0009139D01*
Y-0009472D01*
X0008464D02*
X0008353Y-0009361D01*
X0008297Y-0009250D01*
Y-0009028D01*
X0008353Y-0008917D01*
X0008464Y-0008806D01*
X0008575D01*
X0008686Y-0008917D01*
X0008742Y-0009028D01*
Y-0009250D01*
X0008686Y-0009361D01*
X0008575Y-0009472D01*
X0008464D01*
X0007764D02*
X0007653Y-0009361D01*
X0007597Y-0009250D01*
Y-0009028D01*
X0007653Y-0008917D01*
X0007764Y-0008806D01*
X0007875D01*
X0007986Y-0008917D01*
X0008042Y-0009028D01*
Y-0009250D01*
X0007986Y-0009361D01*
X0007875Y-0009472D01*
X0007764D01*
X0007064D02*
X0006953Y-0009361D01*
X0006897Y-0009250D01*
Y-0009028D01*
X0006953Y-0008917D01*
X0007064Y-0008806D01*
X0007175D01*
X0007286Y-0008917D01*
X0007342Y-0009028D01*
Y-0009250D01*
X0007286Y-0009361D01*
X0007175Y-0009472D01*
X0007064D01*
X0006531D02*
X0006642D01*
Y-0009361D01*
X0006531D01*
Y-0009472D01*
X0005719Y-0009361D02*
X0005831Y-0009472D01*
X0006053D01*
X0006164Y-0009361D01*
Y-0009250D01*
X0005942Y-0009028D01*
X0006164Y-0008806D01*
X0005719D01*
X0024319Y-0007639D02*
X0024653D01*
X0024708Y-0007750D01*
Y-0007861D01*
X0024653Y-0007972D01*
X0024319D01*
X0024264Y-0007861D01*
Y-0007750D01*
X0024486Y-0007306D01*
X0010869Y-0007972D02*
Y-0007639D01*
X0011092Y-0007972D02*
Y-0007639D01*
X0011036Y-0007528D01*
X0010925D01*
X0010869Y-0007639D01*
X0010814Y-0007528D01*
X0010703D01*
X0010647Y-0007639D01*
Y-0007972D01*
X0010169D02*
Y-0007639D01*
X0010392Y-0007972D02*
Y-0007639D01*
X0010336Y-0007528D01*
X0010225D01*
X0010169Y-0007639D01*
X0010114Y-0007528D01*
X0010003D01*
X0009947Y-0007639D01*
Y-0007972D01*
X0008742D02*
X0008519D01*
X0008631D02*
Y-0007306D01*
X0008519Y-0007417D01*
X0008153Y-0007972D02*
X0007931D01*
X0008042D02*
Y-0007306D01*
X0007931Y-0007417D01*
X0007119Y-0007861D02*
X0007231Y-0007972D01*
X0007453D01*
X0007564Y-0007861D01*
Y-0007750D01*
X0007342Y-0007528D01*
X0007564Y-0007306D01*
X0007119D01*
X0006753Y-0007972D02*
X0006864D01*
Y-0007861D01*
X0006753D01*
Y-0007972D01*
X0006386D02*
X0005942D01*
X0006386Y-0007528D01*
Y-0007417D01*
X0006331Y-0007306D01*
X0005997D01*
X0005942Y-0007417D01*
X0024708Y-0006472D02*
X0024264D01*
X0024708Y-0006028D01*
Y-0005917D01*
X0024653Y-0005806D01*
X0024319D01*
X0024264Y-0005917D01*
X0010869Y-0006472D02*
Y-0006139D01*
X0011092Y-0006472D02*
Y-0006139D01*
X0011036Y-0006028D01*
X0010925D01*
X0010869Y-0006139D01*
X0010814Y-0006028D01*
X0010703D01*
X0010647Y-0006139D01*
Y-0006472D01*
X0010169D02*
Y-0006139D01*
X0010392Y-0006472D02*
Y-0006139D01*
X0010336Y-0006028D01*
X0010225D01*
X0010169Y-0006139D01*
X0010114Y-0006028D01*
X0010003D01*
X0009947Y-0006139D01*
Y-0006472D01*
X0008408D02*
X0008742Y-0005806D01*
X0008297D01*
X0007653Y-0006139D02*
X0007986D01*
X0008042Y-0006250D01*
Y-0006361D01*
X0007986Y-0006472D01*
X0007653D01*
X0007597Y-0006361D01*
Y-0006250D01*
X0007819Y-0005806D01*
X0007064Y-0006472D02*
X0006953Y-0006361D01*
X0006897Y-0006250D01*
Y-0006028D01*
X0006953Y-0005917D01*
X0007064Y-0005806D01*
X0007175D01*
X0007286Y-0005917D01*
X0007342Y-0006028D01*
Y-0006250D01*
X0007286Y-0006361D01*
X0007175Y-0006472D01*
X0007064D01*
X0006531D02*
X0006642D01*
Y-0006361D01*
X0006531D01*
Y-0006472D01*
X0006164D02*
X0005942D01*
X0006053D02*
Y-0005806D01*
X0005942Y-0005917D01*
X0024431Y-0004972D02*
X0024319Y-0004861D01*
X0024264Y-0004750D01*
Y-0004528D01*
X0024319Y-0004417D01*
X0024431Y-0004306D01*
X0024542D01*
X0024653Y-0004417D01*
X0024708Y-0004528D01*
Y-0004750D01*
X0024653Y-0004861D01*
X0024542Y-0004972D01*
X0024431D01*
X0023619Y-0004639D02*
X0023953D01*
X0024008Y-0004750D01*
Y-0004861D01*
X0023953Y-0004972D01*
X0023619D01*
X0023564Y-0004861D01*
Y-0004750D01*
X0023786Y-0004306D01*
X0010869Y-0004972D02*
Y-0004639D01*
X0011092Y-0004972D02*
Y-0004639D01*
X0011036Y-0004528D01*
X0010925D01*
X0010869Y-0004639D01*
X0010814Y-0004528D01*
X0010703D01*
X0010647Y-0004639D01*
Y-0004972D01*
X0010169D02*
Y-0004639D01*
X0010392Y-0004972D02*
Y-0004639D01*
X0010336Y-0004528D01*
X0010225D01*
X0010169Y-0004639D01*
X0010114Y-0004528D01*
X0010003D01*
X0009947Y-0004639D01*
Y-0004972D01*
X0008742Y-0004750D02*
X0008297D01*
X0008519Y-0004306D01*
X0008631D01*
Y-0004972D01*
X0007653Y-0004639D02*
X0007986D01*
X0008042Y-0004750D01*
Y-0004861D01*
X0007986Y-0004972D01*
X0007653D01*
X0007597Y-0004861D01*
Y-0004750D01*
X0007819Y-0004306D01*
X0007286Y-0004639D02*
X0007342Y-0004528D01*
Y-0004417D01*
X0007286Y-0004306D01*
X0006953D01*
X0006897Y-0004417D01*
Y-0004528D01*
X0006953Y-0004639D01*
X0007286D01*
X0007342Y-0004750D01*
Y-0004861D01*
X0007286Y-0004972D01*
X0006953D01*
X0006897Y-0004861D01*
Y-0004750D01*
X0006953Y-0004639D01*
X0006531Y-0004972D02*
X0006642D01*
Y-0004861D01*
X0006531D01*
Y-0004972D01*
X0005886D02*
X0005775Y-0004861D01*
X0005719Y-0004750D01*
Y-0004528D01*
X0005775Y-0004417D01*
X0005886Y-0004306D01*
X0005997D01*
X0006108Y-0004417D01*
X0006164Y-0004528D01*
Y-0004750D01*
X0006108Y-0004861D01*
X0005997Y-0004972D01*
X0005886D01*
X0033112Y-0002833D02*
X0032612D01*
X0033279Y-0003333D02*
X0032612D01*
Y-0002333D01*
X0033279D01*
X0031996Y-0003333D02*
Y-0002333D01*
X0032329D02*
X0031662D01*
X0030796Y-0003333D02*
X0030712Y-0003167D01*
Y-0002500D01*
X0030796Y-0002333D01*
X0031296D01*
X0031379Y-0002500D01*
Y-0003167D01*
X0031296Y-0003333D01*
X0030796D01*
X0030429Y-0002333D02*
Y-0003333D01*
X0030262Y-0003167D01*
X0029929Y-0002500D01*
X0029762Y-0002333D01*
Y-0003333D01*
X0023925D02*
Y-0002833D01*
X0024258Y-0002333D02*
X0024008Y-0002833D01*
X0023842D01*
X0023592Y-0002333D01*
X0022975Y-0003333D02*
Y-0002333D01*
X0023308D02*
X0022642D01*
X0022025Y-0003000D02*
X0022358Y-0003333D01*
X0021692Y-0003167D02*
X0021775Y-0003333D01*
X0022108D01*
X0022192Y-0003167D01*
X0022358Y-0003000D01*
Y-0002500D01*
X0022275Y-0002333D01*
X0021775D01*
X0021692Y-0002500D01*
Y-0003167D01*
X0017408Y-0003333D02*
X0016825D01*
Y-0002333D01*
X0015958Y-0003333D02*
X0015875Y-0003167D01*
Y-0002500D01*
X0015958Y-0002333D01*
X0016458D01*
X0016542Y-0002500D01*
Y-0003167D01*
X0016458Y-0003333D01*
X0015958D01*
X0015258D02*
Y-0002333D01*
X0015592D02*
X0014925D01*
X0009587Y-0003333D02*
Y-0002333D01*
X0009421Y-0002500D01*
X0009254Y-0002833D01*
X0009087Y-0002500D01*
X0008921Y-0002333D01*
Y-0003333D01*
X0008637Y-0003000D02*
X0007971D01*
X0008637Y-0003333D02*
Y-0002833D01*
X0008387Y-0002333D01*
X0008221D01*
X0007971Y-0002833D01*
Y-0003333D01*
X0007687D02*
X0007354D01*
X0007521D02*
Y-0002333D01*
X0007687D02*
X0007354D01*
X0006321Y-0003333D02*
Y-0002333D01*
X0006237Y-0003333D02*
X0006737D01*
X0006904Y-0003000D01*
Y-0002667D01*
X0006737Y-0002333D01*
X0006237D01*
X0003150Y-0003333D02*
Y-0002333D01*
X0002983Y-0002500D01*
X0002817Y-0002833D01*
X0002650Y-0002500D01*
X0002483Y-0002333D01*
Y-0003333D01*
X0001867D02*
Y-0002833D01*
X0002200Y-0002333D02*
X0001950Y-0002833D01*
X0001783D01*
X0001533Y-0002333D01*
X0001250Y-0002500D02*
X0001167Y-0002333D01*
X0000667D01*
X0000583Y-0002500D01*
Y-0002667D01*
X0000667Y-0002833D01*
X0001167D01*
X0001250Y-0003000D01*
Y-0003167D01*
X0001167Y-0003333D01*
X0000667D01*
X0000583Y-0003167D01*
X0023437Y-0001333D02*
Y-0000333D01*
X0023771D02*
X0023104D01*
X0022571Y-0000833D02*
X0022821Y-0001333D01*
X0022154Y-0000833D02*
X0022654D01*
X0022821Y-0000667D01*
Y-0000500D01*
X0022654Y-0000333D01*
X0022154D01*
Y-0001333D01*
X0021871Y-0001000D02*
X0021204D01*
X0021871Y-0001333D02*
Y-0000833D01*
X0021621Y-0000333D01*
X0021454D01*
X0021204Y-0000833D01*
Y-0001333D01*
X0020921Y-0000833D02*
X0020254D01*
X0020921Y-0001333D02*
Y-0000333D01*
X0020254Y-0001333D02*
Y-0000333D01*
X0019971Y-0001167D02*
X0019887Y-0001333D01*
X0019387D01*
X0019304Y-0001167D01*
Y-0000500D01*
X0019387Y-0000333D01*
X0019887D01*
X0019971Y-0000500D01*
X0017696Y-0001333D02*
X0017112D01*
Y-0000333D01*
X0016829Y-0001333D02*
X0016246D01*
Y-0000333D01*
X0015962Y-0001333D02*
X0015629D01*
X0015796D02*
Y-0000333D01*
X0015962D02*
X0015629D01*
X0014929Y-0000833D02*
X0015179Y-0001333D01*
X0014512Y-0000833D02*
X0015012D01*
X0015179Y-0000667D01*
Y-0000500D01*
X0015012Y-0000333D01*
X0014512D01*
Y-0001333D01*
X0013646D02*
Y-0000333D01*
X0013562Y-0001333D02*
X0014062D01*
X0014229Y-0001000D01*
Y-0000667D01*
X0014062Y-0000333D01*
X0013562D01*
X0001575Y-0009000D02*
Y-0009500D01*
X0002075Y-0009000D02*
X0001575D01*
X0002075Y-0009500D02*
Y-0009000D01*
X0001575Y-0009500D02*
X0002075D01*
Y-0009000D02*
X0001575Y-0009500D01*
X0002075D02*
X0001575Y-0009000D01*
X0001825Y-0007500D02*
X0001575Y-0007750D01*
X0002075D02*
X0001825Y-0007500D01*
Y-0008000D02*
X0002075Y-0007750D01*
X0001575D02*
X0001825Y-0008000D01*
X0002075Y-0006250D02*
X0001575D01*
X0001825Y-0006000D02*
Y-0006500D01*
X0002075Y-0004500D02*
X0001575Y-0005000D01*
X0002075D02*
X0001575Y-0004500D01*
X0037300Y-0012050D02*
X-0000050D01*
X0037250Y-0012000D02*
X0000000D01*
X0037250Y-0010000D02*
X0000000D01*
X0037250Y-0008500D02*
X0000000D01*
X0037250Y-0007000D02*
X0000000D01*
X0037250Y-0005500D02*
X0000000D01*
X0037250Y-0004000D02*
X0000000D01*
X0037250Y-0003950D02*
X0000000D01*
X0037250Y-0002000D02*
X0000000D01*
X0037250Y-0001950D02*
X0000000D01*
X0037250Y0000000D02*
X0000000D01*
X0037300Y0000050D02*
X-0000050D01*
X0037300Y-0012000D02*
Y0000000D01*
X0037250Y-0012000D02*
Y0000000D01*
X0025708Y-0012000D02*
Y-0002000D01*
X0020158Y-0012000D02*
Y-0002000D01*
X0012092Y-0010000D02*
Y-0002000D01*
X0003700Y-0010000D02*
Y-0002000D01*
X0003650Y-0010000D02*
Y-0002000D01*
X-0000050Y-0012000D02*
Y0000000D01*
X0000000Y-0012000D02*
Y0000000D01*
X-0058283Y0003085D02*
Y0002585D01*
X-0057783Y0003085D02*
X-0058283D01*
X-0057783Y0002585D02*
Y0003085D01*
X-0058283Y0002585D02*
X-0057783D01*
Y0003085D02*
X-0058283Y0002585D01*
X-0057783D02*
X-0058283Y0003085D01*
X-0026472Y0003163D02*
Y0002663D01*
X-0025972Y0003163D02*
X-0026472D01*
X-0025972Y0002663D02*
Y0003163D01*
X-0026472Y0002663D02*
X-0025972D01*
Y0003163D02*
X-0026472Y0002663D01*
X-0025972D02*
X-0026472Y0003163D01*
X-0026394Y0031195D02*
Y0030695D01*
X-0025894Y0031195D02*
X-0026394D01*
X-0025894Y0030695D02*
Y0031195D01*
X-0026394Y0030695D02*
X-0025894D01*
Y0031195D02*
X-0026394Y0030695D01*
X-0025894D02*
X-0026394Y0031195D01*
X-0058126D02*
Y0030695D01*
X-0057626Y0031195D02*
X-0058126D01*
X-0057626Y0030695D02*
Y0031195D01*
X-0058126Y0030695D02*
X-0057626D01*
Y0031195D02*
X-0058126Y0030695D01*
X-0057626D02*
X-0058126Y0031195D01*
X-0043177Y0004702D02*
X-0043677Y0004202D01*
X-0043177D02*
X-0043677Y0004702D01*
X-0044197D02*
X-0044697Y0004202D01*
X-0044197D02*
X-0044697Y0004702D01*
X-0042367D02*
X-0042867Y0004202D01*
X-0042367D02*
X-0042867Y0004702D01*
X-0045007D02*
X-0045507Y0004202D01*
X-0045007D02*
X-0045507Y0004702D01*
X-0042367Y0005682D02*
X-0042867Y0005182D01*
X-0042367D02*
X-0042867Y0005682D01*
X-0045007D02*
X-0045507Y0005182D01*
X-0045007D02*
X-0045507Y0005682D01*
X-0041277Y0003522D02*
X-0041527Y0003272D01*
X-0041027D02*
X-0041277Y0003522D01*
Y0003022D02*
X-0041027Y0003272D01*
X-0041527D02*
X-0041277Y0003022D01*
X-0043937Y0003202D02*
X-0044187Y0002952D01*
X-0043687D02*
X-0043937Y0003202D01*
Y0002702D02*
X-0043687Y0002952D01*
X-0044187D02*
X-0043937Y0002702D01*
X-0046597Y0003522D02*
X-0046847Y0003272D01*
X-0046347D02*
X-0046597Y0003522D01*
Y0003022D02*
X-0046347Y0003272D01*
X-0046847D02*
X-0046597Y0003022D01*
X-0051209Y0004702D02*
X-0051709Y0004202D01*
X-0051209D02*
X-0051709Y0004702D01*
X-0052228D02*
X-0052728Y0004202D01*
X-0052228D02*
X-0052728Y0004702D01*
X-0050399D02*
X-0050899Y0004202D01*
X-0050399D02*
X-0050899Y0004702D01*
X-0053038D02*
X-0053538Y0004202D01*
X-0053038D02*
X-0053538Y0004702D01*
X-0050399Y0005682D02*
X-0050899Y0005182D01*
X-0050399D02*
X-0050899Y0005682D01*
X-0053038D02*
X-0053538Y0005182D01*
X-0053038D02*
X-0053538Y0005682D01*
X-0049309Y0003522D02*
X-0049559Y0003272D01*
X-0049059D02*
X-0049309Y0003522D01*
Y0003022D02*
X-0049059Y0003272D01*
X-0049559D02*
X-0049309Y0003022D01*
X-0051969Y0003202D02*
X-0052219Y0002952D01*
X-0051719D02*
X-0051969Y0003202D01*
Y0002702D02*
X-0051719Y0002952D01*
X-0052219D02*
X-0051969Y0002702D01*
X-0054628Y0003522D02*
X-0054878Y0003272D01*
X-0054378D02*
X-0054628Y0003522D01*
Y0003022D02*
X-0054378Y0003272D01*
X-0054878D02*
X-0054628Y0003022D01*
X-0037348Y0031904D02*
X-0037848Y0031404D01*
X-0037348D02*
X-0037848Y0031904D01*
X-0038348D02*
X-0038848Y0031404D01*
X-0038348D02*
X-0038848Y0031904D01*
X-0039348D02*
X-0039848Y0031404D01*
X-0039348D02*
X-0039848Y0031904D01*
X-0040348D02*
X-0040848Y0031404D01*
X-0040348D02*
X-0040848Y0031904D01*
X-0037309Y0030722D02*
X-0037809Y0030222D01*
X-0037309D02*
X-0037809Y0030722D01*
X-0038309D02*
X-0038809Y0030222D01*
X-0038309D02*
X-0038809Y0030722D01*
X-0039309D02*
X-0039809Y0030222D01*
X-0039309D02*
X-0039809Y0030722D01*
X-0040309D02*
X-0040809Y0030222D01*
X-0040309D02*
X-0040809Y0030722D01*
X-0036128Y0031732D02*
X-0036628D01*
X-0036378Y0031982D02*
Y0031482D01*
X-0036128Y0030732D02*
X-0036628D01*
X-0036378Y0030982D02*
Y0030482D01*
X-0026443Y0023242D02*
X-0026943Y0022742D01*
X-0026443D02*
X-0026943Y0023242D01*
X-0025653D02*
X-0026153Y0022742D01*
X-0025653D02*
X-0026153Y0023242D01*
X-0026443Y0022452D02*
X-0026943Y0021952D01*
X-0026443D02*
X-0026943Y0022452D01*
X-0025653D02*
X-0026153Y0021952D01*
X-0025653D02*
X-0026153Y0022452D01*
X-0026443Y0021672D02*
X-0026943Y0021172D01*
X-0026443D02*
X-0026943Y0021672D01*
X-0025653D02*
X-0026153Y0021172D01*
X-0025653D02*
X-0026153Y0021672D01*
X-0026443Y0020882D02*
X-0026943Y0020382D01*
X-0026443D02*
X-0026943Y0020882D01*
X-0025653D02*
X-0026153Y0020382D01*
X-0025653D02*
X-0026153Y0020882D01*
X-0026443Y0020092D02*
X-0026943Y0019592D01*
X-0026443D02*
X-0026943Y0020092D01*
X-0025653D02*
X-0026153Y0019592D01*
X-0025653D02*
X-0026153Y0020092D01*
X-0026443Y0019302D02*
X-0026943Y0018802D01*
X-0026443D02*
X-0026943Y0019302D01*
X-0025653D02*
X-0026153Y0018802D01*
X-0025653D02*
X-0026153Y0019302D01*
X-0026443Y0018522D02*
X-0026943Y0018022D01*
X-0026443D02*
X-0026943Y0018522D01*
X-0025653D02*
X-0026153Y0018022D01*
X-0025653D02*
X-0026153Y0018522D01*
X-0026443Y0017732D02*
X-0026943Y0017232D01*
X-0026443D02*
X-0026943Y0017732D01*
X-0025653D02*
X-0026153Y0017232D01*
X-0025653D02*
X-0026153Y0017732D01*
X-0026443Y0016942D02*
X-0026943Y0016442D01*
X-0026443D02*
X-0026943Y0016942D01*
X-0025653D02*
X-0026153Y0016442D01*
X-0025653D02*
X-0026153Y0016942D01*
X-0026443Y0016152D02*
X-0026943Y0015652D01*
X-0026443D02*
X-0026943Y0016152D01*
X-0025653D02*
X-0026153Y0015652D01*
X-0025653D02*
X-0026153Y0016152D01*
X-0026443Y0015372D02*
X-0026943Y0014872D01*
X-0026443D02*
X-0026943Y0015372D01*
X-0025653D02*
X-0026153Y0014872D01*
X-0025653D02*
X-0026153Y0015372D01*
X-0026443Y0014582D02*
X-0026943Y0014082D01*
X-0026443D02*
X-0026943Y0014582D01*
X-0025653D02*
X-0026153Y0014082D01*
X-0025653D02*
X-0026153Y0014582D01*
X-0026443Y0013792D02*
X-0026943Y0013292D01*
X-0026443D02*
X-0026943Y0013792D01*
X-0025653D02*
X-0026153Y0013292D01*
X-0025653D02*
X-0026153Y0013792D01*
X-0026443Y0013002D02*
X-0026943Y0012502D01*
X-0026443D02*
X-0026943Y0013002D01*
X-0025653D02*
X-0026153Y0012502D01*
X-0025653D02*
X-0026153Y0013002D01*
X-0026443Y0012222D02*
X-0026943Y0011722D01*
X-0026443D02*
X-0026943Y0012222D01*
X-0025653D02*
X-0026153Y0011722D01*
X-0025653D02*
X-0026153Y0012222D01*
X-0026443Y0011432D02*
X-0026943Y0010932D01*
X-0026443D02*
X-0026943Y0011432D01*
X-0025653D02*
X-0026153Y0010932D01*
X-0025653D02*
X-0026153Y0011432D01*
X-0026443Y0010642D02*
X-0026943Y0010142D01*
X-0026443D02*
X-0026943Y0010642D01*
X-0025653D02*
X-0026153Y0010142D01*
X-0025653D02*
X-0026153Y0010642D01*
X-0026443Y0009852D02*
X-0026943Y0009352D01*
X-0026443D02*
X-0026943Y0009852D01*
X-0025653D02*
X-0026153Y0009352D01*
X-0025653D02*
X-0026153Y0009852D01*
X-0026443Y0009072D02*
X-0026943Y0008572D01*
X-0026443D02*
X-0026943Y0009072D01*
X-0025653D02*
X-0026153Y0008572D01*
X-0025653D02*
X-0026153Y0009072D01*
X-0026443Y0008282D02*
X-0026943Y0007782D01*
X-0026443D02*
X-0026943Y0008282D01*
X-0025653D02*
X-0026153Y0007782D01*
X-0025653D02*
X-0026153Y0008282D01*
G54D36*
G01X-0059900Y0032900D02*
Y0001000D01*
X-0024400D01*
Y0032900D01*
X-0059900D01*
M02*
