*
G04 Mass Parameters ***
*
G04 Image ***
*
%INC:\DOCUMENTS AND SETTINGS\BLUEDEEP\MIS DOCUMENTOS\ORCAD\CONECTOR_PS2\NUEVA CARPETA\PS2-6.GND*%
%ICAS*%
%MOIN*%
%IPPOS*%
%ASAXBY*%
G74*%FSLAN2X34Y34*%
*
G04 Aperture Definitions ***
*
%ADD10C,0.0531*%
%ADD11C,0.0620*%
%ADD12R,0.0620X0.0620*%
%ADD13C,0.0550*%
%ADD14R,0.0550X0.0550*%
%ADD15C,0.1120*%
%ADD16R,0.0350X0.0300*%
%ADD17R,0.0300X0.0350*%
%ADD18C,0.3150X0.1575*%
%ADD19C,0.0004*%
%ADD20C,0.0100*%
%ADD21C,0.0394*%
%ADD22C,0.0531*%
%ADD23C,0.0620*%
%ADD24R,0.0620X0.0620*%
%ADD25C,0.0550*%
%ADD26R,0.0550X0.0550*%
%ADD27C,0.1120*%
%ADD28C,0.3150X0.1575*%
%ADD29C,0.0640*%
%ADD30C,0.0820*%
%ADD31R,0.0820X0.0820*%
%ADD32C,0.0750*%
%ADD33R,0.0750X0.0750*%
%ADD34C,0.1320*%
%ADD35C,0.1181*%
%ADD36C,0.0079*%
*
G04 Plot Data ***
*
G54D36*
G01X-0059900Y0032900D02*
Y0001000D01*
X-0024400D01*
Y0032900D01*
X-0059900D01*
G54D29*
X-0026693Y0022992D03*
X-0025903D03*
X-0026693Y0022202D03*
X-0025903D03*
X-0026693Y0021422D03*
X-0025903D03*
X-0026693Y0020632D03*
X-0025903D03*
X-0026693Y0019842D03*
X-0025903D03*
X-0026693Y0019052D03*
X-0025903D03*
X-0026693Y0018272D03*
X-0025903D03*
X-0026693Y0017482D03*
X-0025903D03*
X-0026693Y0016692D03*
X-0025903D03*
X-0026693Y0015902D03*
X-0025903D03*
X-0026693Y0015122D03*
X-0025903D03*
X-0026693Y0014332D03*
X-0025903D03*
X-0026693Y0013542D03*
X-0025903D03*
X-0026693Y0012752D03*
X-0025903D03*
X-0026693Y0011972D03*
X-0025903D03*
X-0026693Y0011182D03*
X-0025903D03*
X-0026693Y0010392D03*
X-0025903D03*
X-0026693Y0009602D03*
X-0025903D03*
X-0026693Y0008822D03*
X-0025903D03*
X-0026693Y0008032D03*
X-0025903D03*
G54D30*
X-0036378Y0030732D03*
G54D31*
Y0031732D03*
G54D32*
X-0044447Y0004452D03*
X-0042617D03*
X-0045257D03*
X-0042617Y0005432D03*
X-0045257D03*
X-0052478Y0004452D03*
X-0050649D03*
X-0053288D03*
X-0050649Y0005432D03*
X-0053288D03*
X-0038598Y0031654D03*
X-0039598D03*
X-0040598D03*
X-0038559Y0030472D03*
X-0039559D03*
X-0040559D03*
G54D33*
X-0043427Y0004452D03*
X-0051459D03*
X-0037598Y0031654D03*
X-0037559Y0030472D03*
G54D34*
X-0041277Y0003272D03*
X-0043937Y0002952D03*
X-0046597Y0003272D03*
X-0049309D03*
X-0051969Y0002952D03*
X-0054628Y0003272D03*
G54D35*
X-0058033Y0002835D03*
X-0026222Y0002913D03*
X-0026144Y0030945D03*
X-0057876D03*
M02*
