*
G04 Mass Parameters ***
*
G04 Image ***
*
%INC:\CAINPCB\SAKCV2\SAKC.SST*%
%ICAS*%
%MOIN*%
%IPPOS*%
%ASAXBY*%
G74*%FSLAN2X34Y34*%
*
G04 Aperture Definitions ***
*
%ADD10R,0.0945X0.0945*%
%ADD11R,0.1653X0.0669*%
%ADD12R,0.0380X0.0320*%
%ADD13R,0.0320X0.0380*%
%ADD14R,0.0600X0.0600*%
%ADD15R,0.0350X0.0300*%
%ADD16R,0.0300X0.0350*%
%ADD17R,0.0400X0.0500*%
%ADD18R,0.0650X0.0400*%
%ADD19R,0.0500X0.0400*%
%ADD20R,0.0472X0.0551*%
%ADD21R,0.0472X0.0866*%
%ADD22R,0.0630X0.0551*%
%ADD23R,0.0276X0.0630*%
%ADD24C,0.0550*%
%ADD25R,0.0550X0.0550*%
%ADD26R,0.0866X0.0905*%
%ADD27R,0.0216X0.0630*%
%ADD28C,0.3150X0.1575*%
%ADD29C,0.0620*%
%ADD30R,0.0620X0.0620*%
%ADD31C,0.0472*%
%ADD32C,0.1340*%
%ADD33C,0.0531*%
%ADD34R,0.0787X0.0905*%
%ADD35R,0.0551X0.0114*%
%ADD36R,0.0500X0.0500*%
%ADD37R,0.0350X0.0250*%
%ADD38R,0.0250X0.0350*%
%ADD39R,0.0748X0.1338*%
%ADD40C,0.0775*%
%ADD41C,0.0669*%
%ADD42R,0.0350X0.0550*%
%ADD43R,0.0350X0.0450*%
%ADD44R,0.0350X0.0200*%
%ADD45R,0.0650X0.0079*%
%ADD46R,0.0079X0.0650*%
%ADD47R,0.0197X0.0551*%
%ADD48R,0.0100X0.0600*%
%ADD49R,0.0700X0.0160*%
%ADD50R,0.1420X0.0880*%
%ADD51R,0.0480X0.0880*%
%ADD52R,0.0600X0.0100*%
%ADD53R,0.0160X0.0700*%
%ADD54R,0.0472X0.0567*%
%ADD55R,0.0394X0.0567*%
%ADD56R,0.0272X0.0390*%
%ADD57R,0.0276X0.0590*%
%ADD58R,0.0787X0.0984*%
%ADD59R,0.0551X0.0472*%
%ADD60C,0.0236*%
%ADD61C,0.0079*%
%ADD62C,0.0138*%
%ADD63C,0.0059*%
%ADD64C,0.0080*%
%ADD65C,0.0315*%
%ADD66C,0.0236*%
%ADD67C,0.0071*%
%ADD68C,0.0073*%
%ADD69C,0.0394*%
%ADD70C,0.0197*%
%ADD71C,0.0276*%
%ADD72C,0.0216*%
%ADD73C,0.0236*%
%ADD74C,0.0118*%
%ADD75C,0.0094*%
%ADD76C,0.0157*%
%ADD77C,0.0354*%
%ADD78C,0.0550*%
%ADD79R,0.0550X0.0550*%
%ADD80C,0.3150X0.1575*%
%ADD81C,0.0620*%
%ADD82R,0.0620X0.0620*%
%ADD83C,0.0472*%
%ADD84C,0.1340*%
%ADD85C,0.0531*%
%ADD86C,0.0775*%
%ADD87C,0.0669*%
%ADD88C,0.0236*%
%ADD89C,0.0039*%
%ADD90R,0.1102X0.1102*%
%ADD91R,0.1811X0.0827*%
%ADD92R,0.0453X0.0378*%
%ADD93R,0.0378X0.0453*%
%ADD94R,0.0650X0.0650*%
%ADD95R,0.0400X0.0350*%
%ADD96R,0.0350X0.0400*%
%ADD97R,0.0450X0.0550*%
%ADD98R,0.0700X0.0450*%
%ADD99R,0.0550X0.0450*%
%ADD100R,0.0591X0.0669*%
%ADD101R,0.0590X0.0984*%
%ADD102R,0.0748X0.0669*%
%ADD103R,0.0433X0.0709*%
%ADD104R,0.0945X0.0984*%
%ADD105R,0.0315X0.0787*%
%ADD106C,0.3150*%
%ADD107C,0.0551*%
%ADD108C,0.1390*%
%ADD109C,0.0600*%
%ADD110R,0.0866X0.0984*%
%ADD111R,0.0630X0.0197*%
%ADD112R,0.0571X0.0571*%
%ADD113R,0.0400X0.0300*%
%ADD114R,0.0300X0.0400*%
%ADD115R,0.0799X0.1390*%
%ADD116C,0.0827*%
%ADD117C,0.0768*%
%ADD118R,0.0400X0.0600*%
%ADD119R,0.0400X0.0500*%
%ADD120R,0.0433X0.0358*%
%ADD121R,0.0358X0.0433*%
%ADD122R,0.0400X0.0250*%
%ADD123R,0.0709X0.0118*%
%ADD124R,0.0118X0.0709*%
%ADD125R,0.0236X0.0590*%
%ADD126R,0.0140X0.0650*%
%ADD127R,0.0750X0.0210*%
%ADD128R,0.1470X0.0930*%
%ADD129R,0.0530X0.0930*%
%ADD130R,0.0650X0.0150*%
%ADD131R,0.0150X0.0650*%
%ADD132R,0.0210X0.0750*%
%ADD133R,0.0630X0.0787*%
%ADD134R,0.0567X0.0787*%
%ADD135R,0.0394X0.0512*%
%ADD136R,0.0394X0.0709*%
%ADD137R,0.0905X0.1102*%
%ADD138R,0.0669X0.0590*%
%ADD139R,0.0945X0.0945*%
%ADD140R,0.1653X0.0669*%
%ADD141R,0.0380X0.0320*%
%ADD142R,0.0320X0.0380*%
%ADD143R,0.0600X0.0600*%
%ADD144R,0.0350X0.0300*%
%ADD145R,0.0300X0.0350*%
%ADD146R,0.0650X0.0400*%
%ADD147R,0.0500X0.0400*%
%ADD148R,0.0472X0.0551*%
%ADD149R,0.0472X0.0866*%
%ADD150R,0.0630X0.0551*%
%ADD151R,0.0276X0.0630*%
%ADD152R,0.0866X0.0905*%
%ADD153R,0.0216X0.0630*%
%ADD154R,0.0787X0.0905*%
%ADD155R,0.0551X0.0114*%
%ADD156R,0.0500X0.0500*%
%ADD157R,0.0350X0.0250*%
%ADD158R,0.0250X0.0350*%
%ADD159R,0.0748X0.1338*%
%ADD160R,0.0350X0.0550*%
%ADD161R,0.0350X0.0450*%
%ADD162R,0.0382X0.0319*%
%ADD163R,0.0319X0.0382*%
%ADD164R,0.0350X0.0200*%
%ADD165R,0.0650X0.0079*%
%ADD166R,0.0079X0.0650*%
%ADD167R,0.0197X0.0551*%
%ADD168R,0.0100X0.0600*%
%ADD169R,0.0700X0.0160*%
%ADD170R,0.1420X0.0880*%
%ADD171R,0.0480X0.0880*%
%ADD172R,0.0600X0.0100*%
%ADD173R,0.0160X0.0700*%
%ADD174R,0.0472X0.0567*%
%ADD175R,0.0394X0.0567*%
%ADD176R,0.0272X0.0390*%
%ADD177R,0.0276X0.0590*%
%ADD178R,0.0787X0.0984*%
%ADD179R,0.0551X0.0472*%
%ADD180C,0.0060*%
%ADD181C,0.0100*%
%ADD182C,0.0010*%
%ADD183C,0.0047*%
%ADD184C,0.0030*%
%ADD185C,0.0020*%
%ADD186C,0.0106*%
*
G04 Plot Data ***
*
G54D61*
G01X0030604Y0080305D02*
X0030571Y0080239D01*
X0030374D01*
X0030341Y0080305D01*
Y0080567D01*
X0030374Y0080633D01*
X0030571D01*
X0030604Y0080567D01*
X0029922Y0080239D02*
Y0080633D01*
X0029889Y0080239D02*
X0030086D01*
X0030151Y0080371D01*
Y0080502D01*
X0030086Y0080633D01*
X0029889D01*
X0029699Y0080108D02*
X0029436D01*
X0029246Y0080633D02*
Y0080502D01*
X0029115Y0080239D01*
X0028984Y0080502D01*
Y0080633D01*
X0028531Y0080305D02*
X0028564Y0080239D01*
X0028761D01*
X0028794Y0080305D01*
Y0080436D01*
X0028728Y0080502D01*
X0028531D01*
Y0080633D01*
X0028794D01*
X0010519Y0075555D02*
Y0077095D01*
X0009252D01*
Y0075556D01*
X0010525D01*
X0010228Y0077431D02*
X0010494D01*
X0010360Y0077298D01*
X0010231Y0077427D01*
X0010359D01*
X0019063Y0071901D02*
Y0075288D01*
X0020115D01*
Y0071907D01*
X0019063D01*
X0014783Y0072700D02*
Y0076086D01*
X0015835D01*
Y0072706D01*
X0014784D01*
X0004756Y0075767D02*
X0003209D01*
Y0072619D01*
X0005009D01*
Y0075777D01*
X0004823Y0075769D01*
X0004756Y0075767D01*
X0020501Y0080750D02*
Y0079897D01*
X0019946D01*
Y0079684D01*
X0014714D01*
Y0079918D01*
X0013703D01*
Y0085626D01*
X0020450D01*
X0020498Y0085578D01*
Y0080721D01*
G54D63*
G01X0030422Y0053953D02*
X0030466Y0053909D01*
X0030553D01*
X0030597Y0053953D01*
Y0053996D01*
X0030510Y0054084D01*
X0030597Y0054171D01*
X0030422D01*
X0030129Y0053909D02*
Y0054171D01*
X0030107Y0053909D02*
X0030239D01*
X0030282Y0053953D01*
Y0053996D01*
X0030260Y0054040D01*
X0030129D02*
X0030260D01*
X0030282Y0054084D01*
Y0054128D01*
X0030239Y0054171D01*
X0030107D01*
X0029793Y0054040D02*
X0029924D01*
X0029968Y0054084D01*
Y0054128D01*
X0029924Y0054171D01*
X0029793D01*
Y0053909D01*
X0035265Y0053812D02*
X0035090D01*
X0035265Y0053986D01*
Y0054030D01*
X0035243Y0054074D01*
X0035111D01*
X0035090Y0054030D01*
X0034797Y0053812D02*
Y0054074D01*
X0034775Y0053812D02*
X0034906D01*
X0034950Y0053855D01*
Y0053899D01*
X0034928Y0053943D01*
X0034797D02*
X0034928D01*
X0034950Y0053986D01*
Y0054030D01*
X0034906Y0054074D01*
X0034775D01*
X0034460Y0053943D02*
X0034591D01*
X0034635Y0053986D01*
Y0054030D01*
X0034591Y0054074D01*
X0034460D01*
Y0053812D01*
G54D64*
G01X0026208Y0085546D02*
Y0085657D01*
Y0085601D02*
X0026541D01*
X0026485Y0085657D01*
X0027071Y0084548D02*
X0027016Y0084576D01*
X0026960D01*
X0026905Y0084548D01*
Y0084382D01*
X0026960Y0084354D01*
X0027016D01*
X0027071Y0084382D01*
Y0084548D01*
X0027127Y0084576D01*
X0027183D01*
X0027238Y0084548D01*
Y0084382D01*
X0027183Y0084354D01*
X0027127D01*
X0027071Y0084382D01*
X0027238Y0084166D02*
Y0084055D01*
Y0084111D02*
X0026905D01*
X0026960Y0084055D01*
X0027127Y0083617D02*
X0027183D01*
X0027238Y0083645D01*
Y0083756D01*
X0027183Y0083784D01*
X0026905D01*
Y0083812D02*
Y0083701D01*
X0025928Y0082981D02*
X0025925Y0085226D01*
X0026784D01*
Y0082981D01*
X0025928D01*
X0037655Y0076299D02*
X0035807D01*
X0035642Y0076300D01*
Y0060109D01*
X0037657D01*
Y0076298D01*
X0036447Y0076679D02*
X0036197Y0076429D01*
X0035947Y0076679D01*
X0036447D01*
X0028272Y0058583D02*
X0028072Y0058383D01*
Y0058783D01*
X0028272Y0058583D01*
X0027866Y0065671D02*
X0027616Y0065921D01*
Y0070971D01*
X0032916D01*
Y0065671D01*
X0027866D01*
X0027916Y0064771D02*
X0027716Y0064571D01*
X0028116D01*
X0027916Y0064771D01*
X0025966Y0084037D02*
X0026016Y0084087D01*
X0021966Y0084037D02*
Y0083037D01*
X0025966D01*
Y0084037D01*
X0021966D01*
X0025951Y0085021D02*
X0026001Y0085071D01*
X0021951Y0085021D02*
Y0084021D01*
X0025951D01*
Y0085021D01*
X0021951D01*
X0024785Y0077417D02*
X0024985Y0077217D01*
X0024585D01*
X0024785Y0077417D01*
X0005306Y0075829D02*
X0003070D01*
Y0076995D01*
X0005292Y0076993D01*
X0005306D01*
Y0075829D01*
G01X0027906Y0065839D02*
G03X0028018Y0065951I0000000J0000112D01*
G01X0027794D02*
G03X0027906Y0065839I0000112J0000000D01*
Y0066063D02*
G03X0027794Y0065951I0000000J0000112D01*
G01X0028018D02*
G03X0027906Y0066063I0000112J0000000D01*
G54D69*
G01X0033738Y0084311D02*
G03X0033876Y0084449I0000000J0000138D01*
G01X0033600D02*
G03X0033738Y0084311I0000138J0000000D01*
Y0084588D02*
G03X0033599Y0084449I0000000J0000139D01*
G01X0033877D02*
G03X0033738Y0084588I0000139J0000000D01*
G54D70*
G01X0033717Y0085168D02*
G03X0033099Y0084804I0000000J0000705D01*
G01X0034422Y0084463D02*
G03X0033717Y0085168I0000705J0000000D01*
Y0083758D02*
G03X0034422Y0084463I0000000J0000705D01*
G01X0033099Y0084123D02*
G03X0033717Y0083758I0000618J0000340D01*
G54D76*
G01X0033737Y0084449D02*
X0032382D01*
G54D89*
G01X0019766Y0076769D02*
X0019884Y0077005D01*
X0019727D01*
X0019628Y0076769D02*
X0019550D01*
X0019589D02*
Y0077005D01*
X0019550Y0076966D01*
X0019353Y0076887D02*
X0019412Y0076769D01*
X0019255Y0076887D02*
X0019373D01*
X0019412Y0076927D01*
Y0076966D01*
X0019373Y0077005D01*
X0019255D01*
Y0076769D01*
X0015823Y0076810D02*
X0015863Y0076771D01*
X0015941D01*
X0015981Y0076810D01*
Y0076849D01*
X0015902Y0076928D01*
X0015981Y0077007D01*
X0015823D01*
X0015725Y0076771D02*
X0015568D01*
X0015725Y0076928D01*
Y0076967D01*
X0015705Y0077007D01*
X0015587D01*
X0015568Y0076967D01*
X0015410Y0076889D02*
X0015469Y0076771D01*
X0015312Y0076889D02*
X0015430D01*
X0015469Y0076928D01*
Y0076967D01*
X0015430Y0077007D01*
X0015312D01*
Y0076771D01*
X0016724Y0076518D02*
X0016567D01*
X0016724Y0076675D01*
Y0076715D01*
X0016705Y0076754D01*
X0016587D01*
X0016567Y0076715D01*
X0016469Y0076518D02*
X0016311D01*
X0016469Y0076675D01*
Y0076715D01*
X0016449Y0076754D01*
X0016331D01*
X0016311Y0076715D01*
X0016154Y0076636D02*
X0016213Y0076518D01*
X0016055Y0076636D02*
X0016173D01*
X0016213Y0076675D01*
Y0076715D01*
X0016173Y0076754D01*
X0016055D01*
Y0076518D01*
X0018037Y0076774D02*
X0018057Y0076735D01*
X0018175D01*
X0018195Y0076774D01*
Y0076853D01*
X0018155Y0076892D01*
X0018037D01*
Y0076971D01*
X0018195D01*
X0017939Y0076735D02*
X0017860D01*
X0017900D02*
Y0076971D01*
X0017860Y0076931D01*
X0017663Y0076853D02*
X0017723Y0076735D01*
X0017565Y0076853D02*
X0017683D01*
X0017723Y0076892D01*
Y0076931D01*
X0017683Y0076971D01*
X0017565D01*
Y0076735D01*
X0017396Y0076847D02*
X0017238D01*
X0017317Y0077004D01*
X0017356D01*
Y0076768D01*
X0017140D02*
X0017061D01*
X0017100D02*
Y0077004D01*
X0017061Y0076965D01*
X0016864Y0076886D02*
X0016923Y0076768D01*
X0016766Y0076886D02*
X0016884D01*
X0016923Y0076926D01*
Y0076965D01*
X0016884Y0077004D01*
X0016766D01*
Y0076768D01*
X0020454Y0076796D02*
X0020572D01*
X0020592Y0076756D01*
Y0076717D01*
X0020572Y0076678D01*
X0020454D01*
X0020435Y0076717D01*
Y0076756D01*
X0020513Y0076914D01*
X0020336Y0076678D02*
X0020258D01*
X0020297D02*
Y0076914D01*
X0020258Y0076874D01*
X0020061Y0076796D02*
X0020120Y0076678D01*
X0019963Y0076796D02*
X0020081D01*
X0020120Y0076835D01*
Y0076874D01*
X0020081Y0076914D01*
X0019963D01*
Y0076678D01*
X0018907Y0076796D02*
X0018946Y0076756D01*
X0019025D01*
X0019064Y0076796D01*
Y0076835D01*
X0018985Y0076914D01*
X0019064Y0076993D01*
X0018907D01*
X0018808Y0076756D02*
X0018730D01*
X0018769D02*
Y0076993D01*
X0018730Y0076953D01*
X0018533Y0076875D02*
X0018592Y0076756D01*
X0018434Y0076875D02*
X0018552D01*
X0018592Y0076914D01*
Y0076953D01*
X0018552Y0076993D01*
X0018434D01*
Y0076756D01*
G54D180*
G01X0024244Y0060848D02*
X0024300Y0060904D01*
Y0061015D01*
X0024244Y0061070D01*
X0024188D01*
X0024077Y0060959D01*
X0023966Y0061070D01*
Y0060848D01*
X0024300Y0060589D02*
X0024133D01*
X0023966Y0060700D02*
X0024133Y0060617D01*
Y0060561D01*
X0023966Y0060478D01*
X0013253Y0077362D02*
X0013303D01*
Y0078162D01*
X0013253D01*
X0012653Y0077362D02*
X0012603D01*
Y0078162D01*
X0012653D01*
X0012053Y0079331D02*
X0012113D01*
Y0080531D01*
X0012053D01*
X0011253Y0079331D02*
X0011203D01*
Y0080531D01*
X0011253D01*
X0006877Y0080778D02*
Y0080768D01*
Y0080811D01*
X0008077D01*
Y0080766D01*
Y0079369D02*
Y0079372D01*
Y0079312D01*
X0006877D01*
Y0079367D01*
X0004501Y0067065D02*
Y0067015D01*
X0003701D01*
Y0067065D01*
X0004501Y0067665D02*
Y0067715D01*
X0003701D01*
Y0067665D01*
X0004501Y0063858D02*
Y0063808D01*
X0003701D01*
Y0063858D01*
X0004501Y0064458D02*
Y0064508D01*
X0003701D01*
Y0064458D01*
X0004499Y0065457D02*
Y0065407D01*
X0003699D01*
Y0065457D01*
X0004499Y0066057D02*
Y0066107D01*
X0003699D01*
Y0066057D01*
X0008454Y0076637D02*
X0008504D01*
Y0077237D01*
X0008454D01*
X0007954Y0076637D02*
X0007904D01*
Y0077237D01*
X0007954D01*
X0009627Y0078867D02*
X0009577D01*
Y0078267D01*
X0009627D01*
X0010127Y0078867D02*
X0010177D01*
Y0078267D01*
X0010127D01*
X0003698Y0069268D02*
Y0069318D01*
X0004498D01*
Y0069268D01*
X0003698Y0068668D02*
Y0068618D01*
X0004498D01*
Y0068668D01*
X0007733Y0078075D02*
X0007933D01*
X0007583Y0078525D02*
X0007183D01*
Y0078075D01*
X0007233D01*
X0008083Y0078525D02*
X0008483D01*
Y0078075D01*
X0008433D01*
X0007230Y0077238D02*
X0007180D01*
Y0076638D01*
X0007230D01*
X0007730Y0077238D02*
X0007780D01*
Y0076638D01*
X0007730D01*
X0004499Y0066259D02*
Y0066209D01*
X0003699D01*
Y0066259D01*
X0004499Y0066859D02*
Y0066909D01*
X0003699D01*
Y0066859D01*
X0004500Y0070276D02*
Y0070226D01*
X0003700D01*
Y0070276D01*
X0004500Y0070876D02*
Y0070926D01*
X0003700D01*
Y0070876D01*
X0004498Y0069471D02*
Y0069421D01*
X0003698D01*
Y0069471D01*
X0004498Y0070071D02*
Y0070121D01*
X0003698D01*
Y0070071D01*
X0004494Y0071900D02*
Y0071850D01*
X0003694D01*
Y0071900D01*
X0004494Y0072500D02*
Y0072550D01*
X0003694D01*
Y0072500D01*
X0011128Y0078961D02*
X0011178D01*
Y0078161D01*
X0011128D01*
X0010528Y0078961D02*
X0010478D01*
Y0078161D01*
X0010528D01*
X0004499Y0067867D02*
Y0067817D01*
X0003699D01*
Y0067867D01*
X0004499Y0068467D02*
Y0068517D01*
X0003699D01*
Y0068467D01*
X0004493Y0061231D02*
X0004543D01*
Y0061831D01*
X0004493D01*
X0003993Y0061231D02*
X0003943D01*
Y0061831D01*
X0003993D01*
X0004499Y0064660D02*
Y0064610D01*
X0003699D01*
Y0064660D01*
X0004499Y0065260D02*
Y0065310D01*
X0003699D01*
Y0065260D01*
X0003698Y0071683D02*
Y0071733D01*
X0004498D01*
Y0071683D01*
X0003698Y0071083D02*
Y0071033D01*
X0004498D01*
Y0071083D01*
X0012550Y0077619D02*
X0012600D01*
Y0076819D01*
X0012550D01*
X0009955Y0079542D02*
Y0079492D01*
X0009155D01*
Y0079542D01*
X0009955Y0080142D02*
Y0080192D01*
X0009155D01*
Y0080142D01*
X0012699Y0079357D02*
X0012649D01*
Y0078757D01*
X0012699D01*
X0032238Y0056706D02*
Y0056756D01*
X0032838D01*
Y0056706D01*
X0027598Y0056243D02*
Y0056193D01*
X0028198D01*
Y0056243D01*
X0027598Y0056743D02*
Y0056793D01*
X0028198D01*
Y0056743D01*
X0032238Y0056206D02*
Y0056156D01*
X0032838D01*
Y0056206D01*
X0032752Y0082107D02*
Y0082057D01*
X0033352D01*
Y0082107D01*
X0032752Y0082607D02*
Y0082657D01*
X0033352D01*
Y0082607D01*
X0010092Y0070054D02*
Y0070104D01*
X0009492D01*
Y0070054D01*
X0010092Y0069554D02*
Y0069504D01*
X0009492D01*
Y0069554D01*
X0009490Y0070165D02*
Y0070115D01*
X0010090D01*
Y0070165D01*
X0009490Y0070665D02*
Y0070715D01*
X0010090D01*
Y0070665D01*
X0004499Y0063053D02*
Y0063003D01*
X0003699D01*
Y0063053D01*
X0032095Y0082697D02*
Y0082647D01*
X0032695D01*
Y0082697D01*
X0032095Y0083197D02*
Y0083247D01*
X0032695D01*
Y0083197D01*
X0033916Y0068100D02*
Y0068050D01*
X0034516D01*
Y0068100D01*
X0033916Y0068600D02*
Y0068650D01*
X0034516D01*
Y0068600D01*
X0024248Y0058647D02*
Y0058597D01*
X0024848D01*
Y0058647D01*
X0024248Y0059147D02*
Y0059197D01*
X0024848D01*
Y0059147D01*
X0031174Y0060033D02*
X0031124D01*
Y0059433D01*
X0031174D01*
X0031674Y0060033D02*
X0031724D01*
Y0059433D01*
X0031674D01*
X0028342Y0059073D02*
Y0059683D01*
X0028522D01*
Y0059983D01*
X0028342D01*
Y0060603D01*
X0030902D01*
Y0059073D01*
X0028342D01*
X0009833Y0064320D02*
Y0064250D01*
X0010583D01*
Y0064320D01*
X0009833Y0065549D02*
Y0065614D01*
X0010583D01*
Y0065549D01*
X0012020Y0078839D02*
X0011970D01*
Y0078239D01*
X0012020D01*
X0012520Y0078839D02*
X0012570D01*
Y0078239D01*
X0012520D01*
X0004499Y0063653D02*
Y0063703D01*
X0003699D01*
Y0063653D01*
X0035115Y0078514D02*
X0033965D01*
Y0077869D01*
X0035115D01*
Y0078514D01*
X0034034Y0081526D02*
X0033574D01*
Y0080066D01*
X0036214D02*
Y0081526D01*
X0035754D01*
X0013352Y0082694D02*
Y0083844D01*
X0012707D01*
Y0082694D01*
X0013352D01*
X0011741Y0082041D02*
X0012491D01*
Y0083641D01*
X0011741D01*
Y0082041D01*
X0013408Y0080952D02*
Y0081702D01*
X0011808D01*
Y0080952D01*
X0013408D01*
X0016066Y0077086D02*
Y0078236D01*
X0015421D01*
Y0077086D01*
X0016066D01*
X0016720Y0077088D02*
Y0078238D01*
X0016075D01*
Y0077088D01*
X0016720D01*
X0019890Y0077082D02*
Y0078232D01*
X0019245D01*
Y0077082D01*
X0019890D01*
X0035260Y0077892D02*
X0036410D01*
Y0078537D01*
X0035260D01*
Y0077892D01*
X0027922Y0075596D02*
X0030122D01*
Y0074696D01*
X0027922D01*
Y0075596D01*
X0032543Y0075856D02*
X0033693D01*
Y0076501D01*
X0032543D01*
Y0075856D01*
X0027914Y0073104D02*
X0027864D01*
Y0072504D01*
X0027914D01*
X0028414Y0073104D02*
X0028464D01*
Y0072504D01*
X0028414D01*
X0031927Y0063660D02*
X0031977D01*
Y0064260D01*
X0031927D01*
X0031427Y0063660D02*
X0031377D01*
Y0064260D01*
X0031427D01*
X0034896Y0069475D02*
Y0069525D01*
X0034296D01*
Y0069475D01*
X0034896Y0068975D02*
Y0068925D01*
X0034296D01*
Y0068975D01*
X0031881Y0073079D02*
X0031831D01*
Y0072479D01*
X0031881D01*
X0032381Y0073079D02*
X0032431D01*
Y0072479D01*
X0032381D01*
X0027201Y0073097D02*
X0027251D01*
Y0073697D01*
X0027201D01*
X0026701Y0073097D02*
X0026651D01*
Y0073697D01*
X0026701D01*
X0027183Y0071783D02*
X0027233D01*
Y0072383D01*
X0027183D01*
X0026683Y0071783D02*
X0026633D01*
Y0072383D01*
X0026683D01*
X0026603Y0072815D02*
X0026653D01*
Y0073415D01*
X0026603D01*
X0026103Y0072815D02*
X0026053D01*
Y0073415D01*
X0026103D01*
X0027014Y0065236D02*
X0026964D01*
Y0064636D01*
X0027014D01*
X0027514Y0065236D02*
X0027564D01*
Y0064636D01*
X0027514D01*
X0027300Y0073102D02*
X0027250D01*
Y0072502D01*
X0027300D01*
X0027800Y0073102D02*
X0027850D01*
Y0072502D01*
X0027800D01*
X0033126Y0063661D02*
X0033176D01*
Y0064261D01*
X0033126D01*
X0032626Y0063661D02*
X0032576D01*
Y0064261D01*
X0032626D01*
X0032523Y0063659D02*
X0032573D01*
Y0064259D01*
X0032523D01*
X0032023Y0063659D02*
X0031973D01*
Y0064259D01*
X0032023D01*
X0034885Y0070044D02*
Y0070094D01*
X0034285D01*
Y0070044D01*
X0034885Y0069544D02*
Y0069494D01*
X0034285D01*
Y0069544D01*
X0028540Y0073355D02*
X0028490D01*
Y0072755D01*
X0028540D01*
X0029040Y0073355D02*
X0029090D01*
Y0072755D01*
X0029040D01*
X0027317Y0062937D02*
Y0062887D01*
X0027917D01*
Y0062937D01*
X0027317Y0063437D02*
Y0063487D01*
X0027917D01*
Y0063437D01*
X0031300Y0072959D02*
X0031250D01*
Y0072359D01*
X0031300D01*
X0031800Y0072959D02*
X0031850D01*
Y0072359D01*
X0031800D01*
X0034827Y0066602D02*
Y0066652D01*
X0034227D01*
Y0066602D01*
X0034827Y0066102D02*
Y0066052D01*
X0034227D01*
Y0066102D01*
X0013199Y0079357D02*
X0013249D01*
Y0078757D01*
X0013199D01*
X0011950Y0077619D02*
X0011900D01*
Y0076819D01*
X0011950D01*
X0033744Y0063662D02*
X0033794D01*
Y0064262D01*
X0033744D01*
X0033244Y0063662D02*
X0033194D01*
Y0064262D01*
X0033244D01*
X0023883Y0076175D02*
X0022733D01*
Y0075530D01*
X0023883D01*
Y0076175D01*
X0020539Y0077083D02*
Y0078233D01*
X0019894D01*
Y0077083D01*
X0020539D01*
X0014603Y0073479D02*
Y0074629D01*
X0013958D01*
Y0073479D01*
X0014603D01*
X0011669Y0073095D02*
Y0071945D01*
X0012314D01*
Y0073095D01*
X0011669D01*
X0018223Y0077085D02*
Y0078235D01*
X0017578D01*
Y0077085D01*
X0018223D01*
X0009162Y0059850D02*
X0008012D01*
Y0059205D01*
X0009162D01*
Y0059850D01*
X0013957Y0075839D02*
Y0074689D01*
X0014602D01*
Y0075839D01*
X0013957D01*
X0024295Y0077487D02*
X0023685D01*
Y0077667D01*
X0023385D01*
Y0077487D01*
X0022765D01*
Y0080047D01*
X0024295D01*
Y0077487D01*
X0011854Y0061226D02*
Y0059026D01*
X0010954D01*
Y0061226D01*
X0011854D01*
X0015779Y0071947D02*
X0016929D01*
Y0072592D01*
X0015779D01*
Y0071947D01*
X0007832Y0060948D02*
X0010032D01*
Y0060048D01*
X0007832D01*
Y0060948D01*
X0027708Y0078262D02*
X0027248D01*
Y0076802D01*
X0025949Y0081311D02*
Y0080161D01*
X0026594D01*
Y0081311D01*
X0025949D01*
X0029888Y0076802D02*
Y0078262D01*
X0029428D01*
X0017368Y0077090D02*
Y0078240D01*
X0016723D01*
Y0077090D01*
X0017368D01*
X0017157Y0073267D02*
X0016007D01*
Y0072622D01*
X0017157D01*
Y0073267D01*
X0015149Y0062293D02*
X0016299D01*
Y0062938D01*
X0015149D01*
Y0062293D01*
X0009158Y0059128D02*
X0008008D01*
Y0058483D01*
X0009158D01*
Y0059128D01*
X0018001Y0064583D02*
X0020201D01*
Y0063683D01*
X0018001D01*
Y0064583D01*
X0025248Y0078346D02*
Y0077196D01*
X0025893D01*
Y0078346D01*
X0025248D01*
X0020760Y0079426D02*
X0021910D01*
Y0080071D01*
X0020760D01*
Y0079426D01*
X0025949Y0080099D02*
Y0078949D01*
X0026594D01*
Y0080099D01*
X0025949D01*
X0017567Y0076438D02*
X0016817D01*
Y0074838D01*
X0017567D01*
Y0076438D01*
X0020651Y0063075D02*
X0019501D01*
Y0062430D01*
X0020651D01*
Y0063075D01*
X0021910Y0078656D02*
X0020760D01*
Y0078011D01*
X0021910D01*
Y0078656D01*
X0024375Y0073035D02*
X0025525D01*
Y0073680D01*
X0024375D01*
Y0073035D01*
X0013272Y0074142D02*
Y0071942D01*
X0012372D01*
Y0074142D01*
X0013272D01*
X0027750Y0075420D02*
X0026600D01*
Y0074775D01*
X0027750D01*
Y0075420D01*
X0026594Y0077744D02*
Y0078894D01*
X0025949D01*
Y0077744D01*
X0026594D01*
X0026474Y0071446D02*
Y0064596D01*
X0021674D01*
Y0071446D01*
X0026474D01*
X0015993Y0063165D02*
Y0064315D01*
X0015348D01*
Y0063165D01*
X0015993D01*
X0019433Y0061723D02*
Y0062873D01*
X0018788D01*
Y0061723D01*
X0019433D01*
X0026324Y0072366D02*
X0026124Y0072566D01*
X0026524D01*
X0026324Y0072366D01*
X0018849Y0074261D02*
Y0075411D01*
X0018204D01*
Y0074261D01*
X0018849D01*
X0017897Y0061771D02*
Y0062921D01*
X0017252D01*
Y0061771D01*
X0017897D01*
X0014645Y0076549D02*
X0013495D01*
Y0075904D01*
X0014645D01*
Y0076549D01*
X0016755Y0076438D02*
X0016005D01*
Y0074838D01*
X0016755D01*
Y0076438D01*
X0009977Y0063476D02*
Y0063426D01*
X0010577D01*
Y0063476D01*
X0009977Y0063976D02*
Y0064026D01*
X0010577D01*
Y0063976D01*
X0003557Y0062253D02*
X0004707D01*
Y0062898D01*
X0003557D01*
Y0062253D01*
X0017931Y0055663D02*
X0016781D01*
Y0055018D01*
X0017931D01*
Y0055663D01*
X0030617Y0077651D02*
Y0079111D01*
X0031077D01*
X0033257Y0077651D02*
Y0079111D01*
X0032797D01*
X0009967Y0073446D02*
Y0072296D01*
X0010612D01*
Y0073446D01*
X0009967D01*
X0026958Y0061106D02*
X0028108D01*
Y0061751D01*
X0026958D01*
Y0061106D01*
X0025248Y0079552D02*
Y0078402D01*
X0025893D01*
Y0079552D01*
X0025248D01*
X0012581Y0059895D02*
Y0061045D01*
X0011936D01*
Y0059895D01*
X0012581D01*
X0017525Y0073629D02*
Y0074779D01*
X0016880D01*
Y0073629D01*
X0017525D01*
X0017495Y0074195D02*
Y0073045D01*
X0018140D01*
Y0074195D01*
X0017495D01*
X0018849Y0073049D02*
Y0074199D01*
X0018204D01*
Y0073049D01*
X0018849D01*
X0010145Y0059368D02*
X0010895D01*
Y0060968D01*
X0010145D01*
Y0059368D01*
X0010101Y0059797D02*
X0009351D01*
Y0058197D01*
X0010101D01*
Y0059797D01*
X0019083Y0077080D02*
Y0078230D01*
X0018438D01*
Y0077080D01*
X0019083D01*
X0018187Y0075964D02*
X0019337D01*
Y0076609D01*
X0018187D01*
Y0075964D01*
X0024019Y0072325D02*
X0025169D01*
Y0072970D01*
X0024019D01*
Y0072325D01*
X0020649Y0062369D02*
X0019499D01*
Y0061724D01*
X0020649D01*
Y0062369D01*
X0011904Y0074959D02*
Y0074209D01*
X0013504D01*
Y0074959D01*
X0011904D01*
X0025818Y0076246D02*
X0023618D01*
Y0077146D01*
X0025818D01*
Y0076246D01*
X0017493Y0072993D02*
Y0071843D01*
X0018138D01*
Y0072993D01*
X0017493D01*
X0011883Y0064509D02*
Y0063359D01*
X0012528D01*
Y0064509D01*
X0011883D01*
X0016697Y0073635D02*
Y0074785D01*
X0016052D01*
Y0073635D01*
X0016697D01*
X0019823Y0055667D02*
X0018673D01*
Y0055022D01*
X0019823D01*
Y0055667D01*
X0010100Y0073518D02*
X0011250D01*
Y0074163D01*
X0010100D01*
Y0073518D01*
X0009818Y0065978D02*
Y0065908D01*
X0010568D01*
Y0065978D01*
X0009818Y0067207D02*
Y0067272D01*
X0010568D01*
Y0067207D01*
X0010687Y0073456D02*
Y0072306D01*
X0011332D01*
Y0073456D01*
X0010687D01*
X0021910Y0079358D02*
X0020760D01*
Y0078713D01*
X0021910D01*
Y0079358D01*
X0021415Y0060482D02*
X0012683D01*
Y0056582D01*
X0021415D01*
Y0058332D01*
X0021146D01*
Y0058732D01*
X0021415D01*
Y0060482D01*
X0021331Y0060888D02*
X0021531Y0061088D01*
Y0060688D01*
X0021331Y0060888D01*
X0018203Y0072989D02*
Y0071839D01*
X0018848D01*
Y0072989D01*
X0018203D01*
X0032227Y0076494D02*
X0031077D01*
Y0075849D01*
X0032227D01*
Y0076494D01*
X0013953Y0073403D02*
Y0072253D01*
X0014598D01*
Y0073403D01*
X0013953D01*
X0022111Y0076951D02*
X0020961D01*
Y0076306D01*
X0022111D01*
Y0076951D01*
X0019205Y0064564D02*
Y0065314D01*
X0017605D01*
Y0064564D01*
X0019205D01*
X0024639Y0063627D02*
X0023489D01*
Y0062982D01*
X0024639D01*
Y0063627D01*
X0035496Y0068350D02*
X0035546D01*
Y0067750D01*
X0035496D01*
X0034996Y0068350D02*
X0034946D01*
Y0067750D01*
X0034996D01*
G01X0028512Y0059177D02*
G03X0028588Y0059253I0000000J0000076D01*
G01X0028436D02*
G03X0028512Y0059177I0000076J0000000D01*
Y0059329D02*
G03X0028436Y0059253I0000000J0000076D01*
G01X0028588D02*
G03X0028512Y0059329I0000076J0000000D01*
G01X0024115Y0077581D02*
G03X0024191Y0077657I0000000J0000076D01*
G01X0024039D02*
G03X0024115Y0077581I0000076J0000000D01*
Y0077733D02*
G03X0024039Y0077657I0000000J0000076D01*
G01X0024191D02*
G03X0024115Y0077733I0000076J0000000D01*
G54D181*
G01X0034991Y0084402D02*
X0034658D01*
X0031947Y0084620D02*
Y0084287D01*
X0032114Y0084453D02*
X0031781D01*
X0007390Y0057774D02*
X0007307Y0057857D01*
X0007265Y0057941D01*
Y0058107D01*
X0007307Y0058191D01*
X0007390Y0058274D01*
X0007473D01*
X0007557Y0058191D01*
X0007598Y0058107D01*
Y0057941D01*
X0007557Y0057857D01*
X0007473Y0057774D01*
X0007390D01*
X0007023D02*
X0006857D01*
X0006940D02*
Y0058274D01*
X0006857Y0058191D01*
X0006490Y0058024D02*
X0006532Y0058107D01*
Y0058191D01*
X0006490Y0058274D01*
X0006240D01*
X0006198Y0058191D01*
Y0058107D01*
X0006240Y0058024D01*
X0006490D01*
X0006532Y0057941D01*
Y0057857D01*
X0006490Y0057774D01*
X0006240D01*
X0006198Y0057857D01*
Y0057941D01*
X0006240Y0058024D01*
X0005748Y0057774D02*
X0005665Y0057857D01*
X0005623Y0057941D01*
Y0058107D01*
X0005665Y0058191D01*
X0005748Y0058274D01*
X0005832D01*
X0005915Y0058191D01*
X0005957Y0058107D01*
Y0057941D01*
X0005915Y0057857D01*
X0005832Y0057774D01*
X0005748D01*
X0005173D02*
X0005090Y0057857D01*
X0005048Y0057941D01*
Y0058107D01*
X0005090Y0058191D01*
X0005173Y0058274D01*
X0005257D01*
X0005340Y0058191D01*
X0005382Y0058107D01*
Y0057941D01*
X0005340Y0057857D01*
X0005257Y0057774D01*
X0005173D01*
X0004807D02*
X0004640D01*
X0004723D02*
Y0058274D01*
X0004640Y0058191D01*
X0004107Y0057774D02*
X0004023Y0057857D01*
X0003982Y0057941D01*
Y0058107D01*
X0004023Y0058191D01*
X0004107Y0058274D01*
X0004190D01*
X0004273Y0058191D01*
X0004315Y0058107D01*
Y0057941D01*
X0004273Y0057857D01*
X0004190Y0057774D01*
X0004107D01*
X0003740D02*
X0003407D01*
X0003740Y0058107D01*
Y0058191D01*
X0003698Y0058274D01*
X0003448D01*
X0003407Y0058191D01*
X0014338Y0054866D02*
X0014296Y0054950D01*
Y0055116D01*
X0014338Y0055200D01*
X0014588D01*
X0014629Y0055116D01*
Y0054950D01*
X0014588Y0054866D01*
X0014338D01*
X0013846Y0054700D02*
X0014013D01*
X0014054Y0054783D01*
Y0055200D01*
X0013804D01*
X0013763Y0055116D01*
Y0054950D01*
X0013804Y0054866D01*
X0014054D01*
X0013521Y0055200D02*
X0013354D01*
X0013313Y0055116D01*
X0013229D01*
Y0055200D02*
Y0054866D01*
X0012738Y0055200D02*
X0012904D01*
X0012946Y0055116D01*
Y0054950D01*
X0012988Y0054866D01*
X0012696D01*
X0012654Y0054950D01*
X0012696Y0055033D01*
X0012946D01*
X0012246Y0054866D02*
Y0055116D01*
X0012413Y0054866D02*
Y0055116D01*
X0012371Y0055200D01*
X0012288D01*
X0012246Y0055116D01*
X0012204Y0055200D01*
X0012121D01*
X0012079Y0055116D01*
Y0054866D01*
X0011588Y0055200D02*
X0011754D01*
X0011796Y0055116D01*
Y0054950D01*
X0011838Y0054866D01*
X0011546D01*
X0011504Y0054950D01*
X0011546Y0055033D01*
X0011796D01*
X0011263Y0054950D02*
X0011221Y0054866D01*
X0010971D01*
X0010929Y0054950D01*
Y0055283D01*
X0010971Y0055366D01*
X0011221D01*
X0011263Y0055283D01*
X0009884Y0055200D02*
X0009634D01*
X0009592Y0055116D01*
X0009634Y0055033D01*
X0009884D01*
X0009925Y0054950D01*
X0009884Y0054866D01*
X0009634D01*
X0009059D02*
X0009017Y0054950D01*
Y0055116D01*
X0009059Y0055200D01*
X0009309D01*
X0009350Y0055116D01*
Y0054950D01*
X0009309Y0054866D01*
X0009059D01*
X0008775D02*
X0008609D01*
X0008692D02*
Y0055366D01*
X0008609D01*
X0008325Y0055200D02*
X0008159D01*
X0008117Y0055116D01*
X0008034D01*
Y0055200D02*
Y0054866D01*
X0007542Y0055200D02*
X0007709D01*
X0007750Y0055116D01*
Y0054950D01*
X0007792Y0054866D01*
X0007500D01*
X0007459Y0054950D01*
X0007500Y0055033D01*
X0007750D01*
X0007217Y0054950D02*
X0007175Y0054866D01*
X0006925D01*
X0006884Y0054950D01*
Y0055283D01*
X0006925Y0055366D01*
X0007175D01*
X0007217Y0055283D01*
X0018982Y0054275D02*
X0018732D01*
X0019065Y0054025D02*
X0018732D01*
Y0054525D01*
X0019065D01*
X0018365Y0054275D02*
X0018490Y0054025D01*
X0018157Y0054275D02*
X0018407D01*
X0018490Y0054359D01*
Y0054442D01*
X0018407Y0054525D01*
X0018157D01*
Y0054025D01*
X0017915Y0054192D02*
X0017582D01*
X0017915Y0054025D02*
Y0054275D01*
X0017790Y0054525D01*
X0017707D01*
X0017582Y0054275D01*
Y0054025D01*
X0017340Y0054525D02*
Y0054109D01*
X0017298Y0054025D01*
X0017173Y0054275D01*
Y0054359D02*
Y0054275D01*
X0017048Y0054025D01*
X0017007Y0054109D01*
Y0054525D01*
X0016473Y0054025D02*
Y0054525D01*
X0016432Y0054025D02*
X0016682D01*
X0016765Y0054192D01*
Y0054359D01*
X0016682Y0054525D01*
X0016432D01*
X0016065Y0054275D02*
X0016190Y0054025D01*
X0015857Y0054275D02*
X0016107D01*
X0016190Y0054359D01*
Y0054442D01*
X0016107Y0054525D01*
X0015857D01*
Y0054025D01*
X0015615Y0054192D02*
X0015282D01*
X0015615Y0054025D02*
Y0054275D01*
X0015490Y0054525D01*
X0015407D01*
X0015282Y0054275D01*
Y0054025D01*
X0015040Y0054275D02*
X0014707D01*
X0015040Y0054025D02*
Y0054525D01*
X0014707Y0054025D02*
Y0054525D01*
X0014465Y0054275D02*
X0014132D01*
X0013890Y0054025D02*
X0013723D01*
X0013807D02*
Y0054525D01*
X0013890D02*
X0013723D01*
X0013232Y0054192D02*
X0013398Y0054025D01*
X0013065Y0054109D02*
X0013107Y0054025D01*
X0013273D01*
X0013315Y0054109D01*
X0013398Y0054192D01*
Y0054442D01*
X0013357Y0054525D01*
X0013107D01*
X0013065Y0054442D01*
Y0054109D01*
X0012823Y0054275D02*
X0012490D01*
X0012248Y0054025D02*
X0011957D01*
Y0054525D01*
X0011715Y0054192D02*
X0011382D01*
X0011715Y0054025D02*
Y0054275D01*
X0011590Y0054525D01*
X0011507D01*
X0011382Y0054275D01*
Y0054025D01*
X0011140Y0054525D02*
Y0054025D01*
X0011057Y0054109D01*
X0010890Y0054442D01*
X0010807Y0054525D01*
Y0054025D01*
X0010565Y0054525D02*
Y0054109D01*
X0010523Y0054025D01*
X0010273D01*
X0010232Y0054109D01*
Y0054525D01*
X0009990Y0054275D02*
X0009657D01*
X0009373Y0054359D02*
X0009123D01*
X0009415Y0054025D02*
X0009248D01*
X0009207Y0054109D01*
Y0054525D01*
X0008798D02*
Y0054526D01*
X0008799D01*
Y0054525D01*
X0008798D01*
X0008882Y0054025D02*
X0008715D01*
X0008798D02*
Y0054359D01*
X0008715D01*
X0008140D02*
X0008390D01*
X0008432Y0054275D01*
Y0054109D01*
X0008390Y0054025D01*
X0008140D01*
Y0054525D01*
X0007732Y0054192D02*
X0007898Y0054025D01*
X0007565Y0054109D02*
X0007607Y0054025D01*
X0007773D01*
X0007815Y0054109D01*
X0007898Y0054192D01*
Y0054442D01*
X0007857Y0054525D01*
X0007607D01*
X0007565Y0054442D01*
Y0054109D01*
X0007157Y0054025D02*
Y0054275D01*
X0007323Y0054025D02*
Y0054275D01*
X0007282Y0054359D01*
X0007198D01*
X0007157Y0054275D01*
X0007115Y0054359D01*
X0007032D01*
X0006990Y0054275D01*
Y0054025D01*
X0006707D02*
X0006457D01*
X0006415Y0054109D01*
Y0054275D01*
X0006457Y0054359D01*
X0006707D01*
X0006748Y0054275D01*
Y0054192D01*
X0006415D01*
X0035592Y0057232D02*
X0035509Y0057315D01*
X0035467Y0057398D01*
Y0057565D01*
X0035509Y0057648D01*
X0035592Y0057732D01*
X0035675D01*
X0035759Y0057648D01*
X0035800Y0057565D01*
Y0057398D01*
X0035759Y0057315D01*
X0035675Y0057232D01*
X0035592D01*
X0035142D02*
X0035225D01*
Y0057315D01*
X0035142D01*
Y0057232D01*
X0034484Y0057315D02*
X0034567Y0057232D01*
X0034734D01*
X0034817Y0057315D01*
Y0057398D01*
X0034650Y0057565D01*
X0034817Y0057732D01*
X0034484D01*
X0033479Y0057398D02*
X0033146D01*
X0033479Y0057232D02*
Y0057482D01*
X0033354Y0057732D01*
X0033271D01*
X0033146Y0057482D01*
Y0057232D01*
X0032904Y0057648D02*
X0032863Y0057732D01*
X0032613D01*
X0032571Y0057648D01*
Y0057565D01*
X0032613Y0057482D01*
X0032863D01*
X0032904Y0057398D01*
Y0057315D01*
X0032863Y0057232D01*
X0032613D01*
X0032571Y0057315D01*
X0032329Y0057482D02*
X0031996D01*
X0031588Y0057232D02*
Y0057482D01*
X0031754Y0057732D02*
X0031629Y0057482D01*
X0031546D01*
X0031421Y0057732D01*
X0030888Y0057232D02*
Y0057732D01*
X0030846Y0057232D02*
X0031096D01*
X0031179Y0057315D01*
Y0057398D01*
X0031138Y0057482D01*
X0030888D02*
X0031138D01*
X0031179Y0057565D01*
Y0057648D01*
X0031096Y0057732D01*
X0030846D01*
X0030604Y0057482D02*
X0030271D01*
X0030029Y0057315D02*
X0029988Y0057232D01*
X0029738D01*
X0029696Y0057315D01*
Y0057648D01*
X0029738Y0057732D01*
X0029988D01*
X0030029Y0057648D01*
X0029454Y0057315D02*
X0029413Y0057232D01*
X0029163D01*
X0029121Y0057315D01*
Y0057648D01*
X0029163Y0057732D01*
X0029413D01*
X0029454Y0057648D01*
X0031167Y0080843D02*
Y0085843D01*
X0028167D01*
Y0080843D01*
X0031167D01*
X0011988Y0066032D02*
Y0070608D01*
X0012036Y0070656D01*
X0017012D01*
Y0065602D01*
X0012406D01*
X0011984Y0066024D01*
X0011502Y0085262D02*
X0006850D01*
Y0081671D01*
X0006852Y0081669D01*
X0011565D01*
Y0085262D01*
X0011501D01*
G54D182*
G01X0033763Y0064605D02*
Y0063149D01*
X0033921Y0062992D01*
X0035022D01*
Y0064605D01*
X0033763D01*
G54D183*
G01X0005358Y0075227D02*
X0005183D01*
X0005358Y0075402D01*
Y0075446D01*
X0005336Y0075489D01*
X0005205D01*
X0005183Y0075446D01*
X0005316Y0072969D02*
X0005338Y0073013D01*
Y0073057D01*
X0005316Y0073100D01*
X0005185D01*
X0005163Y0073057D01*
Y0073013D01*
X0005185Y0072969D01*
X0005316D01*
X0005338Y0072925D01*
Y0072882D01*
X0005316Y0072838D01*
X0005185D01*
X0005163Y0072882D01*
Y0072925D01*
X0005185Y0072969D01*
X0013129Y0079736D02*
X0012997D01*
X0012976Y0079780D01*
Y0079824D01*
X0012997Y0079867D01*
X0013129D01*
X0013151Y0079824D01*
Y0079780D01*
X0013063Y0079605D01*
X0012706D02*
Y0079867D01*
X0012684Y0079605D02*
X0012816D01*
X0012859Y0079692D01*
Y0079780D01*
X0012816Y0079867D01*
X0012684D01*
X0005480Y0066451D02*
X0005523Y0066407D01*
X0005611D01*
X0005655Y0066451D01*
Y0066495D01*
X0005567Y0066582D01*
X0005655Y0066670D01*
X0005480D01*
X0005210Y0066539D02*
X0005341D01*
X0005363Y0066495D01*
Y0066451D01*
X0005341Y0066407D01*
X0005210D01*
X0005188Y0066451D01*
Y0066495D01*
X0005276Y0066670D01*
X0005072Y0066451D02*
X0005050Y0066407D01*
X0004919D01*
X0004897Y0066451D01*
Y0066626D01*
X0004919Y0066670D01*
X0005050D01*
X0005072Y0066626D01*
X0005650Y0070363D02*
X0005475D01*
X0005650Y0070538D01*
Y0070582D01*
X0005628Y0070625D01*
X0005496D01*
X0005475Y0070582D01*
X0005227Y0070363D02*
X0005358Y0070625D01*
X0005183D01*
X0005067Y0070407D02*
X0005045Y0070363D01*
X0004914D01*
X0004892Y0070407D01*
Y0070582D01*
X0004914Y0070625D01*
X0005045D01*
X0005067Y0070582D01*
X0007293Y0060608D02*
X0007250Y0060651D01*
X0007228Y0060695D01*
Y0060783D01*
X0007250Y0060826D01*
X0007293Y0060870D01*
X0007337D01*
X0007381Y0060826D01*
X0007403Y0060783D01*
Y0060695D01*
X0007381Y0060651D01*
X0007337Y0060608D01*
X0007293D01*
X0007112D02*
X0006937D01*
X0007112Y0060783D01*
Y0060826D01*
X0007090Y0060870D01*
X0006958D01*
X0006937Y0060826D01*
X0006667Y0060695D02*
Y0060651D01*
X0006689Y0060608D01*
X0006777D01*
X0006799Y0060651D01*
Y0060870D01*
X0006820D02*
X0006733D01*
X0005634Y0069583D02*
X0005547D01*
X0005591D02*
Y0069845D01*
X0005547Y0069802D01*
X0005256Y0069583D02*
X0005387Y0069845D01*
X0005212D01*
X0005096Y0069627D02*
X0005074Y0069583D01*
X0004943D01*
X0004921Y0069627D01*
Y0069802D01*
X0004943Y0069845D01*
X0005074D01*
X0005096Y0069802D01*
X0005564Y0071993D02*
X0005521Y0072037D01*
X0005499Y0072081D01*
Y0072168D01*
X0005521Y0072212D01*
X0005564Y0072255D01*
X0005608D01*
X0005652Y0072212D01*
X0005674Y0072168D01*
Y0072081D01*
X0005652Y0072037D01*
X0005608Y0071993D01*
X0005564D01*
X0005251D02*
X0005383Y0072255D01*
X0005208D01*
X0005092Y0072037D02*
X0005070Y0071993D01*
X0004938D01*
X0004917Y0072037D01*
Y0072212D01*
X0004938Y0072255D01*
X0005070D01*
X0005092Y0072212D01*
X0011465Y0078976D02*
Y0078801D01*
X0011290Y0078888D01*
Y0078932D01*
X0011552D01*
Y0078553D02*
X0011290Y0078685D01*
Y0078510D01*
X0011509Y0078394D02*
X0011552Y0078372D01*
Y0078240D01*
X0011509Y0078219D01*
X0011334D01*
X0011290Y0078240D01*
Y0078372D01*
X0011334Y0078394D01*
X0005627Y0068123D02*
X0005496D01*
X0005474Y0068166D01*
Y0068210D01*
X0005496Y0068254D01*
X0005627D01*
X0005649Y0068210D01*
Y0068166D01*
X0005561Y0067992D01*
X0005205Y0068123D02*
X0005336D01*
X0005358Y0068079D01*
Y0068035D01*
X0005336Y0067992D01*
X0005205D01*
X0005183Y0068035D01*
Y0068079D01*
X0005270Y0068254D01*
X0005067Y0068035D02*
X0005045Y0067992D01*
X0004913D01*
X0004892Y0068035D01*
Y0068210D01*
X0004913Y0068254D01*
X0005045D01*
X0005067Y0068210D01*
X0004888Y0061918D02*
Y0061743D01*
X0004713Y0061830D01*
Y0061874D01*
X0004976D01*
Y0061627D02*
Y0061539D01*
Y0061583D02*
X0004713D01*
X0004757Y0061539D01*
X0004976Y0061379D02*
Y0061226D01*
X0004713D01*
X0005636Y0064760D02*
X0005461D01*
X0005636Y0064934D01*
Y0064978D01*
X0005614Y0065022D01*
X0005483D01*
X0005461Y0064978D01*
X0005192Y0064891D02*
X0005323D01*
X0005345Y0064847D01*
Y0064803D01*
X0005323Y0064760D01*
X0005192D01*
X0005170Y0064803D01*
Y0064847D01*
X0005257Y0065022D01*
X0005054Y0064803D02*
X0005032Y0064760D01*
X0004900D01*
X0004879Y0064803D01*
Y0064978D01*
X0004900Y0065022D01*
X0005032D01*
X0005054Y0064978D01*
X0005449Y0071204D02*
X0005493Y0071161D01*
X0005580D01*
X0005624Y0071204D01*
Y0071248D01*
X0005536Y0071335D01*
X0005624Y0071423D01*
X0005449D01*
X0005201Y0071161D02*
X0005333Y0071423D01*
X0005158D01*
X0005042Y0071204D02*
X0005020Y0071161D01*
X0004888D01*
X0004867Y0071204D01*
Y0071379D01*
X0004888Y0071423D01*
X0005020D01*
X0005042Y0071379D01*
X0007077Y0077042D02*
X0007120Y0077064D01*
Y0077195D01*
X0007077Y0077217D01*
X0006989D01*
X0006946Y0077173D01*
Y0077042D01*
X0006858D01*
Y0077217D01*
X0007077Y0076751D02*
X0007120Y0076795D01*
Y0076882D01*
X0007077Y0076926D01*
X0007033D01*
X0006946Y0076838D01*
X0006858Y0076926D01*
Y0076751D01*
X0006989Y0076569D02*
X0007120Y0076635D01*
X0006989Y0076460D02*
Y0076591D01*
X0006946Y0076635D01*
X0006902D01*
X0006858Y0076591D01*
Y0076460D01*
X0007120D01*
X0005605Y0067352D02*
X0005627Y0067396D01*
Y0067440D01*
X0005605Y0067484D01*
X0005474D01*
X0005452Y0067440D01*
Y0067396D01*
X0005474Y0067352D01*
X0005605D01*
X0005627Y0067309D01*
Y0067265D01*
X0005605Y0067221D01*
X0005474D01*
X0005452Y0067265D01*
Y0067309D01*
X0005474Y0067352D01*
X0005182D02*
X0005314D01*
X0005336Y0067309D01*
Y0067265D01*
X0005314Y0067221D01*
X0005182D01*
X0005161Y0067265D01*
Y0067309D01*
X0005248Y0067484D01*
X0005044Y0067265D02*
X0005022Y0067221D01*
X0004891D01*
X0004869Y0067265D01*
Y0067440D01*
X0004891Y0067484D01*
X0005022D01*
X0005044Y0067440D01*
X0005638Y0064003D02*
X0005550D01*
X0005594D02*
Y0064265D01*
X0005550Y0064222D01*
X0005237Y0064134D02*
X0005368D01*
X0005390Y0064090D01*
Y0064047D01*
X0005368Y0064003D01*
X0005237D01*
X0005215Y0064047D01*
Y0064090D01*
X0005303Y0064265D01*
X0005099Y0064047D02*
X0005077Y0064003D01*
X0004946D01*
X0004924Y0064047D01*
Y0064222D01*
X0004946Y0064265D01*
X0005077D01*
X0005099Y0064222D01*
X0005505Y0065538D02*
X0005637Y0065801D01*
X0005462D01*
X0005192Y0065670D02*
X0005323D01*
X0005345Y0065626D01*
Y0065582D01*
X0005323Y0065538D01*
X0005192D01*
X0005170Y0065582D01*
Y0065626D01*
X0005258Y0065801D01*
X0005054Y0065582D02*
X0005032Y0065538D01*
X0004901D01*
X0004879Y0065582D01*
Y0065757D01*
X0004901Y0065801D01*
X0005032D01*
X0005054Y0065757D01*
X0008855Y0077101D02*
Y0077232D01*
X0008898Y0077254D01*
X0008942D01*
X0008986Y0077232D01*
Y0077101D01*
X0008942Y0077079D01*
X0008898D01*
X0008724Y0077166D01*
X0008942Y0076788D02*
X0008986Y0076831D01*
Y0076919D01*
X0008942Y0076963D01*
X0008898D01*
X0008811Y0076875D01*
X0008724Y0076963D01*
Y0076788D01*
X0008855Y0076606D02*
X0008986Y0076672D01*
X0008855Y0076497D02*
Y0076628D01*
X0008811Y0076672D01*
X0008767D01*
X0008724Y0076628D01*
Y0076497D01*
X0008986D01*
X0009376Y0078770D02*
X0009420Y0078792D01*
Y0078923D01*
X0009376Y0078945D01*
X0009289D01*
X0009245Y0078902D01*
Y0078770D01*
X0009158D01*
Y0078945D01*
X0009420Y0078523D02*
X0009158Y0078654D01*
Y0078479D01*
X0009376Y0078363D02*
X0009420Y0078341D01*
Y0078210D01*
X0009376Y0078188D01*
X0009201D01*
X0009158Y0078210D01*
Y0078341D01*
X0009201Y0078363D01*
X0005649Y0068827D02*
X0005474D01*
X0005561Y0069002D01*
X0005605D01*
Y0068740D01*
X0005205Y0068871D02*
X0005336D01*
X0005358Y0068827D01*
Y0068784D01*
X0005336Y0068740D01*
X0005205D01*
X0005183Y0068784D01*
Y0068827D01*
X0005270Y0069002D01*
X0005067Y0068784D02*
X0005045Y0068740D01*
X0004913D01*
X0004892Y0068784D01*
Y0068959D01*
X0004913Y0069002D01*
X0005045D01*
X0005067Y0068959D01*
X0006866Y0078046D02*
X0006779D01*
X0006823D02*
Y0078308D01*
X0006779Y0078265D01*
X0006532Y0078133D02*
X0006619Y0078046D01*
X0006444Y0078090D02*
X0006466Y0078046D01*
X0006553D01*
X0006575Y0078090D01*
X0006619Y0078133D01*
Y0078265D01*
X0006597Y0078308D01*
X0006466D01*
X0006444Y0078265D01*
Y0078090D01*
X0011736Y0077209D02*
X0011758Y0077253D01*
Y0077297D01*
X0011736Y0077341D01*
X0011605D01*
X0011583Y0077297D01*
Y0077253D01*
X0011605Y0077209D01*
X0011736D01*
X0011758Y0077166D01*
Y0077122D01*
X0011736Y0077078D01*
X0011605D01*
X0011583Y0077122D01*
Y0077166D01*
X0011605Y0077209D01*
X0011314Y0077078D02*
Y0077341D01*
X0011292Y0077078D02*
X0011423D01*
X0011467Y0077166D01*
Y0077253D01*
X0011423Y0077341D01*
X0011292D01*
X0016052Y0078629D02*
X0015964D01*
X0016008D02*
Y0078891D01*
X0015964Y0078847D01*
X0015717Y0078629D02*
Y0078891D01*
X0015804D02*
X0015629D01*
X0015360Y0078629D02*
Y0078891D01*
X0015338Y0078629D02*
X0015469D01*
X0015513Y0078672D01*
Y0078716D01*
X0015491Y0078760D01*
X0015360D02*
X0015491D01*
X0015513Y0078804D01*
Y0078847D01*
X0015469Y0078891D01*
X0015338D01*
X0010938Y0079671D02*
X0010895Y0079715D01*
X0010873Y0079759D01*
Y0079846D01*
X0010895Y0079890D01*
X0010938Y0079934D01*
X0010982D01*
X0011026Y0079890D01*
X0011048Y0079846D01*
Y0079759D01*
X0011026Y0079715D01*
X0010982Y0079671D01*
X0010938D01*
X0010757D02*
X0010669D01*
X0010713D02*
Y0079934D01*
X0010669Y0079890D01*
X0010356Y0079671D02*
Y0079934D01*
X0010334Y0079671D02*
X0010466D01*
X0010509Y0079759D01*
Y0079846D01*
X0010466Y0079934D01*
X0010334D01*
X0013295Y0080207D02*
X0013120D01*
X0013207Y0080382D01*
X0013251D01*
Y0080120D01*
X0012829Y0080164D02*
X0012872Y0080120D01*
X0012960D01*
X0013004Y0080164D01*
Y0080207D01*
X0012916Y0080295D01*
X0013004Y0080382D01*
X0012829D01*
X0012647Y0080251D02*
X0012712Y0080120D01*
X0012537Y0080251D02*
X0012669D01*
X0012712Y0080295D01*
Y0080339D01*
X0012669Y0080382D01*
X0012537D01*
Y0080120D01*
X0026782Y0056336D02*
X0026825Y0056292D01*
X0026913D01*
X0026957Y0056336D01*
Y0056379D01*
X0026869Y0056467D01*
X0026957Y0056554D01*
X0026782D01*
X0026491Y0056336D02*
X0026534Y0056292D01*
X0026622D01*
X0026666Y0056336D01*
Y0056379D01*
X0026578Y0056467D01*
X0026666Y0056554D01*
X0026491D01*
X0026309Y0056423D02*
X0026374Y0056292D01*
X0026199Y0056423D02*
X0026331D01*
X0026374Y0056467D01*
Y0056511D01*
X0026331Y0056554D01*
X0026199D01*
Y0056292D01*
X0003129Y0075287D02*
X0003042D01*
X0003085D02*
Y0075550D01*
X0003042Y0075506D01*
X0032453Y0083451D02*
X0032584Y0083714D01*
X0032409D01*
X0032140Y0083451D02*
Y0083714D01*
X0032118Y0083451D02*
X0032249D01*
X0032293Y0083539D01*
Y0083626D01*
X0032249Y0083714D01*
X0032118D01*
X0033413Y0081700D02*
X0033326D01*
X0033369D02*
Y0081962D01*
X0033326Y0081919D01*
X0032991Y0081744D02*
X0033034Y0081700D01*
X0033122D01*
X0033166Y0081744D01*
Y0081787D01*
X0033078Y0081875D01*
X0033166Y0081962D01*
X0032991D01*
X0032809Y0081831D02*
X0032875Y0081700D01*
X0032700Y0081831D02*
X0032831D01*
X0032875Y0081875D01*
Y0081919D01*
X0032831Y0081962D01*
X0032700D01*
Y0081700D01*
X0010785Y0069826D02*
X0010916D01*
X0010938Y0069783D01*
Y0069739D01*
X0010916Y0069695D01*
X0010785D01*
X0010763Y0069739D01*
Y0069783D01*
X0010850Y0069958D01*
X0010494Y0069695D02*
Y0069958D01*
X0010472Y0069695D02*
X0010603D01*
X0010647Y0069783D01*
Y0069870D01*
X0010603Y0069958D01*
X0010472D01*
X0010015Y0070997D02*
X0010147D01*
X0010169Y0070953D01*
Y0070909D01*
X0010147Y0070866D01*
X0010015D01*
X0009994Y0070909D01*
Y0070953D01*
X0010081Y0071128D01*
X0009877Y0070866D02*
X0009702D01*
X0009877Y0071040D01*
Y0071084D01*
X0009855Y0071128D01*
X0009724D01*
X0009702Y0071084D01*
X0009521Y0070997D02*
X0009586Y0070866D01*
X0009411Y0070997D02*
X0009542D01*
X0009586Y0071040D01*
Y0071084D01*
X0009542Y0071128D01*
X0009411D01*
Y0070866D01*
X0036413Y0059814D02*
X0036282D01*
X0036260Y0059858D01*
Y0059901D01*
X0036282Y0059945D01*
X0036413D01*
X0036435Y0059901D01*
Y0059858D01*
X0036348Y0059683D01*
X0035969Y0059726D02*
X0036013Y0059683D01*
X0036100D01*
X0036144Y0059726D01*
Y0059770D01*
X0036057Y0059858D01*
X0036144Y0059945D01*
X0035969D01*
X0037087Y0076416D02*
X0036912D01*
X0037087Y0076591D01*
Y0076635D01*
X0037065Y0076678D01*
X0036934D01*
X0036912Y0076635D01*
X0035853Y0076427D02*
X0035766D01*
X0035810D02*
Y0076690D01*
X0035766Y0076646D01*
X0022644Y0085134D02*
Y0085396D01*
X0022622Y0085134D02*
X0022753D01*
X0022797Y0085222D01*
Y0085309D01*
X0022753Y0085396D01*
X0022622D01*
X0022506D02*
Y0085134D01*
X0022462Y0085178D01*
X0022374Y0085353D01*
X0022331Y0085396D01*
Y0085134D01*
X0022127Y0085265D02*
X0022215D01*
Y0085178D01*
X0022193Y0085134D01*
X0022061D01*
X0022040Y0085178D01*
Y0085353D01*
X0022061Y0085396D01*
X0022193D01*
X0022215Y0085353D01*
X0022886Y0082903D02*
Y0082816D01*
X0022798Y0082641D01*
X0022711Y0082816D01*
Y0082903D01*
X0022420Y0082685D02*
X0022463Y0082641D01*
X0022551D01*
X0022595Y0082685D01*
Y0082728D01*
X0022507Y0082816D01*
X0022595Y0082903D01*
X0022420D01*
X0022260Y0082641D02*
X0022304D01*
Y0082685D01*
X0022260D01*
Y0082641D01*
X0021925Y0082685D02*
X0021969Y0082641D01*
X0022056D01*
X0022100Y0082685D01*
Y0082728D01*
X0022012Y0082816D01*
X0022100Y0082903D01*
X0021925D01*
X0023734Y0085113D02*
X0023603Y0085244D01*
X0023734Y0085375D01*
X0023559D02*
Y0085113D01*
X0023443Y0085157D02*
X0023421Y0085113D01*
X0023290D01*
X0023268Y0085157D01*
Y0085332D01*
X0023290Y0085375D01*
X0023421D01*
X0023443Y0085332D01*
X0023152D02*
X0023130Y0085375D01*
X0022998D01*
X0022977Y0085332D01*
Y0085288D01*
X0022998Y0085244D01*
X0023130D01*
X0023152Y0085201D01*
Y0085157D01*
X0023130Y0085113D01*
X0022998D01*
X0022977Y0085157D01*
X0024743Y0085102D02*
X0024568D01*
X0024743Y0085277D01*
Y0085320D01*
X0024721Y0085364D01*
X0024590D01*
X0024568Y0085320D01*
X0024452Y0085102D02*
X0024321Y0085364D01*
X0024452D02*
X0024321Y0085102D01*
X0024095D02*
Y0085364D01*
X0024183D02*
X0024008D01*
X0025764Y0085102D02*
X0025589D01*
X0025764Y0085277D01*
Y0085320D01*
X0025742Y0085364D01*
X0025611D01*
X0025589Y0085320D01*
X0025473Y0085102D02*
X0025342Y0085364D01*
X0025473D02*
X0025342Y0085102D01*
X0025138Y0085233D02*
X0025204Y0085102D01*
X0025029Y0085233D02*
X0025160D01*
X0025204Y0085277D01*
Y0085320D01*
X0025160Y0085364D01*
X0025029D01*
Y0085102D01*
X0023802Y0082753D02*
X0023627D01*
X0023802Y0082665D02*
Y0082796D01*
X0023736Y0082927D01*
X0023692D01*
X0023627Y0082796D01*
Y0082665D01*
X0023358D02*
Y0082927D01*
X0023336Y0082665D02*
X0023467D01*
X0023511Y0082753D01*
Y0082840D01*
X0023467Y0082927D01*
X0023336D01*
X0023220Y0082884D02*
X0023198Y0082927D01*
X0023066D01*
X0023045Y0082884D01*
Y0082840D01*
X0023066Y0082796D01*
X0023198D01*
X0023220Y0082753D01*
Y0082709D01*
X0023198Y0082665D01*
X0023066D01*
X0023045Y0082709D01*
X0037085Y0059705D02*
X0037041Y0059749D01*
X0037020Y0059793D01*
Y0059880D01*
X0037041Y0059924D01*
X0037085Y0059968D01*
X0037129D01*
X0037173Y0059924D01*
X0037195Y0059880D01*
Y0059793D01*
X0037173Y0059749D01*
X0037129Y0059705D01*
X0037085D01*
X0036903Y0059793D02*
X0036728D01*
X0036816Y0059968D01*
X0036860D01*
Y0059705D01*
X0028876Y0079614D02*
Y0079527D01*
X0028788Y0079352D01*
X0028701Y0079527D01*
Y0079614D01*
X0028409Y0079396D02*
X0028453Y0079352D01*
X0028541D01*
X0028584Y0079396D01*
Y0079440D01*
X0028497Y0079527D01*
X0028584Y0079614D01*
X0028409D01*
X0028249Y0079352D02*
X0028293D01*
Y0079396D01*
X0028249D01*
Y0079352D01*
X0027915Y0079396D02*
X0027958Y0079352D01*
X0028046D01*
X0028090Y0079396D01*
Y0079440D01*
X0028002Y0079527D01*
X0028090Y0079614D01*
X0027915D01*
X0037101Y0082074D02*
Y0081986D01*
X0037013Y0081811D01*
X0036926Y0081986D01*
Y0082074D01*
X0036810Y0081811D02*
X0036635D01*
X0036810Y0081986D01*
Y0082030D01*
X0036788Y0082074D01*
X0036656D01*
X0036635Y0082030D01*
X0036475Y0081811D02*
X0036518D01*
Y0081855D01*
X0036475D01*
Y0081811D01*
X0036315D02*
X0036227D01*
X0036271D02*
Y0082074D01*
X0036227Y0082030D01*
X0024801Y0082676D02*
X0024714D01*
X0024758D02*
Y0082939D01*
X0024714Y0082895D01*
X0024554Y0082676D02*
X0024423Y0082939D01*
X0024554D02*
X0024423Y0082676D01*
X0024219Y0082808D02*
X0024285Y0082676D01*
X0024110Y0082808D02*
X0024241D01*
X0024285Y0082851D01*
Y0082895D01*
X0024241Y0082939D01*
X0024110D01*
Y0082676D01*
X0025799Y0082665D02*
X0025711D01*
X0025755D02*
Y0082927D01*
X0025711Y0082884D01*
X0025551Y0082665D02*
X0025420Y0082927D01*
X0025551D02*
X0025420Y0082665D01*
X0025195D02*
Y0082927D01*
X0025282D02*
X0025107D01*
X0032313Y0080503D02*
Y0080416D01*
X0032226Y0080241D01*
X0032138Y0080416D01*
Y0080503D01*
X0032000Y0080372D02*
X0032022Y0080416D01*
Y0080460D01*
X0032000Y0080503D01*
X0031869D01*
X0031847Y0080460D01*
Y0080416D01*
X0031869Y0080372D01*
X0032000D01*
X0032022Y0080328D01*
Y0080285D01*
X0032000Y0080241D01*
X0031869D01*
X0031847Y0080285D01*
Y0080328D01*
X0031869Y0080372D01*
X0031687Y0080241D02*
X0031731D01*
Y0080285D01*
X0031687D01*
Y0080241D01*
X0031527D02*
X0031440D01*
X0031483D02*
Y0080503D01*
X0031440Y0080460D01*
X0010048Y0077229D02*
X0009873D01*
X0010048Y0077404D01*
Y0077448D01*
X0010026Y0077492D01*
X0009895D01*
X0009873Y0077448D01*
X0009757Y0077229D02*
X0009670D01*
X0009714D02*
Y0077492D01*
X0009670Y0077448D01*
X0009510Y0077492D02*
Y0077273D01*
X0009488Y0077229D01*
X0009357D01*
X0009335Y0077273D01*
Y0077492D01*
X0033629Y0063003D02*
X0033585Y0062959D01*
X0033541Y0062938D01*
X0033454D01*
X0033410Y0062959D01*
X0033366Y0063003D01*
Y0063047D01*
X0033410Y0063091D01*
X0033454Y0063113D01*
X0033541D01*
X0033585Y0063091D01*
X0033629Y0063047D01*
Y0063003D01*
X0033498Y0062668D02*
Y0062799D01*
X0033541Y0062821D01*
X0033585D01*
X0033629Y0062799D01*
Y0062668D01*
X0033585Y0062646D01*
X0033541D01*
X0033366Y0062734D01*
X0033585Y0062530D02*
X0033629Y0062508D01*
Y0062377D01*
X0033585Y0062355D01*
X0033410D01*
X0033366Y0062377D01*
Y0062508D01*
X0033410Y0062530D01*
X0025769Y0058764D02*
X0025791Y0058720D01*
X0025922D01*
X0025944Y0058764D01*
Y0058851D01*
X0025901Y0058895D01*
X0025769D01*
Y0058983D01*
X0025944D01*
X0025478Y0058764D02*
X0025522Y0058720D01*
X0025609D01*
X0025653Y0058764D01*
Y0058808D01*
X0025566Y0058895D01*
X0025653Y0058983D01*
X0025478D01*
X0025362Y0058764D02*
X0025340Y0058720D01*
X0025209D01*
X0025187Y0058764D01*
Y0058939D01*
X0025209Y0058983D01*
X0025340D01*
X0025362Y0058939D01*
X0034749Y0064785D02*
X0034574D01*
X0034749Y0064960D01*
Y0065004D01*
X0034727Y0065047D01*
X0034596D01*
X0034574Y0065004D01*
X0034414Y0064916D02*
X0034283D01*
Y0064785D02*
Y0065047D01*
X0034458D01*
X0034167D02*
Y0064829D01*
X0034145Y0064785D01*
X0034014D01*
X0033992Y0064829D01*
Y0065047D01*
X0031612Y0060917D02*
Y0060742D01*
X0031437Y0060917D01*
X0031393D01*
X0031349Y0060895D01*
Y0060764D01*
X0031393Y0060742D01*
X0031612Y0060626D02*
Y0060539D01*
Y0060583D02*
X0031349D01*
X0031393Y0060539D01*
X0031612Y0060379D02*
Y0060226D01*
X0031349D01*
X0028050Y0060115D02*
Y0060028D01*
Y0060071D02*
X0027788D01*
X0027832Y0060028D01*
X0028050Y0059868D02*
Y0059780D01*
Y0059824D02*
X0027788D01*
X0027832Y0059780D01*
X0027788Y0059620D02*
X0028007D01*
X0028050Y0059598D01*
Y0059467D01*
X0028007Y0059445D01*
X0027788D01*
X0005518Y0063315D02*
X0005649D01*
X0005671Y0063272D01*
Y0063228D01*
X0005649Y0063184D01*
X0005518D01*
X0005496Y0063228D01*
Y0063272D01*
X0005583Y0063446D01*
X0005227Y0063315D02*
X0005358D01*
X0005380Y0063272D01*
Y0063228D01*
X0005358Y0063184D01*
X0005227D01*
X0005205Y0063228D01*
Y0063272D01*
X0005292Y0063446D01*
X0005089Y0063228D02*
X0005067Y0063184D01*
X0004935D01*
X0004914Y0063228D01*
Y0063403D01*
X0004935Y0063446D01*
X0005067D01*
X0005089Y0063403D01*
X0009522Y0065284D02*
Y0065109D01*
X0009347Y0065284D01*
X0009303D01*
X0009260Y0065262D01*
Y0065131D01*
X0009303Y0065109D01*
X0009260Y0064993D02*
X0009522D01*
X0009478Y0064949D01*
X0009303Y0064861D01*
X0009260Y0064818D01*
X0009522D01*
X0009391Y0064636D02*
X0009522Y0064702D01*
X0009391Y0064527D02*
Y0064658D01*
X0009347Y0064702D01*
X0009303D01*
X0009260Y0064658D01*
Y0064527D01*
X0009522D01*
X0011914Y0077819D02*
X0011870Y0077863D01*
X0011848Y0077907D01*
Y0077994D01*
X0011870Y0078038D01*
X0011914Y0078082D01*
X0011958D01*
X0012001Y0078038D01*
X0012023Y0077994D01*
Y0077907D01*
X0012001Y0077863D01*
X0011958Y0077819D01*
X0011914D01*
X0011732D02*
X0011645D01*
X0011689D02*
Y0078082D01*
X0011645Y0078038D01*
X0011485Y0077819D02*
X0011332D01*
Y0078082D01*
X0034259Y0067676D02*
X0034281Y0067632D01*
X0034412D01*
X0034434Y0067676D01*
Y0067764D01*
X0034390Y0067807D01*
X0034259D01*
Y0067895D01*
X0034434D01*
X0033989Y0067632D02*
Y0067895D01*
X0033968Y0067632D02*
X0034099D01*
X0034143Y0067720D01*
Y0067807D01*
X0034099Y0067895D01*
X0033968D01*
X0015485Y0072256D02*
X0015398D01*
X0015441D02*
Y0072519D01*
X0015398Y0072475D01*
X0015150Y0072256D02*
Y0072388D01*
X0015238Y0072519D02*
X0015172Y0072388D01*
X0015128D01*
X0015063Y0072519D01*
X0035052Y0082743D02*
X0035009Y0082787D01*
X0034987Y0082830D01*
Y0082918D01*
X0035009Y0082962D01*
X0035052Y0083005D01*
X0035096D01*
X0035140Y0082962D01*
X0035162Y0082918D01*
Y0082830D01*
X0035140Y0082787D01*
X0035096Y0082743D01*
X0035052D01*
X0034871D02*
X0034783D01*
X0034827D02*
Y0083005D01*
X0034783Y0082962D01*
X0034623Y0083005D02*
Y0082787D01*
X0034601Y0082743D01*
X0034470D01*
X0034448Y0082787D01*
Y0083005D01*
X0034799Y0077503D02*
X0034930Y0077765D01*
X0034755D01*
X0034464Y0077547D02*
X0034486Y0077503D01*
X0034617D01*
X0034639Y0077547D01*
Y0077634D01*
X0034595Y0077678D01*
X0034464D01*
Y0077765D01*
X0034639D01*
X0034348Y0077547D02*
X0034326Y0077503D01*
X0034195D01*
X0034173Y0077547D01*
Y0077722D01*
X0034195Y0077765D01*
X0034326D01*
X0034348Y0077722D01*
X0012357Y0083866D02*
X0012226D01*
X0012204Y0083910D01*
Y0083953D01*
X0012226Y0083997D01*
X0012357D01*
X0012379Y0083953D01*
Y0083910D01*
X0012292Y0083735D01*
X0012088D02*
X0011935D01*
Y0083997D01*
X0012816Y0080587D02*
X0012947Y0080849D01*
X0012772D01*
X0012656Y0080587D02*
X0012503D01*
Y0080849D01*
X0031937Y0080951D02*
X0032068Y0081213D01*
X0031893D01*
X0031777Y0080951D02*
X0031689D01*
X0031733D02*
Y0081213D01*
X0031689Y0081170D01*
X0031376Y0081038D02*
Y0080995D01*
X0031398Y0080951D01*
X0031486D01*
X0031508Y0080995D01*
Y0081213D01*
X0031529D02*
X0031442D01*
X0005320Y0074336D02*
Y0074468D01*
X0005364Y0074490D01*
X0005408D01*
X0005451Y0074468D01*
Y0074336D01*
X0005408Y0074315D01*
X0005364D01*
X0005189Y0074402D01*
X0005451Y0074198D02*
Y0074111D01*
Y0074155D02*
X0005189D01*
X0005233Y0074111D01*
X0005364Y0073798D02*
X0005408D01*
X0005451Y0073820D01*
Y0073907D01*
X0005408Y0073929D01*
X0005189D01*
Y0073951D02*
Y0073864D01*
X0033355Y0075516D02*
X0033399Y0075472D01*
X0033486D01*
X0033530Y0075516D01*
Y0075560D01*
X0033443Y0075647D01*
X0033530Y0075735D01*
X0033355D01*
X0033064Y0075516D02*
X0033086Y0075472D01*
X0033217D01*
X0033239Y0075516D01*
Y0075604D01*
X0033195Y0075647D01*
X0033064D01*
Y0075735D01*
X0033239D01*
X0032948Y0075516D02*
X0032926Y0075472D01*
X0032795D01*
X0032773Y0075516D01*
Y0075691D01*
X0032795Y0075735D01*
X0032926D01*
X0032948Y0075691D01*
X0036258Y0077609D02*
X0036083D01*
X0036171Y0077784D01*
X0036214D01*
Y0077521D01*
X0035792Y0077565D02*
X0035814Y0077521D01*
X0035945D01*
X0035967Y0077565D01*
Y0077653D01*
X0035923Y0077696D01*
X0035792D01*
Y0077784D01*
X0035967D01*
X0035676Y0077565D02*
X0035654Y0077521D01*
X0035523D01*
X0035501Y0077565D01*
Y0077740D01*
X0035523Y0077784D01*
X0035654D01*
X0035676Y0077740D01*
X0030484Y0075926D02*
X0030615D01*
X0030637Y0075882D01*
Y0075838D01*
X0030615Y0075794D01*
X0030484D01*
X0030462Y0075838D01*
Y0075882D01*
X0030550Y0076057D01*
X0030171Y0075838D02*
X0030193Y0075794D01*
X0030324D01*
X0030346Y0075838D01*
Y0075926D01*
X0030302Y0075969D01*
X0030171D01*
Y0076057D01*
X0030346D01*
X0030055Y0075838D02*
X0030033Y0075794D01*
X0029902D01*
X0029880Y0075838D01*
Y0076013D01*
X0029902Y0076057D01*
X0030033D01*
X0030055Y0076013D01*
X0028776Y0064639D02*
X0028644D01*
X0028623Y0064682D01*
Y0064726D01*
X0028644Y0064770D01*
X0028776D01*
X0028798Y0064726D01*
Y0064682D01*
X0028710Y0064508D01*
X0028506Y0064770D02*
Y0064551D01*
X0028484Y0064508D01*
X0028353D01*
X0028331Y0064551D01*
Y0064770D01*
X0028251Y0074399D02*
Y0074224D01*
X0028076Y0074399D01*
X0028033D01*
X0027989Y0074377D01*
Y0074246D01*
X0028033Y0074224D01*
X0028208Y0073933D02*
X0028251Y0073955D01*
Y0074086D01*
X0028208Y0074108D01*
X0028120D01*
X0028076Y0074064D01*
Y0073933D01*
X0027989D01*
Y0074108D01*
X0028208Y0073817D02*
X0028251Y0073795D01*
Y0073663D01*
X0028208Y0073642D01*
X0028033D01*
X0027989Y0073663D01*
Y0073795D01*
X0028033Y0073817D01*
X0031822Y0063086D02*
Y0062998D01*
Y0063042D02*
X0031559D01*
X0031603Y0062998D01*
X0031778Y0062664D02*
X0031822Y0062685D01*
Y0062817D01*
X0031778Y0062839D01*
X0031690D01*
X0031647Y0062795D01*
Y0062664D01*
X0031559D01*
Y0062839D01*
X0031778Y0062547D02*
X0031822Y0062525D01*
Y0062394D01*
X0031778Y0062372D01*
X0031603D01*
X0031559Y0062394D01*
Y0062525D01*
X0031603Y0062547D01*
X0033997Y0069487D02*
X0033953Y0069443D01*
X0033909Y0069421D01*
X0033822D01*
X0033778Y0069443D01*
X0033734Y0069487D01*
Y0069531D01*
X0033778Y0069574D01*
X0033822Y0069596D01*
X0033909D01*
X0033953Y0069574D01*
X0033997Y0069531D01*
Y0069487D01*
X0033953Y0069130D02*
X0033997Y0069152D01*
Y0069283D01*
X0033953Y0069305D01*
X0033865D01*
X0033822Y0069261D01*
Y0069130D01*
X0033734D01*
Y0069305D01*
X0033953Y0069014D02*
X0033997Y0068992D01*
Y0068861D01*
X0033953Y0068839D01*
X0033778D01*
X0033734Y0068861D01*
Y0068992D01*
X0033778Y0069014D01*
X0032714Y0073181D02*
Y0073050D01*
X0032670Y0073028D01*
X0032627D01*
X0032583Y0073050D01*
Y0073181D01*
X0032627Y0073203D01*
X0032670D01*
X0032845Y0073115D01*
X0032758Y0072912D02*
Y0072737D01*
X0032583Y0072824D01*
Y0072868D01*
X0032845D01*
X0032802Y0072620D02*
X0032845Y0072598D01*
Y0072467D01*
X0032802Y0072445D01*
X0032627D01*
X0032583Y0072467D01*
Y0072598D01*
X0032627Y0072620D01*
X0027072Y0074720D02*
Y0074633D01*
Y0074677D02*
X0026810D01*
X0026853Y0074633D01*
X0027072Y0074473D02*
Y0074298D01*
X0026897Y0074473D01*
X0026853D01*
X0026810Y0074451D01*
Y0074320D01*
X0026853Y0074298D01*
X0026941Y0074116D02*
X0027072Y0074182D01*
X0026941Y0074007D02*
Y0074138D01*
X0026897Y0074182D01*
X0026853D01*
X0026810Y0074138D01*
Y0074007D01*
X0027072D01*
X0027598Y0072240D02*
X0027554Y0072196D01*
X0027510Y0072174D01*
X0027423D01*
X0027379Y0072196D01*
X0027335Y0072240D01*
Y0072284D01*
X0027379Y0072327D01*
X0027423Y0072349D01*
X0027510D01*
X0027554Y0072327D01*
X0027598Y0072284D01*
Y0072240D01*
Y0072058D02*
Y0071883D01*
X0027423Y0072058D01*
X0027379D01*
X0027335Y0072036D01*
Y0071905D01*
X0027379Y0071883D01*
X0027467Y0071701D02*
X0027598Y0071767D01*
X0027467Y0071592D02*
Y0071723D01*
X0027423Y0071767D01*
X0027379D01*
X0027335Y0071723D01*
Y0071592D01*
X0027598D01*
X0026263Y0074436D02*
Y0074305D01*
X0026219Y0074283D01*
X0026175D01*
X0026131Y0074305D01*
Y0074436D01*
X0026175Y0074458D01*
X0026219D01*
X0026394Y0074370D01*
Y0074167D02*
Y0074079D01*
Y0074123D02*
X0026131D01*
X0026175Y0074079D01*
X0026263Y0073854D02*
X0026394Y0073919D01*
X0026263Y0073744D02*
Y0073876D01*
X0026219Y0073919D01*
X0026175D01*
X0026131Y0073876D01*
Y0073744D01*
X0026394D01*
X0026734Y0065247D02*
X0026691Y0065269D01*
X0026647D01*
X0026603Y0065247D01*
Y0065115D01*
X0026647Y0065094D01*
X0026691D01*
X0026734Y0065115D01*
Y0065247D01*
X0026778Y0065269D01*
X0026822D01*
X0026866Y0065247D01*
Y0065115D01*
X0026822Y0065094D01*
X0026778D01*
X0026734Y0065115D01*
X0026866Y0064977D02*
Y0064890D01*
Y0064934D02*
X0026603D01*
X0026647Y0064890D01*
X0026734Y0064664D02*
X0026866Y0064730D01*
X0026734Y0064555D02*
Y0064686D01*
X0026691Y0064730D01*
X0026647D01*
X0026603Y0064686D01*
Y0064555D01*
X0026866D01*
X0027560Y0074336D02*
X0027516Y0074358D01*
X0027473D01*
X0027429Y0074336D01*
Y0074205D01*
X0027473Y0074183D01*
X0027516D01*
X0027560Y0074205D01*
Y0074336D01*
X0027604Y0074358D01*
X0027648D01*
X0027691Y0074336D01*
Y0074205D01*
X0027648Y0074183D01*
X0027604D01*
X0027560Y0074205D01*
X0027604Y0074067D02*
Y0073892D01*
X0027429Y0073979D01*
Y0074023D01*
X0027691D01*
X0027648Y0073776D02*
X0027691Y0073754D01*
Y0073622D01*
X0027648Y0073601D01*
X0027473D01*
X0027429Y0073622D01*
Y0073754D01*
X0027473Y0073776D01*
X0033010Y0063005D02*
X0032747Y0063137D01*
Y0062962D01*
X0032922Y0062846D02*
Y0062671D01*
X0032747Y0062758D01*
Y0062802D01*
X0033010D01*
X0032966Y0062554D02*
X0033010Y0062532D01*
Y0062401D01*
X0032966Y0062379D01*
X0032791D01*
X0032747Y0062401D01*
Y0062532D01*
X0032791Y0062554D01*
X0032286Y0062988D02*
Y0063119D01*
X0032329Y0063141D01*
X0032373D01*
X0032417Y0063119D01*
Y0062988D01*
X0032373Y0062966D01*
X0032329D01*
X0032155Y0063054D01*
X0032329Y0062850D02*
Y0062675D01*
X0032155Y0062763D01*
Y0062806D01*
X0032417D01*
X0032373Y0062559D02*
X0032417Y0062537D01*
Y0062406D01*
X0032373Y0062384D01*
X0032198D01*
X0032155Y0062406D01*
Y0062537D01*
X0032198Y0062559D01*
X0013156Y0082352D02*
X0013199Y0082374D01*
Y0082505D01*
X0013156Y0082527D01*
X0013068D01*
X0013025Y0082483D01*
Y0082352D01*
X0012937D01*
Y0082527D01*
X0013156Y0082061D02*
X0013199Y0082083D01*
Y0082214D01*
X0013156Y0082236D01*
X0013068D01*
X0013025Y0082192D01*
Y0082061D01*
X0012937D01*
Y0082236D01*
X0013156Y0081945D02*
X0013199Y0081923D01*
Y0081792D01*
X0013156Y0081770D01*
X0012981D01*
X0012937Y0081792D01*
Y0081923D01*
X0012981Y0081945D01*
X0035436Y0070045D02*
X0035479Y0070067D01*
Y0070198D01*
X0035436Y0070220D01*
X0035348D01*
X0035305Y0070176D01*
Y0070045D01*
X0035217D01*
Y0070220D01*
X0035392Y0069929D02*
Y0069754D01*
X0035217Y0069841D01*
Y0069885D01*
X0035479D01*
X0035436Y0069638D02*
X0035479Y0069616D01*
Y0069485D01*
X0035436Y0069463D01*
X0035261D01*
X0035217Y0069485D01*
Y0069616D01*
X0035261Y0069638D01*
X0028813Y0074426D02*
Y0074251D01*
X0028638Y0074338D01*
Y0074382D01*
X0028900D01*
X0028813Y0074135D02*
Y0073960D01*
X0028638Y0074047D01*
Y0074091D01*
X0028900D01*
X0028857Y0073843D02*
X0028900Y0073821D01*
Y0073690D01*
X0028857Y0073668D01*
X0028682D01*
X0028638Y0073690D01*
Y0073821D01*
X0028682Y0073843D01*
X0028945Y0063121D02*
X0028989Y0063078D01*
X0029076D01*
X0029120Y0063121D01*
Y0063165D01*
X0029033Y0063252D01*
X0029120Y0063340D01*
X0028945D01*
X0028829Y0063165D02*
X0028654D01*
X0028742Y0063340D01*
X0028785D01*
Y0063078D01*
X0028538Y0063121D02*
X0028516Y0063078D01*
X0028385D01*
X0028363Y0063121D01*
Y0063296D01*
X0028385Y0063340D01*
X0028516D01*
X0028538Y0063296D01*
X0031017Y0073036D02*
Y0072861D01*
X0030842Y0072948D01*
Y0072992D01*
X0031105D01*
X0031061Y0072570D02*
X0031105Y0072613D01*
Y0072701D01*
X0031061Y0072745D01*
X0031017D01*
X0030930Y0072657D01*
X0030842Y0072745D01*
Y0072570D01*
X0031061Y0072454D02*
X0031105Y0072432D01*
Y0072300D01*
X0031061Y0072279D01*
X0030886D01*
X0030842Y0072300D01*
Y0072432D01*
X0030886Y0072454D01*
X0034755Y0065678D02*
X0034798Y0065634D01*
X0034886D01*
X0034930Y0065678D01*
Y0065722D01*
X0034842Y0065809D01*
X0034930Y0065897D01*
X0034755D01*
X0034463Y0065678D02*
X0034507Y0065634D01*
X0034595D01*
X0034638Y0065678D01*
Y0065722D01*
X0034551Y0065809D01*
X0034638Y0065897D01*
X0034463D01*
X0034347Y0065678D02*
X0034325Y0065634D01*
X0034194D01*
X0034172Y0065678D01*
Y0065853D01*
X0034194Y0065897D01*
X0034325D01*
X0034347Y0065853D01*
X0007901Y0059765D02*
X0007944Y0059787D01*
Y0059918D01*
X0007901Y0059940D01*
X0007813D01*
X0007769Y0059896D01*
Y0059765D01*
X0007682D01*
Y0059940D01*
X0007944Y0059649D02*
Y0059562D01*
Y0059605D02*
X0007682D01*
X0007726Y0059562D01*
X0007901Y0059402D02*
X0007944Y0059380D01*
Y0059249D01*
X0007901Y0059227D01*
X0007726D01*
X0007682Y0059249D01*
Y0059380D01*
X0007726Y0059402D01*
X0013789Y0075460D02*
Y0075285D01*
X0013614Y0075373D01*
Y0075417D01*
X0013876D01*
X0013833Y0075169D02*
X0013876Y0075147D01*
Y0075016D01*
X0013833Y0074994D01*
X0013658D01*
X0013614Y0075016D01*
Y0075147D01*
X0013658Y0075169D01*
X0026011Y0072437D02*
X0025836D01*
X0025924Y0072612D01*
X0025967D01*
Y0072350D01*
X0025720Y0072612D02*
Y0072393D01*
X0025698Y0072350D01*
X0025567D01*
X0025545Y0072393D01*
Y0072612D01*
X0016599Y0071629D02*
X0016424D01*
X0016599Y0071804D01*
Y0071848D01*
X0016577Y0071891D01*
X0016446D01*
X0016424Y0071848D01*
X0016243Y0071760D02*
X0016308Y0071629D01*
X0016133Y0071760D02*
X0016264D01*
X0016308Y0071804D01*
Y0071848D01*
X0016264Y0071891D01*
X0016133D01*
Y0071629D01*
X0009191Y0061127D02*
X0009016D01*
X0009103Y0061302D01*
X0009147D01*
Y0061040D01*
X0008900D02*
X0008812D01*
X0008856D02*
Y0061302D01*
X0008812Y0061259D01*
X0008652Y0061084D02*
X0008630Y0061040D01*
X0008499D01*
X0008477Y0061084D01*
Y0061259D01*
X0008499Y0061302D01*
X0008630D01*
X0008652Y0061259D01*
X0014118Y0076689D02*
X0014162Y0076646D01*
X0014249D01*
X0014293Y0076689D01*
Y0076733D01*
X0014206Y0076820D01*
X0014293Y0076908D01*
X0014118D01*
X0013936Y0076777D02*
X0014002Y0076646D01*
X0013827Y0076777D02*
X0013958D01*
X0014002Y0076820D01*
Y0076864D01*
X0013958Y0076908D01*
X0013827D01*
Y0076646D01*
X0026960Y0080972D02*
X0026698Y0081104D01*
Y0080929D01*
X0026960Y0080812D02*
Y0080637D01*
X0026786Y0080812D01*
X0026742D01*
X0026698Y0080790D01*
Y0080659D01*
X0026742Y0080637D01*
X0026829Y0080456D02*
X0026960Y0080521D01*
X0026829Y0080346D02*
Y0080477D01*
X0026786Y0080521D01*
X0026742D01*
X0026698Y0080477D01*
Y0080346D01*
X0026960D01*
X0021508Y0077688D02*
X0021420D01*
X0021464D02*
Y0077951D01*
X0021420Y0077907D01*
X0021107Y0077688D02*
Y0077951D01*
X0021085Y0077688D02*
X0021216D01*
X0021260Y0077776D01*
Y0077863D01*
X0021216Y0077951D01*
X0021085D01*
X0017393Y0073212D02*
Y0073037D01*
X0017218Y0073212D01*
X0017174D01*
X0017131Y0073190D01*
Y0073059D01*
X0017174Y0073037D01*
X0017349Y0072921D02*
X0017393Y0072899D01*
Y0072768D01*
X0017349Y0072746D01*
X0017174D01*
X0017131Y0072768D01*
Y0072899D01*
X0017174Y0072921D01*
X0016125Y0061929D02*
X0015950D01*
X0016125Y0062104D01*
Y0062148D01*
X0016103Y0062191D01*
X0015972D01*
X0015950Y0062148D01*
X0015834Y0061929D02*
X0015746D01*
X0015790D02*
Y0062191D01*
X0015746Y0062148D01*
X0015521Y0062060D02*
X0015586Y0061929D01*
X0015411Y0062060D02*
X0015542D01*
X0015586Y0062104D01*
Y0062148D01*
X0015542Y0062191D01*
X0015411D01*
Y0061929D01*
X0008747Y0058097D02*
X0008791Y0058053D01*
X0008878D01*
X0008922Y0058097D01*
Y0058140D01*
X0008835Y0058228D01*
X0008922Y0058315D01*
X0008747D01*
X0008631Y0058053D02*
X0008544D01*
X0008587D02*
Y0058315D01*
X0008544Y0058272D01*
X0008384Y0058097D02*
X0008362Y0058053D01*
X0008231D01*
X0008209Y0058097D01*
Y0058272D01*
X0008231Y0058315D01*
X0008362D01*
X0008384Y0058272D01*
X0005722Y0062602D02*
X0005591D01*
X0005569Y0062646D01*
Y0062689D01*
X0005591Y0062733D01*
X0005722D01*
X0005744Y0062689D01*
Y0062646D01*
X0005656Y0062471D01*
X0005278Y0062514D02*
X0005300Y0062471D01*
X0005431D01*
X0005453Y0062514D01*
Y0062602D01*
X0005409Y0062646D01*
X0005278D01*
Y0062733D01*
X0005453D01*
X0005162Y0062514D02*
X0005140Y0062471D01*
X0005008D01*
X0004987Y0062514D01*
Y0062689D01*
X0005008Y0062733D01*
X0005140D01*
X0005162Y0062689D01*
X0010740Y0081437D02*
X0010609D01*
X0010784Y0081306D02*
X0010609D01*
Y0081568D01*
X0010784D01*
X0010492Y0081349D02*
X0010470Y0081306D01*
X0010339D01*
X0010317Y0081349D01*
Y0081524D01*
X0010339Y0081568D01*
X0010470D01*
X0010492Y0081524D01*
X0010201Y0081306D02*
X0010114D01*
X0010158D02*
Y0081568D01*
X0010201D02*
X0010114D01*
X0009954D02*
Y0081480D01*
X0009866Y0081306D01*
X0009779Y0081480D01*
Y0081568D01*
X0009619Y0081437D02*
X0009488D01*
X0009663Y0081306D02*
X0009488D01*
Y0081568D01*
X0009663D01*
X0009218Y0081306D02*
Y0081568D01*
X0009197Y0081306D02*
X0009328D01*
X0009372Y0081393D01*
Y0081480D01*
X0009328Y0081568D01*
X0009197D01*
X0008538Y0081306D02*
Y0081568D01*
X0008516Y0081306D02*
X0008647D01*
X0008691Y0081349D01*
Y0081393D01*
X0008669Y0081437D01*
X0008538D02*
X0008669D01*
X0008691Y0081480D01*
Y0081524D01*
X0008647Y0081568D01*
X0008516D01*
X0008400Y0081524D02*
X0008378Y0081568D01*
X0008247D01*
X0008225Y0081524D01*
Y0081480D01*
X0008247Y0081437D01*
X0008378D01*
X0008400Y0081393D01*
Y0081349D01*
X0008378Y0081306D01*
X0008247D01*
X0008225Y0081349D01*
X0008109Y0081568D02*
Y0081349D01*
X0008087Y0081306D01*
X0007955D01*
X0007934Y0081349D01*
Y0081568D01*
X0011596Y0058599D02*
X0011727Y0058861D01*
X0011552D01*
X0011436Y0058599D02*
X0011349D01*
X0011393D02*
Y0058861D01*
X0011349Y0058817D01*
X0011189Y0058642D02*
X0011167Y0058599D01*
X0011036D01*
X0011014Y0058642D01*
Y0058817D01*
X0011036Y0058861D01*
X0011167D01*
X0011189Y0058817D01*
X0024694Y0075903D02*
X0024826D01*
X0024848Y0075859D01*
Y0075815D01*
X0024826Y0075771D01*
X0024694D01*
X0024673Y0075815D01*
Y0075859D01*
X0024760Y0076034D01*
X0024381Y0075815D02*
X0024425Y0075771D01*
X0024513D01*
X0024556Y0075815D01*
Y0075859D01*
X0024469Y0075946D01*
X0024556Y0076034D01*
X0024381D01*
X0024265Y0075815D02*
X0024243Y0075771D01*
X0024112D01*
X0024090Y0075815D01*
Y0075990D01*
X0024112Y0076034D01*
X0024243D01*
X0024265Y0075990D01*
X0015822Y0076238D02*
X0015647D01*
X0015822Y0076413D01*
Y0076456D01*
X0015800Y0076500D01*
X0015668D01*
X0015647Y0076456D01*
X0015530Y0076238D02*
X0015377D01*
Y0076500D01*
X0022782Y0080299D02*
X0022650D01*
X0022629Y0080343D01*
Y0080387D01*
X0022650Y0080430D01*
X0022782D01*
X0022804Y0080387D01*
Y0080343D01*
X0022716Y0080168D01*
X0022512D02*
X0022337D01*
X0022512Y0080343D01*
Y0080387D01*
X0022490Y0080430D01*
X0022359D01*
X0022337Y0080387D01*
X0022156Y0080299D02*
X0022221Y0080168D01*
X0022046Y0080299D02*
X0022177D01*
X0022221Y0080343D01*
Y0080387D01*
X0022177Y0080430D01*
X0022046D01*
Y0080168D01*
X0026966Y0078572D02*
X0026703Y0078704D01*
Y0078529D01*
X0026922Y0078237D02*
X0026966Y0078281D01*
Y0078369D01*
X0026922Y0078412D01*
X0026878D01*
X0026791Y0078325D01*
X0026703Y0078412D01*
Y0078237D01*
X0026922Y0078121D02*
X0026966Y0078099D01*
Y0077968D01*
X0026922Y0077946D01*
X0026747D01*
X0026703Y0077968D01*
Y0078099D01*
X0026747Y0078121D01*
X0018088Y0075931D02*
X0018001D01*
X0018045D02*
Y0076193D01*
X0018001Y0076149D01*
X0017841Y0075931D02*
X0017688D01*
Y0076193D01*
X0021392Y0062655D02*
X0021524Y0062918D01*
X0021349D01*
X0021232Y0062655D02*
X0021057D01*
X0021232Y0062830D01*
Y0062874D01*
X0021210Y0062918D01*
X0021079D01*
X0021057Y0062874D01*
X0020941Y0062699D02*
X0020919Y0062655D01*
X0020788D01*
X0020766Y0062699D01*
Y0062874D01*
X0020788Y0062918D01*
X0020919D01*
X0020941Y0062874D01*
X0026720Y0077414D02*
X0026742Y0077458D01*
Y0077501D01*
X0026720Y0077545D01*
X0026589D01*
X0026567Y0077501D01*
Y0077458D01*
X0026589Y0077414D01*
X0026720D01*
X0026742Y0077370D01*
Y0077326D01*
X0026720Y0077283D01*
X0026589D01*
X0026567Y0077326D01*
Y0077370D01*
X0026589Y0077414D01*
X0026276Y0077326D02*
X0026319Y0077283D01*
X0026407D01*
X0026451Y0077326D01*
Y0077370D01*
X0026363Y0077458D01*
X0026451Y0077545D01*
X0026276D01*
X0026160Y0077326D02*
X0026138Y0077283D01*
X0026006D01*
X0025985Y0077326D01*
Y0077501D01*
X0026006Y0077545D01*
X0026138D01*
X0026160Y0077501D01*
X0018581Y0075588D02*
X0018603Y0075545D01*
X0018734D01*
X0018756Y0075588D01*
Y0075676D01*
X0018712Y0075720D01*
X0018581D01*
Y0075807D01*
X0018756D01*
X0018465Y0075588D02*
X0018443Y0075545D01*
X0018312D01*
X0018290Y0075588D01*
Y0075763D01*
X0018312Y0075807D01*
X0018443D01*
X0018465Y0075763D01*
X0012313Y0073679D02*
X0012138D01*
X0012313Y0073854D01*
Y0073897D01*
X0012291Y0073941D01*
X0012160D01*
X0012138Y0073897D01*
X0012022Y0073679D02*
X0011935D01*
X0011979D02*
Y0073941D01*
X0011935Y0073897D01*
X0011775Y0073722D02*
X0011753Y0073679D01*
X0011622D01*
X0011600Y0073722D01*
Y0073897D01*
X0011622Y0073941D01*
X0011753D01*
X0011775Y0073897D01*
X0005667Y0080215D02*
X0005405D01*
Y0080303D02*
Y0080128D01*
X0005536Y0079968D02*
Y0079837D01*
X0005667Y0080012D02*
Y0079837D01*
X0005405D01*
Y0080012D01*
X0005448Y0079721D02*
X0005405Y0079699D01*
Y0079567D01*
X0005448Y0079546D01*
X0005492D01*
X0005536Y0079567D01*
Y0079699D01*
X0005580Y0079721D01*
X0005623D01*
X0005667Y0079699D01*
Y0079567D01*
X0005623Y0079546D01*
X0005536Y0079386D02*
Y0079254D01*
X0005667Y0079429D02*
Y0079254D01*
X0005405D01*
Y0079429D01*
X0005536Y0079073D02*
X0005667Y0079138D01*
X0005536Y0078963D02*
Y0079094D01*
X0005492Y0079138D01*
X0005448D01*
X0005405Y0079094D01*
Y0078963D01*
X0005667D01*
X0021601Y0084377D02*
X0021733Y0084640D01*
X0021558D01*
X0021288Y0084465D02*
Y0084421D01*
X0021310Y0084377D01*
X0021398D01*
X0021420Y0084421D01*
Y0084640D01*
X0021441D02*
X0021354D01*
X0015223Y0063995D02*
X0015179Y0063951D01*
X0015135Y0063930D01*
X0015048D01*
X0015004Y0063951D01*
X0014960Y0063995D01*
Y0064039D01*
X0015004Y0064083D01*
X0015048Y0064105D01*
X0015135D01*
X0015179Y0064083D01*
X0015223Y0064039D01*
Y0063995D01*
Y0063813D02*
Y0063638D01*
X0015048Y0063813D01*
X0015004D01*
X0014960Y0063791D01*
Y0063660D01*
X0015004Y0063638D01*
X0015179Y0063522D02*
X0015223Y0063500D01*
Y0063369D01*
X0015179Y0063347D01*
X0015004D01*
X0014960Y0063369D01*
Y0063500D01*
X0015004Y0063522D01*
X0018544Y0062437D02*
Y0062569D01*
X0018587Y0062591D01*
X0018631D01*
X0018675Y0062569D01*
Y0062437D01*
X0018631Y0062416D01*
X0018587D01*
X0018412Y0062503D01*
X0018675Y0062299D02*
Y0062124D01*
X0018500Y0062299D01*
X0018456D01*
X0018412Y0062277D01*
Y0062146D01*
X0018456Y0062124D01*
X0018631Y0062008D02*
X0018675Y0061986D01*
Y0061855D01*
X0018631Y0061833D01*
X0018456D01*
X0018412Y0061855D01*
Y0061986D01*
X0018456Y0062008D01*
X0030908Y0079394D02*
X0031039Y0079656D01*
X0030864D01*
X0030748D02*
Y0079437D01*
X0030726Y0079394D01*
X0030595D01*
X0030573Y0079437D01*
Y0079656D01*
X0025659Y0080303D02*
X0025616Y0080259D01*
X0025572Y0080238D01*
X0025485D01*
X0025441Y0080259D01*
X0025397Y0080303D01*
Y0080347D01*
X0025441Y0080391D01*
X0025485Y0080413D01*
X0025572D01*
X0025616Y0080391D01*
X0025659Y0080347D01*
Y0080303D01*
X0025572Y0080121D02*
Y0079946D01*
X0025397Y0080034D01*
Y0080078D01*
X0025659D01*
X0025616Y0079830D02*
X0025659Y0079808D01*
Y0079677D01*
X0025616Y0079655D01*
X0025441D01*
X0025397Y0079677D01*
Y0079808D01*
X0025441Y0079830D01*
X0021590Y0083552D02*
X0021721D01*
X0021743Y0083508D01*
Y0083465D01*
X0021721Y0083421D01*
X0021590D01*
X0021568Y0083465D01*
Y0083508D01*
X0021656Y0083683D01*
X0021299Y0083508D02*
Y0083465D01*
X0021321Y0083421D01*
X0021409D01*
X0021430Y0083465D01*
Y0083683D01*
X0021452D02*
X0021365D01*
X0025316Y0073823D02*
X0025228D01*
X0025272D02*
Y0074085D01*
X0025228Y0074042D01*
X0024894Y0073867D02*
X0024937Y0073823D01*
X0025025D01*
X0025069Y0073867D01*
Y0073910D01*
X0024981Y0073998D01*
X0025069Y0074085D01*
X0024894D01*
X0024777Y0073867D02*
X0024755Y0073823D01*
X0024624D01*
X0024602Y0073867D01*
Y0074042D01*
X0024624Y0074085D01*
X0024755D01*
X0024777Y0074042D01*
X0017081Y0062496D02*
X0017125Y0062517D01*
Y0062649D01*
X0017081Y0062671D01*
X0016994D01*
X0016950Y0062627D01*
Y0062496D01*
X0016862D01*
Y0062671D01*
X0017125Y0062379D02*
Y0062204D01*
X0016950Y0062379D01*
X0016906D01*
X0016862Y0062357D01*
Y0062226D01*
X0016906Y0062204D01*
X0017081Y0062088D02*
X0017125Y0062066D01*
Y0061935D01*
X0017081Y0061913D01*
X0016906D01*
X0016862Y0061935D01*
Y0062066D01*
X0016906Y0062088D01*
X0031741Y0056267D02*
X0031566D01*
X0031741Y0056442D01*
Y0056486D01*
X0031719Y0056530D01*
X0031588D01*
X0031566Y0056486D01*
X0031275Y0056311D02*
X0031319Y0056267D01*
X0031406D01*
X0031450Y0056311D01*
Y0056355D01*
X0031363Y0056442D01*
X0031450Y0056530D01*
X0031275D01*
X0031093Y0056398D02*
X0031159Y0056267D01*
X0030984Y0056398D02*
X0031115D01*
X0031159Y0056442D01*
Y0056486D01*
X0031115Y0056530D01*
X0030984D01*
Y0056267D01*
X0027332Y0075597D02*
X0027157D01*
X0027332Y0075772D01*
Y0075816D01*
X0027310Y0075860D01*
X0027179D01*
X0027157Y0075816D01*
X0027041Y0075685D02*
X0026866D01*
X0026953Y0075860D01*
X0026997D01*
Y0075597D01*
X0026749Y0075641D02*
X0026727Y0075597D01*
X0026596D01*
X0026574Y0075641D01*
Y0075816D01*
X0026596Y0075860D01*
X0026727D01*
X0026749Y0075816D01*
X0010607Y0062981D02*
X0010519D01*
X0010563D02*
Y0063244D01*
X0010519Y0063200D01*
X0010359Y0062981D02*
X0010272D01*
X0010316D02*
Y0063244D01*
X0010272Y0063200D01*
X0010112Y0062981D02*
X0009959D01*
Y0063244D01*
X0016455Y0055217D02*
X0016498Y0055173D01*
X0016586D01*
X0016630Y0055217D01*
Y0055261D01*
X0016542Y0055348D01*
X0016630Y0055436D01*
X0016455D01*
X0016338Y0055173D02*
X0016163D01*
X0016338Y0055348D01*
Y0055392D01*
X0016316Y0055436D01*
X0016185D01*
X0016163Y0055392D01*
X0016047Y0055217D02*
X0016025Y0055173D01*
X0015894D01*
X0015872Y0055217D01*
Y0055392D01*
X0015894Y0055436D01*
X0016025D01*
X0016047Y0055392D01*
X0006938Y0081096D02*
X0006982Y0081053D01*
X0007070D01*
X0007113Y0081096D01*
Y0081140D01*
X0007026Y0081227D01*
X0007113Y0081315D01*
X0006938D01*
X0006822Y0081053D02*
X0006735D01*
X0006779D02*
Y0081315D01*
X0006735Y0081271D01*
X0006575Y0081053D02*
X0006422D01*
Y0081315D01*
X0010406Y0071909D02*
X0010537Y0072171D01*
X0010362D01*
X0010181Y0072040D02*
X0010246Y0071909D01*
X0010071Y0072040D02*
X0010202D01*
X0010246Y0072084D01*
Y0072128D01*
X0010202Y0072171D01*
X0010071D01*
Y0071909D01*
X0027720Y0061875D02*
X0027851Y0062138D01*
X0027676D01*
X0027560Y0061919D02*
X0027538Y0061875D01*
X0027407D01*
X0027385Y0061919D01*
Y0062094D01*
X0027407Y0062138D01*
X0027538D01*
X0027560Y0062094D01*
X0012691Y0061252D02*
X0012516D01*
X0012604Y0061427D01*
X0012647D01*
Y0061165D01*
X0012400D02*
X0012225D01*
X0012400Y0061340D01*
Y0061383D01*
X0012378Y0061427D01*
X0012247D01*
X0012225Y0061383D01*
X0012109Y0061208D02*
X0012087Y0061165D01*
X0011956D01*
X0011934Y0061208D01*
Y0061383D01*
X0011956Y0061427D01*
X0012087D01*
X0012109Y0061383D01*
X0017434Y0073357D02*
X0017390Y0073400D01*
X0017368Y0073444D01*
Y0073532D01*
X0017390Y0073575D01*
X0017434Y0073619D01*
X0017478D01*
X0017521Y0073575D01*
X0017543Y0073532D01*
Y0073444D01*
X0017521Y0073400D01*
X0017478Y0073357D01*
X0017434D01*
X0017252D02*
X0017165D01*
X0017209D02*
Y0073619D01*
X0017165Y0073575D01*
X0017005Y0073400D02*
X0016983Y0073357D01*
X0016852D01*
X0016830Y0073400D01*
Y0073575D01*
X0016852Y0073619D01*
X0016983D01*
X0017005Y0073575D01*
X0023679Y0080293D02*
X0023810D01*
X0023832Y0080250D01*
Y0080206D01*
X0023810Y0080162D01*
X0023679D01*
X0023657Y0080206D01*
Y0080250D01*
X0023744Y0080425D01*
X0023541D02*
Y0080206D01*
X0023519Y0080162D01*
X0023388D01*
X0023366Y0080206D01*
Y0080425D01*
X0010555Y0061115D02*
X0010577Y0061072D01*
X0010708D01*
X0010730Y0061115D01*
Y0061203D01*
X0010686Y0061247D01*
X0010555D01*
Y0061334D01*
X0010730D01*
X0010439Y0061072D02*
X0010286D01*
Y0061334D01*
X0017980Y0075036D02*
Y0074948D01*
Y0074992D02*
X0017718D01*
X0017762Y0074948D01*
X0017980Y0074788D02*
Y0074613D01*
X0017806Y0074788D01*
X0017762D01*
X0017718Y0074766D01*
Y0074635D01*
X0017762Y0074613D01*
X0017937Y0074497D02*
X0017980Y0074475D01*
Y0074344D01*
X0017937Y0074322D01*
X0017762D01*
X0017718Y0074344D01*
Y0074475D01*
X0017762Y0074497D01*
X0010365Y0059263D02*
Y0059088D01*
X0010191Y0059175D01*
Y0059219D01*
X0010453D01*
Y0058971D02*
Y0058818D01*
X0010191D01*
X0020219Y0076197D02*
X0020044D01*
X0020219Y0076371D01*
Y0076415D01*
X0020197Y0076459D01*
X0020066D01*
X0020044Y0076415D01*
X0019753Y0076240D02*
X0019797Y0076197D01*
X0019884D01*
X0019928Y0076240D01*
Y0076284D01*
X0019840Y0076371D01*
X0019928Y0076459D01*
X0019753D01*
X0019637Y0076240D02*
X0019615Y0076197D01*
X0019484D01*
X0019462Y0076240D01*
Y0076415D01*
X0019484Y0076459D01*
X0019615D01*
X0019637Y0076415D01*
X0023831Y0072467D02*
X0023788Y0072511D01*
X0023766Y0072555D01*
Y0072642D01*
X0023788Y0072686D01*
X0023831Y0072729D01*
X0023875D01*
X0023919Y0072686D01*
X0023941Y0072642D01*
Y0072555D01*
X0023919Y0072511D01*
X0023875Y0072467D01*
X0023831D01*
X0023650D02*
X0023562D01*
X0023606D02*
Y0072729D01*
X0023562Y0072686D01*
X0023337Y0072598D02*
X0023402Y0072467D01*
X0023227Y0072598D02*
X0023358D01*
X0023402Y0072642D01*
Y0072686D01*
X0023358Y0072729D01*
X0023227D01*
Y0072467D01*
X0009507Y0066947D02*
Y0066860D01*
Y0066904D02*
X0009245D01*
X0009288Y0066860D01*
X0009245Y0066700D02*
X0009507D01*
X0009463Y0066656D01*
X0009288Y0066569D01*
X0009245Y0066525D01*
X0009507D01*
X0009376Y0066343D02*
X0009507Y0066409D01*
X0009376Y0066234D02*
Y0066365D01*
X0009332Y0066409D01*
X0009288D01*
X0009245Y0066365D01*
Y0066234D01*
X0009507D01*
X0020511Y0073591D02*
X0020467Y0073569D01*
Y0073438D01*
X0020511Y0073416D01*
X0020598D01*
X0020642Y0073460D01*
Y0073591D01*
X0020729D01*
Y0073416D01*
X0020598Y0073773D02*
X0020467Y0073707D01*
X0020598Y0073882D02*
Y0073751D01*
X0020642Y0073707D01*
X0020686D01*
X0020729Y0073751D01*
Y0073882D01*
X0020467D01*
X0021520Y0062075D02*
X0021542Y0062118D01*
Y0062162D01*
X0021520Y0062206D01*
X0021388D01*
X0021367Y0062162D01*
Y0062118D01*
X0021388Y0062075D01*
X0021520D01*
X0021542Y0062031D01*
Y0061987D01*
X0021520Y0061943D01*
X0021388D01*
X0021367Y0061987D01*
Y0062031D01*
X0021388Y0062075D01*
X0021250Y0061943D02*
X0021075D01*
X0021250Y0062118D01*
Y0062162D01*
X0021228Y0062206D01*
X0021097D01*
X0021075Y0062162D01*
X0020959Y0061987D02*
X0020937Y0061943D01*
X0020806D01*
X0020784Y0061987D01*
Y0062162D01*
X0020806Y0062206D01*
X0020937D01*
X0020959Y0062162D01*
X0013801Y0074044D02*
X0013845Y0074088D01*
Y0074176D01*
X0013801Y0074219D01*
X0013757D01*
X0013670Y0074132D01*
X0013582Y0074219D01*
Y0074044D01*
X0013801Y0073928D02*
X0013845Y0073906D01*
Y0073775D01*
X0013801Y0073753D01*
X0013626D01*
X0013582Y0073775D01*
Y0073906D01*
X0013626Y0073928D01*
X0026719Y0076756D02*
X0026587D01*
X0026566Y0076800D01*
Y0076844D01*
X0026587Y0076887D01*
X0026719D01*
X0026741Y0076844D01*
Y0076800D01*
X0026653Y0076625D01*
X0026449D02*
X0026274D01*
X0026449Y0076800D01*
Y0076844D01*
X0026427Y0076887D01*
X0026296D01*
X0026274Y0076844D01*
X0026158Y0076669D02*
X0026136Y0076625D01*
X0026005D01*
X0025983Y0076669D01*
Y0076844D01*
X0026005Y0076887D01*
X0026136D01*
X0026158Y0076844D01*
X0011572Y0064724D02*
X0011485D01*
X0011528D02*
Y0064987D01*
X0011485Y0064943D01*
X0011325Y0064987D02*
Y0064768D01*
X0011303Y0064724D01*
X0011172D01*
X0011150Y0064768D01*
Y0064987D01*
X0012519Y0065789D02*
X0012431D01*
X0012475D02*
Y0066052D01*
X0012431Y0066008D01*
X0006169Y0077203D02*
Y0077466D01*
X0006256D02*
X0006081D01*
X0005812Y0077203D02*
X0005790Y0077247D01*
Y0077422D01*
X0005812Y0077466D01*
X0005943D01*
X0005965Y0077422D01*
Y0077247D01*
X0005943Y0077203D01*
X0005812D01*
X0005521D02*
X0005499Y0077247D01*
Y0077422D01*
X0005521Y0077466D01*
X0005652D01*
X0005674Y0077422D01*
Y0077247D01*
X0005652Y0077203D01*
X0005521D01*
X0005230D02*
Y0077466D01*
X0005208Y0077203D02*
X0005339D01*
X0005383Y0077247D01*
Y0077291D01*
X0005361Y0077334D01*
X0005230D02*
X0005361D01*
X0005383Y0077378D01*
Y0077422D01*
X0005339Y0077466D01*
X0005208D01*
X0004939Y0077203D02*
Y0077466D01*
X0004917Y0077203D02*
X0005048D01*
X0005092Y0077247D01*
Y0077291D01*
X0005070Y0077334D01*
X0004939D02*
X0005070D01*
X0005092Y0077378D01*
Y0077422D01*
X0005048Y0077466D01*
X0004917D01*
X0004801Y0077422D02*
X0004779Y0077466D01*
X0004647D01*
X0004626Y0077422D01*
Y0077378D01*
X0004647Y0077334D01*
X0004779D01*
X0004801Y0077291D01*
Y0077247D01*
X0004779Y0077203D01*
X0004647D01*
X0004626Y0077247D01*
X0004509Y0077466D02*
Y0077247D01*
X0004487Y0077203D01*
X0004356D01*
X0004334Y0077247D01*
Y0077466D01*
X0003654Y0077247D02*
X0003676Y0077203D01*
X0003807D01*
X0003829Y0077247D01*
Y0077334D01*
X0003785Y0077378D01*
X0003654D01*
Y0077466D01*
X0003829D01*
X0003538Y0077203D02*
X0003450D01*
X0003494D02*
Y0077466D01*
X0003450Y0077422D01*
X0003137Y0077291D02*
Y0077247D01*
X0003159Y0077203D01*
X0003247D01*
X0003268Y0077247D01*
Y0077466D01*
X0003290D02*
X0003203D01*
X0005358Y0075227D02*
X0005183D01*
X0005358Y0075402D01*
Y0075446D01*
X0005336Y0075489D01*
X0005205D01*
X0005183Y0075446D01*
X0018046Y0071569D02*
X0017871D01*
X0017958Y0071744D01*
X0018002D01*
Y0071482D01*
X0017689Y0071613D02*
X0017755Y0071482D01*
X0017580Y0071613D02*
X0017711D01*
X0017755Y0071657D01*
Y0071700D01*
X0017711Y0071744D01*
X0017580D01*
Y0071482D01*
X0012368Y0063109D02*
X0012499D01*
X0012521Y0063065D01*
Y0063021D01*
X0012499Y0062978D01*
X0012368D01*
X0012346Y0063021D01*
Y0063065D01*
X0012434Y0063240D01*
X0012230Y0062978D02*
X0012142D01*
X0012186D02*
Y0063240D01*
X0012142Y0063196D01*
X0011983Y0063021D02*
X0011961Y0062978D01*
X0011829D01*
X0011808Y0063021D01*
Y0063196D01*
X0011829Y0063240D01*
X0011961D01*
X0011983Y0063196D01*
X0016734Y0073377D02*
X0016646D01*
X0016690D02*
Y0073639D01*
X0016646Y0073595D01*
X0016486Y0073377D02*
X0016399D01*
X0016443D02*
Y0073639D01*
X0016399Y0073595D01*
X0016239Y0073420D02*
X0016217Y0073377D01*
X0016086D01*
X0016064Y0073420D01*
Y0073595D01*
X0016086Y0073639D01*
X0016217D01*
X0016239Y0073595D01*
X0020700Y0055183D02*
X0020525D01*
X0020700Y0055358D01*
Y0055402D01*
X0020678Y0055446D01*
X0020546D01*
X0020525Y0055402D01*
X0020408Y0055183D02*
X0020233D01*
X0020408Y0055358D01*
Y0055402D01*
X0020386Y0055446D01*
X0020255D01*
X0020233Y0055402D01*
X0020117Y0055227D02*
X0020095Y0055183D01*
X0019964D01*
X0019942Y0055227D01*
Y0055402D01*
X0019964Y0055446D01*
X0020095D01*
X0020117Y0055402D01*
X0011061Y0074370D02*
X0010930D01*
X0010908Y0074413D01*
Y0074457D01*
X0010930Y0074501D01*
X0011061D01*
X0011083Y0074457D01*
Y0074413D01*
X0010996Y0074238D01*
X0010792D02*
X0010704D01*
X0010748D02*
Y0074501D01*
X0010704Y0074457D01*
X0010545Y0074282D02*
X0010523Y0074238D01*
X0010391D01*
X0010370Y0074282D01*
Y0074457D01*
X0010391Y0074501D01*
X0010523D01*
X0010545Y0074457D01*
X0026809Y0079890D02*
Y0079758D01*
X0026766Y0079737D01*
X0026722D01*
X0026678Y0079758D01*
Y0079890D01*
X0026722Y0079912D01*
X0026766D01*
X0026940Y0079824D01*
X0026897Y0079445D02*
X0026940Y0079489D01*
Y0079577D01*
X0026897Y0079620D01*
X0026853D01*
X0026766Y0079533D01*
X0026678Y0079620D01*
Y0079445D01*
X0026897Y0079329D02*
X0026940Y0079307D01*
Y0079176D01*
X0026897Y0079154D01*
X0026722D01*
X0026678Y0079176D01*
Y0079307D01*
X0026722Y0079329D01*
X0012194Y0073156D02*
X0012106D01*
X0012150D02*
Y0073418D01*
X0012106Y0073374D01*
X0011947Y0073199D02*
X0011925Y0073156D01*
X0011793D01*
X0011772Y0073199D01*
Y0073374D01*
X0011793Y0073418D01*
X0011925D01*
X0011947Y0073374D01*
X0013253Y0075093D02*
X0013297Y0075049D01*
X0013385D01*
X0013428Y0075093D01*
Y0075137D01*
X0013341Y0075224D01*
X0013428Y0075312D01*
X0013253D01*
X0013137Y0075049D02*
X0012984D01*
Y0075312D01*
X0020559Y0078928D02*
X0020515Y0078972D01*
X0020494Y0079016D01*
Y0079103D01*
X0020515Y0079147D01*
X0020559Y0079191D01*
X0020603D01*
X0020647Y0079147D01*
X0020669Y0079103D01*
Y0079016D01*
X0020647Y0078972D01*
X0020603Y0078928D01*
X0020559D01*
X0020202Y0078972D02*
X0020246Y0078928D01*
X0020334D01*
X0020377Y0078972D01*
Y0079016D01*
X0020290Y0079103D01*
X0020377Y0079191D01*
X0020202D01*
X0020021Y0079060D02*
X0020086Y0078928D01*
X0019911Y0079060D02*
X0020042D01*
X0020086Y0079103D01*
Y0079147D01*
X0020042Y0079191D01*
X0019911D01*
Y0078928D01*
X0036918Y0059221D02*
X0036787D01*
X0036765Y0059264D01*
Y0059308D01*
X0036787Y0059352D01*
X0036918D01*
X0036940Y0059308D01*
Y0059264D01*
X0036853Y0059090D01*
X0036649D02*
X0036561D01*
X0036605D02*
Y0059352D01*
X0036561Y0059308D01*
X0036249Y0059177D02*
Y0059133D01*
X0036270Y0059090D01*
X0036358D01*
X0036380Y0059133D01*
Y0059352D01*
X0036402D02*
X0036314D01*
X0021126Y0061297D02*
X0021170Y0061253D01*
X0021257D01*
X0021301Y0061297D01*
Y0061340D01*
X0021214Y0061428D01*
X0021301Y0061515D01*
X0021126D01*
X0021010D02*
Y0061297D01*
X0020988Y0061253D01*
X0020857D01*
X0020835Y0061297D01*
Y0061515D01*
X0019700Y0071349D02*
X0019525D01*
X0019700Y0071524D01*
Y0071568D01*
X0019678Y0071612D01*
X0019547D01*
X0019525Y0071568D01*
X0019321Y0071349D02*
Y0071481D01*
X0019409Y0071612D02*
X0019343Y0071481D01*
X0019299D01*
X0019234Y0071612D01*
X0018647Y0071609D02*
X0018778D01*
X0018800Y0071565D01*
Y0071521D01*
X0018778Y0071478D01*
X0018647D01*
X0018625Y0071521D01*
Y0071565D01*
X0018712Y0071740D01*
X0018509Y0071521D02*
X0018487Y0071478D01*
X0018355D01*
X0018334Y0071521D01*
Y0071696D01*
X0018355Y0071740D01*
X0018487D01*
X0018509Y0071696D01*
X0032021Y0075421D02*
X0031934D01*
X0031977D02*
Y0075683D01*
X0031934Y0075640D01*
X0031774Y0075508D02*
X0031599D01*
X0031686Y0075683D01*
X0031730D01*
Y0075421D01*
X0031483Y0075465D02*
X0031461Y0075421D01*
X0031329D01*
X0031308Y0075465D01*
Y0075640D01*
X0031329Y0075683D01*
X0031461D01*
X0031483Y0075640D01*
X0027634Y0078643D02*
X0027656Y0078687D01*
Y0078730D01*
X0027634Y0078774D01*
X0027503D01*
X0027481Y0078730D01*
Y0078687D01*
X0027503Y0078643D01*
X0027634D01*
X0027656Y0078599D01*
Y0078555D01*
X0027634Y0078512D01*
X0027503D01*
X0027481Y0078555D01*
Y0078599D01*
X0027503Y0078643D01*
X0027365Y0078774D02*
Y0078555D01*
X0027343Y0078512D01*
X0027212D01*
X0027190Y0078555D01*
Y0078774D01*
X0020989Y0064145D02*
X0021011Y0064189D01*
Y0064233D01*
X0020989Y0064277D01*
X0020858D01*
X0020836Y0064233D01*
Y0064189D01*
X0020858Y0064145D01*
X0020989D01*
X0021011Y0064102D01*
Y0064058D01*
X0020989Y0064014D01*
X0020858D01*
X0020836Y0064058D01*
Y0064102D01*
X0020858Y0064145D01*
X0020720Y0064014D02*
X0020632D01*
X0020676D02*
Y0064277D01*
X0020632Y0064233D01*
X0020472Y0064058D02*
X0020450Y0064014D01*
X0020319D01*
X0020297Y0064058D01*
Y0064233D01*
X0020319Y0064277D01*
X0020450D01*
X0020472Y0064233D01*
X0013836Y0072973D02*
Y0072885D01*
Y0072929D02*
X0013574D01*
X0013618Y0072885D01*
X0013705Y0072660D02*
X0013836Y0072725D01*
X0013705Y0072550D02*
Y0072681D01*
X0013662Y0072725D01*
X0013618D01*
X0013574Y0072681D01*
Y0072550D01*
X0013836D01*
X0021974Y0076063D02*
X0021996Y0076106D01*
Y0076150D01*
X0021974Y0076194D01*
X0021842D01*
X0021821Y0076150D01*
Y0076106D01*
X0021842Y0076063D01*
X0021974D01*
X0021996Y0076019D01*
Y0075975D01*
X0021974Y0075931D01*
X0021842D01*
X0021821Y0075975D01*
Y0076019D01*
X0021842Y0076063D01*
X0021704Y0075931D02*
X0021529D01*
X0021704Y0076106D01*
Y0076150D01*
X0021682Y0076194D01*
X0021551D01*
X0021529Y0076150D01*
X0021348Y0076063D02*
X0021413Y0075931D01*
X0021238Y0076063D02*
X0021369D01*
X0021413Y0076106D01*
Y0076150D01*
X0021369Y0076194D01*
X0021238D01*
Y0075931D01*
X0018008Y0079196D02*
Y0079458D01*
X0017986Y0079196D02*
X0018117D01*
X0018161Y0079283D01*
Y0079371D01*
X0018117Y0079458D01*
X0017986D01*
X0017804Y0079327D02*
X0017870Y0079196D01*
X0017695Y0079327D02*
X0017826D01*
X0017870Y0079371D01*
Y0079414D01*
X0017826Y0079458D01*
X0017695D01*
Y0079196D01*
X0017578Y0079283D02*
X0017403D01*
X0017578Y0079196D02*
Y0079327D01*
X0017513Y0079458D01*
X0017469D01*
X0017403Y0079327D01*
Y0079196D01*
X0017287Y0079239D02*
X0017265Y0079196D01*
X0017134D01*
X0017112Y0079239D01*
Y0079414D01*
X0017134Y0079458D01*
X0017265D01*
X0017287Y0079414D01*
X0016453Y0079196D02*
Y0079458D01*
X0016432Y0079196D02*
X0016563D01*
X0016607Y0079283D01*
Y0079371D01*
X0016563Y0079458D01*
X0016432D01*
X0016315Y0079414D02*
X0016293Y0079458D01*
X0016162D01*
X0016140Y0079414D01*
Y0079371D01*
X0016162Y0079327D01*
X0016293D01*
X0016315Y0079283D01*
Y0079239D01*
X0016293Y0079196D01*
X0016162D01*
X0016140Y0079239D01*
X0016002Y0079371D02*
Y0079196D01*
X0016024D02*
X0015871D01*
X0015849Y0079239D01*
Y0079371D01*
X0035343Y0067279D02*
X0035365Y0067236D01*
X0035496D01*
X0035518Y0067279D01*
Y0067367D01*
X0035475Y0067411D01*
X0035343D01*
Y0067498D01*
X0035518D01*
X0035227Y0067236D02*
X0035052D01*
X0035227Y0067411D01*
Y0067454D01*
X0035205Y0067498D01*
X0035074D01*
X0035052Y0067454D01*
X0034870Y0067367D02*
X0034936Y0067236D01*
X0034761Y0067367D02*
X0034892D01*
X0034936Y0067411D01*
Y0067454D01*
X0034892Y0067498D01*
X0034761D01*
Y0067236D01*
X0019737Y0064989D02*
X0019869D01*
X0019891Y0064946D01*
Y0064902D01*
X0019869Y0064858D01*
X0019737D01*
X0019716Y0064902D01*
Y0064946D01*
X0019803Y0065121D01*
X0019599Y0064858D02*
X0019446D01*
Y0065121D01*
X0024312Y0062593D02*
X0024268Y0062637D01*
X0024247Y0062681D01*
Y0062768D01*
X0024268Y0062812D01*
X0024312Y0062856D01*
X0024356D01*
X0024400Y0062812D01*
X0024422Y0062768D01*
Y0062681D01*
X0024400Y0062637D01*
X0024356Y0062593D01*
X0024312D01*
X0023955Y0062637D02*
X0023999Y0062593D01*
X0024087D01*
X0024130Y0062637D01*
Y0062681D01*
X0024043Y0062768D01*
X0024130Y0062856D01*
X0023955D01*
X0023839Y0062637D02*
X0023817Y0062593D01*
X0023686D01*
X0023664Y0062637D01*
Y0062812D01*
X0023686Y0062856D01*
X0023817D01*
X0023839Y0062812D01*
X0011580Y0080882D02*
X0011601Y0080838D01*
X0011733D01*
X0011755Y0080882D01*
Y0080969D01*
X0011711Y0081013D01*
X0011580D01*
Y0081100D01*
X0011755D01*
X0011310Y0080969D02*
X0011441D01*
X0011463Y0080925D01*
Y0080882D01*
X0011441Y0080838D01*
X0011310D01*
X0011288Y0080882D01*
Y0080925D01*
X0011376Y0081100D01*
X0011172Y0080882D02*
X0011150Y0080838D01*
X0011019D01*
X0010997Y0080882D01*
Y0081057D01*
X0011019Y0081100D01*
X0011150D01*
X0011172Y0081057D01*
X0011074Y0072076D02*
X0011205D01*
X0011227Y0072033D01*
Y0071989D01*
X0011205Y0071945D01*
X0011074D01*
X0011052Y0071989D01*
Y0072033D01*
X0011140Y0072207D01*
X0010871Y0072076D02*
X0010936Y0071945D01*
X0010761Y0072076D02*
X0010892D01*
X0010936Y0072120D01*
Y0072164D01*
X0010892Y0072207D01*
X0010761D01*
Y0071945D01*
X0015248Y0076971D02*
Y0076934D01*
X0013348D01*
Y0079364D01*
X0015248D01*
Y0076971D01*
G54D184*
G01X0026299Y0059605D02*
X0024556D01*
Y0061128D01*
X0026299D01*
Y0059610D01*
Y0059605D01*
X0024907Y0059462D02*
X0025057Y0059312D01*
X0024757D01*
X0024907Y0059462D01*
G54D185*
G01X0008572Y0061909D02*
Y0061230D01*
X0006053D01*
Y0071276D01*
X0008572D01*
Y0061908D01*
G54D186*
G01X0023705Y0054985D02*
Y0054313D01*
X0023796D01*
Y0054985D01*
X0023705D01*
X0024665D02*
X0025090D01*
Y0054908D01*
X0024756D01*
Y0054709D01*
X0025076D01*
Y0054633D01*
X0024756D01*
Y0054389D01*
X0025098D01*
Y0054313D01*
X0024665D01*
Y0054985D01*
X0021567Y0058073D03*
X0021582Y0056227D01*
X0021587Y0056209D01*
X0021592Y0056190D01*
X0021598Y0056172D01*
X0021605Y0056154D01*
X0021613Y0056136D01*
X0021622Y0056120D01*
X0021632Y0056103D01*
X0021644Y0056088D01*
X0021656Y0056074D01*
X0021671Y0056062D01*
X0021686Y0056052D01*
X0021703Y0056042D01*
X0021720Y0056034D01*
X0021738Y0056028D01*
X0021757Y0056022D01*
X0021776Y0056017D01*
X0021795Y0056013D01*
X0021814Y0056010D01*
X0021833Y0056007D01*
X0021852Y0056005D01*
X0021871Y0056003D01*
X0021890Y0056002D01*
X0021909Y0056001D01*
X0021928D01*
X0021946Y0056000D01*
X0021965Y0056001D01*
X0021984D01*
X0022003D01*
X0022022Y0056002D01*
X0022041D01*
X0022060Y0056003D01*
X0022079Y0056004D01*
X0022098D01*
X0022117D01*
X0022136Y0056005D01*
X0022155D01*
X0022174Y0056004D01*
X0022193D01*
X0022211D01*
X0022230Y0056003D01*
X0022250Y0056002D01*
X0022269D01*
X0022288Y0056001D01*
X0022306D01*
X0022325Y0056000D01*
X0022344D01*
X0022363D01*
X0022382Y0055999D01*
X0022401D01*
X0022420Y0056000D01*
X0022439D01*
X0022458Y0056001D01*
X0022477Y0056002D01*
X0022496Y0056003D01*
X0022515Y0056004D01*
X0022533Y0056006D01*
X0022552Y0056008D01*
X0022571Y0056010D01*
X0022590Y0056013D01*
X0022609Y0056015D01*
X0022628Y0056018D01*
X0022646Y0056020D01*
X0022665Y0056023D01*
X0022684Y0056026D01*
X0022695Y0056056D01*
X0022706Y0056086D01*
X0022717Y0056116D01*
X0022727Y0056147D01*
X0022736Y0056178D01*
X0022744Y0056209D01*
X0022751Y0056240D01*
X0022757Y0056272D01*
X0022762Y0056303D01*
X0022767Y0056335D01*
X0022771Y0056367D01*
X0022775Y0056399D01*
X0022779Y0056431D01*
X0022782Y0056463D01*
X0022786Y0056495D01*
X0022790Y0056527D01*
X0022794Y0056559D01*
X0022798Y0056590D01*
X0022801Y0056622D01*
X0022805Y0056654D01*
X0022808Y0056686D01*
X0022810Y0056718D01*
X0022812Y0056750D01*
X0022814Y0056783D01*
X0022816Y0056815D01*
X0022818Y0056847D01*
X0022820Y0056879D01*
X0022821Y0056911D01*
X0022823Y0056943D01*
X0022825Y0056975D01*
X0022827Y0057007D01*
X0022829Y0057038D01*
X0022832Y0057070D01*
X0022835Y0057101D01*
X0022838Y0057133D01*
X0022840Y0057164D01*
X0022844Y0057196D01*
X0022846Y0057227D01*
X0022849Y0057259D01*
X0022851Y0057291D01*
X0022854Y0057323D01*
X0022856Y0057355D01*
X0022857Y0057388D01*
X0022858Y0057421D01*
X0022859Y0057454D01*
X0022858Y0057488D01*
Y0057522D01*
X0022857Y0057556D01*
Y0057590D01*
X0022859Y0057624D01*
X0022862Y0057656D01*
X0022868Y0057688D01*
X0022876Y0057718D01*
X0022888Y0057746D01*
X0022905Y0057772D01*
X0022925Y0057796D01*
X0022950Y0057818D01*
X0022977Y0057836D01*
X0023007Y0057851D01*
X0023037Y0057863D01*
X0023069Y0057871D01*
X0023100Y0057876D01*
X0023133Y0057879D01*
X0023165Y0057880D01*
X0023197Y0057879D01*
X0023229Y0057878D01*
X0023261Y0057876D01*
X0023293D01*
X0023325Y0057875D01*
X0023358Y0057874D01*
X0023390Y0057871D01*
X0023421Y0057866D01*
X0023453Y0057859D01*
X0023483Y0057848D01*
X0023512Y0057832D01*
X0023539Y0057813D01*
X0023563Y0057791D01*
X0023583Y0057766D01*
X0023597Y0057740D01*
X0023608Y0057712D01*
X0023614Y0057682D01*
X0023617Y0057651D01*
Y0057619D01*
X0023615Y0057586D01*
X0023611Y0057552D01*
X0023605Y0057518D01*
X0023598Y0057483D01*
X0023590Y0057448D01*
X0023583Y0057414D01*
X0023576Y0057380D01*
X0023570Y0057346D01*
X0023564Y0057312D01*
X0023559Y0057279D01*
X0023555Y0057246D01*
X0023551Y0057214D01*
X0023547Y0057181D01*
X0023544Y0057149D01*
X0023541Y0057118D01*
X0023539Y0057086D01*
X0023537Y0057054D01*
X0023535Y0057023D01*
X0023533Y0056992D01*
X0023531Y0056961D01*
X0023529Y0056930D01*
X0023527Y0056898D01*
X0023525Y0056867D01*
X0023523Y0056836D01*
X0023521Y0056805D01*
X0023518Y0056773D01*
X0023516Y0056742D01*
X0023513Y0056710D01*
X0023509Y0056679D01*
X0023506Y0056647D01*
X0023502Y0056615D01*
X0023499Y0056583D01*
X0023495Y0056551D01*
X0023491Y0056519D01*
X0023487Y0056487D01*
X0023483Y0056455D01*
X0023479Y0056423D01*
X0023476Y0056391D01*
X0023472Y0056359D01*
X0023468Y0056326D01*
X0023465Y0056294D01*
X0023461Y0056262D01*
X0023458Y0056230D01*
X0023455Y0056197D01*
X0023451Y0056165D01*
X0023448Y0056133D01*
X0023445Y0056102D01*
X0023442Y0056070D01*
X0023439Y0056039D01*
X0023437Y0056008D01*
X0023434Y0055977D01*
X0023431Y0055946D01*
X0023429Y0055914D01*
X0023427Y0055883D01*
X0023425Y0055851D01*
X0023424Y0055818D01*
X0023423Y0055785D01*
Y0055751D01*
X0023424Y0055716D01*
X0023426Y0055681D01*
X0023430Y0055647D01*
X0023438Y0055616D01*
X0023451Y0055590D01*
X0023469Y0055569D01*
X0023491Y0055554D01*
X0023519Y0055544D01*
X0023550Y0055538D01*
X0023584Y0055535D01*
X0023619D01*
X0023656Y0055537D01*
X0023694Y0055540D01*
X0023731Y0055543D01*
X0023767Y0055546D01*
X0023801Y0055548D01*
X0023835Y0055550D01*
X0023867Y0055551D01*
X0023899Y0055552D01*
X0023930D01*
X0023961D01*
X0023991D01*
X0024021Y0055551D01*
X0024052Y0055549D01*
X0024083Y0055548D01*
X0024114Y0055546D01*
X0024146Y0055544D01*
X0024179Y0055541D01*
X0024213Y0055539D01*
X0024248Y0055536D01*
X0024284Y0055533D01*
X0024320Y0055532D01*
X0024356Y0055531D01*
X0024390Y0055533D01*
X0024423Y0055536D01*
X0024453Y0055543D01*
X0024480Y0055553D01*
X0024504Y0055567D01*
X0024523Y0055585D01*
X0024539Y0055608D01*
X0024551Y0055634D01*
X0024559Y0055663D01*
X0024566Y0055695D01*
X0024570Y0055729D01*
X0024572Y0055764D01*
X0024573Y0055801D01*
Y0055838D01*
Y0055875D01*
Y0055911D01*
X0024574Y0055947D01*
X0024575Y0055982D01*
X0024576Y0056017D01*
X0024578Y0056050D01*
X0024580Y0056084D01*
X0024582Y0056116D01*
X0024584Y0056148D01*
X0024587Y0056180D01*
X0024590Y0056211D01*
X0024593Y0056242D01*
X0024595Y0056273D01*
X0024598Y0056304D01*
X0024601Y0056335D01*
X0024605Y0056365D01*
X0024607Y0056395D01*
X0024610Y0056426D01*
X0024613Y0056456D01*
X0024616Y0056487D01*
X0024618Y0056518D01*
X0024620Y0056549D01*
X0024622Y0056580D01*
X0024624Y0056612D01*
X0024626Y0056644D01*
X0024627Y0056675D01*
X0024629Y0056707D01*
X0024630Y0056740D01*
X0024631Y0056772D01*
X0024633Y0056804D01*
X0024634Y0056836D01*
X0024635Y0056869D01*
X0024636Y0056902D01*
X0024637Y0056934D01*
X0024638Y0056967D01*
X0024639Y0057000D01*
X0024641Y0057032D01*
X0024642Y0057065D01*
X0024643Y0057097D01*
X0024645Y0057130D01*
X0024647Y0057162D01*
X0024649Y0057194D01*
X0024652Y0057226D01*
X0024655Y0057257D01*
X0024658Y0057289D01*
X0024662Y0057320D01*
X0024666Y0057351D01*
X0024671Y0057381D01*
X0024675Y0057412D01*
X0024680Y0057443D01*
X0024685Y0057474D01*
X0024689Y0057505D01*
X0024693Y0057538D01*
X0024696Y0057571D01*
X0024698Y0057604D01*
X0024699Y0057640D01*
Y0057675D01*
X0024700Y0057711D01*
X0024703Y0057744D01*
X0024711Y0057774D01*
X0024725Y0057798D01*
X0024746Y0057817D01*
X0024773Y0057830D01*
X0024805Y0057838D01*
X0024840Y0057844D01*
X0024876Y0057847D01*
X0024911Y0057851D01*
X0024946Y0057854D01*
X0024979Y0057856D01*
X0025011Y0057857D01*
X0025043Y0057856D01*
X0025075Y0057853D01*
X0025105Y0057848D01*
X0025135Y0057839D01*
X0025164Y0057827D01*
X0025193Y0057812D01*
X0025221Y0057793D01*
X0025246Y0057772D01*
X0025269Y0057748D01*
X0025288Y0057721D01*
X0025303Y0057693D01*
X0025314Y0057664D01*
X0025320Y0057634D01*
X0025323Y0057602D01*
X0025324Y0057570D01*
X0025322Y0057537D01*
X0025319Y0057504D01*
X0025315Y0057471D01*
X0025311Y0057437D01*
X0025307Y0057404D01*
X0025305Y0057371D01*
X0025304Y0057339D01*
Y0057306D01*
X0025305Y0057274D01*
X0025306Y0057242D01*
X0025308Y0057210D01*
X0025310Y0057178D01*
X0025313Y0057146D01*
X0025315Y0057115D01*
X0025318Y0057083D01*
X0025321Y0057051D01*
X0025323Y0057020D01*
X0025326Y0056988D01*
X0025328Y0056956D01*
X0025330Y0056924D01*
X0025331Y0056892D01*
X0025333Y0056859D01*
X0025334Y0056827D01*
Y0056795D01*
X0025335Y0056763D01*
Y0056730D01*
Y0056698D01*
Y0056665D01*
Y0056633D01*
X0025334Y0056601D01*
Y0056569D01*
X0025333Y0056536D01*
Y0056505D01*
Y0056473D01*
Y0056410D01*
Y0056379D01*
X0025334Y0056348D01*
Y0056317D01*
X0025335Y0056286D01*
Y0056255D01*
Y0056224D01*
X0025336Y0056193D01*
Y0056161D01*
Y0056129D01*
X0025335Y0056097D01*
Y0056064D01*
X0025334Y0056031D01*
X0025332Y0055997D01*
X0025330Y0055962D01*
X0025327Y0055926D01*
X0025324Y0055891D01*
X0025322Y0055855D01*
X0025321Y0055819D01*
X0025322Y0055785D01*
X0025325Y0055752D01*
X0025332Y0055722D01*
X0025344Y0055695D01*
X0025360Y0055671D01*
X0025381Y0055651D01*
X0025408Y0055635D01*
X0025438Y0055621D01*
X0025470Y0055610D01*
X0025502Y0055600D01*
X0025534Y0055591D01*
X0025565Y0055582D01*
X0025596Y0055573D01*
X0025626Y0055566D01*
X0025657Y0055558D01*
X0025689Y0055551D01*
X0025721Y0055545D01*
X0025754Y0055543D01*
X0025785Y0055546D01*
X0025815Y0055556D01*
X0025844Y0055571D01*
X0025874Y0055586D01*
X0025901Y0055604D01*
X0025920Y0055628D01*
X0025931Y0055659D01*
X0025897Y0055667D01*
X0025863Y0055675D01*
X0025829Y0055683D01*
X0025796Y0055692D01*
X0025763Y0055702D01*
X0025730Y0055712D01*
X0025697Y0055723D01*
X0025664Y0055735D01*
X0025630Y0055748D01*
X0025598Y0055763D01*
X0025572Y0055782D01*
X0025553Y0055807D01*
X0025541Y0055836D01*
X0025535Y0055869D01*
X0025534Y0055905D01*
X0025536Y0055942D01*
X0025540Y0055982D01*
X0025545Y0056021D01*
X0025551Y0056061D01*
X0025556Y0056099D01*
X0025559Y0056137D01*
X0025562Y0056174D01*
X0025565Y0056209D01*
X0025566Y0056245D01*
X0025567Y0056279D01*
X0025568Y0056314D01*
Y0056347D01*
Y0056381D01*
X0025567Y0056414D01*
X0025566Y0056447D01*
X0025565Y0056480D01*
Y0056513D01*
X0025564Y0056547D01*
X0025563Y0056580D01*
Y0056614D01*
Y0056649D01*
Y0056683D01*
Y0056718D01*
Y0056752D01*
X0025564Y0056787D01*
Y0056822D01*
X0025565Y0056857D01*
Y0056893D01*
X0025566Y0056928D01*
X0025567Y0056963D01*
X0025568Y0056998D01*
X0025569Y0057033D01*
X0025570Y0057068D01*
Y0057102D01*
X0025571Y0057137D01*
X0025572Y0057172D01*
Y0057206D01*
X0025573Y0057240D01*
Y0057274D01*
Y0057341D01*
Y0057375D01*
Y0057409D01*
X0025574Y0057443D01*
X0025575Y0057476D01*
X0025576Y0057511D01*
X0025578Y0057545D01*
X0025581Y0057580D01*
X0025585Y0057616D01*
X0025589Y0057652D01*
X0025595Y0057689D01*
X0025601Y0057726D01*
X0025609Y0057764D01*
X0025615Y0057802D01*
X0025619Y0057839D01*
X0025620Y0057874D01*
X0025616Y0057907D01*
X0025607Y0057938D01*
X0025590Y0057966D01*
X0025566Y0057990D01*
X0025537Y0058010D01*
X0025506Y0058028D01*
X0025474Y0058044D01*
X0025442Y0058058D01*
X0025410Y0058070D01*
X0025378Y0058082D01*
X0025346Y0058094D01*
X0025313Y0058106D01*
X0025280Y0058118D01*
X0025247Y0058129D01*
X0025215Y0058141D01*
X0025182Y0058152D01*
X0025149Y0058163D01*
X0025116Y0058174D01*
X0025083Y0058184D01*
X0025051Y0058193D01*
X0025018Y0058202D01*
X0024985Y0058211D01*
X0024952Y0058219D01*
X0024918Y0058226D01*
X0024884Y0058234D01*
X0024850Y0058241D01*
X0024815Y0058247D01*
X0024779Y0058254D01*
X0024742Y0058260D01*
X0024706Y0058265D01*
X0024669Y0058268D01*
X0024633Y0058269D01*
X0024598Y0058267D01*
X0024565Y0058261D01*
X0024533Y0058249D01*
X0024505Y0058233D01*
X0024479Y0058211D01*
X0024456Y0058184D01*
X0024436Y0058155D01*
X0024418Y0058123D01*
X0024404Y0058090D01*
X0024391Y0058057D01*
X0024382Y0058023D01*
X0024375Y0057990D01*
X0024369Y0057955D01*
X0024366Y0057921D01*
X0024364Y0057886D01*
X0024363Y0057852D01*
X0024364Y0057817D01*
X0024366Y0057782D01*
X0024369Y0057747D01*
X0024372Y0057712D01*
X0024376Y0057676D01*
X0024380Y0057641D01*
X0024385Y0057606D01*
X0024389Y0057570D01*
X0024393Y0057535D01*
X0024396Y0057500D01*
X0024399Y0057465D01*
X0024401Y0057429D01*
X0024403Y0057394D01*
X0024404Y0057360D01*
X0024405Y0057325D01*
Y0057290D01*
X0024404Y0057255D01*
Y0057220D01*
X0024403Y0057186D01*
X0024401Y0057151D01*
X0024400Y0057116D01*
X0024398Y0057082D01*
X0024396Y0057047D01*
X0024394Y0057013D01*
X0024391Y0056978D01*
X0024389Y0056944D01*
X0024387Y0056909D01*
X0024384Y0056875D01*
X0024382Y0056840D01*
X0024380Y0056806D01*
X0024377Y0056771D01*
X0024375Y0056737D01*
X0024374Y0056702D01*
X0024372Y0056668D01*
X0024371Y0056633D01*
X0024369Y0056599D01*
Y0056564D01*
X0024368Y0056529D01*
Y0056495D01*
X0024367Y0056460D01*
Y0056425D01*
X0024366Y0056391D01*
Y0056356D01*
X0024365Y0056321D01*
X0024364Y0056286D01*
X0024362Y0056252D01*
X0024360Y0056217D01*
X0024358Y0056182D01*
X0024355Y0056148D01*
X0024351Y0056113D01*
X0024348Y0056079D01*
X0024343Y0056045D01*
X0024337Y0056011D01*
X0024327Y0055977D01*
X0024313Y0055943D01*
X0024294Y0055913D01*
X0024270Y0055891D01*
X0024239Y0055882D01*
X0024204Y0055881D01*
X0024167Y0055886D01*
X0024130Y0055893D01*
X0024094Y0055899D01*
X0024060Y0055903D01*
X0024026Y0055906D01*
X0023993Y0055907D01*
X0023958Y0055909D01*
X0023923D01*
X0023885Y0055910D01*
X0023848Y0055912D01*
X0023812Y0055917D01*
X0023782Y0055927D01*
X0023759Y0055943D01*
X0023744Y0055966D01*
X0023735Y0055995D01*
X0023731Y0056029D01*
X0023732Y0056066D01*
X0023737Y0056106D01*
X0023743Y0056147D01*
X0023751Y0056189D01*
X0023758Y0056231D01*
X0023765Y0056272D01*
X0023771Y0056311D01*
X0023776Y0056349D01*
X0023781Y0056386D01*
X0023784Y0056422D01*
X0023787Y0056457D01*
X0023789Y0056492D01*
X0023791Y0056526D01*
X0023793Y0056559D01*
X0023794Y0056592D01*
X0023795Y0056624D01*
X0023796Y0056657D01*
Y0056689D01*
X0023797Y0056721D01*
X0023798Y0056754D01*
X0023799Y0056786D01*
X0023800Y0056819D01*
X0023802Y0056853D01*
X0023804Y0056887D01*
X0023806Y0056921D01*
X0023809Y0056955D01*
X0023811Y0056990D01*
X0023814Y0057025D01*
X0023817Y0057060D01*
X0023821Y0057095D01*
X0023824Y0057130D01*
X0023827Y0057165D01*
X0023831Y0057200D01*
X0023834Y0057235D01*
X0023838Y0057269D01*
X0023841Y0057304D01*
X0023845Y0057338D01*
X0023849Y0057372D01*
X0023853Y0057406D01*
X0023857Y0057441D01*
X0023861Y0057475D01*
X0023866Y0057510D01*
X0023871Y0057545D01*
X0023876Y0057580D01*
X0023881Y0057615D01*
X0023886Y0057650D01*
X0023890Y0057685D01*
X0023894Y0057720D01*
X0023896Y0057755D01*
X0023898Y0057790D01*
Y0057825D01*
X0023896Y0057859D01*
X0023892Y0057893D01*
X0023886Y0057926D01*
X0023878Y0057959D01*
X0023867Y0057991D01*
X0023854Y0058023D01*
X0023840Y0058055D01*
X0023825Y0058086D01*
X0023808Y0058117D01*
X0023791Y0058148D01*
X0023774Y0058179D01*
X0023745Y0058185D01*
X0023715Y0058191D01*
X0023686Y0058196D01*
X0023657Y0058202D01*
X0023628Y0058208D01*
X0023599Y0058213D01*
X0023569Y0058218D01*
X0023540Y0058223D01*
X0023510Y0058229D01*
X0023480Y0058233D01*
X0023450Y0058238D01*
X0023420Y0058243D01*
X0023389Y0058247D01*
X0023359Y0058251D01*
X0023328Y0058255D01*
X0023297Y0058258D01*
X0023266Y0058261D01*
X0023235Y0058263D01*
X0023204Y0058265D01*
X0023173Y0058266D01*
X0023142Y0058265D01*
X0023111Y0058264D01*
X0023081Y0058262D01*
X0023052Y0058259D01*
X0023022Y0058254D01*
X0022994Y0058247D01*
X0022965Y0058240D01*
X0022938Y0058230D01*
X0022911Y0058219D01*
X0022885Y0058206D01*
X0022859Y0058192D01*
X0022834Y0058177D01*
X0022809Y0058160D01*
X0022785Y0058142D01*
X0022761Y0058123D01*
X0022738Y0058104D01*
X0022715Y0058083D01*
X0022692Y0058063D01*
X0022669Y0058042D01*
X0022646Y0058020D01*
X0022647Y0057985D01*
X0022648Y0057949D01*
Y0057913D01*
X0022649Y0057878D01*
Y0057842D01*
X0022650Y0057806D01*
Y0057771D01*
Y0057735D01*
X0022649Y0057700D01*
X0022648Y0057665D01*
X0022647Y0057629D01*
X0022646Y0057594D01*
X0022644Y0057560D01*
X0022641Y0057525D01*
X0022638Y0057490D01*
X0022635Y0057456D01*
X0022631Y0057421D01*
X0022627Y0057387D01*
X0022622Y0057353D01*
X0022617Y0057319D01*
X0022612Y0057285D01*
X0022607Y0057251D01*
X0022601Y0057216D01*
X0022596Y0057182D01*
X0022591Y0057148D01*
X0022586Y0057113D01*
X0022582Y0057078D01*
X0022578Y0057043D01*
X0022574Y0057008D01*
X0022570Y0056972D01*
X0022567Y0056936D01*
X0022565Y0056900D01*
X0022564Y0056864D01*
X0022563Y0056827D01*
Y0056789D01*
X0022564Y0056751D01*
X0022566Y0056713D01*
X0022568Y0056674D01*
X0022570Y0056636D01*
X0022571Y0056598D01*
Y0056560D01*
X0022569Y0056524D01*
X0022565Y0056488D01*
X0022557Y0056455D01*
X0022546Y0056423D01*
X0022531Y0056393D01*
X0022511Y0056366D01*
X0022486Y0056341D01*
X0022457Y0056321D01*
X0022425Y0056305D01*
X0022391Y0056293D01*
X0022357Y0056285D01*
X0022321Y0056280D01*
X0022286Y0056277D01*
X0022250Y0056275D01*
X0022215D01*
X0022179Y0056276D01*
X0022144Y0056279D01*
X0022109Y0056282D01*
X0022075Y0056286D01*
X0022040Y0056291D01*
X0022006Y0056296D01*
X0021971Y0056302D01*
X0021935Y0056310D01*
X0021899Y0056318D01*
X0021863Y0056328D01*
X0021830Y0056342D01*
X0021802Y0056361D01*
X0021780Y0056386D01*
X0021765Y0056418D01*
X0021754Y0056454D01*
X0021748Y0056490D01*
X0021743Y0056526D01*
X0021740Y0056562D01*
X0021739Y0056598D01*
X0021740Y0056633D01*
Y0056668D01*
X0021742Y0056703D01*
X0021744Y0056738D01*
X0021746Y0056773D01*
X0021748Y0056808D01*
X0021749Y0056843D01*
Y0056878D01*
X0021750Y0056913D01*
Y0056984D01*
Y0057019D01*
X0021749Y0057054D01*
X0021748Y0057090D01*
Y0057125D01*
X0021747Y0057161D01*
X0021746Y0057196D01*
X0021745Y0057232D01*
X0021744Y0057267D01*
X0021743Y0057303D01*
X0021742Y0057338D01*
Y0057374D01*
X0021741Y0057409D01*
Y0057445D01*
X0021740Y0057480D01*
Y0057516D01*
Y0057551D01*
Y0057657D01*
Y0057692D01*
Y0057728D01*
X0021741Y0057763D01*
Y0057798D01*
Y0057833D01*
X0021742Y0057869D01*
Y0057904D01*
Y0057912D01*
Y0057920D01*
X0021743Y0057928D01*
Y0057936D01*
X0021742Y0057944D01*
Y0057952D01*
Y0057960D01*
X0021741Y0057967D01*
X0021740Y0057975D01*
X0021739Y0057983D01*
X0021738Y0057990D01*
X0021737Y0057998D01*
X0021735Y0058005D01*
X0021732Y0058012D01*
X0021730Y0058019D01*
X0021727Y0058026D01*
X0021723Y0058033D01*
X0021719Y0058040D01*
X0021715Y0058046D01*
X0021710Y0058052D01*
X0021704Y0058058D01*
X0021699Y0058064D01*
X0021693Y0058069D01*
X0021686Y0058074D01*
X0021680Y0058078D01*
X0021673Y0058081D01*
X0021666Y0058084D01*
X0021659Y0058086D01*
X0021652Y0058087D01*
X0021645Y0058088D01*
X0021637D01*
X0021630D01*
X0021622Y0058087D01*
X0021614Y0058086D01*
X0021607Y0058084D01*
X0021599Y0058082D01*
X0021591Y0058080D01*
X0021583Y0058078D01*
X0021575Y0058076D01*
X0021567Y0058073D01*
X0022821Y0054966D02*
X0022817Y0054968D01*
X0022813Y0054969D01*
X0022809Y0054970D01*
X0022805Y0054972D01*
X0022801Y0054973D01*
X0022797Y0054974D01*
X0022792Y0054975D01*
X0022788Y0054976D01*
X0022784Y0054977D01*
X0022780Y0054978D01*
X0022775Y0054979D01*
X0022771Y0054980D01*
X0022767Y0054981D01*
X0022763Y0054982D01*
X0022758Y0054983D01*
X0022754Y0054984D01*
X0022750Y0054985D01*
X0022746Y0054986D01*
X0022741Y0054987D01*
X0022737Y0054988D01*
X0022733D01*
X0022728Y0054989D01*
X0022724Y0054990D01*
X0022720D01*
X0022715Y0054991D01*
X0022711Y0054992D01*
X0022707D01*
X0022702Y0054993D01*
X0022698D01*
X0022694Y0054994D01*
X0022689D01*
X0022685Y0054995D01*
X0022681D01*
X0022676D01*
X0022672Y0054996D01*
X0022668D01*
X0022663D01*
X0022659D01*
X0022620D01*
X0022615D01*
X0022611D01*
X0022607D01*
X0022602Y0054995D01*
X0022598D01*
X0022593Y0054994D01*
X0022589D01*
X0022585Y0054993D01*
X0022580D01*
X0022576Y0054992D01*
X0022572Y0054991D01*
X0022567D01*
X0022563Y0054990D01*
X0022559Y0054989D01*
X0022555Y0054988D01*
X0022550Y0054987D01*
X0022546Y0054986D01*
X0022542Y0054985D01*
X0022538Y0054984D01*
X0022533Y0054982D01*
X0022529Y0054981D01*
X0022525Y0054979D01*
X0022521Y0054978D01*
X0022517Y0054976D01*
X0022513Y0054975D01*
X0022509Y0054973D01*
X0022505Y0054971D01*
X0022501Y0054969D01*
X0022498Y0054966D01*
X0022494Y0054964D01*
X0022490Y0054962D01*
X0022486Y0054960D01*
X0022483Y0054958D01*
X0022479Y0054955D01*
X0022475Y0054953D01*
X0022471Y0054950D01*
X0022468Y0054948D01*
X0022464Y0054945D01*
X0022460Y0054942D01*
X0022457Y0054938D01*
X0022453Y0054935D01*
X0022450Y0054931D01*
X0022446Y0054927D01*
X0022443Y0054923D01*
X0022439Y0054919D01*
X0022436Y0054916D01*
X0022433Y0054911D01*
X0022430Y0054907D01*
X0022427Y0054903D01*
X0022424Y0054899D01*
X0022422Y0054894D01*
X0022420Y0054889D01*
X0022417Y0054885D01*
X0022415Y0054880D01*
X0022414Y0054875D01*
X0022412Y0054870D01*
X0022410Y0054865D01*
X0022409Y0054860D01*
X0022408Y0054855D01*
X0022406Y0054850D01*
X0022405Y0054845D01*
Y0054840D01*
X0022404Y0054835D01*
X0022403Y0054830D01*
Y0054825D01*
X0022402Y0054820D01*
Y0054815D01*
Y0054809D01*
Y0054804D01*
Y0054799D01*
Y0054794D01*
Y0054789D01*
X0022403Y0054784D01*
Y0054779D01*
X0022404Y0054773D01*
X0022405Y0054768D01*
X0022406Y0054763D01*
X0022407Y0054758D01*
X0022408Y0054753D01*
X0022409Y0054748D01*
X0022411Y0054743D01*
X0022412Y0054738D01*
X0022414Y0054734D01*
X0022416Y0054729D01*
X0022418Y0054724D01*
X0022421Y0054720D01*
X0022423Y0054715D01*
X0022426Y0054711D01*
X0022429Y0054706D01*
X0022432Y0054702D01*
X0022435Y0054698D01*
X0022438Y0054694D01*
X0022442Y0054690D01*
X0022445Y0054686D01*
X0022449Y0054683D01*
X0022453Y0054680D01*
X0022457Y0054676D01*
X0022461Y0054673D01*
X0022465Y0054670D01*
X0022469Y0054667D01*
X0022474Y0054665D01*
X0022478Y0054662D01*
X0022483Y0054659D01*
X0022487Y0054657D01*
X0022492Y0054654D01*
X0022496Y0054652D01*
X0022501Y0054650D01*
X0022506Y0054648D01*
X0022510Y0054646D01*
X0022515Y0054644D01*
X0022520Y0054642D01*
X0022525Y0054640D01*
X0022530Y0054639D01*
X0022535Y0054637D01*
X0022540Y0054635D01*
X0022544Y0054634D01*
X0022549Y0054632D01*
X0022554Y0054631D01*
X0022559Y0054630D01*
X0022564Y0054629D01*
X0022569Y0054627D01*
X0022574Y0054626D01*
X0022579Y0054625D01*
X0022584Y0054624D01*
X0022589Y0054622D01*
X0022594Y0054621D01*
X0022650Y0054611D01*
X0022652Y0054610D01*
X0022655Y0054609D01*
X0022658D01*
X0022660Y0054608D01*
X0022663D01*
X0022666Y0054607D01*
X0022668Y0054606D01*
X0022671D01*
X0022674Y0054605D01*
X0022676Y0054604D01*
X0022679D01*
X0022681Y0054603D01*
X0022684Y0054602D01*
X0022687Y0054601D01*
X0022689D01*
X0022692Y0054600D01*
X0022694Y0054599D01*
X0022697Y0054598D01*
X0022700Y0054597D01*
X0022702Y0054596D01*
X0022705Y0054595D01*
X0022707Y0054594D01*
X0022710Y0054593D01*
X0022712Y0054592D01*
X0022715Y0054591D01*
X0022717Y0054590D01*
X0022720Y0054589D01*
X0022722Y0054587D01*
X0022725Y0054586D01*
X0022727Y0054585D01*
X0022729Y0054583D01*
X0022731Y0054582D01*
X0022734Y0054580D01*
X0022736Y0054579D01*
X0022738Y0054577D01*
X0022740Y0054575D01*
X0022743Y0054574D01*
X0022745Y0054572D01*
X0022747Y0054570D01*
X0022749Y0054569D01*
X0022752Y0054566D01*
X0022754Y0054563D01*
X0022757Y0054560D01*
X0022760Y0054557D01*
X0022762Y0054554D01*
X0022764Y0054551D01*
X0022766Y0054547D01*
X0022768Y0054544D01*
X0022770Y0054540D01*
X0022771Y0054537D01*
X0022773Y0054533D01*
X0022774Y0054529D01*
X0022775Y0054525D01*
X0022776Y0054522D01*
X0022777Y0054518D01*
X0022778Y0054514D01*
X0022779Y0054510D01*
Y0054506D01*
Y0054502D01*
X0022780Y0054498D01*
Y0054494D01*
Y0054490D01*
Y0054486D01*
X0022779Y0054482D01*
Y0054478D01*
Y0054474D01*
X0022778Y0054471D01*
X0022777Y0054466D01*
Y0054463D01*
X0022776Y0054459D01*
X0022775Y0054455D01*
X0022773Y0054451D01*
X0022772Y0054448D01*
X0022770Y0054444D01*
X0022769Y0054440D01*
X0022767Y0054437D01*
X0022765Y0054434D01*
X0022763Y0054430D01*
X0022760Y0054427D01*
X0022758Y0054424D01*
X0022756Y0054421D01*
X0022753Y0054418D01*
X0022750Y0054415D01*
X0022747Y0054412D01*
X0022744Y0054410D01*
X0022741Y0054407D01*
X0022738Y0054405D01*
X0022735Y0054402D01*
X0022731Y0054400D01*
X0022728Y0054398D01*
X0022725Y0054396D01*
X0022721Y0054394D01*
X0022718Y0054392D01*
X0022714Y0054391D01*
X0022710Y0054389D01*
X0022707Y0054388D01*
X0022703Y0054386D01*
X0022700Y0054385D01*
X0022696Y0054384D01*
X0022692Y0054383D01*
X0022688Y0054382D01*
X0022684Y0054381D01*
X0022680Y0054380D01*
X0022677Y0054379D01*
X0022673Y0054378D01*
X0022669D01*
X0022665Y0054377D01*
X0022661Y0054376D01*
X0022657D01*
X0022653Y0054375D01*
X0022649D01*
X0022645D01*
X0022641Y0054374D01*
X0022638D01*
X0022634D01*
X0022630D01*
X0022626D01*
X0022614D01*
X0022610D01*
X0022606D01*
X0022602D01*
X0022598D01*
X0022594D01*
X0022590Y0054375D01*
X0022586D01*
X0022582D01*
X0022578Y0054376D01*
X0022575D01*
X0022570Y0054377D01*
X0022567D01*
X0022563Y0054378D01*
X0022559Y0054379D01*
X0022555D01*
X0022551Y0054380D01*
X0022547Y0054381D01*
X0022543Y0054382D01*
X0022540D01*
X0022536Y0054383D01*
X0022532Y0054384D01*
X0022528Y0054385D01*
X0022524Y0054386D01*
X0022520Y0054387D01*
X0022517Y0054388D01*
X0022513Y0054389D01*
X0022509Y0054390D01*
X0022505Y0054392D01*
X0022501Y0054393D01*
X0022498Y0054394D01*
X0022494Y0054395D01*
X0022490Y0054397D01*
X0022487Y0054398D01*
X0022483Y0054399D01*
X0022479Y0054401D01*
X0022476Y0054402D01*
X0022472Y0054404D01*
X0022468Y0054405D01*
X0022465Y0054406D01*
X0022461Y0054408D01*
X0022457Y0054410D01*
X0022454Y0054411D01*
X0022450Y0054413D01*
X0022447Y0054415D01*
X0022443Y0054416D01*
X0022439Y0054418D01*
X0022436Y0054420D01*
X0022432Y0054421D01*
X0022429Y0054423D01*
X0022425Y0054425D01*
X0022422Y0054427D01*
X0022418Y0054429D01*
X0022415Y0054431D01*
X0022411Y0054432D01*
X0022408Y0054434D01*
X0022405Y0054436D01*
Y0054342D01*
X0022407D01*
X0022410Y0054341D01*
X0022413Y0054340D01*
X0022415Y0054339D01*
X0022418Y0054338D01*
X0022421Y0054337D01*
X0022424Y0054336D01*
X0022426Y0054335D01*
X0022429Y0054334D01*
X0022432Y0054333D01*
X0022435Y0054332D01*
X0022437Y0054331D01*
X0022440Y0054330D01*
X0022443Y0054329D01*
X0022446D01*
X0022448Y0054328D01*
X0022451Y0054327D01*
X0022454Y0054326D01*
X0022457Y0054325D01*
X0022459Y0054324D01*
X0022462D01*
X0022465Y0054323D01*
X0022468Y0054322D01*
X0022470Y0054321D01*
X0022473D01*
X0022476Y0054320D01*
X0022479Y0054319D01*
X0022482Y0054318D01*
X0022485D01*
X0022487Y0054317D01*
X0022490Y0054316D01*
X0022493D01*
X0022496Y0054315D01*
X0022499Y0054314D01*
X0022501D01*
X0022504Y0054313D01*
X0022507Y0054312D01*
X0022510D01*
X0022513Y0054311D01*
X0022516D01*
X0022520Y0054310D01*
X0022525Y0054309D01*
X0022530Y0054308D01*
X0022534Y0054307D01*
X0022539Y0054306D01*
X0022544D01*
X0022548Y0054305D01*
X0022553Y0054304D01*
X0022558D01*
X0022562Y0054303D01*
X0022567Y0054302D01*
X0022572D01*
X0022577D01*
X0022581Y0054301D01*
X0022586D01*
X0022591D01*
X0022596Y0054300D01*
X0022600D01*
X0022605D01*
X0022610D01*
X0022615D01*
X0022624D01*
X0022629D01*
X0022634D01*
X0022638D01*
X0022643D01*
X0022648Y0054301D01*
X0022652D01*
X0022657D01*
X0022662Y0054302D01*
X0022667D01*
X0022671D01*
X0022676Y0054303D01*
X0022681D01*
X0022686Y0054304D01*
X0022690Y0054305D01*
X0022695D01*
X0022700Y0054306D01*
X0022704Y0054307D01*
X0022709Y0054308D01*
X0022714Y0054309D01*
X0022718Y0054310D01*
X0022723Y0054311D01*
X0022728Y0054312D01*
X0022732Y0054313D01*
X0022737Y0054314D01*
X0022741Y0054316D01*
X0022746Y0054317D01*
X0022750Y0054319D01*
X0022755Y0054321D01*
X0022759Y0054322D01*
X0022764Y0054324D01*
X0022768Y0054326D01*
X0022772Y0054328D01*
X0022776Y0054331D01*
X0022780Y0054333D01*
X0022785Y0054335D01*
X0022789Y0054338D01*
X0022793Y0054340D01*
X0022797Y0054342D01*
X0022801Y0054345D01*
X0022805Y0054348D01*
X0022809Y0054350D01*
X0022813Y0054354D01*
X0022816Y0054357D01*
X0022820Y0054360D01*
X0022823Y0054364D01*
X0022827Y0054367D01*
X0022830Y0054370D01*
X0022833Y0054374D01*
X0022837Y0054378D01*
X0022840Y0054381D01*
X0022843Y0054385D01*
X0022845Y0054389D01*
X0022848Y0054393D01*
X0022850Y0054397D01*
X0022853Y0054401D01*
X0022855Y0054406D01*
X0022857Y0054410D01*
X0022859Y0054415D01*
X0022861Y0054419D01*
X0022863Y0054424D01*
X0022864Y0054428D01*
X0022866Y0054433D01*
X0022867Y0054438D01*
X0022868Y0054442D01*
X0022869Y0054447D01*
X0022870Y0054452D01*
X0022871Y0054457D01*
X0022872Y0054462D01*
X0022873Y0054466D01*
Y0054471D01*
X0022874Y0054476D01*
Y0054481D01*
Y0054486D01*
X0022875Y0054491D01*
Y0054505D01*
X0022874Y0054510D01*
Y0054515D01*
Y0054520D01*
X0022873Y0054525D01*
Y0054529D01*
X0022872Y0054534D01*
X0022871Y0054539D01*
X0022870Y0054544D01*
X0022869Y0054548D01*
X0022868Y0054553D01*
X0022867Y0054558D01*
X0022866Y0054562D01*
X0022864Y0054567D01*
X0022863Y0054572D01*
X0022861Y0054576D01*
X0022859Y0054581D01*
X0022857Y0054585D01*
X0022855Y0054590D01*
X0022852Y0054594D01*
X0022850Y0054598D01*
X0022847Y0054602D01*
X0022844Y0054606D01*
X0022841Y0054610D01*
X0022838Y0054614D01*
X0022835Y0054617D01*
X0022832Y0054621D01*
X0022829Y0054625D01*
X0022826Y0054629D01*
X0022823Y0054631D01*
X0022820Y0054634D01*
X0022816Y0054637D01*
X0022813Y0054639D01*
X0022810Y0054642D01*
X0022807Y0054645D01*
X0022803Y0054647D01*
X0022800Y0054650D01*
X0022797Y0054652D01*
X0022793Y0054655D01*
X0022790Y0054657D01*
X0022786Y0054659D01*
X0022783Y0054661D01*
X0022779Y0054663D01*
X0022775Y0054665D01*
X0022772Y0054667D01*
X0022768Y0054669D01*
X0022764Y0054671D01*
X0022760Y0054672D01*
X0022756Y0054674D01*
X0022753Y0054676D01*
X0022749Y0054677D01*
X0022745Y0054679D01*
X0022741Y0054680D01*
X0022737Y0054681D01*
X0022733Y0054682D01*
X0022729Y0054684D01*
X0022725Y0054685D01*
X0022721Y0054686D01*
X0022717Y0054687D01*
X0022713Y0054688D01*
X0022709Y0054689D01*
X0022705Y0054690D01*
X0022700Y0054691D01*
X0022697Y0054692D01*
X0022692Y0054693D01*
X0022688Y0054694D01*
X0022684Y0054695D01*
X0022680Y0054696D01*
X0022676Y0054697D01*
X0022621Y0054708D01*
X0022619Y0054709D01*
X0022616D01*
X0022613Y0054710D01*
X0022611Y0054711D01*
X0022608D01*
X0022605Y0054712D01*
X0022603D01*
X0022600Y0054713D01*
X0022597D01*
X0022595Y0054714D01*
X0022592Y0054715D01*
X0022589D01*
X0022587Y0054716D01*
X0022584D01*
X0022581Y0054717D01*
X0022579Y0054718D01*
X0022576Y0054719D01*
X0022574D01*
X0022571Y0054720D01*
X0022568Y0054721D01*
X0022566Y0054722D01*
X0022563D01*
X0022560Y0054723D01*
X0022558Y0054724D01*
X0022555Y0054725D01*
X0022553Y0054726D01*
X0022550Y0054727D01*
X0022548Y0054728D01*
X0022545Y0054729D01*
X0022543Y0054731D01*
X0022540Y0054732D01*
X0022538Y0054733D01*
X0022536Y0054735D01*
X0022533Y0054736D01*
X0022531Y0054737D01*
X0022529Y0054739D01*
X0022527Y0054740D01*
X0022524Y0054742D01*
X0022522Y0054743D01*
X0022520Y0054745D01*
X0022518Y0054746D01*
X0022516Y0054749D01*
X0022514Y0054751D01*
X0022512Y0054752D01*
X0022511Y0054755D01*
X0022509Y0054756D01*
X0022507Y0054759D01*
X0022506Y0054761D01*
X0022505Y0054763D01*
X0022503Y0054765D01*
X0022502Y0054768D01*
X0022501Y0054770D01*
X0022500Y0054772D01*
X0022499Y0054775D01*
X0022498Y0054778D01*
X0022497Y0054780D01*
Y0054783D01*
X0022496Y0054785D01*
X0022495Y0054788D01*
Y0054791D01*
Y0054793D01*
X0022494Y0054796D01*
Y0054798D01*
Y0054801D01*
X0022493Y0054804D01*
Y0054806D01*
Y0054809D01*
Y0054812D01*
Y0054814D01*
Y0054817D01*
Y0054820D01*
X0022494Y0054822D01*
Y0054825D01*
Y0054827D01*
Y0054830D01*
X0022495Y0054833D01*
Y0054835D01*
X0022496Y0054838D01*
Y0054841D01*
X0022497Y0054843D01*
X0022498Y0054846D01*
X0022499Y0054848D01*
Y0054851D01*
X0022500Y0054853D01*
X0022501Y0054856D01*
X0022503Y0054858D01*
X0022504Y0054861D01*
X0022505Y0054863D01*
X0022506Y0054865D01*
X0022508Y0054867D01*
X0022509Y0054870D01*
X0022510Y0054872D01*
X0022512Y0054874D01*
X0022514Y0054876D01*
X0022516Y0054878D01*
X0022517Y0054880D01*
X0022519Y0054882D01*
X0022521Y0054884D01*
X0022523Y0054885D01*
X0022525Y0054887D01*
X0022527Y0054889D01*
X0022529Y0054891D01*
X0022531Y0054892D01*
X0022533Y0054894D01*
X0022536Y0054896D01*
X0022539Y0054898D01*
X0022542Y0054899D01*
X0022546Y0054901D01*
X0022549Y0054903D01*
X0022552Y0054905D01*
X0022555Y0054906D01*
X0022558Y0054908D01*
X0022561Y0054909D01*
X0022565Y0054910D01*
X0022568Y0054912D01*
X0022571Y0054913D01*
X0022575Y0054914D01*
X0022578Y0054915D01*
X0022582Y0054916D01*
X0022585D01*
X0022589Y0054917D01*
X0022592Y0054918D01*
X0022596Y0054919D01*
X0022599D01*
X0022603Y0054920D01*
X0022607D01*
X0022610Y0054921D01*
X0022614D01*
X0022617Y0054922D01*
X0022621D01*
X0022624D01*
X0022628D01*
X0022631D01*
X0022635D01*
X0022639Y0054923D01*
X0022642D01*
X0022649D01*
X0022653D01*
X0022656D01*
X0022660Y0054922D01*
X0022664D01*
X0022667D01*
X0022671D01*
X0022674D01*
X0022678Y0054921D01*
X0022681D01*
X0022685D01*
X0022688Y0054920D01*
X0022692D01*
X0022696Y0054919D01*
X0022699D01*
X0022703Y0054918D01*
X0022706D01*
X0022710Y0054917D01*
X0022713Y0054916D01*
X0022717Y0054915D01*
X0022720D01*
X0022724Y0054914D01*
X0022727Y0054913D01*
X0022730Y0054912D01*
X0022734Y0054911D01*
X0022737Y0054910D01*
X0022741D01*
X0022744Y0054909D01*
X0022748Y0054908D01*
X0022751Y0054906D01*
X0022755D01*
X0022758Y0054904D01*
X0022761Y0054903D01*
X0022765Y0054902D01*
X0022768Y0054901D01*
X0022771Y0054900D01*
X0022775Y0054899D01*
X0022778Y0054898D01*
X0022781Y0054896D01*
X0022785Y0054895D01*
X0022788Y0054894D01*
X0022791Y0054892D01*
X0022795Y0054891D01*
X0022798Y0054890D01*
X0022801Y0054888D01*
X0022805Y0054887D01*
X0022808Y0054886D01*
X0022811Y0054884D01*
X0022815Y0054883D01*
X0022818Y0054881D01*
X0022821Y0054880D01*
X0022824Y0054878D01*
X0022828Y0054877D01*
X0022831Y0054875D01*
X0022834Y0054874D01*
Y0054962D01*
X0022830Y0054964D01*
X0022826Y0054965D01*
X0022821Y0054966D01*
M02*
