G04 (created by PCBNEW-RS274X (2011-03-30 BZR 2932)-stable) date 25/05/2011 08:23:30*
G01*
G70*
G90*
%MOIN*%
G04 Gerber Fmt 3.4, Leading zero omitted, Abs format*
%FSLAX34Y34*%
G04 APERTURE LIST*
%ADD10C,0.006000*%
%ADD11R,0.080000X0.080000*%
%ADD12C,0.080000*%
%ADD13R,0.082000X0.082000*%
%ADD14C,0.082000*%
%ADD15C,0.334000*%
%ADD16R,0.050000X0.054000*%
%ADD17R,0.054000X0.050000*%
%ADD18R,0.058000X0.052000*%
%ADD19R,0.052000X0.058000*%
%ADD20R,0.046000X0.082000*%
%ADD21R,0.082000X0.074000*%
%ADD22C,0.054000*%
%ADD23R,0.066000X0.106000*%
%ADD24R,0.066000X0.074000*%
%ADD25R,0.040000X0.082000*%
%ADD26C,0.058000*%
%ADD27R,0.106000X0.110000*%
%ADD28C,0.154000*%
%ADD29R,0.070000X0.070000*%
%ADD30C,0.086000*%
%ADD31C,0.096000*%
%ADD32R,0.026000X0.084000*%
%ADD33R,0.084000X0.026000*%
%ADD34R,0.038000X0.074000*%
%ADD35R,0.030000X0.080000*%
%ADD36R,0.090000X0.036000*%
%ADD37R,0.068000X0.108000*%
%ADD38R,0.162000X0.108000*%
%ADD39R,0.058000X0.076000*%
%ADD40R,0.066000X0.076000*%
%ADD41R,0.098000X0.118000*%
%ADD42R,0.046000X0.078000*%
G04 APERTURE END LIST*
G54D10*
G54D11*
X86760Y-70280D03*
G54D12*
X85760Y-70280D03*
X86760Y-65280D03*
X85760Y-69280D03*
X86760Y-64280D03*
X85760Y-68280D03*
X86760Y-63280D03*
X85760Y-67280D03*
X86760Y-62280D03*
X85760Y-66280D03*
X86760Y-61280D03*
X85760Y-65280D03*
X86760Y-60280D03*
X85760Y-64280D03*
X86760Y-59280D03*
X85760Y-63280D03*
X86760Y-58280D03*
X85760Y-62280D03*
X86760Y-57280D03*
X85760Y-61280D03*
X86760Y-56280D03*
X85760Y-60280D03*
X86760Y-55280D03*
X85760Y-59280D03*
X85760Y-58280D03*
X85760Y-57280D03*
X85760Y-55280D03*
X86760Y-69280D03*
X86760Y-68280D03*
X86760Y-67280D03*
X86760Y-66280D03*
X85760Y-56280D03*
G54D11*
X79830Y-44400D03*
G54D12*
X78830Y-44400D03*
X79830Y-45400D03*
X78830Y-45400D03*
X79830Y-46400D03*
X78830Y-46400D03*
X79830Y-47400D03*
X78830Y-47400D03*
G54D13*
X80930Y-44590D03*
G54D14*
X80930Y-45590D03*
G54D11*
X62902Y-51701D03*
G54D12*
X61902Y-51701D03*
X62902Y-56701D03*
X61902Y-52701D03*
X62902Y-57701D03*
X61902Y-53701D03*
X62902Y-58701D03*
X61902Y-54701D03*
X62902Y-59701D03*
X61902Y-55701D03*
X62902Y-60701D03*
X61902Y-56701D03*
X62902Y-61701D03*
X61902Y-57701D03*
X62902Y-62701D03*
X61902Y-58701D03*
X62902Y-63701D03*
X61902Y-59701D03*
X62902Y-64701D03*
X61902Y-60701D03*
X62902Y-65701D03*
X61902Y-61701D03*
X62902Y-66701D03*
X61902Y-62701D03*
X61902Y-63701D03*
X62902Y-67701D03*
X61902Y-64701D03*
X61902Y-66701D03*
X61902Y-67701D03*
X61902Y-68701D03*
X61902Y-69701D03*
X62902Y-68701D03*
X62902Y-69701D03*
X62902Y-52701D03*
X62902Y-53701D03*
X62902Y-54701D03*
X62902Y-55701D03*
X62902Y-70701D03*
X61902Y-70701D03*
X61902Y-65701D03*
G54D15*
X62479Y-73281D03*
X62489Y-45189D03*
X86531Y-44979D03*
X86491Y-73281D03*
G54D16*
X83950Y-72830D03*
X83950Y-73480D03*
G54D17*
X66020Y-57350D03*
X66670Y-57350D03*
G54D16*
X83970Y-71530D03*
X83970Y-72180D03*
G54D17*
X66680Y-56650D03*
X66030Y-56650D03*
G54D18*
X69464Y-56760D03*
X69464Y-56200D03*
G54D19*
X74360Y-56050D03*
X73800Y-56050D03*
G54D18*
X71780Y-55220D03*
X71780Y-54660D03*
G54D10*
G36*
X71490Y-53710D02*
X71490Y-53190D01*
X72070Y-53190D01*
X72070Y-53710D01*
X71490Y-53710D01*
X71490Y-53710D01*
G37*
G36*
X71490Y-54270D02*
X71490Y-53750D01*
X72070Y-53750D01*
X72070Y-54270D01*
X71490Y-54270D01*
X71490Y-54270D01*
G37*
G54D18*
X76020Y-54440D03*
X76020Y-53880D03*
G54D10*
G36*
X75740Y-56560D02*
X75740Y-56040D01*
X76320Y-56040D01*
X76320Y-56560D01*
X75740Y-56560D01*
X75740Y-56560D01*
G37*
G36*
X75740Y-57120D02*
X75740Y-56600D01*
X76320Y-56600D01*
X76320Y-57120D01*
X75740Y-57120D01*
X75740Y-57120D01*
G37*
G54D18*
X74700Y-55070D03*
X74700Y-54510D03*
X73870Y-55070D03*
X73870Y-54510D03*
G54D11*
X70320Y-56600D03*
X70320Y-55300D03*
G54D19*
X66360Y-71607D03*
X65800Y-71607D03*
G54D11*
X67080Y-69917D03*
X65780Y-69917D03*
G54D19*
X66360Y-70887D03*
X65800Y-70887D03*
G54D10*
G36*
X69420Y-65040D02*
X69420Y-64520D01*
X70000Y-64520D01*
X70000Y-65040D01*
X69420Y-65040D01*
X69420Y-65040D01*
G37*
G36*
X69420Y-65600D02*
X69420Y-65080D01*
X70000Y-65080D01*
X70000Y-65600D01*
X69420Y-65600D01*
X69420Y-65600D01*
G37*
G54D11*
X68900Y-70937D03*
X68900Y-69637D03*
X77250Y-64860D03*
X75950Y-64860D03*
G54D19*
X67890Y-55150D03*
X68450Y-55150D03*
G54D18*
X73170Y-65540D03*
X73170Y-64980D03*
G54D10*
G36*
X75030Y-55360D02*
X75030Y-54840D01*
X75610Y-54840D01*
X75610Y-55360D01*
X75030Y-55360D01*
X75030Y-55360D01*
G37*
G36*
X75030Y-55920D02*
X75030Y-55400D01*
X75610Y-55400D01*
X75610Y-55920D01*
X75030Y-55920D01*
X75030Y-55920D01*
G37*
G54D19*
X77030Y-73650D03*
X76470Y-73650D03*
X75130Y-73660D03*
X74570Y-73660D03*
G54D18*
X69750Y-70020D03*
X69750Y-69460D03*
X75070Y-66930D03*
X75070Y-66370D03*
X76610Y-66980D03*
X76610Y-66420D03*
G54D19*
X77850Y-66250D03*
X77290Y-66250D03*
X77850Y-66950D03*
X77290Y-66950D03*
G54D11*
X81170Y-55470D03*
X79870Y-55470D03*
G54D19*
X81840Y-65690D03*
X81280Y-65690D03*
X82170Y-55640D03*
X82730Y-55640D03*
X75980Y-52710D03*
X76540Y-52710D03*
X82720Y-54850D03*
X82160Y-54850D03*
G54D18*
X83780Y-52630D03*
X83780Y-52070D03*
G54D10*
G36*
X82720Y-52940D02*
X82720Y-52420D01*
X83300Y-52420D01*
X83300Y-52940D01*
X82720Y-52940D01*
X82720Y-52940D01*
G37*
G36*
X82720Y-53500D02*
X82720Y-52980D01*
X83300Y-52980D01*
X83300Y-53500D01*
X82720Y-53500D01*
X82720Y-53500D01*
G37*
G54D18*
X83780Y-51360D03*
X83780Y-50800D03*
G54D10*
G36*
X82720Y-51730D02*
X82720Y-51210D01*
X83300Y-51210D01*
X83300Y-51730D01*
X82720Y-51730D01*
X82720Y-51730D01*
G37*
G36*
X82720Y-52290D02*
X82720Y-51770D01*
X83300Y-51770D01*
X83300Y-52290D01*
X82720Y-52290D01*
X82720Y-52290D01*
G37*
G54D19*
X81705Y-71665D03*
X81145Y-71665D03*
X84950Y-53900D03*
X84390Y-53900D03*
X82642Y-71622D03*
X83202Y-71622D03*
G54D18*
X70520Y-46010D03*
X70520Y-45450D03*
G54D11*
X87170Y-53850D03*
X85870Y-53850D03*
G54D19*
X78450Y-50940D03*
X79010Y-50940D03*
G54D20*
X73670Y-48830D03*
X74100Y-48830D03*
X74530Y-48830D03*
X74970Y-48830D03*
X75400Y-48830D03*
X75830Y-48830D03*
X76270Y-48830D03*
X76700Y-48830D03*
X77130Y-48830D03*
G54D21*
X71860Y-48630D03*
G54D22*
X76500Y-44690D03*
X73350Y-44690D03*
G54D23*
X71500Y-44850D03*
X77600Y-44850D03*
G54D24*
X77610Y-48630D03*
G54D25*
X67310Y-46700D03*
X67000Y-46700D03*
X66680Y-46700D03*
X66370Y-46700D03*
X66050Y-46700D03*
G54D26*
X67550Y-45530D03*
X65820Y-45530D03*
G54D27*
X68380Y-46560D03*
X64990Y-44390D03*
X68380Y-44390D03*
X64990Y-46560D03*
G54D13*
X66100Y-50250D03*
G54D14*
X67100Y-50250D03*
G54D28*
X83080Y-45720D03*
X83080Y-48220D03*
X81580Y-47220D03*
G54D29*
X74690Y-53780D03*
X74690Y-52940D03*
X73880Y-53780D03*
X73880Y-52940D03*
X70360Y-54400D03*
X69520Y-54400D03*
X67220Y-71837D03*
X67220Y-70997D03*
G54D10*
G36*
X67670Y-70177D02*
X67670Y-69477D01*
X68370Y-69477D01*
X68370Y-70177D01*
X67670Y-70177D01*
X67670Y-70177D01*
G37*
G36*
X67670Y-71017D02*
X67670Y-70317D01*
X68370Y-70317D01*
X68370Y-71017D01*
X67670Y-71017D01*
X67670Y-71017D01*
G37*
G54D29*
X75490Y-64010D03*
X76330Y-64010D03*
X69800Y-47650D03*
X70640Y-47650D03*
G54D10*
G36*
X69260Y-46090D02*
X69260Y-45390D01*
X69960Y-45390D01*
X69960Y-46090D01*
X69260Y-46090D01*
X69260Y-46090D01*
G37*
G36*
X69260Y-46930D02*
X69260Y-46230D01*
X69960Y-46230D01*
X69960Y-46930D01*
X69260Y-46930D01*
X69260Y-46930D01*
G37*
G54D30*
X61654Y-47913D03*
X61654Y-49683D03*
G54D31*
X62634Y-47413D03*
X62634Y-50173D03*
G54D10*
G36*
X71490Y-56150D02*
X71490Y-55630D01*
X72070Y-55630D01*
X72070Y-56150D01*
X71490Y-56150D01*
X71490Y-56150D01*
G37*
G36*
X71490Y-56710D02*
X71490Y-56190D01*
X72070Y-56190D01*
X72070Y-56710D01*
X71490Y-56710D01*
X71490Y-56710D01*
G37*
G54D19*
X73570Y-56720D03*
X74130Y-56720D03*
X71850Y-52770D03*
X71290Y-52770D03*
G54D10*
G36*
X75030Y-56560D02*
X75030Y-56040D01*
X75610Y-56040D01*
X75610Y-56560D01*
X75030Y-56560D01*
X75030Y-56560D01*
G37*
G36*
X75030Y-57120D02*
X75030Y-56600D01*
X75610Y-56600D01*
X75610Y-57120D01*
X75030Y-57120D01*
X75030Y-57120D01*
G37*
G54D18*
X76020Y-55650D03*
X76020Y-55090D03*
G54D10*
G36*
X68220Y-56100D02*
X68220Y-55580D01*
X68800Y-55580D01*
X68800Y-56100D01*
X68220Y-56100D01*
X68220Y-56100D01*
G37*
G36*
X68220Y-56660D02*
X68220Y-56140D01*
X68800Y-56140D01*
X68800Y-56660D01*
X68220Y-56660D01*
X68220Y-56660D01*
G37*
G36*
X67500Y-56110D02*
X67500Y-55590D01*
X68080Y-55590D01*
X68080Y-56110D01*
X67500Y-56110D01*
X67500Y-56110D01*
G37*
G36*
X67500Y-56670D02*
X67500Y-56150D01*
X68080Y-56150D01*
X68080Y-56670D01*
X67500Y-56670D01*
X67500Y-56670D01*
G37*
G54D19*
X81810Y-56350D03*
X82370Y-56350D03*
X72940Y-66380D03*
X73500Y-66380D03*
G54D18*
X76260Y-51620D03*
X76260Y-51060D03*
X74540Y-51610D03*
X74540Y-51050D03*
X75400Y-51620D03*
X75400Y-51060D03*
X77710Y-51620D03*
X77710Y-51060D03*
X77060Y-51620D03*
X77060Y-51060D03*
X73890Y-51610D03*
X73890Y-51050D03*
X73240Y-51620D03*
X73240Y-51060D03*
G54D10*
G36*
X83510Y-49800D02*
X83510Y-49280D01*
X84090Y-49280D01*
X84090Y-49800D01*
X83510Y-49800D01*
X83510Y-49800D01*
G37*
G36*
X83510Y-50360D02*
X83510Y-49840D01*
X84090Y-49840D01*
X84090Y-50360D01*
X83510Y-50360D01*
X83510Y-50360D01*
G37*
G54D18*
X78490Y-52980D03*
X78490Y-52420D03*
G54D19*
X78510Y-49400D03*
X79070Y-49400D03*
X78990Y-50190D03*
X78430Y-50190D03*
G54D32*
X69580Y-63890D03*
X69730Y-63890D03*
X69890Y-63890D03*
X70050Y-63890D03*
X70210Y-63890D03*
X70360Y-63890D03*
X70520Y-63890D03*
X70680Y-63890D03*
X70840Y-63890D03*
X70990Y-63890D03*
X71150Y-63890D03*
X71310Y-63890D03*
X71470Y-63890D03*
X71620Y-63890D03*
X71780Y-63890D03*
X71940Y-63890D03*
X72090Y-63890D03*
X72250Y-63890D03*
X72410Y-63890D03*
X72570Y-63890D03*
X72720Y-63890D03*
X72880Y-63890D03*
X73040Y-63890D03*
X73200Y-63890D03*
X73350Y-63890D03*
X73510Y-63890D03*
X73670Y-63890D03*
X73830Y-63890D03*
X73980Y-63890D03*
X74140Y-63890D03*
X74300Y-63890D03*
X74460Y-63890D03*
G54D33*
X75040Y-63310D03*
X75040Y-63160D03*
X75040Y-63000D03*
X75040Y-62840D03*
X75040Y-62680D03*
X75040Y-62530D03*
X75040Y-62370D03*
X75040Y-62210D03*
X75040Y-62050D03*
X75040Y-61900D03*
X75040Y-61740D03*
X75040Y-61580D03*
X75040Y-61420D03*
X75040Y-61270D03*
X75040Y-61110D03*
X75040Y-60950D03*
X75040Y-60800D03*
X75040Y-60640D03*
X75040Y-60480D03*
X75040Y-60320D03*
X75040Y-60170D03*
X75040Y-60010D03*
X75040Y-59850D03*
X75040Y-59690D03*
X75040Y-59540D03*
X75040Y-59380D03*
X75040Y-59220D03*
X75040Y-59060D03*
X75040Y-58910D03*
X75040Y-58750D03*
X75040Y-58590D03*
X75040Y-58430D03*
G54D32*
X74460Y-57840D03*
X74300Y-57840D03*
X74140Y-57840D03*
X73980Y-57840D03*
X73830Y-57840D03*
X73670Y-57840D03*
X73510Y-57840D03*
X73350Y-57840D03*
X73200Y-57840D03*
X73040Y-57840D03*
X72880Y-57840D03*
X72720Y-57840D03*
X72570Y-57840D03*
X72410Y-57840D03*
X72250Y-57840D03*
X72090Y-57840D03*
X71940Y-57840D03*
X71780Y-57840D03*
X71620Y-57840D03*
X71470Y-57840D03*
X71310Y-57840D03*
X71150Y-57840D03*
X70990Y-57850D03*
X70840Y-57840D03*
X70680Y-57840D03*
X70520Y-57840D03*
X70360Y-57840D03*
X70210Y-57840D03*
X70050Y-57840D03*
X69890Y-57840D03*
X69730Y-57840D03*
X69580Y-57840D03*
G54D33*
X69000Y-58430D03*
X69000Y-58590D03*
X69000Y-58750D03*
X69000Y-58910D03*
X69000Y-59060D03*
X69000Y-59220D03*
X69000Y-59380D03*
X69000Y-59540D03*
X69000Y-59690D03*
X69000Y-59850D03*
X69000Y-60010D03*
X69000Y-60170D03*
X69000Y-60320D03*
X69000Y-60480D03*
X69000Y-60640D03*
X69000Y-60800D03*
X69000Y-60950D03*
X69000Y-61110D03*
X69000Y-61270D03*
X69000Y-61420D03*
X69000Y-61580D03*
X69000Y-61740D03*
X69000Y-61900D03*
X69000Y-62050D03*
X69000Y-62210D03*
X69000Y-62370D03*
X69000Y-62530D03*
X69000Y-62680D03*
X69000Y-62840D03*
X69000Y-63000D03*
X69000Y-63160D03*
X69000Y-63310D03*
G54D34*
X78600Y-68180D03*
X78290Y-68180D03*
X77970Y-68180D03*
X77660Y-68180D03*
X77340Y-68180D03*
X77030Y-68180D03*
X76710Y-68180D03*
X76400Y-68180D03*
X76080Y-68180D03*
X75770Y-68180D03*
X75450Y-68180D03*
X75140Y-68180D03*
X74820Y-68180D03*
X74510Y-68180D03*
X74190Y-68180D03*
X73880Y-68180D03*
X73560Y-68180D03*
X73250Y-68180D03*
X72930Y-68180D03*
X72620Y-68180D03*
X72300Y-68180D03*
X71990Y-68180D03*
X71990Y-72740D03*
X72300Y-72740D03*
X72620Y-72740D03*
X72930Y-72740D03*
X73250Y-72740D03*
X73560Y-72740D03*
X73880Y-72740D03*
X74190Y-72740D03*
X74510Y-72740D03*
X74820Y-72740D03*
X75140Y-72740D03*
X75450Y-72740D03*
X75770Y-72740D03*
X76080Y-72740D03*
X76400Y-72740D03*
X76710Y-72740D03*
X77030Y-72740D03*
X77340Y-72740D03*
X77660Y-72740D03*
X77970Y-72740D03*
X78290Y-72740D03*
X78600Y-72740D03*
X71680Y-68170D03*
X71360Y-68170D03*
X71050Y-68170D03*
X70730Y-68170D03*
X70420Y-68170D03*
X70420Y-72740D03*
X70730Y-72740D03*
X71050Y-72740D03*
X71360Y-72740D03*
X71680Y-72740D03*
G54D35*
X83830Y-57100D03*
X83630Y-57100D03*
X83430Y-57100D03*
X83240Y-57100D03*
X83040Y-57100D03*
X82840Y-57100D03*
X82650Y-57100D03*
X82450Y-57100D03*
X82250Y-57100D03*
X82060Y-57100D03*
X81860Y-57100D03*
X81660Y-57100D03*
X81460Y-57100D03*
X81270Y-57100D03*
X81070Y-57100D03*
X80870Y-57100D03*
X80680Y-57100D03*
X80480Y-57100D03*
X80280Y-57100D03*
X80090Y-57100D03*
X79890Y-57100D03*
X79690Y-57100D03*
X79500Y-57100D03*
X79300Y-57100D03*
X79300Y-64800D03*
X79500Y-64800D03*
X79690Y-64800D03*
X79890Y-64800D03*
X80090Y-64800D03*
X80280Y-64800D03*
X80480Y-64800D03*
X80680Y-64800D03*
X80870Y-64800D03*
X81070Y-64800D03*
X81270Y-64800D03*
X81460Y-64800D03*
X81660Y-64800D03*
X81860Y-64800D03*
X82060Y-64800D03*
X82250Y-64800D03*
X82450Y-64800D03*
X82650Y-64800D03*
X82840Y-64800D03*
X83040Y-64800D03*
X83240Y-64800D03*
X83430Y-64800D03*
X83630Y-64800D03*
X83830Y-64800D03*
G54D36*
X82140Y-53120D03*
X82140Y-52860D03*
X82140Y-52600D03*
X82140Y-52350D03*
X82140Y-52090D03*
X82140Y-51840D03*
X82140Y-51580D03*
X82140Y-51330D03*
X82140Y-51070D03*
X82140Y-50810D03*
X79800Y-50810D03*
X79800Y-51070D03*
X79800Y-51330D03*
X79800Y-51580D03*
X79800Y-51840D03*
X79800Y-52090D03*
X79800Y-52350D03*
X79800Y-52600D03*
X79800Y-52860D03*
X79800Y-53120D03*
G54D37*
X81289Y-70224D03*
X82189Y-70224D03*
X83089Y-70224D03*
G54D38*
X82189Y-67784D03*
G54D37*
X85170Y-52690D03*
X86070Y-52690D03*
X86970Y-52690D03*
G54D38*
X86070Y-50250D03*
G54D39*
X67000Y-52240D03*
X67000Y-53100D03*
X67740Y-53100D03*
G54D40*
X67740Y-52240D03*
G54D41*
X72805Y-53555D03*
G54D42*
X72555Y-55875D03*
X73065Y-55875D03*
G54D41*
X77080Y-54355D03*
G54D42*
X76830Y-56675D03*
X77340Y-56675D03*
M02*
