M48
;DRILL file {PCBnew (2011-03-30 BZR 2932)-stable} date 25/05/2011 08:23:29
;FORMAT={-:-/ absolute / inch / decimal}
FMAT,2
INCH,TZ
T1C0.020
T2C0.032
T3C0.037
T4C0.038
T5C0.040
T6C0.042
T7C0.052
T8C0.118
%
G90
G05
M72
T1
X6.399Y5.469
X6.456Y5.620
X6.490Y5.071
X6.541Y5.705
X6.579Y6.919
X6.602Y5.561
X6.635Y5.797
X6.636Y7.126
X6.661Y5.612
X6.665Y6.993
X6.665Y5.512
X6.669Y4.724
X6.691Y5.954
X6.695Y5.543
X6.701Y4.740
X6.708Y6.947
X6.726Y5.578
X6.747Y5.701
X6.758Y5.897
X6.795Y5.433
X6.795Y5.169
X6.799Y5.767
X6.829Y5.425
X6.837Y4.383
X6.838Y4.598
X6.847Y7.111
X6.861Y5.794
X6.881Y5.477
X6.912Y5.234
X6.912Y7.139
X6.934Y5.767
X6.936Y6.478
X6.946Y5.592
X6.957Y6.284
X6.958Y5.985
X6.962Y4.697
X6.975Y6.254
X6.977Y6.900
X6.984Y6.587
X6.985Y6.310
X6.991Y5.234
X6.991Y6.198
X7.006Y4.628
X7.016Y5.714
X7.023Y6.213
X7.030Y5.888
X7.032Y5.618
X7.052Y4.641
X7.052Y6.196
X7.056Y5.909
X7.071Y5.855
X7.077Y6.230
X7.084Y4.601
X7.103Y6.190
X7.114Y7.016
X7.129Y6.255
X7.139Y5.929
X7.147Y6.230
X7.148Y5.430
X7.150Y4.541
X7.153Y6.891
X7.175Y6.920
X7.176Y4.813
X7.191Y5.899
X7.199Y7.225
X7.202Y6.243
X7.209Y5.844
X7.218Y5.384
X7.225Y5.708
X7.226Y5.590
X7.230Y7.232
X7.231Y6.226
X7.245Y4.866
X7.246Y5.845
X7.254Y6.527
X7.257Y7.214
X7.264Y6.222
X7.264Y6.291
X7.264Y6.497
X7.278Y6.562
X7.291Y6.462
X7.291Y7.215
X7.296Y6.593
X7.298Y6.163
X7.299Y5.877
X7.325Y7.210
X7.326Y5.728
X7.329Y6.599
X7.335Y6.284
X7.336Y6.177
X7.352Y6.687
X7.355Y6.580
X7.355Y7.228
X7.356Y6.223
X7.362Y5.858
X7.379Y7.047
X7.381Y6.195
X7.385Y7.218
X7.395Y7.080
X7.410Y5.549
X7.416Y7.112
X7.418Y6.218
X7.425Y6.470
X7.442Y5.672
X7.443Y6.281
X7.445Y6.529
X7.446Y7.144
X7.447Y5.494
X7.447Y6.574
X7.451Y7.325
X7.453Y5.050
X7.453Y6.623
X7.459Y6.663
X7.460Y6.461
X7.484Y5.811
X7.486Y6.599
X7.499Y7.016
X7.514Y6.757
X7.514Y6.863
X7.515Y6.508
X7.526Y6.543
X7.537Y5.479
X7.542Y5.197
X7.545Y6.739
X7.576Y6.752
X7.582Y4.826
X7.602Y5.361
X7.603Y5.722
X7.606Y6.663
X7.606Y7.026
X7.608Y7.336
X7.610Y5.839
X7.640Y6.757
X7.655Y5.106
X7.672Y6.776
X7.681Y5.271
X7.682Y5.326
X7.699Y6.622
X7.703Y6.863
X7.704Y6.695
X7.708Y6.579
X7.720Y5.280
X7.723Y5.219
X7.725Y5.824
X7.726Y4.486
X7.734Y6.768
X7.740Y6.952
X7.762Y4.817
X7.766Y6.763
X7.770Y5.294
X7.797Y7.329
X7.814Y5.144
X7.829Y6.768
X7.860Y7.326
X7.860Y7.212
X7.909Y5.216
X7.950Y7.333
X7.970Y7.305
X7.971Y4.902
X7.973Y6.424
X7.985Y6.391
X8.001Y4.914
X8.006Y5.766
X8.013Y6.691
X8.014Y5.353
X8.015Y5.887
X8.029Y5.209
X8.031Y6.401
X8.036Y5.263
X8.037Y5.106
X8.047Y4.924
X8.065Y5.771
X8.068Y5.909
X8.075Y6.412
X8.080Y4.810
X8.080Y5.476
X8.093Y5.885
X8.096Y5.770
X8.103Y6.569
X8.113Y5.046
X8.121Y6.014
X8.124Y7.266
X8.133Y6.162
X8.138Y6.111
X8.138Y5.939
X8.138Y6.267
X8.139Y6.063
X8.146Y6.212
X8.149Y5.767
X8.151Y4.836
X8.154Y5.169
X8.158Y5.990
X8.158Y6.038
X8.159Y5.260
X8.161Y5.381
X8.164Y6.135
X8.174Y6.187
X8.174Y6.088
X8.175Y6.237
X8.178Y4.975
X8.182Y5.910
X8.183Y6.422
X8.192Y5.964
X8.210Y4.939
X8.213Y4.976
X8.213Y5.794
X8.217Y5.826
X8.226Y6.570
X8.232Y5.342
X8.248Y7.275
X8.259Y6.582
X8.264Y6.419
X8.274Y5.816
X8.298Y6.409
X8.303Y5.564
X8.322Y6.355
X8.323Y4.995
X8.328Y5.485
X8.335Y5.101
X8.337Y6.412
X8.343Y5.299
X8.352Y7.101
X8.359Y6.333
X8.404Y7.007
X8.420Y7.101
X8.424Y5.234
X8.429Y5.353
X8.431Y5.765
X8.500Y5.335
X8.517Y5.213
X8.552Y5.269
X8.565Y4.828
X8.690Y5.454
X8.837Y5.059
T2
X6.290Y5.170
X8.676Y7.028
T3
X6.799Y7.291
X8.167Y7.331
X8.526Y7.086
X8.739Y6.963
T4
X7.335Y4.469
X7.650Y4.469
T5
X6.165Y4.791
X6.165Y4.968
X6.190Y5.170
X6.190Y5.270
X6.190Y5.370
X6.190Y5.470
X6.190Y5.570
X6.190Y5.670
X6.190Y5.770
X6.190Y5.870
X6.190Y5.970
X6.190Y6.070
X6.190Y6.170
X6.190Y6.270
X6.190Y6.370
X6.190Y6.470
X6.190Y6.570
X6.190Y6.670
X6.190Y6.770
X6.190Y6.870
X6.190Y6.970
X6.190Y7.070
X6.290Y5.270
X6.290Y5.370
X6.290Y5.470
X6.290Y5.570
X6.290Y5.670
X6.290Y5.770
X6.290Y5.870
X6.290Y5.970
X6.290Y6.070
X6.290Y6.170
X6.290Y6.270
X6.290Y6.370
X6.290Y6.470
X6.290Y6.570
X6.290Y6.670
X6.290Y6.770
X6.290Y6.870
X6.290Y6.970
X6.290Y7.070
X7.883Y4.440
X7.883Y4.540
X7.883Y4.640
X7.883Y4.740
X7.983Y4.440
X7.983Y4.540
X7.983Y4.640
X7.983Y4.740
X8.576Y5.528
X8.576Y5.628
X8.576Y5.728
X8.576Y5.828
X8.576Y5.928
X8.576Y6.028
X8.576Y6.128
X8.576Y6.228
X8.576Y6.328
X8.576Y6.428
X8.576Y6.528
X8.576Y6.628
X8.576Y6.728
X8.576Y6.828
X8.576Y6.928
X8.576Y7.028
X8.676Y5.528
X8.676Y5.628
X8.676Y5.728
X8.676Y5.828
X8.676Y5.928
X8.676Y6.028
X8.676Y6.128
X8.676Y6.228
X8.676Y6.328
X8.676Y6.428
X8.676Y6.528
X8.676Y6.628
X8.676Y6.728
X8.676Y6.828
X8.676Y6.928
T6
X6.582Y4.553
X6.610Y5.025
X6.710Y5.025
X6.755Y4.553
X8.093Y4.459
X8.093Y4.559
T7
X6.263Y4.741
X6.263Y5.017
T8
X6.248Y7.328
X6.249Y4.519
X8.158Y4.722
X8.308Y4.572
X8.308Y4.822
X8.649Y7.328
X8.653Y4.498
T0
M30
