G04 (created by PCBNEW-RS274X (2011-03-30 BZR 2932)-stable) date 25/05/2011 08:23:30*
G01*
G70*
G90*
%MOIN*%
G04 Gerber Fmt 3.4, Leading zero omitted, Abs format*
%FSLAX34Y34*%
G04 APERTURE LIST*
%ADD10C,0.006000*%
%ADD11R,0.080000X0.080000*%
%ADD12C,0.080000*%
%ADD13R,0.082000X0.082000*%
%ADD14C,0.082000*%
%ADD15C,0.334000*%
%ADD16C,0.054000*%
%ADD17C,0.058000*%
%ADD18C,0.154000*%
%ADD19C,0.086000*%
%ADD20C,0.096000*%
G04 APERTURE END LIST*
G54D10*
G54D11*
X86760Y-70280D03*
G54D12*
X85760Y-70280D03*
X86760Y-65280D03*
X85760Y-69280D03*
X86760Y-64280D03*
X85760Y-68280D03*
X86760Y-63280D03*
X85760Y-67280D03*
X86760Y-62280D03*
X85760Y-66280D03*
X86760Y-61280D03*
X85760Y-65280D03*
X86760Y-60280D03*
X85760Y-64280D03*
X86760Y-59280D03*
X85760Y-63280D03*
X86760Y-58280D03*
X85760Y-62280D03*
X86760Y-57280D03*
X85760Y-61280D03*
X86760Y-56280D03*
X85760Y-60280D03*
X86760Y-55280D03*
X85760Y-59280D03*
X85760Y-58280D03*
X85760Y-57280D03*
X85760Y-55280D03*
X86760Y-69280D03*
X86760Y-68280D03*
X86760Y-67280D03*
X86760Y-66280D03*
X85760Y-56280D03*
G54D11*
X79830Y-44400D03*
G54D12*
X78830Y-44400D03*
X79830Y-45400D03*
X78830Y-45400D03*
X79830Y-46400D03*
X78830Y-46400D03*
X79830Y-47400D03*
X78830Y-47400D03*
G54D13*
X80930Y-44590D03*
G54D14*
X80930Y-45590D03*
G54D11*
X62902Y-51701D03*
G54D12*
X61902Y-51701D03*
X62902Y-56701D03*
X61902Y-52701D03*
X62902Y-57701D03*
X61902Y-53701D03*
X62902Y-58701D03*
X61902Y-54701D03*
X62902Y-59701D03*
X61902Y-55701D03*
X62902Y-60701D03*
X61902Y-56701D03*
X62902Y-61701D03*
X61902Y-57701D03*
X62902Y-62701D03*
X61902Y-58701D03*
X62902Y-63701D03*
X61902Y-59701D03*
X62902Y-64701D03*
X61902Y-60701D03*
X62902Y-65701D03*
X61902Y-61701D03*
X62902Y-66701D03*
X61902Y-62701D03*
X61902Y-63701D03*
X62902Y-67701D03*
X61902Y-64701D03*
X61902Y-66701D03*
X61902Y-67701D03*
X61902Y-68701D03*
X61902Y-69701D03*
X62902Y-68701D03*
X62902Y-69701D03*
X62902Y-52701D03*
X62902Y-53701D03*
X62902Y-54701D03*
X62902Y-55701D03*
X62902Y-70701D03*
X61902Y-70701D03*
X61902Y-65701D03*
G54D15*
X62479Y-73281D03*
X62489Y-45189D03*
X86531Y-44979D03*
X86491Y-73281D03*
G54D16*
X76500Y-44690D03*
X73350Y-44690D03*
G54D17*
X67550Y-45530D03*
X65820Y-45530D03*
G54D13*
X66100Y-50250D03*
G54D14*
X67100Y-50250D03*
G54D18*
X83080Y-45720D03*
X83080Y-48220D03*
X81580Y-47220D03*
G54D19*
X61654Y-47913D03*
X61654Y-49683D03*
G54D20*
X62634Y-47413D03*
X62634Y-50173D03*
M02*
