G04 (created by PCBnew (20090216-final)) date Fri 23 Apr 2010 01:14:00 PM COT*
G01*
G70*
G90*
%MOIN*%
G04 Gerber Fmt 3.4, Leading zero omitted, Abs format*
%FSLAX34Y34*%
G04 APERTURE LIST*
%ADD10C,0.000400*%
%ADD11C,0.066000*%
%ADD12C,0.076000*%
%ADD13C,0.034000*%
%ADD14R,0.054000X0.054000*%
%ADD15C,0.054000*%
%ADD16C,0.038000*%
%ADD17R,0.062000X0.062000*%
%ADD18C,0.062000*%
%ADD19C,0.046000*%
%ADD20C,0.134000*%
%ADD21C,0.052000*%
%ADD22C,0.023600*%
%ADD23C,0.007500*%
%ADD24C,0.007900*%
%ADD25C,0.005000*%
%ADD26C,0.031000*%
%ADD27C,0.017000*%
%ADD28C,0.010000*%
%ADD29R,0.038000X0.010000*%
%ADD30R,0.038000X0.046000*%
%ADD31R,0.032000X0.038000*%
%ADD32R,0.034000X0.030000*%
%ADD33R,0.038000X0.032000*%
%ADD34R,0.060000X0.060000*%
%ADD35R,0.030000X0.034000*%
%ADD36R,0.026000X0.062000*%
%ADD37R,0.062000X0.054000*%
%ADD38R,0.046000X0.086000*%
%ADD39R,0.046000X0.054000*%
%ADD40R,0.020000X0.062000*%
%ADD41R,0.086000X0.090000*%
%ADD42R,0.050000X0.050000*%
%ADD43R,0.024000X0.034000*%
%ADD44R,0.034000X0.024000*%
%ADD45R,0.034000X0.020000*%
%ADD46R,0.006000X0.064000*%
%ADD47R,0.064000X0.006000*%
%ADD48R,0.018000X0.054000*%
%ADD49R,0.010000X0.060000*%
%ADD50R,0.070000X0.016000*%
%ADD51R,0.048000X0.088000*%
%ADD52R,0.142000X0.088000*%
%ADD53R,0.060000X0.010000*%
%ADD54R,0.016000X0.070000*%
%ADD55R,0.038000X0.056000*%
%ADD56R,0.046000X0.056000*%
%ADD57R,0.026000X0.038000*%
%ADD58R,0.070000X0.078000*%
%ADD59R,0.078000X0.098000*%
%ADD60R,0.026000X0.058000*%
%ADD61R,0.164000X0.066000*%
%ADD62R,0.094000X0.094000*%
%ADD63C,0.015700*%
%ADD64C,0.017700*%
%ADD65C,0.015000*%
%ADD66C,0.020000*%
%ADD67C,0.007000*%
%ADD68C,0.003000*%
%ADD69C,0.006000*%
%ADD70C,0.008000*%
%ADD71C,0.001000*%
%ADD72C,0.004000*%
%ADD73C,0.002000*%
%ADD74C,0.003900*%
%ADD75C,0.003100*%
%ADD76C,0.086000*%
%ADD77C,0.096000*%
%ADD78R,0.074000X0.074000*%
%ADD79C,0.074000*%
%ADD80C,0.058000*%
%ADD81R,0.082000X0.082000*%
%ADD82C,0.082000*%
%ADD83C,0.154000*%
%ADD84C,0.072000*%
%ADD85R,0.058000X0.030000*%
%ADD86R,0.058000X0.066000*%
%ADD87R,0.052000X0.058000*%
%ADD88R,0.054000X0.050000*%
%ADD89R,0.058000X0.052000*%
%ADD90R,0.080000X0.080000*%
%ADD91R,0.050000X0.054000*%
%ADD92R,0.046000X0.082000*%
%ADD93R,0.082000X0.074000*%
%ADD94R,0.066000X0.106000*%
%ADD95R,0.066000X0.074000*%
%ADD96R,0.040000X0.082000*%
%ADD97R,0.106000X0.110000*%
%ADD98R,0.070000X0.070000*%
%ADD99R,0.044000X0.054000*%
%ADD100R,0.054000X0.044000*%
%ADD101R,0.054000X0.040000*%
%ADD102R,0.026000X0.084000*%
%ADD103R,0.084000X0.026000*%
%ADD104R,0.038000X0.074000*%
%ADD105R,0.030000X0.080000*%
%ADD106R,0.090000X0.036000*%
%ADD107R,0.068000X0.108000*%
%ADD108R,0.162000X0.108000*%
%ADD109R,0.080000X0.030000*%
%ADD110R,0.036000X0.090000*%
%ADD111R,0.058000X0.076000*%
%ADD112R,0.066000X0.076000*%
%ADD113R,0.046000X0.058000*%
%ADD114R,0.090000X0.098000*%
%ADD115R,0.098000X0.118000*%
%ADD116R,0.046000X0.078000*%
%ADD117R,0.184000X0.086000*%
%ADD118R,0.114000X0.114000*%
%ADD119C,0.000400*%
G04 APERTURE END LIST*
G54D10*
X95380Y-73420D02*
X95350Y-73724D01*
X95350Y-73724D02*
X95261Y-74018D01*
X95261Y-74018D02*
X95117Y-74288D01*
X95117Y-74288D02*
X94924Y-74526D01*
X94924Y-74526D02*
X94687Y-74721D01*
X94687Y-74721D02*
X94418Y-74867D01*
X94418Y-74867D02*
X94125Y-74957D01*
X94125Y-74957D02*
X93820Y-74989D01*
X93820Y-74989D02*
X93516Y-74962D01*
X93516Y-74962D02*
X93222Y-74875D01*
X93222Y-74875D02*
X92951Y-74733D01*
X92951Y-74733D02*
X92712Y-74541D01*
X92712Y-74541D02*
X92515Y-74306D01*
X92515Y-74306D02*
X92367Y-74038D01*
X92367Y-74038D02*
X92275Y-73746D01*
X92275Y-73746D02*
X92241Y-73441D01*
X92241Y-73441D02*
X92266Y-73137D01*
X92266Y-73137D02*
X92351Y-72843D01*
X92351Y-72843D02*
X92491Y-72570D01*
X92491Y-72570D02*
X92681Y-72330D01*
X92681Y-72330D02*
X92914Y-72131D01*
X92914Y-72131D02*
X93182Y-71982D01*
X93182Y-71982D02*
X93473Y-71887D01*
X93473Y-71887D02*
X93778Y-71851D01*
X93778Y-71851D02*
X94082Y-71874D01*
X94082Y-71874D02*
X94377Y-71957D01*
X94377Y-71957D02*
X94651Y-72095D01*
X94651Y-72095D02*
X94892Y-72284D01*
X94892Y-72284D02*
X95092Y-72516D01*
X95092Y-72516D02*
X95244Y-72782D01*
X95244Y-72782D02*
X95340Y-73073D01*
X95340Y-73073D02*
X95379Y-73377D01*
X95379Y-73377D02*
X95380Y-73420D01*
X95370Y-44940D02*
X95340Y-45244D01*
X95340Y-45244D02*
X95251Y-45538D01*
X95251Y-45538D02*
X95107Y-45808D01*
X95107Y-45808D02*
X94914Y-46046D01*
X94914Y-46046D02*
X94677Y-46241D01*
X94677Y-46241D02*
X94408Y-46387D01*
X94408Y-46387D02*
X94115Y-46477D01*
X94115Y-46477D02*
X93810Y-46509D01*
X93810Y-46509D02*
X93506Y-46482D01*
X93506Y-46482D02*
X93212Y-46395D01*
X93212Y-46395D02*
X92941Y-46253D01*
X92941Y-46253D02*
X92702Y-46061D01*
X92702Y-46061D02*
X92505Y-45826D01*
X92505Y-45826D02*
X92357Y-45558D01*
X92357Y-45558D02*
X92265Y-45266D01*
X92265Y-45266D02*
X92231Y-44961D01*
X92231Y-44961D02*
X92256Y-44657D01*
X92256Y-44657D02*
X92341Y-44363D01*
X92341Y-44363D02*
X92481Y-44090D01*
X92481Y-44090D02*
X92671Y-43850D01*
X92671Y-43850D02*
X92904Y-43651D01*
X92904Y-43651D02*
X93172Y-43502D01*
X93172Y-43502D02*
X93463Y-43407D01*
X93463Y-43407D02*
X93768Y-43371D01*
X93768Y-43371D02*
X94072Y-43394D01*
X94072Y-43394D02*
X94367Y-43477D01*
X94367Y-43477D02*
X94641Y-43615D01*
X94641Y-43615D02*
X94882Y-43804D01*
X94882Y-43804D02*
X95082Y-44036D01*
X95082Y-44036D02*
X95234Y-44302D01*
X95234Y-44302D02*
X95330Y-44593D01*
X95330Y-44593D02*
X95369Y-44897D01*
X95369Y-44897D02*
X95370Y-44940D01*
X83180Y-45190D02*
X83180Y-45730D01*
X83180Y-45730D02*
X82640Y-45730D01*
X82640Y-45730D02*
X82640Y-45190D01*
X82640Y-45190D02*
X83180Y-45190D01*
X82180Y-45460D02*
X82174Y-45512D01*
X82174Y-45512D02*
X82159Y-45562D01*
X82159Y-45562D02*
X82134Y-45609D01*
X82134Y-45609D02*
X82101Y-45650D01*
X82101Y-45650D02*
X82060Y-45683D01*
X82060Y-45683D02*
X82014Y-45708D01*
X82014Y-45708D02*
X81964Y-45724D01*
X81964Y-45724D02*
X81911Y-45729D01*
X81911Y-45729D02*
X81860Y-45725D01*
X81860Y-45725D02*
X81809Y-45710D01*
X81809Y-45710D02*
X81763Y-45685D01*
X81763Y-45685D02*
X81722Y-45652D01*
X81722Y-45652D02*
X81688Y-45612D01*
X81688Y-45612D02*
X81662Y-45566D01*
X81662Y-45566D02*
X81646Y-45516D01*
X81646Y-45516D02*
X81641Y-45463D01*
X81641Y-45463D02*
X81645Y-45412D01*
X81645Y-45412D02*
X81659Y-45361D01*
X81659Y-45361D02*
X81684Y-45314D01*
X81684Y-45314D02*
X81716Y-45273D01*
X81716Y-45273D02*
X81756Y-45239D01*
X81756Y-45239D02*
X81802Y-45213D01*
X81802Y-45213D02*
X81853Y-45197D01*
X81853Y-45197D02*
X81905Y-45191D01*
X81905Y-45191D02*
X81956Y-45195D01*
X81956Y-45195D02*
X82007Y-45209D01*
X82007Y-45209D02*
X82054Y-45233D01*
X82054Y-45233D02*
X82096Y-45265D01*
X82096Y-45265D02*
X82130Y-45305D01*
X82130Y-45305D02*
X82156Y-45351D01*
X82156Y-45351D02*
X82173Y-45401D01*
X82173Y-45401D02*
X82179Y-45453D01*
X82179Y-45453D02*
X82180Y-45460D01*
X81180Y-45460D02*
X81174Y-45512D01*
X81174Y-45512D02*
X81159Y-45562D01*
X81159Y-45562D02*
X81134Y-45609D01*
X81134Y-45609D02*
X81101Y-45650D01*
X81101Y-45650D02*
X81060Y-45683D01*
X81060Y-45683D02*
X81014Y-45708D01*
X81014Y-45708D02*
X80964Y-45724D01*
X80964Y-45724D02*
X80911Y-45729D01*
X80911Y-45729D02*
X80860Y-45725D01*
X80860Y-45725D02*
X80809Y-45710D01*
X80809Y-45710D02*
X80763Y-45685D01*
X80763Y-45685D02*
X80722Y-45652D01*
X80722Y-45652D02*
X80688Y-45612D01*
X80688Y-45612D02*
X80662Y-45566D01*
X80662Y-45566D02*
X80646Y-45516D01*
X80646Y-45516D02*
X80641Y-45463D01*
X80641Y-45463D02*
X80645Y-45412D01*
X80645Y-45412D02*
X80659Y-45361D01*
X80659Y-45361D02*
X80684Y-45314D01*
X80684Y-45314D02*
X80716Y-45273D01*
X80716Y-45273D02*
X80756Y-45239D01*
X80756Y-45239D02*
X80802Y-45213D01*
X80802Y-45213D02*
X80853Y-45197D01*
X80853Y-45197D02*
X80905Y-45191D01*
X80905Y-45191D02*
X80956Y-45195D01*
X80956Y-45195D02*
X81007Y-45209D01*
X81007Y-45209D02*
X81054Y-45233D01*
X81054Y-45233D02*
X81096Y-45265D01*
X81096Y-45265D02*
X81130Y-45305D01*
X81130Y-45305D02*
X81156Y-45351D01*
X81156Y-45351D02*
X81173Y-45401D01*
X81173Y-45401D02*
X81179Y-45453D01*
X81179Y-45453D02*
X81180Y-45460D01*
X80180Y-45460D02*
X80174Y-45512D01*
X80174Y-45512D02*
X80159Y-45562D01*
X80159Y-45562D02*
X80134Y-45609D01*
X80134Y-45609D02*
X80101Y-45650D01*
X80101Y-45650D02*
X80060Y-45683D01*
X80060Y-45683D02*
X80014Y-45708D01*
X80014Y-45708D02*
X79964Y-45724D01*
X79964Y-45724D02*
X79911Y-45729D01*
X79911Y-45729D02*
X79860Y-45725D01*
X79860Y-45725D02*
X79809Y-45710D01*
X79809Y-45710D02*
X79763Y-45685D01*
X79763Y-45685D02*
X79722Y-45652D01*
X79722Y-45652D02*
X79688Y-45612D01*
X79688Y-45612D02*
X79662Y-45566D01*
X79662Y-45566D02*
X79646Y-45516D01*
X79646Y-45516D02*
X79641Y-45463D01*
X79641Y-45463D02*
X79645Y-45412D01*
X79645Y-45412D02*
X79659Y-45361D01*
X79659Y-45361D02*
X79684Y-45314D01*
X79684Y-45314D02*
X79716Y-45273D01*
X79716Y-45273D02*
X79756Y-45239D01*
X79756Y-45239D02*
X79802Y-45213D01*
X79802Y-45213D02*
X79853Y-45197D01*
X79853Y-45197D02*
X79905Y-45191D01*
X79905Y-45191D02*
X79956Y-45195D01*
X79956Y-45195D02*
X80007Y-45209D01*
X80007Y-45209D02*
X80054Y-45233D01*
X80054Y-45233D02*
X80096Y-45265D01*
X80096Y-45265D02*
X80130Y-45305D01*
X80130Y-45305D02*
X80156Y-45351D01*
X80156Y-45351D02*
X80173Y-45401D01*
X80173Y-45401D02*
X80179Y-45453D01*
X80179Y-45453D02*
X80180Y-45460D01*
X83170Y-44210D02*
X83170Y-44750D01*
X83170Y-44750D02*
X82630Y-44750D01*
X82630Y-44750D02*
X82630Y-44210D01*
X82630Y-44210D02*
X83170Y-44210D01*
X82170Y-44500D02*
X82164Y-44552D01*
X82164Y-44552D02*
X82149Y-44602D01*
X82149Y-44602D02*
X82124Y-44649D01*
X82124Y-44649D02*
X82091Y-44690D01*
X82091Y-44690D02*
X82050Y-44723D01*
X82050Y-44723D02*
X82004Y-44748D01*
X82004Y-44748D02*
X81954Y-44764D01*
X81954Y-44764D02*
X81901Y-44769D01*
X81901Y-44769D02*
X81850Y-44765D01*
X81850Y-44765D02*
X81799Y-44750D01*
X81799Y-44750D02*
X81753Y-44725D01*
X81753Y-44725D02*
X81712Y-44692D01*
X81712Y-44692D02*
X81678Y-44652D01*
X81678Y-44652D02*
X81652Y-44606D01*
X81652Y-44606D02*
X81636Y-44556D01*
X81636Y-44556D02*
X81631Y-44503D01*
X81631Y-44503D02*
X81635Y-44452D01*
X81635Y-44452D02*
X81649Y-44401D01*
X81649Y-44401D02*
X81674Y-44354D01*
X81674Y-44354D02*
X81706Y-44313D01*
X81706Y-44313D02*
X81746Y-44279D01*
X81746Y-44279D02*
X81792Y-44253D01*
X81792Y-44253D02*
X81843Y-44237D01*
X81843Y-44237D02*
X81895Y-44231D01*
X81895Y-44231D02*
X81946Y-44235D01*
X81946Y-44235D02*
X81997Y-44249D01*
X81997Y-44249D02*
X82044Y-44273D01*
X82044Y-44273D02*
X82086Y-44305D01*
X82086Y-44305D02*
X82120Y-44345D01*
X82120Y-44345D02*
X82146Y-44391D01*
X82146Y-44391D02*
X82163Y-44441D01*
X82163Y-44441D02*
X82169Y-44493D01*
X82169Y-44493D02*
X82170Y-44500D01*
X81170Y-44480D02*
X81164Y-44532D01*
X81164Y-44532D02*
X81149Y-44582D01*
X81149Y-44582D02*
X81124Y-44629D01*
X81124Y-44629D02*
X81091Y-44670D01*
X81091Y-44670D02*
X81050Y-44703D01*
X81050Y-44703D02*
X81004Y-44728D01*
X81004Y-44728D02*
X80954Y-44744D01*
X80954Y-44744D02*
X80901Y-44749D01*
X80901Y-44749D02*
X80850Y-44745D01*
X80850Y-44745D02*
X80799Y-44730D01*
X80799Y-44730D02*
X80753Y-44705D01*
X80753Y-44705D02*
X80712Y-44672D01*
X80712Y-44672D02*
X80678Y-44632D01*
X80678Y-44632D02*
X80652Y-44586D01*
X80652Y-44586D02*
X80636Y-44536D01*
X80636Y-44536D02*
X80631Y-44483D01*
X80631Y-44483D02*
X80635Y-44432D01*
X80635Y-44432D02*
X80649Y-44381D01*
X80649Y-44381D02*
X80674Y-44334D01*
X80674Y-44334D02*
X80706Y-44293D01*
X80706Y-44293D02*
X80746Y-44259D01*
X80746Y-44259D02*
X80792Y-44233D01*
X80792Y-44233D02*
X80843Y-44217D01*
X80843Y-44217D02*
X80895Y-44211D01*
X80895Y-44211D02*
X80946Y-44215D01*
X80946Y-44215D02*
X80997Y-44229D01*
X80997Y-44229D02*
X81044Y-44253D01*
X81044Y-44253D02*
X81086Y-44285D01*
X81086Y-44285D02*
X81120Y-44325D01*
X81120Y-44325D02*
X81146Y-44371D01*
X81146Y-44371D02*
X81163Y-44421D01*
X81163Y-44421D02*
X81169Y-44473D01*
X81169Y-44473D02*
X81170Y-44480D01*
X80170Y-44480D02*
X80164Y-44532D01*
X80164Y-44532D02*
X80149Y-44582D01*
X80149Y-44582D02*
X80124Y-44629D01*
X80124Y-44629D02*
X80091Y-44670D01*
X80091Y-44670D02*
X80050Y-44703D01*
X80050Y-44703D02*
X80004Y-44728D01*
X80004Y-44728D02*
X79954Y-44744D01*
X79954Y-44744D02*
X79901Y-44749D01*
X79901Y-44749D02*
X79850Y-44745D01*
X79850Y-44745D02*
X79799Y-44730D01*
X79799Y-44730D02*
X79753Y-44705D01*
X79753Y-44705D02*
X79712Y-44672D01*
X79712Y-44672D02*
X79678Y-44632D01*
X79678Y-44632D02*
X79652Y-44586D01*
X79652Y-44586D02*
X79636Y-44536D01*
X79636Y-44536D02*
X79631Y-44483D01*
X79631Y-44483D02*
X79635Y-44432D01*
X79635Y-44432D02*
X79649Y-44381D01*
X79649Y-44381D02*
X79674Y-44334D01*
X79674Y-44334D02*
X79706Y-44293D01*
X79706Y-44293D02*
X79746Y-44259D01*
X79746Y-44259D02*
X79792Y-44233D01*
X79792Y-44233D02*
X79843Y-44217D01*
X79843Y-44217D02*
X79895Y-44211D01*
X79895Y-44211D02*
X79946Y-44215D01*
X79946Y-44215D02*
X79997Y-44229D01*
X79997Y-44229D02*
X80044Y-44253D01*
X80044Y-44253D02*
X80086Y-44285D01*
X80086Y-44285D02*
X80120Y-44325D01*
X80120Y-44325D02*
X80146Y-44371D01*
X80146Y-44371D02*
X80163Y-44421D01*
X80163Y-44421D02*
X80169Y-44473D01*
X80169Y-44473D02*
X80170Y-44480D01*
X67460Y-73430D02*
X67430Y-73734D01*
X67430Y-73734D02*
X67341Y-74028D01*
X67341Y-74028D02*
X67197Y-74298D01*
X67197Y-74298D02*
X67004Y-74536D01*
X67004Y-74536D02*
X66767Y-74731D01*
X66767Y-74731D02*
X66498Y-74877D01*
X66498Y-74877D02*
X66205Y-74967D01*
X66205Y-74967D02*
X65900Y-74999D01*
X65900Y-74999D02*
X65596Y-74972D01*
X65596Y-74972D02*
X65302Y-74885D01*
X65302Y-74885D02*
X65031Y-74743D01*
X65031Y-74743D02*
X64792Y-74551D01*
X64792Y-74551D02*
X64595Y-74316D01*
X64595Y-74316D02*
X64447Y-74048D01*
X64447Y-74048D02*
X64355Y-73756D01*
X64355Y-73756D02*
X64321Y-73451D01*
X64321Y-73451D02*
X64346Y-73147D01*
X64346Y-73147D02*
X64431Y-72853D01*
X64431Y-72853D02*
X64571Y-72580D01*
X64571Y-72580D02*
X64761Y-72340D01*
X64761Y-72340D02*
X64994Y-72141D01*
X64994Y-72141D02*
X65262Y-71992D01*
X65262Y-71992D02*
X65553Y-71897D01*
X65553Y-71897D02*
X65858Y-71861D01*
X65858Y-71861D02*
X66162Y-71884D01*
X66162Y-71884D02*
X66457Y-71967D01*
X66457Y-71967D02*
X66731Y-72105D01*
X66731Y-72105D02*
X66972Y-72294D01*
X66972Y-72294D02*
X67172Y-72526D01*
X67172Y-72526D02*
X67324Y-72792D01*
X67324Y-72792D02*
X67420Y-73083D01*
X67420Y-73083D02*
X67459Y-73387D01*
X67459Y-73387D02*
X67460Y-73430D01*
X70040Y-49870D02*
X70010Y-50174D01*
X70010Y-50174D02*
X69921Y-50468D01*
X69921Y-50468D02*
X69777Y-50738D01*
X69777Y-50738D02*
X69584Y-50976D01*
X69584Y-50976D02*
X69347Y-51171D01*
X69347Y-51171D02*
X69078Y-51317D01*
X69078Y-51317D02*
X68785Y-51407D01*
X68785Y-51407D02*
X68480Y-51439D01*
X68480Y-51439D02*
X68176Y-51412D01*
X68176Y-51412D02*
X67882Y-51325D01*
X67882Y-51325D02*
X67611Y-51183D01*
X67611Y-51183D02*
X67372Y-50991D01*
X67372Y-50991D02*
X67175Y-50756D01*
X67175Y-50756D02*
X67027Y-50488D01*
X67027Y-50488D02*
X66935Y-50196D01*
X66935Y-50196D02*
X66901Y-49891D01*
X66901Y-49891D02*
X66926Y-49587D01*
X66926Y-49587D02*
X67011Y-49293D01*
X67011Y-49293D02*
X67151Y-49020D01*
X67151Y-49020D02*
X67341Y-48780D01*
X67341Y-48780D02*
X67574Y-48581D01*
X67574Y-48581D02*
X67842Y-48432D01*
X67842Y-48432D02*
X68133Y-48337D01*
X68133Y-48337D02*
X68438Y-48301D01*
X68438Y-48301D02*
X68742Y-48324D01*
X68742Y-48324D02*
X69037Y-48407D01*
X69037Y-48407D02*
X69311Y-48545D01*
X69311Y-48545D02*
X69552Y-48734D01*
X69552Y-48734D02*
X69752Y-48966D01*
X69752Y-48966D02*
X69904Y-49232D01*
X69904Y-49232D02*
X70000Y-49523D01*
X70000Y-49523D02*
X70039Y-49827D01*
X70039Y-49827D02*
X70040Y-49870D01*
X64650Y-53500D02*
X64650Y-52880D01*
X64650Y-52880D02*
X65270Y-52880D01*
X65270Y-52880D02*
X65270Y-53500D01*
X65270Y-53500D02*
X64650Y-53500D01*
X66270Y-53190D02*
X66264Y-53250D01*
X66264Y-53250D02*
X66246Y-53308D01*
X66246Y-53308D02*
X66218Y-53361D01*
X66218Y-53361D02*
X66179Y-53408D01*
X66179Y-53408D02*
X66133Y-53447D01*
X66133Y-53447D02*
X66080Y-53475D01*
X66080Y-53475D02*
X66022Y-53493D01*
X66022Y-53493D02*
X65962Y-53499D01*
X65962Y-53499D02*
X65902Y-53494D01*
X65902Y-53494D02*
X65844Y-53477D01*
X65844Y-53477D02*
X65791Y-53449D01*
X65791Y-53449D02*
X65744Y-53411D01*
X65744Y-53411D02*
X65705Y-53365D01*
X65705Y-53365D02*
X65676Y-53312D01*
X65676Y-53312D02*
X65657Y-53254D01*
X65657Y-53254D02*
X65651Y-53194D01*
X65651Y-53194D02*
X65656Y-53135D01*
X65656Y-53135D02*
X65672Y-53076D01*
X65672Y-53076D02*
X65700Y-53023D01*
X65700Y-53023D02*
X65738Y-52975D01*
X65738Y-52975D02*
X65784Y-52936D01*
X65784Y-52936D02*
X65836Y-52906D01*
X65836Y-52906D02*
X65894Y-52888D01*
X65894Y-52888D02*
X65954Y-52881D01*
X65954Y-52881D02*
X66013Y-52885D01*
X66013Y-52885D02*
X66072Y-52901D01*
X66072Y-52901D02*
X66126Y-52929D01*
X66126Y-52929D02*
X66173Y-52966D01*
X66173Y-52966D02*
X66213Y-53012D01*
X66213Y-53012D02*
X66243Y-53064D01*
X66243Y-53064D02*
X66262Y-53122D01*
X66262Y-53122D02*
X66269Y-53182D01*
X66269Y-53182D02*
X66270Y-53190D01*
X83740Y-44210D02*
X84360Y-44210D01*
X84360Y-44210D02*
X84360Y-44830D01*
X84360Y-44830D02*
X83740Y-44830D01*
X83740Y-44830D02*
X83740Y-44210D01*
X84360Y-45520D02*
X84354Y-45580D01*
X84354Y-45580D02*
X84336Y-45638D01*
X84336Y-45638D02*
X84308Y-45691D01*
X84308Y-45691D02*
X84269Y-45738D01*
X84269Y-45738D02*
X84223Y-45777D01*
X84223Y-45777D02*
X84170Y-45805D01*
X84170Y-45805D02*
X84112Y-45823D01*
X84112Y-45823D02*
X84052Y-45829D01*
X84052Y-45829D02*
X83992Y-45824D01*
X83992Y-45824D02*
X83934Y-45807D01*
X83934Y-45807D02*
X83881Y-45779D01*
X83881Y-45779D02*
X83834Y-45741D01*
X83834Y-45741D02*
X83795Y-45695D01*
X83795Y-45695D02*
X83766Y-45642D01*
X83766Y-45642D02*
X83747Y-45584D01*
X83747Y-45584D02*
X83741Y-45524D01*
X83741Y-45524D02*
X83746Y-45465D01*
X83746Y-45465D02*
X83762Y-45406D01*
X83762Y-45406D02*
X83790Y-45353D01*
X83790Y-45353D02*
X83828Y-45305D01*
X83828Y-45305D02*
X83874Y-45266D01*
X83874Y-45266D02*
X83926Y-45236D01*
X83926Y-45236D02*
X83984Y-45218D01*
X83984Y-45218D02*
X84044Y-45211D01*
X84044Y-45211D02*
X84103Y-45215D01*
X84103Y-45215D02*
X84162Y-45231D01*
X84162Y-45231D02*
X84216Y-45259D01*
X84216Y-45259D02*
X84263Y-45296D01*
X84263Y-45296D02*
X84303Y-45342D01*
X84303Y-45342D02*
X84333Y-45394D01*
X84333Y-45394D02*
X84352Y-45452D01*
X84352Y-45452D02*
X84359Y-45512D01*
X84359Y-45512D02*
X84360Y-45520D01*
M02*
