M48
;DRILL file {PCBnew (20090216-final)} date mar 05 oct 2010 18:29:33 COT
;FORMAT={2:3/ absolute / metric / suppress leading zeros}
R,T
VER,1
FMAT,2
METRIC,TZ
;TCST,OFF
ICI,OFF
ATC,ON
T1C0.419
T2C0.813
T3C0.864
T4C1.067
T5C2.997
%
M47
G05
M71
T1
X15240Y64135
X19304Y45212
X23876Y13716
X24892Y41656
X27432Y18288
X30480Y29464
X32004Y24511
X32004Y41148
X34544Y28448
X37465Y35814
X37465Y40894
X38735Y57023
X40132Y13716
X40640Y24892
X43180Y14224
X45720Y14732
X46228Y83312
X46736Y21336
X49657Y17780
X51054Y74041
X51308Y80264
X51943Y21844
X53467Y10033
X54229Y25019
X54864Y12700
X56769Y24765
X57404Y52832
X59436Y23876
X60452Y54864
X61468Y35052
X62484Y52832
X62865Y21336
X64008Y14732
X64516Y68072
X65786Y21463
X66802Y33274
X67564Y56896
X68834Y13970
X69596Y82296
X72136Y12700
X72644Y32512
X73152Y22352
X75184Y12700
X75692Y59436
X75819Y23749
X76708Y27940
X77978Y12827
X78232Y31115
X79756Y72136
X80137Y33528
X80264Y35052
X81788Y22352
X83820Y14732
X84455Y28956
X84709Y23749
X85725Y69850
X85852Y35560
X86868Y15240
X90424Y73914
X90551Y25908
X92456Y11176
X92583Y12573
X97028Y52324
X98044Y48768
X98552Y13081
X99060Y33782
X99822Y14351
X100076Y37592
X100838Y23622
X102108Y20955
X103505Y71501
X103632Y50800
X103759Y17907
X105029Y19558
X105156Y63500
X105283Y13081
X109220Y24892
X109220Y29972
X109220Y32512
X109220Y35560
X109220Y39116
X109220Y42672
X109220Y48768
X109220Y57912
X109220Y63500
X109728Y22352
X111379Y17907
X111633Y21463
X112014Y19939
X114808Y16256
X115316Y67564
X116967Y27940
X117094Y51943
X117856Y30226
X118237Y38227
T2
X36619Y18522
X39159Y18522
X41699Y18522
X44239Y18522
X46779Y18522
X49319Y18522
X51859Y18522
X54399Y18522
X56939Y18522
X59479Y18522
X62019Y18522
X64559Y18522
X67099Y18522
X69639Y18522
X72179Y18522
X74719Y18522
T3
X113022Y25375
X113022Y27381
X113022Y29362
X113022Y31369
X113022Y33376
X113022Y35382
X113022Y37363
X113022Y39370
X113022Y41377
X113022Y43383
X113022Y45364
X113022Y47371
X113022Y49378
X113022Y51384
X113022Y53365
X113022Y55372
X113022Y57379
X113022Y59385
X113022Y61366
X113022Y63373
X115029Y25375
X115029Y27381
X115029Y29362
X115029Y31369
X115029Y33376
X115029Y35382
X115029Y37363
X115029Y39370
X115029Y41377
X115029Y43383
X115029Y45364
X115029Y47371
X115029Y49378
X115029Y51384
X115029Y53365
X115029Y55372
X115029Y57379
X115029Y59385
X115029Y61366
X115029Y63373
T4
X41674Y5997
X41943Y91831
X46068Y5997
X46337Y91831
X86330Y90157
X88870Y90157
X101603Y90000
X104143Y90000
T5
X5077Y93000
X32822Y4854
X32822Y77244
X113467Y4854
X113467Y77244
T2
X5900Y29858G85X5900Y30036
G05
X5900Y34811G85X5900Y34989
G05
X6203Y4958G85X6203Y5136
G05
X6203Y9911G85X6203Y10089
G05
X6701Y53358G85X6701Y53536
G05
X6701Y58311G85X6701Y58489
G05
X7102Y76556G85X7102Y76733
G05
X7102Y81509G85X7102Y81686
G05
X17788Y29858G85X17788Y30036
G05
X17788Y34811G85X17788Y34989
G05
X18090Y4958G85X18090Y5136
G05
X18090Y9911G85X18090Y10089
G05
X18588Y53358G85X18588Y53536
G05
X18588Y58311G85X18588Y58489
G05
X18989Y76556G85X18989Y76733
G05
X18989Y81509G85X18989Y81686
G05
X60041Y94399G85X59863Y94399
G05
X63216Y94399G85X63038Y94399
G05
X66391Y94399G85X66213Y94399
G05
T0
M30
