M48
;DRILL file {PCBnew (20090216-final)} date vie 24 sep 2010 19:05:15 COT
;FORMAT={2:4/ absolute / inch / suppress leading zeros}
R,T
VER,1
FMAT,2
INCH,TZ
TCST,OFF
ICI,OFF
ATC,ON
T1C0.034
T2C0.035
T3C0.042
T4C0.087
T5C0.118
%
M47
G05
M72
T1
X69250Y36300
X69250Y37350
X70250Y36300
X70250Y37350
X71250Y36320
X71250Y37370
X72250Y36300
X72250Y37350
X82800Y44850
X82800Y45640
X82800Y46420
X82800Y47210
X82800Y48000
X82800Y48790
X82800Y49570
X82800Y50360
X82800Y51150
X82800Y51940
X82800Y52720
X82800Y53510
X82800Y54300
X82800Y55090
X82800Y55870
X82800Y56660
X82800Y57450
X82800Y58240
X82800Y59020
X82800Y59810
X83590Y44850
X83590Y45640
X83590Y46420
X83590Y47210
X83590Y48000
X83590Y48790
X83590Y49570
X83590Y50360
X83590Y51150
X83590Y51940
X83590Y52720
X83590Y53510
X83590Y54300
X83590Y55090
X83590Y55870
X83590Y56660
X83590Y57450
X83590Y58240
X83590Y59020
X83590Y59810
T2
X56862Y62470
X56862Y63454
X57689Y63454
X58711Y63454
X59538Y62470
X59538Y63454
X65262Y62570
X65262Y63554
X66089Y63554
X67111Y63554
X67938Y62570
X67938Y63554
T3
X73400Y36350
X73400Y37350
T4
X58200Y64950
X66600Y65050
T5
X51190Y37000
X51190Y65000
X82790Y37000
X82790Y65000
T0
M30
