G04 (created by PCBNEW-RS274X (2011-03-30 BZR 2932)-stable) date 11/06/2011 13:06:09*
G01*
G70*
G90*
%MOIN*%
G04 Gerber Fmt 3.4, Leading zero omitted, Abs format*
%FSLAX34Y34*%
G04 APERTURE LIST*
%ADD10C,0.006000*%
%ADD11C,0.007900*%
%ADD12C,0.012000*%
%ADD13C,0.008000*%
%ADD14C,0.007000*%
%ADD15C,0.010000*%
%ADD16C,0.001000*%
%ADD17C,0.003900*%
%ADD18C,0.002400*%
%ADD19C,0.002000*%
%ADD20C,0.003100*%
G04 APERTURE END LIST*
G54D10*
G54D11*
X90495Y-45770D02*
X90495Y-45870D01*
X90495Y-46365D02*
X90495Y-46275D01*
X65910Y-56355D02*
X65910Y-56450D01*
X65925Y-56935D02*
X65925Y-56860D01*
X79275Y-51030D02*
X79275Y-50935D01*
X79280Y-50370D02*
X79280Y-50465D01*
X95670Y-75280D02*
X64280Y-75280D01*
X64310Y-43210D02*
X95670Y-43240D01*
X81518Y-69047D02*
X81518Y-69366D01*
X81518Y-69366D02*
X81742Y-69220D01*
X81742Y-69220D02*
X81526Y-69035D01*
X81860Y-68090D02*
X83900Y-68090D01*
X83900Y-68090D02*
X83900Y-69350D01*
X83900Y-69350D02*
X81860Y-69350D01*
X81860Y-69350D02*
X81860Y-68090D01*
X83660Y-68050D02*
X82100Y-68050D01*
X82100Y-68050D02*
X82100Y-69400D01*
X82100Y-69400D02*
X83660Y-69400D01*
X83660Y-69400D02*
X83670Y-68050D01*
G54D12*
X79430Y-45980D02*
X83430Y-45980D01*
X83430Y-45980D02*
X83430Y-43980D01*
X83430Y-43980D02*
X79430Y-43980D01*
X79430Y-43980D02*
X79430Y-45980D01*
G54D13*
X83609Y-46100D02*
X84559Y-46100D01*
X84559Y-46100D02*
X84559Y-43850D01*
X84559Y-43850D02*
X83609Y-43850D01*
X83609Y-43850D02*
X83609Y-46100D01*
G54D12*
X63402Y-71201D02*
X63402Y-51201D01*
X61402Y-71201D02*
X61402Y-51201D01*
X61402Y-71201D02*
X63402Y-71201D01*
X61402Y-51201D02*
X63402Y-51201D01*
G54D10*
X84750Y-72580D02*
X84750Y-71930D01*
X84750Y-71930D02*
X84750Y-71930D01*
X84750Y-71930D02*
X85900Y-71930D01*
X85900Y-71930D02*
X85900Y-72580D01*
X85900Y-72580D02*
X84750Y-72580D01*
X89300Y-72580D02*
X89300Y-71930D01*
X89300Y-71930D02*
X89300Y-71930D01*
X89300Y-71930D02*
X90450Y-71930D01*
X90450Y-71930D02*
X90450Y-72580D01*
X90450Y-72580D02*
X89300Y-72580D01*
X90368Y-46530D02*
X90368Y-46480D01*
X90368Y-46480D02*
X90968Y-46480D01*
X90968Y-46480D02*
X90968Y-46530D01*
X90368Y-47030D02*
X90368Y-47080D01*
X90368Y-47080D02*
X90968Y-47080D01*
X90968Y-47080D02*
X90968Y-47030D01*
X66050Y-57100D02*
X66050Y-57050D01*
X66050Y-57050D02*
X66650Y-57050D01*
X66650Y-57050D02*
X66650Y-57100D01*
X66050Y-57600D02*
X66050Y-57650D01*
X66050Y-57650D02*
X66650Y-57650D01*
X66650Y-57650D02*
X66650Y-57600D01*
X89712Y-46317D02*
X89712Y-46367D01*
X89712Y-46367D02*
X90312Y-46367D01*
X90312Y-46367D02*
X90312Y-46317D01*
X89712Y-45817D02*
X89712Y-45767D01*
X89712Y-45767D02*
X90312Y-45767D01*
X90312Y-45767D02*
X90312Y-45817D01*
X66650Y-56400D02*
X66650Y-56350D01*
X66650Y-56350D02*
X66050Y-56350D01*
X66050Y-56350D02*
X66050Y-56400D01*
X66650Y-56900D02*
X66650Y-56950D01*
X66650Y-56950D02*
X66050Y-56950D01*
X66050Y-56950D02*
X66050Y-56900D01*
X69794Y-57060D02*
X69144Y-57060D01*
X69144Y-57060D02*
X69144Y-57060D01*
X69144Y-57060D02*
X69144Y-55910D01*
X69144Y-55910D02*
X69794Y-55910D01*
X69794Y-55910D02*
X69794Y-57060D01*
X74660Y-55720D02*
X74660Y-56370D01*
X74660Y-56370D02*
X74660Y-56370D01*
X74660Y-56370D02*
X73510Y-56370D01*
X73510Y-56370D02*
X73510Y-55720D01*
X73510Y-55720D02*
X74660Y-55720D01*
X72110Y-55520D02*
X71460Y-55520D01*
X71460Y-55520D02*
X71460Y-55520D01*
X71460Y-55520D02*
X71460Y-54370D01*
X71460Y-54370D02*
X72110Y-54370D01*
X72110Y-54370D02*
X72110Y-55520D01*
X71450Y-53150D02*
X72100Y-53150D01*
X72100Y-53150D02*
X72100Y-53150D01*
X72100Y-53150D02*
X72100Y-54300D01*
X72100Y-54300D02*
X71450Y-54300D01*
X71450Y-54300D02*
X71450Y-53150D01*
X76350Y-54740D02*
X75700Y-54740D01*
X75700Y-54740D02*
X75700Y-54740D01*
X75700Y-54740D02*
X75700Y-53590D01*
X75700Y-53590D02*
X76350Y-53590D01*
X76350Y-53590D02*
X76350Y-54740D01*
X75700Y-56000D02*
X76350Y-56000D01*
X76350Y-56000D02*
X76350Y-56000D01*
X76350Y-56000D02*
X76350Y-57150D01*
X76350Y-57150D02*
X75700Y-57150D01*
X75700Y-57150D02*
X75700Y-56000D01*
X75030Y-55370D02*
X74380Y-55370D01*
X74380Y-55370D02*
X74380Y-55370D01*
X74380Y-55370D02*
X74380Y-54220D01*
X74380Y-54220D02*
X75030Y-54220D01*
X75030Y-54220D02*
X75030Y-55370D01*
X74200Y-55370D02*
X73550Y-55370D01*
X73550Y-55370D02*
X73550Y-55370D01*
X73550Y-55370D02*
X73550Y-54220D01*
X73550Y-54220D02*
X74200Y-54220D01*
X74200Y-54220D02*
X74200Y-55370D01*
X70770Y-54850D02*
X69870Y-54850D01*
X69870Y-54850D02*
X69870Y-54850D01*
X69870Y-54850D02*
X69870Y-57050D01*
X69870Y-57050D02*
X70770Y-57050D01*
X70770Y-57050D02*
X70770Y-54850D01*
X66660Y-71277D02*
X66660Y-71927D01*
X66660Y-71927D02*
X66660Y-71927D01*
X66660Y-71927D02*
X65510Y-71927D01*
X65510Y-71927D02*
X65510Y-71277D01*
X65510Y-71277D02*
X66660Y-71277D01*
X65330Y-69467D02*
X65330Y-70367D01*
X65330Y-70367D02*
X65330Y-70367D01*
X65330Y-70367D02*
X67530Y-70367D01*
X67530Y-70367D02*
X67530Y-69467D01*
X67530Y-69467D02*
X65330Y-69467D01*
X66660Y-70557D02*
X66660Y-71207D01*
X66660Y-71207D02*
X66660Y-71207D01*
X66660Y-71207D02*
X65510Y-71207D01*
X65510Y-71207D02*
X65510Y-70557D01*
X65510Y-70557D02*
X66660Y-70557D01*
X69380Y-64480D02*
X70030Y-64480D01*
X70030Y-64480D02*
X70030Y-64480D01*
X70030Y-64480D02*
X70030Y-65630D01*
X70030Y-65630D02*
X69380Y-65630D01*
X69380Y-65630D02*
X69380Y-64480D01*
X69350Y-69187D02*
X68450Y-69187D01*
X68450Y-69187D02*
X68450Y-69187D01*
X68450Y-69187D02*
X68450Y-71387D01*
X68450Y-71387D02*
X69350Y-71387D01*
X69350Y-71387D02*
X69350Y-69187D01*
X75500Y-64410D02*
X75500Y-65310D01*
X75500Y-65310D02*
X75500Y-65310D01*
X75500Y-65310D02*
X77700Y-65310D01*
X77700Y-65310D02*
X77700Y-64410D01*
X77700Y-64410D02*
X75500Y-64410D01*
X67590Y-55480D02*
X67590Y-54830D01*
X67590Y-54830D02*
X67590Y-54830D01*
X67590Y-54830D02*
X68740Y-54830D01*
X68740Y-54830D02*
X68740Y-55480D01*
X68740Y-55480D02*
X67590Y-55480D01*
X73500Y-65840D02*
X72850Y-65840D01*
X72850Y-65840D02*
X72850Y-65840D01*
X72850Y-65840D02*
X72850Y-64690D01*
X72850Y-64690D02*
X73500Y-64690D01*
X73500Y-64690D02*
X73500Y-65840D01*
X74990Y-54800D02*
X75640Y-54800D01*
X75640Y-54800D02*
X75640Y-54800D01*
X75640Y-54800D02*
X75640Y-55950D01*
X75640Y-55950D02*
X74990Y-55950D01*
X74990Y-55950D02*
X74990Y-54800D01*
X77330Y-73320D02*
X77330Y-73970D01*
X77330Y-73970D02*
X77330Y-73970D01*
X77330Y-73970D02*
X76180Y-73970D01*
X76180Y-73970D02*
X76180Y-73320D01*
X76180Y-73320D02*
X77330Y-73320D01*
X75430Y-73330D02*
X75430Y-73980D01*
X75430Y-73980D02*
X75430Y-73980D01*
X75430Y-73980D02*
X74280Y-73980D01*
X74280Y-73980D02*
X74280Y-73330D01*
X74280Y-73330D02*
X75430Y-73330D01*
X70080Y-70320D02*
X69430Y-70320D01*
X69430Y-70320D02*
X69430Y-70320D01*
X69430Y-70320D02*
X69430Y-69170D01*
X69430Y-69170D02*
X70080Y-69170D01*
X70080Y-69170D02*
X70080Y-70320D01*
X75400Y-67230D02*
X74750Y-67230D01*
X74750Y-67230D02*
X74750Y-67230D01*
X74750Y-67230D02*
X74750Y-66080D01*
X74750Y-66080D02*
X75400Y-66080D01*
X75400Y-66080D02*
X75400Y-67230D01*
X76940Y-67280D02*
X76290Y-67280D01*
X76290Y-67280D02*
X76290Y-67280D01*
X76290Y-67280D02*
X76290Y-66130D01*
X76290Y-66130D02*
X76940Y-66130D01*
X76940Y-66130D02*
X76940Y-67280D01*
X78150Y-65920D02*
X78150Y-66570D01*
X78150Y-66570D02*
X78150Y-66570D01*
X78150Y-66570D02*
X77000Y-66570D01*
X77000Y-66570D02*
X77000Y-65920D01*
X77000Y-65920D02*
X78150Y-65920D01*
X78150Y-66620D02*
X78150Y-67270D01*
X78150Y-67270D02*
X78150Y-67270D01*
X78150Y-67270D02*
X77000Y-67270D01*
X77000Y-67270D02*
X77000Y-66620D01*
X77000Y-66620D02*
X78150Y-66620D01*
X83320Y-52750D02*
X83320Y-51850D01*
X83320Y-51850D02*
X83320Y-51850D01*
X83320Y-51850D02*
X81120Y-51850D01*
X81120Y-51850D02*
X81120Y-52750D01*
X81120Y-52750D02*
X83320Y-52750D01*
X82140Y-65360D02*
X82140Y-66010D01*
X82140Y-66010D02*
X82140Y-66010D01*
X82140Y-66010D02*
X80990Y-66010D01*
X80990Y-66010D02*
X80990Y-65360D01*
X80990Y-65360D02*
X82140Y-65360D01*
X81870Y-55970D02*
X81870Y-55320D01*
X81870Y-55320D02*
X81870Y-55320D01*
X81870Y-55320D02*
X83020Y-55320D01*
X83020Y-55320D02*
X83020Y-55970D01*
X83020Y-55970D02*
X81870Y-55970D01*
X75680Y-53040D02*
X75680Y-52390D01*
X75680Y-52390D02*
X75680Y-52390D01*
X75680Y-52390D02*
X76830Y-52390D01*
X76830Y-52390D02*
X76830Y-53040D01*
X76830Y-53040D02*
X75680Y-53040D01*
X91846Y-63183D02*
X91846Y-63233D01*
X91846Y-63233D02*
X92446Y-63233D01*
X92446Y-63233D02*
X92446Y-63183D01*
X91846Y-62683D02*
X91846Y-62633D01*
X91846Y-62633D02*
X92446Y-62633D01*
X92446Y-62633D02*
X92446Y-62683D01*
X89600Y-56580D02*
X89650Y-56580D01*
X89650Y-56580D02*
X89650Y-55980D01*
X89650Y-55980D02*
X89600Y-55980D01*
X89100Y-56580D02*
X89050Y-56580D01*
X89050Y-56580D02*
X89050Y-55980D01*
X89050Y-55980D02*
X89100Y-55980D01*
X82320Y-70130D02*
X82320Y-70080D01*
X82320Y-70080D02*
X81720Y-70080D01*
X81720Y-70080D02*
X81720Y-70130D01*
X82320Y-70630D02*
X82320Y-70680D01*
X82320Y-70680D02*
X81720Y-70680D01*
X81720Y-70680D02*
X81720Y-70630D01*
X81390Y-52820D02*
X81390Y-53470D01*
X81390Y-53470D02*
X81390Y-53470D01*
X81390Y-53470D02*
X80240Y-53470D01*
X80240Y-53470D02*
X80240Y-52820D01*
X80240Y-52820D02*
X81390Y-52820D01*
X84100Y-51260D02*
X83450Y-51260D01*
X83450Y-51260D02*
X83450Y-51260D01*
X83450Y-51260D02*
X83450Y-50110D01*
X83450Y-50110D02*
X84100Y-50110D01*
X84100Y-50110D02*
X84100Y-51260D01*
X82740Y-50650D02*
X83390Y-50650D01*
X83390Y-50650D02*
X83390Y-50650D01*
X83390Y-50650D02*
X83390Y-51800D01*
X83390Y-51800D02*
X82740Y-51800D01*
X82740Y-51800D02*
X82740Y-50650D01*
X83440Y-48890D02*
X84090Y-48890D01*
X84090Y-48890D02*
X84090Y-48890D01*
X84090Y-48890D02*
X84090Y-50040D01*
X84090Y-50040D02*
X83440Y-50040D01*
X83440Y-50040D02*
X83440Y-48890D01*
X82740Y-49440D02*
X83390Y-49440D01*
X83390Y-49440D02*
X83390Y-49440D01*
X83390Y-49440D02*
X83390Y-50590D01*
X83390Y-50590D02*
X82740Y-50590D01*
X82740Y-50590D02*
X82740Y-49440D01*
X89730Y-52500D02*
X89730Y-53150D01*
X89730Y-53150D02*
X89730Y-53150D01*
X89730Y-53150D02*
X88580Y-53150D01*
X88580Y-53150D02*
X88580Y-52500D01*
X88580Y-52500D02*
X89730Y-52500D01*
X85250Y-53570D02*
X85250Y-54220D01*
X85250Y-54220D02*
X85250Y-54220D01*
X85250Y-54220D02*
X84100Y-54220D01*
X84100Y-54220D02*
X84100Y-53570D01*
X84100Y-53570D02*
X85250Y-53570D01*
X85420Y-65560D02*
X85420Y-65510D01*
X85420Y-65510D02*
X84820Y-65510D01*
X84820Y-65510D02*
X84820Y-65560D01*
X85420Y-66060D02*
X85420Y-66110D01*
X85420Y-66110D02*
X84820Y-66110D01*
X84820Y-66110D02*
X84820Y-66060D01*
X86540Y-56240D02*
X86590Y-56240D01*
X86590Y-56240D02*
X86590Y-55640D01*
X86590Y-55640D02*
X86540Y-55640D01*
X86040Y-56240D02*
X85990Y-56240D01*
X85990Y-56240D02*
X85990Y-55640D01*
X85990Y-55640D02*
X86040Y-55640D01*
X91787Y-59305D02*
X91787Y-59355D01*
X91787Y-59355D02*
X92387Y-59355D01*
X92387Y-59355D02*
X92387Y-59305D01*
X91787Y-58805D02*
X91787Y-58755D01*
X91787Y-58755D02*
X92387Y-58755D01*
X92387Y-58755D02*
X92387Y-58805D01*
X89480Y-64857D02*
X89430Y-64857D01*
X89430Y-64857D02*
X89430Y-65457D01*
X89430Y-65457D02*
X89480Y-65457D01*
X89980Y-64857D02*
X90030Y-64857D01*
X90030Y-64857D02*
X90030Y-65457D01*
X90030Y-65457D02*
X89980Y-65457D01*
X90080Y-64857D02*
X90030Y-64857D01*
X90030Y-64857D02*
X90030Y-65457D01*
X90030Y-65457D02*
X90080Y-65457D01*
X90580Y-64857D02*
X90630Y-64857D01*
X90630Y-64857D02*
X90630Y-65457D01*
X90630Y-65457D02*
X90580Y-65457D01*
X85300Y-56500D02*
X85350Y-56500D01*
X85350Y-56500D02*
X85350Y-55900D01*
X85350Y-55900D02*
X85300Y-55900D01*
X84800Y-56500D02*
X84750Y-56500D01*
X84750Y-56500D02*
X84750Y-55900D01*
X84750Y-55900D02*
X84800Y-55900D01*
X90113Y-56687D02*
X90113Y-56737D01*
X90113Y-56737D02*
X90713Y-56737D01*
X90713Y-56737D02*
X90713Y-56687D01*
X90113Y-56187D02*
X90113Y-56137D01*
X90113Y-56137D02*
X90713Y-56137D01*
X90713Y-56137D02*
X90713Y-56187D01*
X91944Y-59974D02*
X91944Y-60024D01*
X91944Y-60024D02*
X92544Y-60024D01*
X92544Y-60024D02*
X92544Y-59974D01*
X91944Y-59474D02*
X91944Y-59424D01*
X91944Y-59424D02*
X92544Y-59424D01*
X92544Y-59424D02*
X92544Y-59474D01*
X88890Y-64857D02*
X88840Y-64857D01*
X88840Y-64857D02*
X88840Y-65457D01*
X88840Y-65457D02*
X88890Y-65457D01*
X89390Y-64857D02*
X89440Y-64857D01*
X89440Y-64857D02*
X89440Y-65457D01*
X89440Y-65457D02*
X89390Y-65457D01*
X85910Y-56490D02*
X85960Y-56490D01*
X85960Y-56490D02*
X85960Y-55890D01*
X85960Y-55890D02*
X85910Y-55890D01*
X85410Y-56490D02*
X85360Y-56490D01*
X85360Y-56490D02*
X85360Y-55890D01*
X85360Y-55890D02*
X85410Y-55890D01*
X90040Y-53150D02*
X90040Y-52500D01*
X90040Y-52500D02*
X90040Y-52500D01*
X90040Y-52500D02*
X91190Y-52500D01*
X91190Y-52500D02*
X91190Y-53150D01*
X91190Y-53150D02*
X90040Y-53150D01*
X92700Y-51330D02*
X92700Y-50680D01*
X92700Y-50680D02*
X92700Y-50680D01*
X92700Y-50680D02*
X93850Y-50680D01*
X93850Y-50680D02*
X93850Y-51330D01*
X93850Y-51330D02*
X92700Y-51330D01*
X70850Y-46310D02*
X70200Y-46310D01*
X70200Y-46310D02*
X70200Y-46310D01*
X70200Y-46310D02*
X70200Y-45160D01*
X70200Y-45160D02*
X70850Y-45160D01*
X70850Y-45160D02*
X70850Y-46310D01*
X85420Y-53400D02*
X85420Y-54300D01*
X85420Y-54300D02*
X85420Y-54300D01*
X85420Y-54300D02*
X87620Y-54300D01*
X87620Y-54300D02*
X87620Y-53400D01*
X87620Y-53400D02*
X85420Y-53400D01*
X92300Y-51170D02*
X92300Y-51820D01*
X92300Y-51820D02*
X92300Y-51820D01*
X92300Y-51820D02*
X91150Y-51820D01*
X91150Y-51820D02*
X91150Y-51170D01*
X91150Y-51170D02*
X92300Y-51170D01*
X90700Y-64847D02*
X90650Y-64847D01*
X90650Y-64847D02*
X90650Y-65447D01*
X90650Y-65447D02*
X90700Y-65447D01*
X91200Y-64847D02*
X91250Y-64847D01*
X91250Y-64847D02*
X91250Y-65447D01*
X91250Y-65447D02*
X91200Y-65447D01*
X78252Y-51026D02*
X78252Y-50376D01*
X78252Y-50376D02*
X78252Y-50376D01*
X78252Y-50376D02*
X79402Y-50376D01*
X79402Y-50376D02*
X79402Y-51026D01*
X79402Y-51026D02*
X78252Y-51026D01*
X91629Y-60978D02*
X91629Y-61028D01*
X91629Y-61028D02*
X92229Y-61028D01*
X92229Y-61028D02*
X92229Y-60978D01*
X91629Y-60478D02*
X91629Y-60428D01*
X91629Y-60428D02*
X92229Y-60428D01*
X92229Y-60428D02*
X92229Y-60478D01*
G54D14*
X78000Y-48270D02*
X78000Y-43410D01*
X78000Y-43410D02*
X77950Y-43360D01*
X77950Y-43360D02*
X71210Y-43360D01*
X71210Y-43360D02*
X71210Y-49070D01*
X71210Y-49070D02*
X72220Y-49070D01*
X72220Y-49070D02*
X72220Y-49300D01*
X72220Y-49300D02*
X77450Y-49300D01*
X77450Y-49300D02*
X77450Y-49090D01*
X77450Y-49090D02*
X78010Y-49090D01*
X78010Y-49090D02*
X78010Y-48240D01*
G54D15*
X69000Y-43730D02*
X69070Y-43730D01*
X69070Y-43730D02*
X69070Y-47330D01*
X69070Y-47330D02*
X64350Y-47330D01*
X64350Y-47330D02*
X64350Y-47330D01*
X64350Y-47330D02*
X64350Y-43730D01*
X64350Y-43730D02*
X69000Y-43730D01*
G54D13*
X67710Y-50900D02*
X67710Y-49740D01*
X67710Y-49740D02*
X67690Y-49740D01*
X67690Y-49740D02*
X65470Y-49730D01*
X65470Y-49730D02*
X65470Y-50900D01*
X65470Y-50900D02*
X67710Y-50900D01*
G54D15*
X88670Y-48150D02*
X85670Y-48150D01*
X85670Y-48150D02*
X85670Y-43150D01*
X85670Y-43150D02*
X88670Y-43150D01*
X88670Y-43150D02*
X88670Y-48150D01*
G54D10*
X75070Y-52560D02*
X75070Y-54160D01*
X75070Y-54160D02*
X75070Y-54160D01*
X75070Y-54160D02*
X74320Y-54160D01*
X74320Y-54160D02*
X74320Y-52560D01*
X74320Y-52560D02*
X75070Y-52560D01*
X74260Y-52560D02*
X74260Y-54160D01*
X74260Y-54160D02*
X74260Y-54160D01*
X74260Y-54160D02*
X73510Y-54160D01*
X73510Y-54160D02*
X73510Y-52560D01*
X73510Y-52560D02*
X74260Y-52560D01*
X69140Y-54020D02*
X70740Y-54020D01*
X70740Y-54020D02*
X70740Y-54020D01*
X70740Y-54020D02*
X70740Y-54770D01*
X70740Y-54770D02*
X69140Y-54770D01*
X69140Y-54770D02*
X69140Y-54020D01*
X67600Y-70617D02*
X67600Y-72217D01*
X67600Y-72217D02*
X67600Y-72217D01*
X67600Y-72217D02*
X66850Y-72217D01*
X66850Y-72217D02*
X66850Y-70617D01*
X66850Y-70617D02*
X67600Y-70617D01*
X67640Y-71047D02*
X67640Y-69447D01*
X67640Y-69447D02*
X67640Y-69447D01*
X67640Y-69447D02*
X68390Y-69447D01*
X68390Y-69447D02*
X68390Y-71047D01*
X68390Y-71047D02*
X67640Y-71047D01*
X76710Y-64390D02*
X75110Y-64390D01*
X75110Y-64390D02*
X75110Y-64390D01*
X75110Y-64390D02*
X75110Y-63640D01*
X75110Y-63640D02*
X76710Y-63640D01*
X76710Y-63640D02*
X76710Y-64390D01*
X71020Y-48030D02*
X69420Y-48030D01*
X69420Y-48030D02*
X69420Y-48030D01*
X69420Y-48030D02*
X69420Y-47280D01*
X69420Y-47280D02*
X71020Y-47280D01*
X71020Y-47280D02*
X71020Y-48030D01*
X69230Y-46960D02*
X69230Y-45360D01*
X69230Y-45360D02*
X69230Y-45360D01*
X69230Y-45360D02*
X69980Y-45360D01*
X69980Y-45360D02*
X69980Y-46960D01*
X69980Y-46960D02*
X69230Y-46960D01*
X71450Y-55590D02*
X72100Y-55590D01*
X72100Y-55590D02*
X72100Y-55590D01*
X72100Y-55590D02*
X72100Y-56740D01*
X72100Y-56740D02*
X71450Y-56740D01*
X71450Y-56740D02*
X71450Y-55590D01*
X73270Y-57050D02*
X73270Y-56400D01*
X73270Y-56400D02*
X73270Y-56400D01*
X73270Y-56400D02*
X74420Y-56400D01*
X74420Y-56400D02*
X74420Y-57050D01*
X74420Y-57050D02*
X73270Y-57050D01*
X72150Y-52440D02*
X72150Y-53090D01*
X72150Y-53090D02*
X72150Y-53090D01*
X72150Y-53090D02*
X71000Y-53090D01*
X71000Y-53090D02*
X71000Y-52440D01*
X71000Y-52440D02*
X72150Y-52440D01*
X74990Y-56000D02*
X75640Y-56000D01*
X75640Y-56000D02*
X75640Y-56000D01*
X75640Y-56000D02*
X75640Y-57150D01*
X75640Y-57150D02*
X74990Y-57150D01*
X74990Y-57150D02*
X74990Y-56000D01*
X76350Y-55950D02*
X75700Y-55950D01*
X75700Y-55950D02*
X75700Y-55950D01*
X75700Y-55950D02*
X75700Y-54800D01*
X75700Y-54800D02*
X76350Y-54800D01*
X76350Y-54800D02*
X76350Y-55950D01*
X68180Y-55540D02*
X68830Y-55540D01*
X68830Y-55540D02*
X68830Y-55540D01*
X68830Y-55540D02*
X68830Y-56690D01*
X68830Y-56690D02*
X68180Y-56690D01*
X68180Y-56690D02*
X68180Y-55540D01*
X67460Y-55550D02*
X68110Y-55550D01*
X68110Y-55550D02*
X68110Y-55550D01*
X68110Y-55550D02*
X68110Y-56700D01*
X68110Y-56700D02*
X67460Y-56700D01*
X67460Y-56700D02*
X67460Y-55550D01*
X81510Y-56680D02*
X81510Y-56030D01*
X81510Y-56030D02*
X81510Y-56030D01*
X81510Y-56030D02*
X82660Y-56030D01*
X82660Y-56030D02*
X82660Y-56680D01*
X82660Y-56680D02*
X81510Y-56680D01*
X72640Y-66710D02*
X72640Y-66060D01*
X72640Y-66060D02*
X72640Y-66060D01*
X72640Y-66060D02*
X73790Y-66060D01*
X73790Y-66060D02*
X73790Y-66710D01*
X73790Y-66710D02*
X72640Y-66710D01*
X76590Y-51920D02*
X75940Y-51920D01*
X75940Y-51920D02*
X75940Y-51920D01*
X75940Y-51920D02*
X75940Y-50770D01*
X75940Y-50770D02*
X76590Y-50770D01*
X76590Y-50770D02*
X76590Y-51920D01*
X74870Y-51910D02*
X74220Y-51910D01*
X74220Y-51910D02*
X74220Y-51910D01*
X74220Y-51910D02*
X74220Y-50760D01*
X74220Y-50760D02*
X74870Y-50760D01*
X74870Y-50760D02*
X74870Y-51910D01*
X75730Y-51920D02*
X75080Y-51920D01*
X75080Y-51920D02*
X75080Y-51920D01*
X75080Y-51920D02*
X75080Y-50770D01*
X75080Y-50770D02*
X75730Y-50770D01*
X75730Y-50770D02*
X75730Y-51920D01*
X78040Y-51920D02*
X77390Y-51920D01*
X77390Y-51920D02*
X77390Y-51920D01*
X77390Y-51920D02*
X77390Y-50770D01*
X77390Y-50770D02*
X78040Y-50770D01*
X78040Y-50770D02*
X78040Y-51920D01*
X77390Y-51920D02*
X76740Y-51920D01*
X76740Y-51920D02*
X76740Y-51920D01*
X76740Y-51920D02*
X76740Y-50770D01*
X76740Y-50770D02*
X77390Y-50770D01*
X77390Y-50770D02*
X77390Y-51920D01*
X85010Y-64360D02*
X85060Y-64360D01*
X85060Y-64360D02*
X85060Y-63760D01*
X85060Y-63760D02*
X85010Y-63760D01*
X84510Y-64360D02*
X84460Y-64360D01*
X84460Y-64360D02*
X84460Y-63760D01*
X84460Y-63760D02*
X84510Y-63760D01*
X83600Y-55580D02*
X83550Y-55580D01*
X83550Y-55580D02*
X83550Y-56180D01*
X83550Y-56180D02*
X83600Y-56180D01*
X84100Y-55580D02*
X84150Y-55580D01*
X84150Y-55580D02*
X84150Y-56180D01*
X84150Y-56180D02*
X84100Y-56180D01*
X84180Y-56610D02*
X84130Y-56610D01*
X84130Y-56610D02*
X84130Y-57210D01*
X84130Y-57210D02*
X84180Y-57210D01*
X84680Y-56610D02*
X84730Y-56610D01*
X84730Y-56610D02*
X84730Y-57210D01*
X84730Y-57210D02*
X84680Y-57210D01*
X84200Y-55300D02*
X84150Y-55300D01*
X84150Y-55300D02*
X84150Y-55900D01*
X84150Y-55900D02*
X84200Y-55900D01*
X84700Y-55300D02*
X84750Y-55300D01*
X84750Y-55300D02*
X84750Y-55900D01*
X84750Y-55900D02*
X84700Y-55900D01*
X74220Y-51910D02*
X73570Y-51910D01*
X73570Y-51910D02*
X73570Y-51910D01*
X73570Y-51910D02*
X73570Y-50760D01*
X73570Y-50760D02*
X74220Y-50760D01*
X74220Y-50760D02*
X74220Y-51910D01*
X73570Y-51920D02*
X72920Y-51920D01*
X72920Y-51920D02*
X72920Y-51920D01*
X72920Y-51920D02*
X72920Y-50770D01*
X72920Y-50770D02*
X73570Y-50770D01*
X73570Y-50770D02*
X73570Y-51920D01*
X92644Y-61324D02*
X92594Y-61324D01*
X92594Y-61324D02*
X92594Y-60724D01*
X92594Y-60724D02*
X92644Y-60724D01*
X93144Y-61324D02*
X93194Y-61324D01*
X93194Y-61324D02*
X93194Y-60724D01*
X93194Y-60724D02*
X93144Y-60724D01*
X83440Y-47680D02*
X84090Y-47680D01*
X84090Y-47680D02*
X84090Y-47680D01*
X84090Y-47680D02*
X84090Y-48830D01*
X84090Y-48830D02*
X83440Y-48830D01*
X83440Y-48830D02*
X83440Y-47680D01*
X79610Y-52040D02*
X79610Y-52690D01*
X79610Y-52690D02*
X79610Y-52690D01*
X79610Y-52690D02*
X78460Y-52690D01*
X78460Y-52690D02*
X78460Y-52040D01*
X78460Y-52040D02*
X79610Y-52040D01*
X78250Y-49580D02*
X78250Y-48930D01*
X78250Y-48930D02*
X78250Y-48930D01*
X78250Y-48930D02*
X79400Y-48930D01*
X79400Y-48930D02*
X79400Y-49580D01*
X79400Y-49580D02*
X78250Y-49580D01*
X79410Y-49630D02*
X79410Y-50280D01*
X79410Y-50280D02*
X79410Y-50280D01*
X79410Y-50280D02*
X78260Y-50280D01*
X78260Y-50280D02*
X78260Y-49630D01*
X78260Y-49630D02*
X79410Y-49630D01*
G54D15*
X69480Y-62980D02*
X69900Y-63400D01*
X69900Y-63400D02*
X74510Y-63400D01*
X74510Y-63400D02*
X74510Y-58340D01*
X74510Y-58340D02*
X69530Y-58340D01*
X69530Y-58340D02*
X69490Y-58390D01*
X69490Y-58390D02*
X69490Y-62970D01*
G54D10*
X78830Y-68100D02*
X79030Y-68300D01*
X79030Y-68300D02*
X79030Y-67900D01*
X79030Y-67900D02*
X78830Y-68100D01*
X78910Y-68510D02*
X78910Y-70260D01*
X78910Y-70260D02*
X78640Y-70260D01*
X78640Y-70260D02*
X78640Y-70660D01*
X78640Y-70660D02*
X78910Y-70660D01*
X78910Y-70660D02*
X78910Y-72410D01*
X78910Y-72410D02*
X70180Y-72410D01*
X70180Y-72410D02*
X70180Y-68510D01*
X70180Y-68510D02*
X78910Y-68510D01*
X83830Y-56630D02*
X84030Y-56430D01*
X84030Y-56430D02*
X83630Y-56430D01*
X83630Y-56430D02*
X83830Y-56630D01*
X83980Y-57550D02*
X79180Y-57550D01*
X79180Y-57550D02*
X79180Y-64400D01*
X79180Y-64400D02*
X83980Y-64400D01*
X83980Y-64400D02*
X83980Y-57550D01*
G54D13*
X82280Y-51580D02*
X82080Y-51780D01*
X82080Y-51780D02*
X82480Y-51780D01*
X82480Y-51780D02*
X82280Y-51580D01*
G54D10*
X81686Y-51340D02*
X81684Y-51354D01*
X81680Y-51368D01*
X81673Y-51382D01*
X81663Y-51393D01*
X81652Y-51403D01*
X81639Y-51410D01*
X81625Y-51414D01*
X81610Y-51415D01*
X81596Y-51414D01*
X81582Y-51410D01*
X81569Y-51403D01*
X81557Y-51394D01*
X81548Y-51382D01*
X81541Y-51369D01*
X81536Y-51355D01*
X81535Y-51341D01*
X81536Y-51327D01*
X81540Y-51313D01*
X81547Y-51299D01*
X81556Y-51288D01*
X81567Y-51278D01*
X81580Y-51271D01*
X81594Y-51266D01*
X81609Y-51265D01*
X81623Y-51266D01*
X81637Y-51270D01*
X81650Y-51276D01*
X81662Y-51285D01*
X81672Y-51297D01*
X81679Y-51310D01*
X81684Y-51324D01*
X81685Y-51338D01*
X81686Y-51340D01*
X81790Y-51510D02*
X81790Y-48950D01*
X81790Y-48950D02*
X80260Y-48950D01*
X80260Y-48950D02*
X80260Y-51510D01*
X80260Y-51510D02*
X80880Y-51510D01*
X80880Y-51510D02*
X80880Y-51330D01*
X80880Y-51330D02*
X81180Y-51330D01*
X81180Y-51330D02*
X81180Y-51510D01*
X81180Y-51510D02*
X81790Y-51510D01*
X90290Y-49890D02*
X90750Y-49890D01*
X90750Y-49890D02*
X90750Y-51350D01*
X88570Y-49890D02*
X88110Y-49890D01*
X88110Y-49890D02*
X88110Y-51350D01*
X86930Y-50740D02*
X87390Y-50740D01*
X87390Y-50740D02*
X87390Y-52200D01*
X84750Y-52200D02*
X84750Y-50740D01*
X84750Y-50740D02*
X85210Y-50740D01*
G54D13*
X85410Y-64230D02*
X85610Y-64430D01*
X85610Y-64430D02*
X85210Y-64430D01*
X85210Y-64430D02*
X85410Y-64230D01*
X85360Y-63330D02*
X90410Y-63330D01*
X90410Y-63330D02*
X90410Y-58030D01*
X90410Y-58030D02*
X85110Y-58030D01*
X85110Y-58030D02*
X85110Y-63080D01*
X85110Y-63080D02*
X85360Y-63330D01*
X85511Y-63050D02*
X85508Y-63071D01*
X85502Y-63092D01*
X85492Y-63111D01*
X85478Y-63128D01*
X85462Y-63142D01*
X85443Y-63152D01*
X85422Y-63158D01*
X85400Y-63160D01*
X85380Y-63159D01*
X85359Y-63152D01*
X85340Y-63142D01*
X85323Y-63129D01*
X85309Y-63112D01*
X85298Y-63093D01*
X85292Y-63073D01*
X85290Y-63051D01*
X85291Y-63030D01*
X85297Y-63010D01*
X85307Y-62990D01*
X85321Y-62973D01*
X85337Y-62959D01*
X85356Y-62949D01*
X85377Y-62942D01*
X85398Y-62940D01*
X85419Y-62941D01*
X85440Y-62947D01*
X85459Y-62957D01*
X85476Y-62970D01*
X85490Y-62987D01*
X85501Y-63005D01*
X85508Y-63026D01*
X85510Y-63047D01*
X85511Y-63050D01*
G54D10*
X93600Y-47465D02*
X94060Y-47465D01*
X94060Y-47465D02*
X94060Y-48925D01*
X91420Y-48925D02*
X91420Y-47465D01*
X91420Y-47465D02*
X91880Y-47465D01*
G54D14*
X67860Y-51570D02*
X67730Y-51570D01*
X67730Y-51570D02*
X67860Y-51700D01*
X67860Y-51700D02*
X68000Y-51560D01*
X68000Y-51560D02*
X67730Y-51560D01*
X68030Y-53440D02*
X66750Y-53440D01*
X66750Y-53440D02*
X66750Y-51900D01*
X66750Y-51900D02*
X68020Y-51900D01*
X68020Y-51900D02*
X68020Y-53440D01*
G54D16*
X91220Y-64517D02*
X92480Y-64517D01*
X92480Y-64517D02*
X92480Y-66127D01*
X92480Y-66127D02*
X91380Y-66127D01*
X91380Y-66127D02*
X91220Y-65967D01*
X91220Y-65967D02*
X91220Y-64517D01*
G54D14*
X72285Y-56295D02*
X73335Y-56295D01*
X73335Y-56295D02*
X73335Y-52915D01*
X73335Y-52915D02*
X72285Y-52915D01*
X72285Y-52915D02*
X72285Y-56305D01*
X76560Y-57095D02*
X77610Y-57095D01*
X77610Y-57095D02*
X77610Y-53715D01*
X77610Y-53715D02*
X76560Y-53715D01*
X76560Y-53715D02*
X76560Y-57105D01*
G54D13*
X95500Y-53250D02*
X95500Y-68250D01*
X93500Y-53250D02*
X93500Y-68250D01*
G54D12*
X93499Y-68248D02*
X95499Y-68248D01*
X93500Y-53250D02*
X95500Y-53250D01*
G54D17*
X82510Y-67667D02*
X82510Y-67817D01*
X82405Y-67502D02*
X82510Y-67667D01*
X82615Y-67502D01*
X82690Y-67502D02*
X82885Y-67502D01*
X82780Y-67622D01*
X82825Y-67622D01*
X82855Y-67637D01*
X82870Y-67652D01*
X82885Y-67682D01*
X82885Y-67757D01*
X82870Y-67787D01*
X82855Y-67802D01*
X82825Y-67817D01*
X82735Y-67817D01*
X82705Y-67802D01*
X82690Y-67787D01*
G54D18*
X81917Y-69510D02*
X82074Y-69746D01*
X82074Y-69510D02*
X81917Y-69746D01*
X82108Y-69768D02*
X82288Y-69768D01*
X82344Y-69746D02*
X82344Y-69510D01*
X82423Y-69678D01*
X82502Y-69510D01*
X82502Y-69746D01*
X82614Y-69746D02*
X82614Y-69510D01*
X82614Y-69622D02*
X82749Y-69622D01*
X82749Y-69746D02*
X82749Y-69510D01*
X82839Y-69510D02*
X82996Y-69510D01*
X82839Y-69746D01*
X82996Y-69746D01*
X83030Y-69768D02*
X83210Y-69768D01*
X83311Y-69510D02*
X83356Y-69510D01*
X83379Y-69521D01*
X83401Y-69543D01*
X83412Y-69588D01*
X83412Y-69667D01*
X83401Y-69712D01*
X83379Y-69734D01*
X83356Y-69746D01*
X83311Y-69746D01*
X83289Y-69734D01*
X83266Y-69712D01*
X83255Y-69667D01*
X83255Y-69588D01*
X83266Y-69543D01*
X83289Y-69521D01*
X83311Y-69510D01*
X83502Y-69734D02*
X83536Y-69746D01*
X83592Y-69746D01*
X83614Y-69734D01*
X83626Y-69723D01*
X83637Y-69701D01*
X83637Y-69678D01*
X83626Y-69656D01*
X83614Y-69644D01*
X83592Y-69633D01*
X83547Y-69622D01*
X83524Y-69611D01*
X83513Y-69599D01*
X83502Y-69577D01*
X83502Y-69554D01*
X83513Y-69532D01*
X83524Y-69521D01*
X83547Y-69510D01*
X83603Y-69510D01*
X83637Y-69521D01*
X83873Y-69723D02*
X83862Y-69734D01*
X83828Y-69746D01*
X83806Y-69746D01*
X83772Y-69734D01*
X83749Y-69712D01*
X83738Y-69689D01*
X83727Y-69644D01*
X83727Y-69611D01*
X83738Y-69566D01*
X83749Y-69543D01*
X83772Y-69521D01*
X83806Y-69510D01*
X83828Y-69510D01*
X83862Y-69521D01*
X83873Y-69532D01*
G54D13*
X81107Y-46242D02*
X81107Y-46528D01*
X81087Y-46585D01*
X81049Y-46623D01*
X80992Y-46642D01*
X80954Y-46642D01*
X81469Y-46242D02*
X81392Y-46242D01*
X81354Y-46261D01*
X81335Y-46280D01*
X81297Y-46337D01*
X81278Y-46413D01*
X81278Y-46566D01*
X81297Y-46604D01*
X81316Y-46623D01*
X81354Y-46642D01*
X81431Y-46642D01*
X81469Y-46623D01*
X81488Y-46604D01*
X81507Y-46566D01*
X81507Y-46470D01*
X81488Y-46432D01*
X81469Y-46413D01*
X81431Y-46394D01*
X81354Y-46394D01*
X81316Y-46413D01*
X81297Y-46432D01*
X81278Y-46470D01*
X81640Y-46242D02*
X81907Y-46242D01*
X81735Y-46642D01*
G54D19*
X84564Y-45065D02*
X84732Y-45065D01*
X84766Y-45077D01*
X84788Y-45099D01*
X84800Y-45133D01*
X84800Y-45155D01*
X84800Y-44829D02*
X84800Y-44964D01*
X84800Y-44897D02*
X84564Y-44897D01*
X84597Y-44919D01*
X84620Y-44942D01*
X84631Y-44964D01*
X84665Y-44694D02*
X84653Y-44717D01*
X84642Y-44728D01*
X84620Y-44739D01*
X84608Y-44739D01*
X84586Y-44728D01*
X84575Y-44717D01*
X84564Y-44694D01*
X84564Y-44649D01*
X84575Y-44627D01*
X84586Y-44615D01*
X84608Y-44604D01*
X84620Y-44604D01*
X84642Y-44615D01*
X84653Y-44627D01*
X84665Y-44649D01*
X84665Y-44694D01*
X84676Y-44717D01*
X84687Y-44728D01*
X84710Y-44739D01*
X84755Y-44739D01*
X84777Y-44728D01*
X84788Y-44717D01*
X84800Y-44694D01*
X84800Y-44649D01*
X84788Y-44627D01*
X84777Y-44615D01*
X84755Y-44604D01*
X84710Y-44604D01*
X84687Y-44615D01*
X84676Y-44627D01*
X84665Y-44649D01*
G54D15*
X61064Y-61496D02*
X60664Y-61496D01*
X60664Y-61343D01*
X60683Y-61305D01*
X60702Y-61286D01*
X60740Y-61267D01*
X60797Y-61267D01*
X60835Y-61286D01*
X60854Y-61305D01*
X60873Y-61343D01*
X60873Y-61496D01*
X61064Y-60886D02*
X61064Y-61115D01*
X61064Y-61001D02*
X60664Y-61001D01*
X60721Y-61039D01*
X60759Y-61077D01*
X60778Y-61115D01*
G54D13*
G54D17*
X61452Y-73515D02*
X61677Y-73515D01*
X61722Y-73530D01*
X61752Y-73560D01*
X61767Y-73605D01*
X61767Y-73635D01*
X61767Y-73200D02*
X61767Y-73380D01*
X61767Y-73290D02*
X61452Y-73290D01*
X61497Y-73320D01*
X61527Y-73350D01*
X61542Y-73380D01*
X61767Y-72900D02*
X61767Y-73080D01*
X61767Y-72990D02*
X61452Y-72990D01*
X61497Y-73020D01*
X61527Y-73050D01*
X61542Y-73080D01*
X83928Y-72437D02*
X83823Y-72287D01*
X83748Y-72437D02*
X83748Y-72122D01*
X83868Y-72122D01*
X83898Y-72137D01*
X83913Y-72152D01*
X83928Y-72182D01*
X83928Y-72227D01*
X83913Y-72257D01*
X83898Y-72272D01*
X83868Y-72287D01*
X83748Y-72287D01*
X84033Y-72122D02*
X84228Y-72122D01*
X84123Y-72242D01*
X84168Y-72242D01*
X84198Y-72257D01*
X84213Y-72272D01*
X84228Y-72302D01*
X84228Y-72377D01*
X84213Y-72407D01*
X84198Y-72422D01*
X84168Y-72437D01*
X84078Y-72437D01*
X84048Y-72422D01*
X84033Y-72407D01*
X84333Y-72122D02*
X84528Y-72122D01*
X84423Y-72242D01*
X84468Y-72242D01*
X84498Y-72257D01*
X84513Y-72272D01*
X84528Y-72302D01*
X84528Y-72377D01*
X84513Y-72407D01*
X84498Y-72422D01*
X84468Y-72437D01*
X84378Y-72437D01*
X84348Y-72422D01*
X84333Y-72407D01*
X88548Y-72347D02*
X88443Y-72197D01*
X88368Y-72347D02*
X88368Y-72032D01*
X88488Y-72032D01*
X88518Y-72047D01*
X88533Y-72062D01*
X88548Y-72092D01*
X88548Y-72137D01*
X88533Y-72167D01*
X88518Y-72182D01*
X88488Y-72197D01*
X88368Y-72197D01*
X88653Y-72032D02*
X88848Y-72032D01*
X88743Y-72152D01*
X88788Y-72152D01*
X88818Y-72167D01*
X88833Y-72182D01*
X88848Y-72212D01*
X88848Y-72287D01*
X88833Y-72317D01*
X88818Y-72332D01*
X88788Y-72347D01*
X88698Y-72347D01*
X88668Y-72332D01*
X88653Y-72317D01*
X88968Y-72062D02*
X88983Y-72047D01*
X89013Y-72032D01*
X89088Y-72032D01*
X89118Y-72047D01*
X89133Y-72062D01*
X89148Y-72092D01*
X89148Y-72122D01*
X89133Y-72167D01*
X88953Y-72347D01*
X89148Y-72347D01*
X89383Y-46917D02*
X89278Y-46767D01*
X89203Y-46917D02*
X89203Y-46602D01*
X89323Y-46602D01*
X89353Y-46617D01*
X89368Y-46632D01*
X89383Y-46662D01*
X89383Y-46707D01*
X89368Y-46737D01*
X89353Y-46752D01*
X89323Y-46767D01*
X89203Y-46767D01*
X89488Y-46602D02*
X89683Y-46602D01*
X89578Y-46722D01*
X89623Y-46722D01*
X89653Y-46737D01*
X89668Y-46752D01*
X89683Y-46782D01*
X89683Y-46857D01*
X89668Y-46887D01*
X89653Y-46902D01*
X89623Y-46917D01*
X89533Y-46917D01*
X89503Y-46902D01*
X89488Y-46887D01*
X89983Y-46917D02*
X89803Y-46917D01*
X89893Y-46917D02*
X89893Y-46602D01*
X89863Y-46647D01*
X89833Y-46677D01*
X89803Y-46692D01*
X67273Y-57632D02*
X67168Y-57482D01*
X67093Y-57632D02*
X67093Y-57317D01*
X67213Y-57317D01*
X67243Y-57332D01*
X67258Y-57347D01*
X67273Y-57377D01*
X67273Y-57422D01*
X67258Y-57452D01*
X67243Y-57467D01*
X67213Y-57482D01*
X67093Y-57482D01*
X67393Y-57347D02*
X67408Y-57332D01*
X67438Y-57317D01*
X67513Y-57317D01*
X67543Y-57332D01*
X67558Y-57347D01*
X67573Y-57377D01*
X67573Y-57407D01*
X67558Y-57452D01*
X67378Y-57632D01*
X67573Y-57632D01*
X67843Y-57317D02*
X67783Y-57317D01*
X67753Y-57332D01*
X67738Y-57347D01*
X67708Y-57392D01*
X67693Y-57452D01*
X67693Y-57572D01*
X67708Y-57602D01*
X67723Y-57617D01*
X67753Y-57632D01*
X67813Y-57632D01*
X67843Y-57617D01*
X67858Y-57602D01*
X67873Y-57572D01*
X67873Y-57497D01*
X67858Y-57467D01*
X67843Y-57452D01*
X67813Y-57437D01*
X67753Y-57437D01*
X67723Y-57452D01*
X67708Y-57467D01*
X67693Y-57497D01*
X87070Y-75247D02*
X87070Y-74932D01*
X87190Y-74932D01*
X87220Y-74947D01*
X87235Y-74962D01*
X87250Y-74992D01*
X87250Y-75037D01*
X87235Y-75067D01*
X87220Y-75082D01*
X87190Y-75097D01*
X87070Y-75097D01*
X87490Y-75082D02*
X87535Y-75097D01*
X87550Y-75112D01*
X87565Y-75142D01*
X87565Y-75187D01*
X87550Y-75217D01*
X87535Y-75232D01*
X87505Y-75247D01*
X87385Y-75247D01*
X87385Y-74932D01*
X87490Y-74932D01*
X87520Y-74947D01*
X87535Y-74962D01*
X87550Y-74992D01*
X87550Y-75022D01*
X87535Y-75052D01*
X87520Y-75067D01*
X87490Y-75082D01*
X87385Y-75082D01*
X87670Y-74932D02*
X87865Y-74932D01*
X87760Y-75052D01*
X87805Y-75052D01*
X87835Y-75067D01*
X87850Y-75082D01*
X87865Y-75112D01*
X87865Y-75187D01*
X87850Y-75217D01*
X87835Y-75232D01*
X87805Y-75247D01*
X87715Y-75247D01*
X87685Y-75232D01*
X87670Y-75217D01*
X91855Y-75142D02*
X91855Y-74827D01*
X91975Y-74827D01*
X92005Y-74842D01*
X92020Y-74857D01*
X92035Y-74887D01*
X92035Y-74932D01*
X92020Y-74962D01*
X92005Y-74977D01*
X91975Y-74992D01*
X91855Y-74992D01*
X92275Y-74977D02*
X92320Y-74992D01*
X92335Y-75007D01*
X92350Y-75037D01*
X92350Y-75082D01*
X92335Y-75112D01*
X92320Y-75127D01*
X92290Y-75142D01*
X92170Y-75142D01*
X92170Y-74827D01*
X92275Y-74827D01*
X92305Y-74842D01*
X92320Y-74857D01*
X92335Y-74887D01*
X92335Y-74917D01*
X92320Y-74947D01*
X92305Y-74962D01*
X92275Y-74977D01*
X92170Y-74977D01*
X92470Y-74857D02*
X92485Y-74842D01*
X92515Y-74827D01*
X92590Y-74827D01*
X92620Y-74842D01*
X92635Y-74857D01*
X92650Y-74887D01*
X92650Y-74917D01*
X92635Y-74962D01*
X92455Y-75142D01*
X92650Y-75142D01*
X89838Y-45642D02*
X89838Y-45327D01*
X89913Y-45327D01*
X89958Y-45342D01*
X89988Y-45372D01*
X90003Y-45402D01*
X90018Y-45462D01*
X90018Y-45507D01*
X90003Y-45567D01*
X89988Y-45597D01*
X89958Y-45627D01*
X89913Y-45642D01*
X89838Y-45642D01*
X90123Y-45327D02*
X90333Y-45327D01*
X90198Y-45642D01*
X66933Y-56529D02*
X66933Y-56214D01*
X67008Y-56214D01*
X67053Y-56229D01*
X67083Y-56259D01*
X67098Y-56289D01*
X67113Y-56349D01*
X67113Y-56394D01*
X67098Y-56454D01*
X67083Y-56484D01*
X67053Y-56514D01*
X67008Y-56529D01*
X66933Y-56529D01*
X67383Y-56214D02*
X67323Y-56214D01*
X67293Y-56229D01*
X67278Y-56244D01*
X67248Y-56289D01*
X67233Y-56349D01*
X67233Y-56469D01*
X67248Y-56499D01*
X67263Y-56514D01*
X67293Y-56529D01*
X67353Y-56529D01*
X67383Y-56514D01*
X67398Y-56499D01*
X67413Y-56469D01*
X67413Y-56394D01*
X67398Y-56364D01*
X67383Y-56349D01*
X67353Y-56334D01*
X67293Y-56334D01*
X67263Y-56349D01*
X67248Y-56364D01*
X67233Y-56394D01*
X69388Y-55825D02*
X69373Y-55840D01*
X69328Y-55855D01*
X69298Y-55855D01*
X69253Y-55840D01*
X69223Y-55810D01*
X69208Y-55780D01*
X69193Y-55720D01*
X69193Y-55675D01*
X69208Y-55615D01*
X69223Y-55585D01*
X69253Y-55555D01*
X69298Y-55540D01*
X69328Y-55540D01*
X69373Y-55555D01*
X69388Y-55570D01*
X69688Y-55855D02*
X69508Y-55855D01*
X69598Y-55855D02*
X69598Y-55540D01*
X69568Y-55585D01*
X69538Y-55615D01*
X69508Y-55630D01*
G54D19*
X74889Y-56103D02*
X74900Y-56114D01*
X74912Y-56148D01*
X74912Y-56170D01*
X74900Y-56204D01*
X74878Y-56227D01*
X74855Y-56238D01*
X74810Y-56249D01*
X74777Y-56249D01*
X74732Y-56238D01*
X74709Y-56227D01*
X74687Y-56204D01*
X74676Y-56170D01*
X74676Y-56148D01*
X74687Y-56114D01*
X74698Y-56103D01*
X74698Y-56013D02*
X74687Y-56002D01*
X74676Y-55979D01*
X74676Y-55923D01*
X74687Y-55901D01*
X74698Y-55889D01*
X74720Y-55878D01*
X74743Y-55878D01*
X74777Y-55889D01*
X74912Y-56024D01*
X74912Y-55878D01*
G54D17*
X71312Y-55027D02*
X71327Y-55042D01*
X71342Y-55087D01*
X71342Y-55117D01*
X71327Y-55162D01*
X71297Y-55192D01*
X71267Y-55207D01*
X71207Y-55222D01*
X71162Y-55222D01*
X71102Y-55207D01*
X71072Y-55192D01*
X71042Y-55162D01*
X71027Y-55117D01*
X71027Y-55087D01*
X71042Y-55042D01*
X71057Y-55027D01*
X71027Y-54922D02*
X71027Y-54727D01*
X71147Y-54832D01*
X71147Y-54787D01*
X71162Y-54757D01*
X71177Y-54742D01*
X71207Y-54727D01*
X71282Y-54727D01*
X71312Y-54742D01*
X71327Y-54757D01*
X71342Y-54787D01*
X71342Y-54877D01*
X71327Y-54907D01*
X71312Y-54922D01*
X71377Y-53700D02*
X71392Y-53715D01*
X71407Y-53760D01*
X71407Y-53790D01*
X71392Y-53835D01*
X71362Y-53865D01*
X71332Y-53880D01*
X71272Y-53895D01*
X71227Y-53895D01*
X71167Y-53880D01*
X71137Y-53865D01*
X71107Y-53835D01*
X71092Y-53790D01*
X71092Y-53760D01*
X71107Y-53715D01*
X71122Y-53700D01*
X71197Y-53430D02*
X71407Y-53430D01*
X71077Y-53505D02*
X71302Y-53580D01*
X71302Y-53385D01*
X75900Y-53457D02*
X75885Y-53472D01*
X75840Y-53487D01*
X75810Y-53487D01*
X75765Y-53472D01*
X75735Y-53442D01*
X75720Y-53412D01*
X75705Y-53352D01*
X75705Y-53307D01*
X75720Y-53247D01*
X75735Y-53217D01*
X75765Y-53187D01*
X75810Y-53172D01*
X75840Y-53172D01*
X75885Y-53187D01*
X75900Y-53202D01*
X76185Y-53172D02*
X76035Y-53172D01*
X76020Y-53322D01*
X76035Y-53307D01*
X76065Y-53292D01*
X76140Y-53292D01*
X76170Y-53307D01*
X76185Y-53322D01*
X76200Y-53352D01*
X76200Y-53427D01*
X76185Y-53457D01*
X76170Y-53472D01*
X76140Y-53487D01*
X76065Y-53487D01*
X76035Y-53472D01*
X76020Y-53457D01*
X75958Y-57557D02*
X75943Y-57572D01*
X75898Y-57587D01*
X75868Y-57587D01*
X75823Y-57572D01*
X75793Y-57542D01*
X75778Y-57512D01*
X75763Y-57452D01*
X75763Y-57407D01*
X75778Y-57347D01*
X75793Y-57317D01*
X75823Y-57287D01*
X75868Y-57272D01*
X75898Y-57272D01*
X75943Y-57287D01*
X75958Y-57302D01*
X76228Y-57272D02*
X76168Y-57272D01*
X76138Y-57287D01*
X76123Y-57302D01*
X76093Y-57347D01*
X76078Y-57407D01*
X76078Y-57527D01*
X76093Y-57557D01*
X76108Y-57572D01*
X76138Y-57587D01*
X76198Y-57587D01*
X76228Y-57572D01*
X76243Y-57557D01*
X76258Y-57527D01*
X76258Y-57452D01*
X76243Y-57422D01*
X76228Y-57407D01*
X76198Y-57392D01*
X76138Y-57392D01*
X76108Y-57407D01*
X76093Y-57422D01*
X76078Y-57452D01*
G54D19*
X74504Y-55609D02*
X74493Y-55620D01*
X74459Y-55632D01*
X74437Y-55632D01*
X74403Y-55620D01*
X74380Y-55598D01*
X74369Y-55575D01*
X74358Y-55530D01*
X74358Y-55497D01*
X74369Y-55452D01*
X74380Y-55429D01*
X74403Y-55407D01*
X74437Y-55396D01*
X74459Y-55396D01*
X74493Y-55407D01*
X74504Y-55418D01*
X74729Y-55632D02*
X74594Y-55632D01*
X74661Y-55632D02*
X74661Y-55396D01*
X74639Y-55429D01*
X74616Y-55452D01*
X74594Y-55463D01*
X74875Y-55396D02*
X74898Y-55396D01*
X74920Y-55407D01*
X74931Y-55418D01*
X74943Y-55440D01*
X74954Y-55485D01*
X74954Y-55542D01*
X74943Y-55587D01*
X74931Y-55609D01*
X74920Y-55620D01*
X74898Y-55632D01*
X74875Y-55632D01*
X74853Y-55620D01*
X74841Y-55609D01*
X74830Y-55587D01*
X74819Y-55542D01*
X74819Y-55485D01*
X74830Y-55440D01*
X74841Y-55418D01*
X74853Y-55407D01*
X74875Y-55396D01*
X73672Y-55593D02*
X73661Y-55604D01*
X73627Y-55616D01*
X73605Y-55616D01*
X73571Y-55604D01*
X73548Y-55582D01*
X73537Y-55559D01*
X73526Y-55514D01*
X73526Y-55481D01*
X73537Y-55436D01*
X73548Y-55413D01*
X73571Y-55391D01*
X73605Y-55380D01*
X73627Y-55380D01*
X73661Y-55391D01*
X73672Y-55402D01*
X73897Y-55616D02*
X73762Y-55616D01*
X73829Y-55616D02*
X73829Y-55380D01*
X73807Y-55413D01*
X73784Y-55436D01*
X73762Y-55447D01*
X74122Y-55616D02*
X73987Y-55616D01*
X74054Y-55616D02*
X74054Y-55380D01*
X74032Y-55413D01*
X74009Y-55436D01*
X73987Y-55447D01*
G54D17*
X69163Y-55222D02*
X69148Y-55237D01*
X69103Y-55252D01*
X69073Y-55252D01*
X69028Y-55237D01*
X68998Y-55207D01*
X68983Y-55177D01*
X68968Y-55117D01*
X68968Y-55072D01*
X68983Y-55012D01*
X68998Y-54982D01*
X69028Y-54952D01*
X69073Y-54937D01*
X69103Y-54937D01*
X69148Y-54952D01*
X69163Y-54967D01*
X69463Y-55252D02*
X69283Y-55252D01*
X69373Y-55252D02*
X69373Y-54937D01*
X69343Y-54982D01*
X69313Y-55012D01*
X69283Y-55027D01*
X69583Y-54967D02*
X69598Y-54952D01*
X69628Y-54937D01*
X69703Y-54937D01*
X69733Y-54952D01*
X69748Y-54967D01*
X69763Y-54997D01*
X69763Y-55027D01*
X69748Y-55072D01*
X69568Y-55252D01*
X69763Y-55252D01*
X65843Y-72317D02*
X65828Y-72332D01*
X65783Y-72347D01*
X65753Y-72347D01*
X65708Y-72332D01*
X65678Y-72302D01*
X65663Y-72272D01*
X65648Y-72212D01*
X65648Y-72167D01*
X65663Y-72107D01*
X65678Y-72077D01*
X65708Y-72047D01*
X65753Y-72032D01*
X65783Y-72032D01*
X65828Y-72047D01*
X65843Y-72062D01*
X66143Y-72347D02*
X65963Y-72347D01*
X66053Y-72347D02*
X66053Y-72032D01*
X66023Y-72077D01*
X65993Y-72107D01*
X65963Y-72122D01*
X66248Y-72032D02*
X66443Y-72032D01*
X66338Y-72152D01*
X66383Y-72152D01*
X66413Y-72167D01*
X66428Y-72182D01*
X66443Y-72212D01*
X66443Y-72287D01*
X66428Y-72317D01*
X66413Y-72332D01*
X66383Y-72347D01*
X66293Y-72347D01*
X66263Y-72332D01*
X66248Y-72317D01*
X66518Y-69258D02*
X66503Y-69273D01*
X66458Y-69288D01*
X66428Y-69288D01*
X66383Y-69273D01*
X66353Y-69243D01*
X66338Y-69213D01*
X66323Y-69153D01*
X66323Y-69108D01*
X66338Y-69048D01*
X66353Y-69018D01*
X66383Y-68988D01*
X66428Y-68973D01*
X66458Y-68973D01*
X66503Y-68988D01*
X66518Y-69003D01*
X66818Y-69288D02*
X66638Y-69288D01*
X66728Y-69288D02*
X66728Y-68973D01*
X66698Y-69018D01*
X66668Y-69048D01*
X66638Y-69063D01*
X67088Y-69078D02*
X67088Y-69288D01*
X67013Y-68958D02*
X66938Y-69183D01*
X67133Y-69183D01*
X65377Y-70995D02*
X65392Y-71010D01*
X65407Y-71055D01*
X65407Y-71085D01*
X65392Y-71130D01*
X65362Y-71160D01*
X65332Y-71175D01*
X65272Y-71190D01*
X65227Y-71190D01*
X65167Y-71175D01*
X65137Y-71160D01*
X65107Y-71130D01*
X65092Y-71085D01*
X65092Y-71055D01*
X65107Y-71010D01*
X65122Y-70995D01*
X65407Y-70695D02*
X65407Y-70875D01*
X65407Y-70785D02*
X65092Y-70785D01*
X65137Y-70815D01*
X65167Y-70845D01*
X65182Y-70875D01*
X65092Y-70410D02*
X65092Y-70560D01*
X65242Y-70575D01*
X65227Y-70560D01*
X65212Y-70530D01*
X65212Y-70455D01*
X65227Y-70425D01*
X65242Y-70410D01*
X65272Y-70395D01*
X65347Y-70395D01*
X65377Y-70410D01*
X65392Y-70425D01*
X65407Y-70455D01*
X65407Y-70530D01*
X65392Y-70560D01*
X65377Y-70575D01*
X69518Y-66027D02*
X69503Y-66042D01*
X69458Y-66057D01*
X69428Y-66057D01*
X69383Y-66042D01*
X69353Y-66012D01*
X69338Y-65982D01*
X69323Y-65922D01*
X69323Y-65877D01*
X69338Y-65817D01*
X69353Y-65787D01*
X69383Y-65757D01*
X69428Y-65742D01*
X69458Y-65742D01*
X69503Y-65757D01*
X69518Y-65772D01*
X69818Y-66057D02*
X69638Y-66057D01*
X69728Y-66057D02*
X69728Y-65742D01*
X69698Y-65787D01*
X69668Y-65817D01*
X69638Y-65832D01*
X70088Y-65742D02*
X70028Y-65742D01*
X69998Y-65757D01*
X69983Y-65772D01*
X69953Y-65817D01*
X69938Y-65877D01*
X69938Y-65997D01*
X69953Y-66027D01*
X69968Y-66042D01*
X69998Y-66057D01*
X70058Y-66057D01*
X70088Y-66042D01*
X70103Y-66027D01*
X70118Y-65997D01*
X70118Y-65922D01*
X70103Y-65892D01*
X70088Y-65877D01*
X70058Y-65862D01*
X69998Y-65862D01*
X69968Y-65877D01*
X69953Y-65892D01*
X69938Y-65922D01*
X68638Y-71792D02*
X68623Y-71807D01*
X68578Y-71822D01*
X68548Y-71822D01*
X68503Y-71807D01*
X68473Y-71777D01*
X68458Y-71747D01*
X68443Y-71687D01*
X68443Y-71642D01*
X68458Y-71582D01*
X68473Y-71552D01*
X68503Y-71522D01*
X68548Y-71507D01*
X68578Y-71507D01*
X68623Y-71522D01*
X68638Y-71537D01*
X68938Y-71822D02*
X68758Y-71822D01*
X68848Y-71822D02*
X68848Y-71507D01*
X68818Y-71552D01*
X68788Y-71582D01*
X68758Y-71597D01*
X69043Y-71507D02*
X69253Y-71507D01*
X69118Y-71822D01*
X78033Y-65057D02*
X78018Y-65072D01*
X77973Y-65087D01*
X77943Y-65087D01*
X77898Y-65072D01*
X77868Y-65042D01*
X77853Y-65012D01*
X77838Y-64952D01*
X77838Y-64907D01*
X77853Y-64847D01*
X77868Y-64817D01*
X77898Y-64787D01*
X77943Y-64772D01*
X77973Y-64772D01*
X78018Y-64787D01*
X78033Y-64802D01*
X78333Y-65087D02*
X78153Y-65087D01*
X78243Y-65087D02*
X78243Y-64772D01*
X78213Y-64817D01*
X78183Y-64847D01*
X78153Y-64862D01*
X78513Y-64907D02*
X78483Y-64892D01*
X78468Y-64877D01*
X78453Y-64847D01*
X78453Y-64832D01*
X78468Y-64802D01*
X78483Y-64787D01*
X78513Y-64772D01*
X78573Y-64772D01*
X78603Y-64787D01*
X78618Y-64802D01*
X78633Y-64832D01*
X78633Y-64847D01*
X78618Y-64877D01*
X78603Y-64892D01*
X78573Y-64907D01*
X78513Y-64907D01*
X78483Y-64922D01*
X78468Y-64937D01*
X78453Y-64967D01*
X78453Y-65027D01*
X78468Y-65057D01*
X78483Y-65072D01*
X78513Y-65087D01*
X78573Y-65087D01*
X78603Y-65072D01*
X78618Y-65057D01*
X78633Y-65027D01*
X78633Y-64967D01*
X78618Y-64937D01*
X78603Y-64922D01*
X78573Y-64907D01*
X67670Y-54737D02*
X67655Y-54752D01*
X67610Y-54767D01*
X67580Y-54767D01*
X67535Y-54752D01*
X67505Y-54722D01*
X67490Y-54692D01*
X67475Y-54632D01*
X67475Y-54587D01*
X67490Y-54527D01*
X67505Y-54497D01*
X67535Y-54467D01*
X67580Y-54452D01*
X67610Y-54452D01*
X67655Y-54467D01*
X67670Y-54482D01*
X67970Y-54767D02*
X67790Y-54767D01*
X67880Y-54767D02*
X67880Y-54452D01*
X67850Y-54497D01*
X67820Y-54527D01*
X67790Y-54542D01*
X68120Y-54767D02*
X68180Y-54767D01*
X68210Y-54752D01*
X68225Y-54737D01*
X68255Y-54692D01*
X68270Y-54632D01*
X68270Y-54512D01*
X68255Y-54482D01*
X68240Y-54467D01*
X68210Y-54452D01*
X68150Y-54452D01*
X68120Y-54467D01*
X68105Y-54482D01*
X68090Y-54512D01*
X68090Y-54587D01*
X68105Y-54617D01*
X68120Y-54632D01*
X68150Y-54647D01*
X68210Y-54647D01*
X68240Y-54632D01*
X68255Y-54617D01*
X68270Y-54587D01*
G54D19*
X72697Y-65464D02*
X72708Y-65475D01*
X72720Y-65509D01*
X72720Y-65531D01*
X72708Y-65565D01*
X72686Y-65588D01*
X72663Y-65599D01*
X72618Y-65610D01*
X72585Y-65610D01*
X72540Y-65599D01*
X72517Y-65588D01*
X72495Y-65565D01*
X72484Y-65531D01*
X72484Y-65509D01*
X72495Y-65475D01*
X72506Y-65464D01*
X72506Y-65374D02*
X72495Y-65363D01*
X72484Y-65340D01*
X72484Y-65284D01*
X72495Y-65262D01*
X72506Y-65250D01*
X72528Y-65239D01*
X72551Y-65239D01*
X72585Y-65250D01*
X72720Y-65385D01*
X72720Y-65239D01*
X72484Y-65093D02*
X72484Y-65070D01*
X72495Y-65048D01*
X72506Y-65037D01*
X72528Y-65025D01*
X72573Y-65014D01*
X72630Y-65014D01*
X72675Y-65025D01*
X72697Y-65037D01*
X72708Y-65048D01*
X72720Y-65070D01*
X72720Y-65093D01*
X72708Y-65115D01*
X72697Y-65127D01*
X72675Y-65138D01*
X72630Y-65149D01*
X72573Y-65149D01*
X72528Y-65138D01*
X72506Y-65127D01*
X72495Y-65115D01*
X72484Y-65093D01*
G54D17*
X75492Y-54492D02*
X75507Y-54507D01*
X75522Y-54552D01*
X75522Y-54582D01*
X75507Y-54627D01*
X75477Y-54657D01*
X75447Y-54672D01*
X75387Y-54687D01*
X75342Y-54687D01*
X75282Y-54672D01*
X75252Y-54657D01*
X75222Y-54627D01*
X75207Y-54582D01*
X75207Y-54552D01*
X75222Y-54507D01*
X75237Y-54492D01*
X75237Y-54372D02*
X75222Y-54357D01*
X75207Y-54327D01*
X75207Y-54252D01*
X75222Y-54222D01*
X75237Y-54207D01*
X75267Y-54192D01*
X75297Y-54192D01*
X75342Y-54207D01*
X75522Y-54387D01*
X75522Y-54192D01*
X75522Y-53892D02*
X75522Y-54072D01*
X75522Y-53982D02*
X75207Y-53982D01*
X75252Y-54012D01*
X75282Y-54042D01*
X75297Y-54072D01*
X77658Y-73812D02*
X77643Y-73827D01*
X77598Y-73842D01*
X77568Y-73842D01*
X77523Y-73827D01*
X77493Y-73797D01*
X77478Y-73767D01*
X77463Y-73707D01*
X77463Y-73662D01*
X77478Y-73602D01*
X77493Y-73572D01*
X77523Y-73542D01*
X77568Y-73527D01*
X77598Y-73527D01*
X77643Y-73542D01*
X77658Y-73557D01*
X77778Y-73557D02*
X77793Y-73542D01*
X77823Y-73527D01*
X77898Y-73527D01*
X77928Y-73542D01*
X77943Y-73557D01*
X77958Y-73587D01*
X77958Y-73617D01*
X77943Y-73662D01*
X77763Y-73842D01*
X77958Y-73842D01*
X78078Y-73557D02*
X78093Y-73542D01*
X78123Y-73527D01*
X78198Y-73527D01*
X78228Y-73542D01*
X78243Y-73557D01*
X78258Y-73587D01*
X78258Y-73617D01*
X78243Y-73662D01*
X78063Y-73842D01*
X78258Y-73842D01*
X73433Y-73772D02*
X73418Y-73787D01*
X73373Y-73802D01*
X73343Y-73802D01*
X73298Y-73787D01*
X73268Y-73757D01*
X73253Y-73727D01*
X73238Y-73667D01*
X73238Y-73622D01*
X73253Y-73562D01*
X73268Y-73532D01*
X73298Y-73502D01*
X73343Y-73487D01*
X73373Y-73487D01*
X73418Y-73502D01*
X73433Y-73517D01*
X73553Y-73517D02*
X73568Y-73502D01*
X73598Y-73487D01*
X73673Y-73487D01*
X73703Y-73502D01*
X73718Y-73517D01*
X73733Y-73547D01*
X73733Y-73577D01*
X73718Y-73622D01*
X73538Y-73802D01*
X73733Y-73802D01*
X73838Y-73487D02*
X74033Y-73487D01*
X73928Y-73607D01*
X73973Y-73607D01*
X74003Y-73622D01*
X74018Y-73637D01*
X74033Y-73667D01*
X74033Y-73742D01*
X74018Y-73772D01*
X74003Y-73787D01*
X73973Y-73802D01*
X73883Y-73802D01*
X73853Y-73787D01*
X73838Y-73772D01*
X69558Y-68987D02*
X69543Y-69002D01*
X69498Y-69017D01*
X69468Y-69017D01*
X69423Y-69002D01*
X69393Y-68972D01*
X69378Y-68942D01*
X69363Y-68882D01*
X69363Y-68837D01*
X69378Y-68777D01*
X69393Y-68747D01*
X69423Y-68717D01*
X69468Y-68702D01*
X69498Y-68702D01*
X69543Y-68717D01*
X69558Y-68732D01*
X69678Y-68732D02*
X69693Y-68717D01*
X69723Y-68702D01*
X69798Y-68702D01*
X69828Y-68717D01*
X69843Y-68732D01*
X69858Y-68762D01*
X69858Y-68792D01*
X69843Y-68837D01*
X69663Y-69017D01*
X69858Y-69017D01*
X70128Y-68807D02*
X70128Y-69017D01*
X70053Y-68687D02*
X69978Y-68912D01*
X70173Y-68912D01*
G54D19*
X74617Y-66824D02*
X74628Y-66835D01*
X74640Y-66869D01*
X74640Y-66891D01*
X74628Y-66925D01*
X74606Y-66948D01*
X74583Y-66959D01*
X74538Y-66970D01*
X74505Y-66970D01*
X74460Y-66959D01*
X74437Y-66948D01*
X74415Y-66925D01*
X74404Y-66891D01*
X74404Y-66869D01*
X74415Y-66835D01*
X74426Y-66824D01*
X74426Y-66734D02*
X74415Y-66723D01*
X74404Y-66700D01*
X74404Y-66644D01*
X74415Y-66622D01*
X74426Y-66610D01*
X74448Y-66599D01*
X74471Y-66599D01*
X74505Y-66610D01*
X74640Y-66745D01*
X74640Y-66599D01*
X74404Y-66385D02*
X74404Y-66498D01*
X74516Y-66509D01*
X74505Y-66498D01*
X74493Y-66475D01*
X74493Y-66419D01*
X74505Y-66397D01*
X74516Y-66385D01*
X74538Y-66374D01*
X74595Y-66374D01*
X74617Y-66385D01*
X74628Y-66397D01*
X74640Y-66419D01*
X74640Y-66475D01*
X74628Y-66498D01*
X74617Y-66509D01*
X76121Y-66840D02*
X76132Y-66851D01*
X76144Y-66885D01*
X76144Y-66907D01*
X76132Y-66941D01*
X76110Y-66964D01*
X76087Y-66975D01*
X76042Y-66986D01*
X76009Y-66986D01*
X75964Y-66975D01*
X75941Y-66964D01*
X75919Y-66941D01*
X75908Y-66907D01*
X75908Y-66885D01*
X75919Y-66851D01*
X75930Y-66840D01*
X75930Y-66750D02*
X75919Y-66739D01*
X75908Y-66716D01*
X75908Y-66660D01*
X75919Y-66638D01*
X75930Y-66626D01*
X75952Y-66615D01*
X75975Y-66615D01*
X76009Y-66626D01*
X76144Y-66761D01*
X76144Y-66615D01*
X75908Y-66413D02*
X75908Y-66458D01*
X75919Y-66480D01*
X75930Y-66491D01*
X75964Y-66514D01*
X76009Y-66525D01*
X76099Y-66525D01*
X76121Y-66514D01*
X76132Y-66503D01*
X76144Y-66480D01*
X76144Y-66435D01*
X76132Y-66413D01*
X76121Y-66401D01*
X76099Y-66390D01*
X76042Y-66390D01*
X76020Y-66401D01*
X76009Y-66413D01*
X75997Y-66435D01*
X75997Y-66480D01*
X76009Y-66503D01*
X76020Y-66514D01*
X76042Y-66525D01*
G54D17*
X78493Y-66357D02*
X78478Y-66372D01*
X78433Y-66387D01*
X78403Y-66387D01*
X78358Y-66372D01*
X78328Y-66342D01*
X78313Y-66312D01*
X78298Y-66252D01*
X78298Y-66207D01*
X78313Y-66147D01*
X78328Y-66117D01*
X78358Y-66087D01*
X78403Y-66072D01*
X78433Y-66072D01*
X78478Y-66087D01*
X78493Y-66102D01*
X78613Y-66102D02*
X78628Y-66087D01*
X78658Y-66072D01*
X78733Y-66072D01*
X78763Y-66087D01*
X78778Y-66102D01*
X78793Y-66132D01*
X78793Y-66162D01*
X78778Y-66207D01*
X78598Y-66387D01*
X78793Y-66387D01*
X78898Y-66072D02*
X79108Y-66072D01*
X78973Y-66387D01*
X78493Y-67102D02*
X78478Y-67117D01*
X78433Y-67132D01*
X78403Y-67132D01*
X78358Y-67117D01*
X78328Y-67087D01*
X78313Y-67057D01*
X78298Y-66997D01*
X78298Y-66952D01*
X78313Y-66892D01*
X78328Y-66862D01*
X78358Y-66832D01*
X78403Y-66817D01*
X78433Y-66817D01*
X78478Y-66832D01*
X78493Y-66847D01*
X78613Y-66847D02*
X78628Y-66832D01*
X78658Y-66817D01*
X78733Y-66817D01*
X78763Y-66832D01*
X78778Y-66847D01*
X78793Y-66877D01*
X78793Y-66907D01*
X78778Y-66952D01*
X78598Y-67132D01*
X78793Y-67132D01*
X78973Y-66952D02*
X78943Y-66937D01*
X78928Y-66922D01*
X78913Y-66892D01*
X78913Y-66877D01*
X78928Y-66847D01*
X78943Y-66832D01*
X78973Y-66817D01*
X79033Y-66817D01*
X79063Y-66832D01*
X79078Y-66847D01*
X79093Y-66877D01*
X79093Y-66892D01*
X79078Y-66922D01*
X79063Y-66937D01*
X79033Y-66952D01*
X78973Y-66952D01*
X78943Y-66967D01*
X78928Y-66982D01*
X78913Y-67012D01*
X78913Y-67072D01*
X78928Y-67102D01*
X78943Y-67117D01*
X78973Y-67132D01*
X79033Y-67132D01*
X79063Y-67117D01*
X79078Y-67102D01*
X79093Y-67072D01*
X79093Y-67012D01*
X79078Y-66982D01*
X79063Y-66967D01*
X79033Y-66952D01*
X83663Y-52497D02*
X83648Y-52512D01*
X83603Y-52527D01*
X83573Y-52527D01*
X83528Y-52512D01*
X83498Y-52482D01*
X83483Y-52452D01*
X83468Y-52392D01*
X83468Y-52347D01*
X83483Y-52287D01*
X83498Y-52257D01*
X83528Y-52227D01*
X83573Y-52212D01*
X83603Y-52212D01*
X83648Y-52227D01*
X83663Y-52242D01*
X83783Y-52242D02*
X83798Y-52227D01*
X83828Y-52212D01*
X83903Y-52212D01*
X83933Y-52227D01*
X83948Y-52242D01*
X83963Y-52272D01*
X83963Y-52302D01*
X83948Y-52347D01*
X83768Y-52527D01*
X83963Y-52527D01*
X84113Y-52527D02*
X84173Y-52527D01*
X84203Y-52512D01*
X84218Y-52497D01*
X84248Y-52452D01*
X84263Y-52392D01*
X84263Y-52272D01*
X84248Y-52242D01*
X84233Y-52227D01*
X84203Y-52212D01*
X84143Y-52212D01*
X84113Y-52227D01*
X84098Y-52242D01*
X84083Y-52272D01*
X84083Y-52347D01*
X84098Y-52377D01*
X84113Y-52392D01*
X84143Y-52407D01*
X84203Y-52407D01*
X84233Y-52392D01*
X84248Y-52377D01*
X84263Y-52347D01*
X81273Y-66382D02*
X81258Y-66397D01*
X81213Y-66412D01*
X81183Y-66412D01*
X81138Y-66397D01*
X81108Y-66367D01*
X81093Y-66337D01*
X81078Y-66277D01*
X81078Y-66232D01*
X81093Y-66172D01*
X81108Y-66142D01*
X81138Y-66112D01*
X81183Y-66097D01*
X81213Y-66097D01*
X81258Y-66112D01*
X81273Y-66127D01*
X81378Y-66097D02*
X81573Y-66097D01*
X81468Y-66217D01*
X81513Y-66217D01*
X81543Y-66232D01*
X81558Y-66247D01*
X81573Y-66277D01*
X81573Y-66352D01*
X81558Y-66382D01*
X81543Y-66397D01*
X81513Y-66412D01*
X81423Y-66412D01*
X81393Y-66397D01*
X81378Y-66382D01*
X81768Y-66097D02*
X81798Y-66097D01*
X81828Y-66112D01*
X81843Y-66127D01*
X81858Y-66157D01*
X81873Y-66217D01*
X81873Y-66292D01*
X81858Y-66352D01*
X81843Y-66382D01*
X81828Y-66397D01*
X81798Y-66412D01*
X81768Y-66412D01*
X81738Y-66397D01*
X81723Y-66382D01*
X81708Y-66352D01*
X81693Y-66292D01*
X81693Y-66217D01*
X81708Y-66157D01*
X81723Y-66127D01*
X81738Y-66112D01*
X81768Y-66097D01*
X82230Y-55153D02*
X82215Y-55168D01*
X82170Y-55183D01*
X82140Y-55183D01*
X82095Y-55168D01*
X82065Y-55138D01*
X82050Y-55108D01*
X82035Y-55048D01*
X82035Y-55003D01*
X82050Y-54943D01*
X82065Y-54913D01*
X82095Y-54883D01*
X82140Y-54868D01*
X82170Y-54868D01*
X82215Y-54883D01*
X82230Y-54898D01*
X82335Y-54868D02*
X82530Y-54868D01*
X82425Y-54988D01*
X82470Y-54988D01*
X82500Y-55003D01*
X82515Y-55018D01*
X82530Y-55048D01*
X82530Y-55123D01*
X82515Y-55153D01*
X82500Y-55168D01*
X82470Y-55183D01*
X82380Y-55183D01*
X82350Y-55168D01*
X82335Y-55153D01*
X82830Y-55183D02*
X82650Y-55183D01*
X82740Y-55183D02*
X82740Y-54868D01*
X82710Y-54913D01*
X82680Y-54943D01*
X82650Y-54958D01*
X77218Y-52827D02*
X77203Y-52842D01*
X77158Y-52857D01*
X77128Y-52857D01*
X77083Y-52842D01*
X77053Y-52812D01*
X77038Y-52782D01*
X77023Y-52722D01*
X77023Y-52677D01*
X77038Y-52617D01*
X77053Y-52587D01*
X77083Y-52557D01*
X77128Y-52542D01*
X77158Y-52542D01*
X77203Y-52557D01*
X77218Y-52572D01*
X77323Y-52542D02*
X77518Y-52542D01*
X77413Y-52662D01*
X77458Y-52662D01*
X77488Y-52677D01*
X77503Y-52692D01*
X77518Y-52722D01*
X77518Y-52797D01*
X77503Y-52827D01*
X77488Y-52842D01*
X77458Y-52857D01*
X77368Y-52857D01*
X77338Y-52842D01*
X77323Y-52827D01*
X77638Y-52572D02*
X77653Y-52557D01*
X77683Y-52542D01*
X77758Y-52542D01*
X77788Y-52557D01*
X77803Y-52572D01*
X77818Y-52602D01*
X77818Y-52632D01*
X77803Y-52677D01*
X77623Y-52857D01*
X77818Y-52857D01*
X91803Y-63662D02*
X91788Y-63677D01*
X91743Y-63692D01*
X91713Y-63692D01*
X91668Y-63677D01*
X91638Y-63647D01*
X91623Y-63617D01*
X91608Y-63557D01*
X91608Y-63512D01*
X91623Y-63452D01*
X91638Y-63422D01*
X91668Y-63392D01*
X91713Y-63377D01*
X91743Y-63377D01*
X91788Y-63392D01*
X91803Y-63407D01*
X91908Y-63377D02*
X92103Y-63377D01*
X91998Y-63497D01*
X92043Y-63497D01*
X92073Y-63512D01*
X92088Y-63527D01*
X92103Y-63557D01*
X92103Y-63632D01*
X92088Y-63662D01*
X92073Y-63677D01*
X92043Y-63692D01*
X91953Y-63692D01*
X91923Y-63677D01*
X91908Y-63662D01*
X92208Y-63377D02*
X92403Y-63377D01*
X92298Y-63497D01*
X92343Y-63497D01*
X92373Y-63512D01*
X92388Y-63527D01*
X92403Y-63557D01*
X92403Y-63632D01*
X92388Y-63662D01*
X92373Y-63677D01*
X92343Y-63692D01*
X92253Y-63692D01*
X92223Y-63677D01*
X92208Y-63662D01*
X88973Y-56494D02*
X88988Y-56509D01*
X89003Y-56554D01*
X89003Y-56584D01*
X88988Y-56629D01*
X88958Y-56659D01*
X88928Y-56674D01*
X88868Y-56689D01*
X88823Y-56689D01*
X88763Y-56674D01*
X88733Y-56659D01*
X88703Y-56629D01*
X88688Y-56584D01*
X88688Y-56554D01*
X88703Y-56509D01*
X88718Y-56494D01*
X88688Y-56389D02*
X88688Y-56194D01*
X88808Y-56299D01*
X88808Y-56254D01*
X88823Y-56224D01*
X88838Y-56209D01*
X88868Y-56194D01*
X88943Y-56194D01*
X88973Y-56209D01*
X88988Y-56224D01*
X89003Y-56254D01*
X89003Y-56344D01*
X88988Y-56374D01*
X88973Y-56389D01*
X88793Y-55924D02*
X89003Y-55924D01*
X88673Y-55999D02*
X88898Y-56074D01*
X88898Y-55879D01*
X82913Y-70537D02*
X82898Y-70552D01*
X82853Y-70567D01*
X82823Y-70567D01*
X82778Y-70552D01*
X82748Y-70522D01*
X82733Y-70492D01*
X82718Y-70432D01*
X82718Y-70387D01*
X82733Y-70327D01*
X82748Y-70297D01*
X82778Y-70267D01*
X82823Y-70252D01*
X82853Y-70252D01*
X82898Y-70267D01*
X82913Y-70282D01*
X83018Y-70252D02*
X83213Y-70252D01*
X83108Y-70372D01*
X83153Y-70372D01*
X83183Y-70387D01*
X83198Y-70402D01*
X83213Y-70432D01*
X83213Y-70507D01*
X83198Y-70537D01*
X83183Y-70552D01*
X83153Y-70567D01*
X83063Y-70567D01*
X83033Y-70552D01*
X83018Y-70537D01*
X83498Y-70252D02*
X83348Y-70252D01*
X83333Y-70402D01*
X83348Y-70387D01*
X83378Y-70372D01*
X83453Y-70372D01*
X83483Y-70387D01*
X83498Y-70402D01*
X83513Y-70432D01*
X83513Y-70507D01*
X83498Y-70537D01*
X83483Y-70552D01*
X83453Y-70567D01*
X83378Y-70567D01*
X83348Y-70552D01*
X83333Y-70537D01*
X81728Y-53267D02*
X81713Y-53282D01*
X81668Y-53297D01*
X81638Y-53297D01*
X81593Y-53282D01*
X81563Y-53252D01*
X81548Y-53222D01*
X81533Y-53162D01*
X81533Y-53117D01*
X81548Y-53057D01*
X81563Y-53027D01*
X81593Y-52997D01*
X81638Y-52982D01*
X81668Y-52982D01*
X81713Y-52997D01*
X81728Y-53012D01*
X81833Y-52982D02*
X82028Y-52982D01*
X81923Y-53102D01*
X81968Y-53102D01*
X81998Y-53117D01*
X82013Y-53132D01*
X82028Y-53162D01*
X82028Y-53237D01*
X82013Y-53267D01*
X81998Y-53282D01*
X81968Y-53297D01*
X81878Y-53297D01*
X81848Y-53282D01*
X81833Y-53267D01*
X82298Y-52982D02*
X82238Y-52982D01*
X82208Y-52997D01*
X82193Y-53012D01*
X82163Y-53057D01*
X82148Y-53117D01*
X82148Y-53237D01*
X82163Y-53267D01*
X82178Y-53282D01*
X82208Y-53297D01*
X82268Y-53297D01*
X82298Y-53282D01*
X82313Y-53267D01*
X82328Y-53237D01*
X82328Y-53162D01*
X82313Y-53132D01*
X82298Y-53117D01*
X82268Y-53102D01*
X82208Y-53102D01*
X82178Y-53117D01*
X82163Y-53132D01*
X82148Y-53162D01*
X84512Y-50972D02*
X84527Y-50987D01*
X84542Y-51032D01*
X84542Y-51062D01*
X84527Y-51107D01*
X84497Y-51137D01*
X84467Y-51152D01*
X84407Y-51167D01*
X84362Y-51167D01*
X84302Y-51152D01*
X84272Y-51137D01*
X84242Y-51107D01*
X84227Y-51062D01*
X84227Y-51032D01*
X84242Y-50987D01*
X84257Y-50972D01*
X84227Y-50867D02*
X84227Y-50672D01*
X84347Y-50777D01*
X84347Y-50732D01*
X84362Y-50702D01*
X84377Y-50687D01*
X84407Y-50672D01*
X84482Y-50672D01*
X84512Y-50687D01*
X84527Y-50702D01*
X84542Y-50732D01*
X84542Y-50822D01*
X84527Y-50852D01*
X84512Y-50867D01*
X84227Y-50567D02*
X84227Y-50357D01*
X84542Y-50492D01*
X83708Y-51727D02*
X83693Y-51742D01*
X83648Y-51757D01*
X83618Y-51757D01*
X83573Y-51742D01*
X83543Y-51712D01*
X83528Y-51682D01*
X83513Y-51622D01*
X83513Y-51577D01*
X83528Y-51517D01*
X83543Y-51487D01*
X83573Y-51457D01*
X83618Y-51442D01*
X83648Y-51442D01*
X83693Y-51457D01*
X83708Y-51472D01*
X83813Y-51442D02*
X84008Y-51442D01*
X83903Y-51562D01*
X83948Y-51562D01*
X83978Y-51577D01*
X83993Y-51592D01*
X84008Y-51622D01*
X84008Y-51697D01*
X83993Y-51727D01*
X83978Y-51742D01*
X83948Y-51757D01*
X83858Y-51757D01*
X83828Y-51742D01*
X83813Y-51727D01*
X84188Y-51577D02*
X84158Y-51562D01*
X84143Y-51547D01*
X84128Y-51517D01*
X84128Y-51502D01*
X84143Y-51472D01*
X84158Y-51457D01*
X84188Y-51442D01*
X84248Y-51442D01*
X84278Y-51457D01*
X84293Y-51472D01*
X84308Y-51502D01*
X84308Y-51517D01*
X84293Y-51547D01*
X84278Y-51562D01*
X84248Y-51577D01*
X84188Y-51577D01*
X84158Y-51592D01*
X84143Y-51607D01*
X84128Y-51637D01*
X84128Y-51697D01*
X84143Y-51727D01*
X84158Y-51742D01*
X84188Y-51757D01*
X84248Y-51757D01*
X84278Y-51742D01*
X84293Y-51727D01*
X84308Y-51697D01*
X84308Y-51637D01*
X84293Y-51607D01*
X84278Y-51592D01*
X84248Y-51577D01*
X84492Y-49632D02*
X84507Y-49647D01*
X84522Y-49692D01*
X84522Y-49722D01*
X84507Y-49767D01*
X84477Y-49797D01*
X84447Y-49812D01*
X84387Y-49827D01*
X84342Y-49827D01*
X84282Y-49812D01*
X84252Y-49797D01*
X84222Y-49767D01*
X84207Y-49722D01*
X84207Y-49692D01*
X84222Y-49647D01*
X84237Y-49632D01*
X84207Y-49527D02*
X84207Y-49332D01*
X84327Y-49437D01*
X84327Y-49392D01*
X84342Y-49362D01*
X84357Y-49347D01*
X84387Y-49332D01*
X84462Y-49332D01*
X84492Y-49347D01*
X84507Y-49362D01*
X84522Y-49392D01*
X84522Y-49482D01*
X84507Y-49512D01*
X84492Y-49527D01*
X84522Y-49182D02*
X84522Y-49122D01*
X84507Y-49092D01*
X84492Y-49077D01*
X84447Y-49047D01*
X84387Y-49032D01*
X84267Y-49032D01*
X84237Y-49047D01*
X84222Y-49062D01*
X84207Y-49092D01*
X84207Y-49152D01*
X84222Y-49182D01*
X84237Y-49197D01*
X84267Y-49212D01*
X84342Y-49212D01*
X84372Y-49197D01*
X84387Y-49182D01*
X84402Y-49152D01*
X84402Y-49092D01*
X84387Y-49062D01*
X84372Y-49047D01*
X84342Y-49032D01*
X82738Y-49262D02*
X82723Y-49277D01*
X82678Y-49292D01*
X82648Y-49292D01*
X82603Y-49277D01*
X82573Y-49247D01*
X82558Y-49217D01*
X82543Y-49157D01*
X82543Y-49112D01*
X82558Y-49052D01*
X82573Y-49022D01*
X82603Y-48992D01*
X82648Y-48977D01*
X82678Y-48977D01*
X82723Y-48992D01*
X82738Y-49007D01*
X83008Y-49082D02*
X83008Y-49292D01*
X82933Y-48962D02*
X82858Y-49187D01*
X83053Y-49187D01*
X83233Y-48977D02*
X83263Y-48977D01*
X83293Y-48992D01*
X83308Y-49007D01*
X83323Y-49037D01*
X83338Y-49097D01*
X83338Y-49172D01*
X83323Y-49232D01*
X83308Y-49262D01*
X83293Y-49277D01*
X83263Y-49292D01*
X83233Y-49292D01*
X83203Y-49277D01*
X83188Y-49262D01*
X83173Y-49232D01*
X83158Y-49172D01*
X83158Y-49097D01*
X83173Y-49037D01*
X83188Y-49007D01*
X83203Y-48992D01*
X83233Y-48977D01*
X88898Y-53547D02*
X88883Y-53562D01*
X88838Y-53577D01*
X88808Y-53577D01*
X88763Y-53562D01*
X88733Y-53532D01*
X88718Y-53502D01*
X88703Y-53442D01*
X88703Y-53397D01*
X88718Y-53337D01*
X88733Y-53307D01*
X88763Y-53277D01*
X88808Y-53262D01*
X88838Y-53262D01*
X88883Y-53277D01*
X88898Y-53292D01*
X89168Y-53367D02*
X89168Y-53577D01*
X89093Y-53247D02*
X89018Y-53472D01*
X89213Y-53472D01*
X89498Y-53577D02*
X89318Y-53577D01*
X89408Y-53577D02*
X89408Y-53262D01*
X89378Y-53307D01*
X89348Y-53337D01*
X89318Y-53352D01*
X84118Y-53425D02*
X84103Y-53440D01*
X84058Y-53455D01*
X84028Y-53455D01*
X83983Y-53440D01*
X83953Y-53410D01*
X83938Y-53380D01*
X83923Y-53320D01*
X83923Y-53275D01*
X83938Y-53215D01*
X83953Y-53185D01*
X83983Y-53155D01*
X84028Y-53140D01*
X84058Y-53140D01*
X84103Y-53155D01*
X84118Y-53170D01*
X84388Y-53245D02*
X84388Y-53455D01*
X84313Y-53125D02*
X84238Y-53350D01*
X84433Y-53350D01*
X84538Y-53170D02*
X84553Y-53155D01*
X84583Y-53140D01*
X84658Y-53140D01*
X84688Y-53155D01*
X84703Y-53170D01*
X84718Y-53200D01*
X84718Y-53230D01*
X84703Y-53275D01*
X84523Y-53455D01*
X84718Y-53455D01*
X85038Y-66502D02*
X85023Y-66517D01*
X84978Y-66532D01*
X84948Y-66532D01*
X84903Y-66517D01*
X84873Y-66487D01*
X84858Y-66457D01*
X84843Y-66397D01*
X84843Y-66352D01*
X84858Y-66292D01*
X84873Y-66262D01*
X84903Y-66232D01*
X84948Y-66217D01*
X84978Y-66217D01*
X85023Y-66232D01*
X85038Y-66247D01*
X85308Y-66322D02*
X85308Y-66532D01*
X85233Y-66202D02*
X85158Y-66427D01*
X85353Y-66427D01*
X85443Y-66217D02*
X85638Y-66217D01*
X85533Y-66337D01*
X85578Y-66337D01*
X85608Y-66352D01*
X85623Y-66367D01*
X85638Y-66397D01*
X85638Y-66472D01*
X85623Y-66502D01*
X85608Y-66517D01*
X85578Y-66532D01*
X85488Y-66532D01*
X85458Y-66517D01*
X85443Y-66502D01*
X86512Y-55067D02*
X86527Y-55082D01*
X86542Y-55127D01*
X86542Y-55157D01*
X86527Y-55202D01*
X86497Y-55232D01*
X86467Y-55247D01*
X86407Y-55262D01*
X86362Y-55262D01*
X86302Y-55247D01*
X86272Y-55232D01*
X86242Y-55202D01*
X86227Y-55157D01*
X86227Y-55127D01*
X86242Y-55082D01*
X86257Y-55067D01*
X86332Y-54797D02*
X86542Y-54797D01*
X86212Y-54872D02*
X86437Y-54947D01*
X86437Y-54752D01*
X86332Y-54497D02*
X86542Y-54497D01*
X86212Y-54572D02*
X86437Y-54647D01*
X86437Y-54452D01*
X93137Y-59137D02*
X93152Y-59152D01*
X93167Y-59197D01*
X93167Y-59227D01*
X93152Y-59272D01*
X93122Y-59302D01*
X93092Y-59317D01*
X93032Y-59332D01*
X92987Y-59332D01*
X92927Y-59317D01*
X92897Y-59302D01*
X92867Y-59272D01*
X92852Y-59227D01*
X92852Y-59197D01*
X92867Y-59152D01*
X92882Y-59137D01*
X92957Y-58867D02*
X93167Y-58867D01*
X92837Y-58942D02*
X93062Y-59017D01*
X93062Y-58822D01*
X92852Y-58552D02*
X92852Y-58702D01*
X93002Y-58717D01*
X92987Y-58702D01*
X92972Y-58672D01*
X92972Y-58597D01*
X92987Y-58567D01*
X93002Y-58552D01*
X93032Y-58537D01*
X93107Y-58537D01*
X93137Y-58552D01*
X93152Y-58567D01*
X93167Y-58597D01*
X93167Y-58672D01*
X93152Y-58702D01*
X93137Y-58717D01*
X89837Y-66502D02*
X89852Y-66517D01*
X89867Y-66562D01*
X89867Y-66592D01*
X89852Y-66637D01*
X89822Y-66667D01*
X89792Y-66682D01*
X89732Y-66697D01*
X89687Y-66697D01*
X89627Y-66682D01*
X89597Y-66667D01*
X89567Y-66637D01*
X89552Y-66592D01*
X89552Y-66562D01*
X89567Y-66517D01*
X89582Y-66502D01*
X89657Y-66232D02*
X89867Y-66232D01*
X89537Y-66307D02*
X89762Y-66382D01*
X89762Y-66187D01*
X89552Y-65932D02*
X89552Y-65992D01*
X89567Y-66022D01*
X89582Y-66037D01*
X89627Y-66067D01*
X89687Y-66082D01*
X89807Y-66082D01*
X89837Y-66067D01*
X89852Y-66052D01*
X89867Y-66022D01*
X89867Y-65962D01*
X89852Y-65932D01*
X89837Y-65917D01*
X89807Y-65902D01*
X89732Y-65902D01*
X89702Y-65917D01*
X89687Y-65932D01*
X89672Y-65962D01*
X89672Y-66022D01*
X89687Y-66052D01*
X89702Y-66067D01*
X89732Y-66082D01*
X90452Y-66532D02*
X90467Y-66547D01*
X90482Y-66592D01*
X90482Y-66622D01*
X90467Y-66667D01*
X90437Y-66697D01*
X90407Y-66712D01*
X90347Y-66727D01*
X90302Y-66727D01*
X90242Y-66712D01*
X90212Y-66697D01*
X90182Y-66667D01*
X90167Y-66622D01*
X90167Y-66592D01*
X90182Y-66547D01*
X90197Y-66532D01*
X90272Y-66262D02*
X90482Y-66262D01*
X90152Y-66337D02*
X90377Y-66412D01*
X90377Y-66217D01*
X90167Y-66127D02*
X90167Y-65917D01*
X90482Y-66052D01*
X85152Y-55287D02*
X85167Y-55302D01*
X85182Y-55347D01*
X85182Y-55377D01*
X85167Y-55422D01*
X85137Y-55452D01*
X85107Y-55467D01*
X85047Y-55482D01*
X85002Y-55482D01*
X84942Y-55467D01*
X84912Y-55452D01*
X84882Y-55422D01*
X84867Y-55377D01*
X84867Y-55347D01*
X84882Y-55302D01*
X84897Y-55287D01*
X84972Y-55017D02*
X85182Y-55017D01*
X84852Y-55092D02*
X85077Y-55167D01*
X85077Y-54972D01*
X85002Y-54807D02*
X84987Y-54837D01*
X84972Y-54852D01*
X84942Y-54867D01*
X84927Y-54867D01*
X84897Y-54852D01*
X84882Y-54837D01*
X84867Y-54807D01*
X84867Y-54747D01*
X84882Y-54717D01*
X84897Y-54702D01*
X84927Y-54687D01*
X84942Y-54687D01*
X84972Y-54702D01*
X84987Y-54717D01*
X85002Y-54747D01*
X85002Y-54807D01*
X85017Y-54837D01*
X85032Y-54852D01*
X85062Y-54867D01*
X85122Y-54867D01*
X85152Y-54852D01*
X85167Y-54837D01*
X85182Y-54807D01*
X85182Y-54747D01*
X85167Y-54717D01*
X85152Y-54702D01*
X85122Y-54687D01*
X85062Y-54687D01*
X85032Y-54702D01*
X85017Y-54717D01*
X85002Y-54747D01*
X90159Y-57080D02*
X90144Y-57095D01*
X90099Y-57110D01*
X90069Y-57110D01*
X90024Y-57095D01*
X89994Y-57065D01*
X89979Y-57035D01*
X89964Y-56975D01*
X89964Y-56930D01*
X89979Y-56870D01*
X89994Y-56840D01*
X90024Y-56810D01*
X90069Y-56795D01*
X90099Y-56795D01*
X90144Y-56810D01*
X90159Y-56825D01*
X90429Y-56900D02*
X90429Y-57110D01*
X90354Y-56780D02*
X90279Y-57005D01*
X90474Y-57005D01*
X90609Y-57110D02*
X90669Y-57110D01*
X90699Y-57095D01*
X90714Y-57080D01*
X90744Y-57035D01*
X90759Y-56975D01*
X90759Y-56855D01*
X90744Y-56825D01*
X90729Y-56810D01*
X90699Y-56795D01*
X90639Y-56795D01*
X90609Y-56810D01*
X90594Y-56825D01*
X90579Y-56855D01*
X90579Y-56930D01*
X90594Y-56960D01*
X90609Y-56975D01*
X90639Y-56990D01*
X90699Y-56990D01*
X90729Y-56975D01*
X90744Y-56960D01*
X90759Y-56930D01*
X91462Y-60057D02*
X91477Y-60072D01*
X91492Y-60117D01*
X91492Y-60147D01*
X91477Y-60192D01*
X91447Y-60222D01*
X91417Y-60237D01*
X91357Y-60252D01*
X91312Y-60252D01*
X91252Y-60237D01*
X91222Y-60222D01*
X91192Y-60192D01*
X91177Y-60147D01*
X91177Y-60117D01*
X91192Y-60072D01*
X91207Y-60057D01*
X91177Y-59772D02*
X91177Y-59922D01*
X91327Y-59937D01*
X91312Y-59922D01*
X91297Y-59892D01*
X91297Y-59817D01*
X91312Y-59787D01*
X91327Y-59772D01*
X91357Y-59757D01*
X91432Y-59757D01*
X91462Y-59772D01*
X91477Y-59787D01*
X91492Y-59817D01*
X91492Y-59892D01*
X91477Y-59922D01*
X91462Y-59937D01*
X91177Y-59562D02*
X91177Y-59532D01*
X91192Y-59502D01*
X91207Y-59487D01*
X91237Y-59472D01*
X91297Y-59457D01*
X91372Y-59457D01*
X91432Y-59472D01*
X91462Y-59487D01*
X91477Y-59502D01*
X91492Y-59532D01*
X91492Y-59562D01*
X91477Y-59592D01*
X91462Y-59607D01*
X91432Y-59622D01*
X91372Y-59637D01*
X91297Y-59637D01*
X91237Y-59622D01*
X91207Y-59607D01*
X91192Y-59592D01*
X91177Y-59562D01*
X89237Y-66502D02*
X89252Y-66517D01*
X89267Y-66562D01*
X89267Y-66592D01*
X89252Y-66637D01*
X89222Y-66667D01*
X89192Y-66682D01*
X89132Y-66697D01*
X89087Y-66697D01*
X89027Y-66682D01*
X88997Y-66667D01*
X88967Y-66637D01*
X88952Y-66592D01*
X88952Y-66562D01*
X88967Y-66517D01*
X88982Y-66502D01*
X88952Y-66217D02*
X88952Y-66367D01*
X89102Y-66382D01*
X89087Y-66367D01*
X89072Y-66337D01*
X89072Y-66262D01*
X89087Y-66232D01*
X89102Y-66217D01*
X89132Y-66202D01*
X89207Y-66202D01*
X89237Y-66217D01*
X89252Y-66232D01*
X89267Y-66262D01*
X89267Y-66337D01*
X89252Y-66367D01*
X89237Y-66382D01*
X89267Y-65902D02*
X89267Y-66082D01*
X89267Y-65992D02*
X88952Y-65992D01*
X88997Y-66022D01*
X89027Y-66052D01*
X89042Y-66082D01*
X85742Y-55287D02*
X85757Y-55302D01*
X85772Y-55347D01*
X85772Y-55377D01*
X85757Y-55422D01*
X85727Y-55452D01*
X85697Y-55467D01*
X85637Y-55482D01*
X85592Y-55482D01*
X85532Y-55467D01*
X85502Y-55452D01*
X85472Y-55422D01*
X85457Y-55377D01*
X85457Y-55347D01*
X85472Y-55302D01*
X85487Y-55287D01*
X85457Y-55002D02*
X85457Y-55152D01*
X85607Y-55167D01*
X85592Y-55152D01*
X85577Y-55122D01*
X85577Y-55047D01*
X85592Y-55017D01*
X85607Y-55002D01*
X85637Y-54987D01*
X85712Y-54987D01*
X85742Y-55002D01*
X85757Y-55017D01*
X85772Y-55047D01*
X85772Y-55122D01*
X85757Y-55152D01*
X85742Y-55167D01*
X85487Y-54867D02*
X85472Y-54852D01*
X85457Y-54822D01*
X85457Y-54747D01*
X85472Y-54717D01*
X85487Y-54702D01*
X85517Y-54687D01*
X85547Y-54687D01*
X85592Y-54702D01*
X85772Y-54882D01*
X85772Y-54687D01*
X90333Y-53582D02*
X90318Y-53597D01*
X90273Y-53612D01*
X90243Y-53612D01*
X90198Y-53597D01*
X90168Y-53567D01*
X90153Y-53537D01*
X90138Y-53477D01*
X90138Y-53432D01*
X90153Y-53372D01*
X90168Y-53342D01*
X90198Y-53312D01*
X90243Y-53297D01*
X90273Y-53297D01*
X90318Y-53312D01*
X90333Y-53327D01*
X90618Y-53297D02*
X90468Y-53297D01*
X90453Y-53447D01*
X90468Y-53432D01*
X90498Y-53417D01*
X90573Y-53417D01*
X90603Y-53432D01*
X90618Y-53447D01*
X90633Y-53477D01*
X90633Y-53552D01*
X90618Y-53582D01*
X90603Y-53597D01*
X90573Y-53612D01*
X90498Y-53612D01*
X90468Y-53597D01*
X90453Y-53582D01*
X90738Y-53297D02*
X90933Y-53297D01*
X90828Y-53417D01*
X90873Y-53417D01*
X90903Y-53432D01*
X90918Y-53447D01*
X90933Y-53477D01*
X90933Y-53552D01*
X90918Y-53582D01*
X90903Y-53597D01*
X90873Y-53612D01*
X90783Y-53612D01*
X90753Y-53597D01*
X90738Y-53582D01*
X92958Y-51727D02*
X92943Y-51742D01*
X92898Y-51757D01*
X92868Y-51757D01*
X92823Y-51742D01*
X92793Y-51712D01*
X92778Y-51682D01*
X92763Y-51622D01*
X92763Y-51577D01*
X92778Y-51517D01*
X92793Y-51487D01*
X92823Y-51457D01*
X92868Y-51442D01*
X92898Y-51442D01*
X92943Y-51457D01*
X92958Y-51472D01*
X93243Y-51442D02*
X93093Y-51442D01*
X93078Y-51592D01*
X93093Y-51577D01*
X93123Y-51562D01*
X93198Y-51562D01*
X93228Y-51577D01*
X93243Y-51592D01*
X93258Y-51622D01*
X93258Y-51697D01*
X93243Y-51727D01*
X93228Y-51742D01*
X93198Y-51757D01*
X93123Y-51757D01*
X93093Y-51742D01*
X93078Y-51727D01*
X93528Y-51547D02*
X93528Y-51757D01*
X93453Y-51427D02*
X93378Y-51652D01*
X93573Y-51652D01*
X70342Y-46769D02*
X70327Y-46784D01*
X70282Y-46799D01*
X70252Y-46799D01*
X70207Y-46784D01*
X70177Y-46754D01*
X70162Y-46724D01*
X70147Y-46664D01*
X70147Y-46619D01*
X70162Y-46559D01*
X70177Y-46529D01*
X70207Y-46499D01*
X70252Y-46484D01*
X70282Y-46484D01*
X70327Y-46499D01*
X70342Y-46514D01*
X70627Y-46484D02*
X70477Y-46484D01*
X70462Y-46634D01*
X70477Y-46619D01*
X70507Y-46604D01*
X70582Y-46604D01*
X70612Y-46619D01*
X70627Y-46634D01*
X70642Y-46664D01*
X70642Y-46739D01*
X70627Y-46769D01*
X70612Y-46784D01*
X70582Y-46799D01*
X70507Y-46799D01*
X70477Y-46784D01*
X70462Y-46769D01*
X70927Y-46484D02*
X70777Y-46484D01*
X70762Y-46634D01*
X70777Y-46619D01*
X70807Y-46604D01*
X70882Y-46604D01*
X70912Y-46619D01*
X70927Y-46634D01*
X70942Y-46664D01*
X70942Y-46739D01*
X70927Y-46769D01*
X70912Y-46784D01*
X70882Y-46799D01*
X70807Y-46799D01*
X70777Y-46784D01*
X70762Y-46769D01*
X87558Y-53297D02*
X87543Y-53312D01*
X87498Y-53327D01*
X87468Y-53327D01*
X87423Y-53312D01*
X87393Y-53282D01*
X87378Y-53252D01*
X87363Y-53192D01*
X87363Y-53147D01*
X87378Y-53087D01*
X87393Y-53057D01*
X87423Y-53027D01*
X87468Y-53012D01*
X87498Y-53012D01*
X87543Y-53027D01*
X87558Y-53042D01*
X87843Y-53012D02*
X87693Y-53012D01*
X87678Y-53162D01*
X87693Y-53147D01*
X87723Y-53132D01*
X87798Y-53132D01*
X87828Y-53147D01*
X87843Y-53162D01*
X87858Y-53192D01*
X87858Y-53267D01*
X87843Y-53297D01*
X87828Y-53312D01*
X87798Y-53327D01*
X87723Y-53327D01*
X87693Y-53312D01*
X87678Y-53297D01*
X88128Y-53012D02*
X88068Y-53012D01*
X88038Y-53027D01*
X88023Y-53042D01*
X87993Y-53087D01*
X87978Y-53147D01*
X87978Y-53267D01*
X87993Y-53297D01*
X88008Y-53312D01*
X88038Y-53327D01*
X88098Y-53327D01*
X88128Y-53312D01*
X88143Y-53297D01*
X88158Y-53267D01*
X88158Y-53192D01*
X88143Y-53162D01*
X88128Y-53147D01*
X88098Y-53132D01*
X88038Y-53132D01*
X88008Y-53147D01*
X87993Y-53162D01*
X87978Y-53192D01*
X91523Y-52217D02*
X91508Y-52232D01*
X91463Y-52247D01*
X91433Y-52247D01*
X91388Y-52232D01*
X91358Y-52202D01*
X91343Y-52172D01*
X91328Y-52112D01*
X91328Y-52067D01*
X91343Y-52007D01*
X91358Y-51977D01*
X91388Y-51947D01*
X91433Y-51932D01*
X91463Y-51932D01*
X91508Y-51947D01*
X91523Y-51962D01*
X91808Y-51932D02*
X91658Y-51932D01*
X91643Y-52082D01*
X91658Y-52067D01*
X91688Y-52052D01*
X91763Y-52052D01*
X91793Y-52067D01*
X91808Y-52082D01*
X91823Y-52112D01*
X91823Y-52187D01*
X91808Y-52217D01*
X91793Y-52232D01*
X91763Y-52247D01*
X91688Y-52247D01*
X91658Y-52232D01*
X91643Y-52217D01*
X91928Y-51932D02*
X92138Y-51932D01*
X92003Y-52247D01*
X91067Y-66487D02*
X91082Y-66502D01*
X91097Y-66547D01*
X91097Y-66577D01*
X91082Y-66622D01*
X91052Y-66652D01*
X91022Y-66667D01*
X90962Y-66682D01*
X90917Y-66682D01*
X90857Y-66667D01*
X90827Y-66652D01*
X90797Y-66622D01*
X90782Y-66577D01*
X90782Y-66547D01*
X90797Y-66502D01*
X90812Y-66487D01*
X90782Y-66217D02*
X90782Y-66277D01*
X90797Y-66307D01*
X90812Y-66322D01*
X90857Y-66352D01*
X90917Y-66367D01*
X91037Y-66367D01*
X91067Y-66352D01*
X91082Y-66337D01*
X91097Y-66307D01*
X91097Y-66247D01*
X91082Y-66217D01*
X91067Y-66202D01*
X91037Y-66187D01*
X90962Y-66187D01*
X90932Y-66202D01*
X90917Y-66217D01*
X90902Y-66247D01*
X90902Y-66307D01*
X90917Y-66337D01*
X90932Y-66352D01*
X90962Y-66367D01*
X90782Y-65992D02*
X90782Y-65962D01*
X90797Y-65932D01*
X90812Y-65917D01*
X90842Y-65902D01*
X90902Y-65887D01*
X90977Y-65887D01*
X91037Y-65902D01*
X91067Y-65917D01*
X91082Y-65932D01*
X91097Y-65962D01*
X91097Y-65992D01*
X91082Y-66022D01*
X91067Y-66037D01*
X91037Y-66052D01*
X90977Y-66067D01*
X90902Y-66067D01*
X90842Y-66052D01*
X90812Y-66037D01*
X90797Y-66022D01*
X90782Y-65992D01*
X78616Y-51359D02*
X78616Y-51044D01*
X78691Y-51044D01*
X78736Y-51059D01*
X78766Y-51089D01*
X78781Y-51119D01*
X78796Y-51179D01*
X78796Y-51224D01*
X78781Y-51284D01*
X78766Y-51314D01*
X78736Y-51344D01*
X78691Y-51359D01*
X78616Y-51359D01*
X79096Y-51359D02*
X78916Y-51359D01*
X79006Y-51359D02*
X79006Y-51044D01*
X78976Y-51089D01*
X78946Y-51119D01*
X78916Y-51134D01*
X91663Y-61457D02*
X91663Y-61142D01*
X91738Y-61142D01*
X91783Y-61157D01*
X91813Y-61187D01*
X91828Y-61217D01*
X91843Y-61277D01*
X91843Y-61322D01*
X91828Y-61382D01*
X91813Y-61412D01*
X91783Y-61442D01*
X91738Y-61457D01*
X91663Y-61457D01*
X92128Y-61142D02*
X91978Y-61142D01*
X91963Y-61292D01*
X91978Y-61277D01*
X92008Y-61262D01*
X92083Y-61262D01*
X92113Y-61277D01*
X92128Y-61292D01*
X92143Y-61322D01*
X92143Y-61397D01*
X92128Y-61427D01*
X92113Y-61442D01*
X92083Y-61457D01*
X92008Y-61457D01*
X91978Y-61442D01*
X91963Y-61427D01*
X73235Y-49282D02*
X73235Y-49507D01*
X73220Y-49552D01*
X73190Y-49582D01*
X73145Y-49597D01*
X73115Y-49597D01*
X73550Y-49597D02*
X73370Y-49597D01*
X73460Y-49597D02*
X73460Y-49282D01*
X73430Y-49327D01*
X73400Y-49357D01*
X73370Y-49372D01*
X66755Y-47567D02*
X66755Y-47792D01*
X66740Y-47837D01*
X66710Y-47867D01*
X66665Y-47882D01*
X66635Y-47882D01*
X66950Y-47702D02*
X66920Y-47687D01*
X66905Y-47672D01*
X66890Y-47642D01*
X66890Y-47627D01*
X66905Y-47597D01*
X66920Y-47582D01*
X66950Y-47567D01*
X67010Y-47567D01*
X67040Y-47582D01*
X67055Y-47597D01*
X67070Y-47627D01*
X67070Y-47642D01*
X67055Y-47672D01*
X67040Y-47687D01*
X67010Y-47702D01*
X66950Y-47702D01*
X66920Y-47717D01*
X66905Y-47732D01*
X66890Y-47762D01*
X66890Y-47822D01*
X66905Y-47852D01*
X66920Y-47867D01*
X66950Y-47882D01*
X67010Y-47882D01*
X67040Y-47867D01*
X67055Y-47852D01*
X67070Y-47822D01*
X67070Y-47762D01*
X67055Y-47732D01*
X67040Y-47717D01*
X67010Y-47702D01*
X67832Y-51567D02*
X68057Y-51567D01*
X68102Y-51582D01*
X68132Y-51612D01*
X68147Y-51657D01*
X68147Y-51687D01*
X68147Y-51252D02*
X68147Y-51432D01*
X68147Y-51342D02*
X67832Y-51342D01*
X67877Y-51372D01*
X67907Y-51402D01*
X67922Y-51432D01*
X67832Y-50967D02*
X67832Y-51117D01*
X67982Y-51132D01*
X67967Y-51117D01*
X67952Y-51087D01*
X67952Y-51012D01*
X67967Y-50982D01*
X67982Y-50967D01*
X68012Y-50952D01*
X68087Y-50952D01*
X68117Y-50967D01*
X68132Y-50982D01*
X68147Y-51012D01*
X68147Y-51087D01*
X68132Y-51117D01*
X68117Y-51132D01*
G54D19*
X65928Y-51252D02*
X65793Y-51252D01*
X65860Y-51252D02*
X65860Y-51016D01*
X65838Y-51049D01*
X65815Y-51072D01*
X65793Y-51083D01*
G54D17*
X89065Y-44512D02*
X89065Y-44737D01*
X89050Y-44782D01*
X89020Y-44812D01*
X88975Y-44827D01*
X88945Y-44827D01*
X89380Y-44827D02*
X89200Y-44827D01*
X89290Y-44827D02*
X89290Y-44512D01*
X89260Y-44557D01*
X89230Y-44587D01*
X89200Y-44602D01*
X89485Y-44512D02*
X89695Y-44512D01*
X89560Y-44827D01*
X89265Y-47268D02*
X89115Y-47268D01*
X89100Y-47418D01*
X89115Y-47403D01*
X89145Y-47388D01*
X89220Y-47388D01*
X89250Y-47403D01*
X89265Y-47418D01*
X89280Y-47448D01*
X89280Y-47523D01*
X89265Y-47553D01*
X89250Y-47568D01*
X89220Y-47583D01*
X89145Y-47583D01*
X89115Y-47568D01*
X89100Y-47553D01*
X89370Y-47268D02*
X89475Y-47583D01*
X89580Y-47268D01*
X89610Y-47613D02*
X89850Y-47613D01*
X89925Y-47583D02*
X89925Y-47268D01*
X90000Y-47268D01*
X90045Y-47283D01*
X90075Y-47313D01*
X90090Y-47343D01*
X90105Y-47403D01*
X90105Y-47448D01*
X90090Y-47508D01*
X90075Y-47538D01*
X90045Y-47568D01*
X90000Y-47583D01*
X89925Y-47583D01*
X90420Y-47553D02*
X90405Y-47568D01*
X90360Y-47583D01*
X90330Y-47583D01*
X90285Y-47568D01*
X90255Y-47538D01*
X90240Y-47508D01*
X90225Y-47448D01*
X90225Y-47403D01*
X90240Y-47343D01*
X90255Y-47313D01*
X90285Y-47283D01*
X90330Y-47268D01*
X90360Y-47268D01*
X90405Y-47283D01*
X90420Y-47298D01*
X75324Y-52959D02*
X75174Y-52959D01*
X75174Y-52644D01*
X75594Y-52959D02*
X75414Y-52959D01*
X75504Y-52959D02*
X75504Y-52644D01*
X75474Y-52689D01*
X75444Y-52719D01*
X75414Y-52734D01*
X73180Y-52655D02*
X73030Y-52655D01*
X73030Y-52340D01*
X73270Y-52370D02*
X73285Y-52355D01*
X73315Y-52340D01*
X73390Y-52340D01*
X73420Y-52355D01*
X73435Y-52370D01*
X73450Y-52400D01*
X73450Y-52430D01*
X73435Y-52475D01*
X73255Y-52655D01*
X73450Y-52655D01*
X70248Y-53941D02*
X70098Y-53941D01*
X70098Y-53626D01*
X70323Y-53626D02*
X70518Y-53626D01*
X70413Y-53746D01*
X70458Y-53746D01*
X70488Y-53761D01*
X70503Y-53776D01*
X70518Y-53806D01*
X70518Y-53881D01*
X70503Y-53911D01*
X70488Y-53926D01*
X70458Y-53941D01*
X70368Y-53941D01*
X70338Y-53926D01*
X70323Y-53911D01*
X68031Y-71613D02*
X68031Y-71763D01*
X67716Y-71763D01*
X67821Y-71373D02*
X68031Y-71373D01*
X67701Y-71448D02*
X67926Y-71523D01*
X67926Y-71328D01*
X67964Y-69272D02*
X67814Y-69272D01*
X67814Y-68957D01*
X68219Y-68957D02*
X68069Y-68957D01*
X68054Y-69107D01*
X68069Y-69092D01*
X68099Y-69077D01*
X68174Y-69077D01*
X68204Y-69092D01*
X68219Y-69107D01*
X68234Y-69137D01*
X68234Y-69212D01*
X68219Y-69242D01*
X68204Y-69257D01*
X68174Y-69272D01*
X68099Y-69272D01*
X68069Y-69257D01*
X68054Y-69242D01*
X74750Y-64129D02*
X74600Y-64129D01*
X74600Y-63814D01*
X74990Y-63814D02*
X74930Y-63814D01*
X74900Y-63829D01*
X74885Y-63844D01*
X74855Y-63889D01*
X74840Y-63949D01*
X74840Y-64069D01*
X74855Y-64099D01*
X74870Y-64114D01*
X74900Y-64129D01*
X74960Y-64129D01*
X74990Y-64114D01*
X75005Y-64099D01*
X75020Y-64069D01*
X75020Y-63994D01*
X75005Y-63964D01*
X74990Y-63949D01*
X74960Y-63934D01*
X74900Y-63934D01*
X74870Y-63949D01*
X74855Y-63964D01*
X74840Y-63994D01*
X70548Y-48377D02*
X70398Y-48377D01*
X70398Y-48062D01*
X70623Y-48062D02*
X70833Y-48062D01*
X70698Y-48377D01*
X69548Y-45231D02*
X69398Y-45231D01*
X69398Y-44916D01*
X69668Y-45231D02*
X69728Y-45231D01*
X69758Y-45216D01*
X69773Y-45201D01*
X69803Y-45156D01*
X69818Y-45096D01*
X69818Y-44976D01*
X69803Y-44946D01*
X69788Y-44931D01*
X69758Y-44916D01*
X69698Y-44916D01*
X69668Y-44931D01*
X69653Y-44946D01*
X69638Y-44976D01*
X69638Y-45051D01*
X69653Y-45081D01*
X69668Y-45096D01*
X69698Y-45111D01*
X69758Y-45111D01*
X69788Y-45096D01*
X69803Y-45081D01*
X69818Y-45051D01*
X61343Y-48040D02*
X61343Y-47725D01*
X61463Y-47725D01*
X61493Y-47740D01*
X61508Y-47755D01*
X61523Y-47785D01*
X61523Y-47830D01*
X61508Y-47860D01*
X61493Y-47875D01*
X61463Y-47890D01*
X61343Y-47890D01*
X61763Y-47875D02*
X61808Y-47890D01*
X61823Y-47905D01*
X61838Y-47935D01*
X61838Y-47980D01*
X61823Y-48010D01*
X61808Y-48025D01*
X61778Y-48040D01*
X61658Y-48040D01*
X61658Y-47725D01*
X61763Y-47725D01*
X61793Y-47740D01*
X61808Y-47755D01*
X61823Y-47785D01*
X61823Y-47815D01*
X61808Y-47845D01*
X61793Y-47860D01*
X61763Y-47875D01*
X61658Y-47875D01*
X62138Y-48040D02*
X61958Y-48040D01*
X62048Y-48040D02*
X62048Y-47725D01*
X62018Y-47770D01*
X61988Y-47800D01*
X61958Y-47815D01*
X63131Y-49112D02*
X62981Y-49217D01*
X63131Y-49292D02*
X62816Y-49292D01*
X62816Y-49172D01*
X62831Y-49142D01*
X62846Y-49127D01*
X62876Y-49112D01*
X62921Y-49112D01*
X62951Y-49127D01*
X62966Y-49142D01*
X62981Y-49172D01*
X62981Y-49292D01*
X62966Y-48977D02*
X62966Y-48872D01*
X63131Y-48827D02*
X63131Y-48977D01*
X62816Y-48977D01*
X62816Y-48827D01*
X63116Y-48707D02*
X63131Y-48662D01*
X63131Y-48587D01*
X63116Y-48557D01*
X63101Y-48542D01*
X63071Y-48527D01*
X63041Y-48527D01*
X63011Y-48542D01*
X62996Y-48557D01*
X62981Y-48587D01*
X62966Y-48647D01*
X62951Y-48677D01*
X62936Y-48692D01*
X62906Y-48707D01*
X62876Y-48707D01*
X62846Y-48692D01*
X62831Y-48677D01*
X62816Y-48647D01*
X62816Y-48572D01*
X62831Y-48527D01*
X62966Y-48392D02*
X62966Y-48287D01*
X63131Y-48242D02*
X63131Y-48392D01*
X62816Y-48392D01*
X62816Y-48242D01*
X62816Y-48152D02*
X62816Y-47972D01*
X63131Y-48062D02*
X62816Y-48062D01*
X71391Y-56212D02*
X71241Y-56317D01*
X71391Y-56392D02*
X71076Y-56392D01*
X71076Y-56272D01*
X71091Y-56242D01*
X71106Y-56227D01*
X71136Y-56212D01*
X71181Y-56212D01*
X71211Y-56227D01*
X71226Y-56242D01*
X71241Y-56272D01*
X71241Y-56392D01*
X71391Y-55912D02*
X71391Y-56092D01*
X71391Y-56002D02*
X71076Y-56002D01*
X71121Y-56032D01*
X71151Y-56062D01*
X71166Y-56092D01*
X73644Y-57327D02*
X73539Y-57177D01*
X73464Y-57327D02*
X73464Y-57012D01*
X73584Y-57012D01*
X73614Y-57027D01*
X73629Y-57042D01*
X73644Y-57072D01*
X73644Y-57117D01*
X73629Y-57147D01*
X73614Y-57162D01*
X73584Y-57177D01*
X73464Y-57177D01*
X73764Y-57042D02*
X73779Y-57027D01*
X73809Y-57012D01*
X73884Y-57012D01*
X73914Y-57027D01*
X73929Y-57042D01*
X73944Y-57072D01*
X73944Y-57102D01*
X73929Y-57147D01*
X73749Y-57327D01*
X73944Y-57327D01*
X71548Y-52319D02*
X71443Y-52169D01*
X71368Y-52319D02*
X71368Y-52004D01*
X71488Y-52004D01*
X71518Y-52019D01*
X71533Y-52034D01*
X71548Y-52064D01*
X71548Y-52109D01*
X71533Y-52139D01*
X71518Y-52154D01*
X71488Y-52169D01*
X71368Y-52169D01*
X71653Y-52004D02*
X71848Y-52004D01*
X71743Y-52124D01*
X71788Y-52124D01*
X71818Y-52139D01*
X71833Y-52154D01*
X71848Y-52184D01*
X71848Y-52259D01*
X71833Y-52289D01*
X71818Y-52304D01*
X71788Y-52319D01*
X71698Y-52319D01*
X71668Y-52304D01*
X71653Y-52289D01*
X75276Y-57455D02*
X75171Y-57305D01*
X75096Y-57455D02*
X75096Y-57140D01*
X75216Y-57140D01*
X75246Y-57155D01*
X75261Y-57170D01*
X75276Y-57200D01*
X75276Y-57245D01*
X75261Y-57275D01*
X75246Y-57290D01*
X75216Y-57305D01*
X75096Y-57305D01*
X75546Y-57245D02*
X75546Y-57455D01*
X75471Y-57125D02*
X75396Y-57350D01*
X75591Y-57350D01*
X78182Y-55597D02*
X78032Y-55702D01*
X78182Y-55777D02*
X77867Y-55777D01*
X77867Y-55657D01*
X77882Y-55627D01*
X77897Y-55612D01*
X77927Y-55597D01*
X77972Y-55597D01*
X78002Y-55612D01*
X78017Y-55627D01*
X78032Y-55657D01*
X78032Y-55777D01*
X77867Y-55312D02*
X77867Y-55462D01*
X78017Y-55477D01*
X78002Y-55462D01*
X77987Y-55432D01*
X77987Y-55357D01*
X78002Y-55327D01*
X78017Y-55312D01*
X78047Y-55297D01*
X78122Y-55297D01*
X78152Y-55312D01*
X78167Y-55327D01*
X78182Y-55357D01*
X78182Y-55432D01*
X78167Y-55462D01*
X78152Y-55477D01*
X68503Y-57122D02*
X68398Y-56972D01*
X68323Y-57122D02*
X68323Y-56807D01*
X68443Y-56807D01*
X68473Y-56822D01*
X68488Y-56837D01*
X68503Y-56867D01*
X68503Y-56912D01*
X68488Y-56942D01*
X68473Y-56957D01*
X68443Y-56972D01*
X68323Y-56972D01*
X68773Y-56807D02*
X68713Y-56807D01*
X68683Y-56822D01*
X68668Y-56837D01*
X68638Y-56882D01*
X68623Y-56942D01*
X68623Y-57062D01*
X68638Y-57092D01*
X68653Y-57107D01*
X68683Y-57122D01*
X68743Y-57122D01*
X68773Y-57107D01*
X68788Y-57092D01*
X68803Y-57062D01*
X68803Y-56987D01*
X68788Y-56957D01*
X68773Y-56942D01*
X68743Y-56927D01*
X68683Y-56927D01*
X68653Y-56942D01*
X68638Y-56957D01*
X68623Y-56987D01*
X67643Y-57122D02*
X67538Y-56972D01*
X67463Y-57122D02*
X67463Y-56807D01*
X67583Y-56807D01*
X67613Y-56822D01*
X67628Y-56837D01*
X67643Y-56867D01*
X67643Y-56912D01*
X67628Y-56942D01*
X67613Y-56957D01*
X67583Y-56972D01*
X67463Y-56972D01*
X67748Y-56807D02*
X67958Y-56807D01*
X67823Y-57122D01*
X80783Y-56462D02*
X80678Y-56312D01*
X80603Y-56462D02*
X80603Y-56147D01*
X80723Y-56147D01*
X80753Y-56162D01*
X80768Y-56177D01*
X80783Y-56207D01*
X80783Y-56252D01*
X80768Y-56282D01*
X80753Y-56297D01*
X80723Y-56312D01*
X80603Y-56312D01*
X81083Y-56462D02*
X80903Y-56462D01*
X80993Y-56462D02*
X80993Y-56147D01*
X80963Y-56192D01*
X80933Y-56222D01*
X80903Y-56237D01*
X81278Y-56147D02*
X81308Y-56147D01*
X81338Y-56162D01*
X81353Y-56177D01*
X81368Y-56207D01*
X81383Y-56267D01*
X81383Y-56342D01*
X81368Y-56402D01*
X81353Y-56432D01*
X81338Y-56447D01*
X81308Y-56462D01*
X81278Y-56462D01*
X81248Y-56447D01*
X81233Y-56432D01*
X81218Y-56402D01*
X81203Y-56342D01*
X81203Y-56267D01*
X81218Y-56207D01*
X81233Y-56177D01*
X81248Y-56162D01*
X81278Y-56147D01*
G54D19*
X73064Y-67008D02*
X72985Y-66895D01*
X72929Y-67008D02*
X72929Y-66772D01*
X73019Y-66772D01*
X73042Y-66783D01*
X73053Y-66794D01*
X73064Y-66816D01*
X73064Y-66850D01*
X73053Y-66873D01*
X73042Y-66884D01*
X73019Y-66895D01*
X72929Y-66895D01*
X73289Y-67008D02*
X73154Y-67008D01*
X73221Y-67008D02*
X73221Y-66772D01*
X73199Y-66805D01*
X73176Y-66828D01*
X73154Y-66839D01*
X73379Y-66794D02*
X73390Y-66783D01*
X73413Y-66772D01*
X73469Y-66772D01*
X73491Y-66783D01*
X73503Y-66794D01*
X73514Y-66816D01*
X73514Y-66839D01*
X73503Y-66873D01*
X73368Y-67008D01*
X73514Y-67008D01*
G54D17*
X76054Y-52255D02*
X75949Y-52105D01*
X75874Y-52255D02*
X75874Y-51940D01*
X75994Y-51940D01*
X76024Y-51955D01*
X76039Y-51970D01*
X76054Y-52000D01*
X76054Y-52045D01*
X76039Y-52075D01*
X76024Y-52090D01*
X75994Y-52105D01*
X75874Y-52105D01*
X76354Y-52255D02*
X76174Y-52255D01*
X76264Y-52255D02*
X76264Y-51940D01*
X76234Y-51985D01*
X76204Y-52015D01*
X76174Y-52030D01*
X76459Y-51940D02*
X76654Y-51940D01*
X76549Y-52060D01*
X76594Y-52060D01*
X76624Y-52075D01*
X76639Y-52090D01*
X76654Y-52120D01*
X76654Y-52195D01*
X76639Y-52225D01*
X76624Y-52240D01*
X76594Y-52255D01*
X76504Y-52255D01*
X76474Y-52240D01*
X76459Y-52225D01*
X74374Y-52207D02*
X74269Y-52057D01*
X74194Y-52207D02*
X74194Y-51892D01*
X74314Y-51892D01*
X74344Y-51907D01*
X74359Y-51922D01*
X74374Y-51952D01*
X74374Y-51997D01*
X74359Y-52027D01*
X74344Y-52042D01*
X74314Y-52057D01*
X74194Y-52057D01*
X74674Y-52207D02*
X74494Y-52207D01*
X74584Y-52207D02*
X74584Y-51892D01*
X74554Y-51937D01*
X74524Y-51967D01*
X74494Y-51982D01*
X74944Y-51997D02*
X74944Y-52207D01*
X74869Y-51877D02*
X74794Y-52102D01*
X74989Y-52102D01*
X75238Y-50612D02*
X75133Y-50462D01*
X75058Y-50612D02*
X75058Y-50297D01*
X75178Y-50297D01*
X75208Y-50312D01*
X75223Y-50327D01*
X75238Y-50357D01*
X75238Y-50402D01*
X75223Y-50432D01*
X75208Y-50447D01*
X75178Y-50462D01*
X75058Y-50462D01*
X75538Y-50612D02*
X75358Y-50612D01*
X75448Y-50612D02*
X75448Y-50297D01*
X75418Y-50342D01*
X75388Y-50372D01*
X75358Y-50387D01*
X75823Y-50297D02*
X75673Y-50297D01*
X75658Y-50447D01*
X75673Y-50432D01*
X75703Y-50417D01*
X75778Y-50417D01*
X75808Y-50432D01*
X75823Y-50447D01*
X75838Y-50477D01*
X75838Y-50552D01*
X75823Y-50582D01*
X75808Y-50597D01*
X75778Y-50612D01*
X75703Y-50612D01*
X75673Y-50597D01*
X75658Y-50582D01*
G54D19*
X77624Y-52192D02*
X77545Y-52079D01*
X77489Y-52192D02*
X77489Y-51956D01*
X77579Y-51956D01*
X77602Y-51967D01*
X77613Y-51978D01*
X77624Y-52000D01*
X77624Y-52034D01*
X77613Y-52057D01*
X77602Y-52068D01*
X77579Y-52079D01*
X77489Y-52079D01*
X77849Y-52192D02*
X77714Y-52192D01*
X77781Y-52192D02*
X77781Y-51956D01*
X77759Y-51989D01*
X77736Y-52012D01*
X77714Y-52023D01*
X78051Y-51956D02*
X78006Y-51956D01*
X77984Y-51967D01*
X77973Y-51978D01*
X77950Y-52012D01*
X77939Y-52057D01*
X77939Y-52147D01*
X77950Y-52169D01*
X77961Y-52180D01*
X77984Y-52192D01*
X78029Y-52192D01*
X78051Y-52180D01*
X78063Y-52169D01*
X78074Y-52147D01*
X78074Y-52090D01*
X78063Y-52068D01*
X78051Y-52057D01*
X78029Y-52045D01*
X77984Y-52045D01*
X77961Y-52057D01*
X77950Y-52068D01*
X77939Y-52090D01*
G54D17*
X76843Y-50612D02*
X76738Y-50462D01*
X76663Y-50612D02*
X76663Y-50297D01*
X76783Y-50297D01*
X76813Y-50312D01*
X76828Y-50327D01*
X76843Y-50357D01*
X76843Y-50402D01*
X76828Y-50432D01*
X76813Y-50447D01*
X76783Y-50462D01*
X76663Y-50462D01*
X77143Y-50612D02*
X76963Y-50612D01*
X77053Y-50612D02*
X77053Y-50297D01*
X77023Y-50342D01*
X76993Y-50372D01*
X76963Y-50387D01*
X77248Y-50297D02*
X77458Y-50297D01*
X77323Y-50612D01*
X84351Y-64266D02*
X84201Y-64371D01*
X84351Y-64446D02*
X84036Y-64446D01*
X84036Y-64326D01*
X84051Y-64296D01*
X84066Y-64281D01*
X84096Y-64266D01*
X84141Y-64266D01*
X84171Y-64281D01*
X84186Y-64296D01*
X84201Y-64326D01*
X84201Y-64446D01*
X84351Y-63966D02*
X84351Y-64146D01*
X84351Y-64056D02*
X84036Y-64056D01*
X84081Y-64086D01*
X84111Y-64116D01*
X84126Y-64146D01*
X84171Y-63786D02*
X84156Y-63816D01*
X84141Y-63831D01*
X84111Y-63846D01*
X84096Y-63846D01*
X84066Y-63831D01*
X84051Y-63816D01*
X84036Y-63786D01*
X84036Y-63726D01*
X84051Y-63696D01*
X84066Y-63681D01*
X84096Y-63666D01*
X84111Y-63666D01*
X84141Y-63681D01*
X84156Y-63696D01*
X84171Y-63726D01*
X84171Y-63786D01*
X84186Y-63816D01*
X84201Y-63831D01*
X84231Y-63846D01*
X84291Y-63846D01*
X84321Y-63831D01*
X84336Y-63816D01*
X84351Y-63786D01*
X84351Y-63726D01*
X84336Y-63696D01*
X84321Y-63681D01*
X84291Y-63666D01*
X84231Y-63666D01*
X84201Y-63681D01*
X84186Y-63696D01*
X84171Y-63726D01*
X83882Y-54957D02*
X83732Y-55062D01*
X83882Y-55137D02*
X83567Y-55137D01*
X83567Y-55017D01*
X83582Y-54987D01*
X83597Y-54972D01*
X83627Y-54957D01*
X83672Y-54957D01*
X83702Y-54972D01*
X83717Y-54987D01*
X83732Y-55017D01*
X83732Y-55137D01*
X83882Y-54657D02*
X83882Y-54837D01*
X83882Y-54747D02*
X83567Y-54747D01*
X83612Y-54777D01*
X83642Y-54807D01*
X83657Y-54837D01*
X83882Y-54507D02*
X83882Y-54447D01*
X83867Y-54417D01*
X83852Y-54402D01*
X83807Y-54372D01*
X83747Y-54357D01*
X83627Y-54357D01*
X83597Y-54372D01*
X83582Y-54387D01*
X83567Y-54417D01*
X83567Y-54477D01*
X83582Y-54507D01*
X83597Y-54522D01*
X83627Y-54537D01*
X83702Y-54537D01*
X83732Y-54522D01*
X83747Y-54507D01*
X83762Y-54477D01*
X83762Y-54417D01*
X83747Y-54387D01*
X83732Y-54372D01*
X83702Y-54357D01*
X85073Y-57412D02*
X84968Y-57262D01*
X84893Y-57412D02*
X84893Y-57097D01*
X85013Y-57097D01*
X85043Y-57112D01*
X85058Y-57127D01*
X85073Y-57157D01*
X85073Y-57202D01*
X85058Y-57232D01*
X85043Y-57247D01*
X85013Y-57262D01*
X84893Y-57262D01*
X85193Y-57127D02*
X85208Y-57112D01*
X85238Y-57097D01*
X85313Y-57097D01*
X85343Y-57112D01*
X85358Y-57127D01*
X85373Y-57157D01*
X85373Y-57187D01*
X85358Y-57232D01*
X85178Y-57412D01*
X85373Y-57412D01*
X85568Y-57097D02*
X85598Y-57097D01*
X85628Y-57112D01*
X85643Y-57127D01*
X85658Y-57157D01*
X85673Y-57217D01*
X85673Y-57292D01*
X85658Y-57352D01*
X85643Y-57382D01*
X85628Y-57397D01*
X85598Y-57412D01*
X85568Y-57412D01*
X85538Y-57397D01*
X85523Y-57382D01*
X85508Y-57352D01*
X85493Y-57292D01*
X85493Y-57217D01*
X85508Y-57157D01*
X85523Y-57127D01*
X85538Y-57112D01*
X85568Y-57097D01*
X84607Y-54757D02*
X84457Y-54862D01*
X84607Y-54937D02*
X84292Y-54937D01*
X84292Y-54817D01*
X84307Y-54787D01*
X84322Y-54772D01*
X84352Y-54757D01*
X84397Y-54757D01*
X84427Y-54772D01*
X84442Y-54787D01*
X84457Y-54817D01*
X84457Y-54937D01*
X84322Y-54637D02*
X84307Y-54622D01*
X84292Y-54592D01*
X84292Y-54517D01*
X84307Y-54487D01*
X84322Y-54472D01*
X84352Y-54457D01*
X84382Y-54457D01*
X84427Y-54472D01*
X84607Y-54652D01*
X84607Y-54457D01*
X84607Y-54157D02*
X84607Y-54337D01*
X84607Y-54247D02*
X84292Y-54247D01*
X84337Y-54277D01*
X84367Y-54307D01*
X84382Y-54337D01*
X73718Y-50612D02*
X73613Y-50462D01*
X73538Y-50612D02*
X73538Y-50297D01*
X73658Y-50297D01*
X73688Y-50312D01*
X73703Y-50327D01*
X73718Y-50357D01*
X73718Y-50402D01*
X73703Y-50432D01*
X73688Y-50447D01*
X73658Y-50462D01*
X73538Y-50462D01*
X73838Y-50327D02*
X73853Y-50312D01*
X73883Y-50297D01*
X73958Y-50297D01*
X73988Y-50312D01*
X74003Y-50327D01*
X74018Y-50357D01*
X74018Y-50387D01*
X74003Y-50432D01*
X73823Y-50612D01*
X74018Y-50612D01*
X74138Y-50327D02*
X74153Y-50312D01*
X74183Y-50297D01*
X74258Y-50297D01*
X74288Y-50312D01*
X74303Y-50327D01*
X74318Y-50357D01*
X74318Y-50387D01*
X74303Y-50432D01*
X74123Y-50612D01*
X74318Y-50612D01*
X72918Y-52223D02*
X72813Y-52073D01*
X72738Y-52223D02*
X72738Y-51908D01*
X72858Y-51908D01*
X72888Y-51923D01*
X72903Y-51938D01*
X72918Y-51968D01*
X72918Y-52013D01*
X72903Y-52043D01*
X72888Y-52058D01*
X72858Y-52073D01*
X72738Y-52073D01*
X73038Y-51938D02*
X73053Y-51923D01*
X73083Y-51908D01*
X73158Y-51908D01*
X73188Y-51923D01*
X73203Y-51938D01*
X73218Y-51968D01*
X73218Y-51998D01*
X73203Y-52043D01*
X73023Y-52223D01*
X73218Y-52223D01*
X73323Y-51908D02*
X73518Y-51908D01*
X73413Y-52028D01*
X73458Y-52028D01*
X73488Y-52043D01*
X73503Y-52058D01*
X73518Y-52088D01*
X73518Y-52163D01*
X73503Y-52193D01*
X73488Y-52208D01*
X73458Y-52223D01*
X73368Y-52223D01*
X73338Y-52208D01*
X73323Y-52193D01*
X92703Y-62052D02*
X92598Y-61902D01*
X92523Y-62052D02*
X92523Y-61737D01*
X92643Y-61737D01*
X92673Y-61752D01*
X92688Y-61767D01*
X92703Y-61797D01*
X92703Y-61842D01*
X92688Y-61872D01*
X92673Y-61887D01*
X92643Y-61902D01*
X92523Y-61902D01*
X92823Y-61767D02*
X92838Y-61752D01*
X92868Y-61737D01*
X92943Y-61737D01*
X92973Y-61752D01*
X92988Y-61767D01*
X93003Y-61797D01*
X93003Y-61827D01*
X92988Y-61872D01*
X92808Y-62052D01*
X93003Y-62052D01*
X93288Y-61737D02*
X93138Y-61737D01*
X93123Y-61887D01*
X93138Y-61872D01*
X93168Y-61857D01*
X93243Y-61857D01*
X93273Y-61872D01*
X93288Y-61887D01*
X93303Y-61917D01*
X93303Y-61992D01*
X93288Y-62022D01*
X93273Y-62037D01*
X93243Y-62052D01*
X93168Y-62052D01*
X93138Y-62037D01*
X93123Y-62022D01*
X84497Y-48422D02*
X84347Y-48527D01*
X84497Y-48602D02*
X84182Y-48602D01*
X84182Y-48482D01*
X84197Y-48452D01*
X84212Y-48437D01*
X84242Y-48422D01*
X84287Y-48422D01*
X84317Y-48437D01*
X84332Y-48452D01*
X84347Y-48482D01*
X84347Y-48602D01*
X84212Y-48302D02*
X84197Y-48287D01*
X84182Y-48257D01*
X84182Y-48182D01*
X84197Y-48152D01*
X84212Y-48137D01*
X84242Y-48122D01*
X84272Y-48122D01*
X84317Y-48137D01*
X84497Y-48317D01*
X84497Y-48122D01*
X84182Y-48017D02*
X84182Y-47807D01*
X84497Y-47942D01*
X78843Y-53207D02*
X78738Y-53057D01*
X78663Y-53207D02*
X78663Y-52892D01*
X78783Y-52892D01*
X78813Y-52907D01*
X78828Y-52922D01*
X78843Y-52952D01*
X78843Y-52997D01*
X78828Y-53027D01*
X78813Y-53042D01*
X78783Y-53057D01*
X78663Y-53057D01*
X78963Y-52922D02*
X78978Y-52907D01*
X79008Y-52892D01*
X79083Y-52892D01*
X79113Y-52907D01*
X79128Y-52922D01*
X79143Y-52952D01*
X79143Y-52982D01*
X79128Y-53027D01*
X78948Y-53207D01*
X79143Y-53207D01*
X79323Y-53027D02*
X79293Y-53012D01*
X79278Y-52997D01*
X79263Y-52967D01*
X79263Y-52952D01*
X79278Y-52922D01*
X79293Y-52907D01*
X79323Y-52892D01*
X79383Y-52892D01*
X79413Y-52907D01*
X79428Y-52922D01*
X79443Y-52952D01*
X79443Y-52967D01*
X79428Y-52997D01*
X79413Y-53012D01*
X79383Y-53027D01*
X79323Y-53027D01*
X79293Y-53042D01*
X79278Y-53057D01*
X79263Y-53087D01*
X79263Y-53147D01*
X79278Y-53177D01*
X79293Y-53192D01*
X79323Y-53207D01*
X79383Y-53207D01*
X79413Y-53192D01*
X79428Y-53177D01*
X79443Y-53147D01*
X79443Y-53087D01*
X79428Y-53057D01*
X79413Y-53042D01*
X79383Y-53027D01*
X79190Y-48815D02*
X79085Y-48665D01*
X79010Y-48815D02*
X79010Y-48500D01*
X79130Y-48500D01*
X79160Y-48515D01*
X79175Y-48530D01*
X79190Y-48560D01*
X79190Y-48605D01*
X79175Y-48635D01*
X79160Y-48650D01*
X79130Y-48665D01*
X79010Y-48665D01*
X79310Y-48530D02*
X79325Y-48515D01*
X79355Y-48500D01*
X79430Y-48500D01*
X79460Y-48515D01*
X79475Y-48530D01*
X79490Y-48560D01*
X79490Y-48590D01*
X79475Y-48635D01*
X79295Y-48815D01*
X79490Y-48815D01*
X79640Y-48815D02*
X79700Y-48815D01*
X79730Y-48800D01*
X79745Y-48785D01*
X79775Y-48740D01*
X79790Y-48680D01*
X79790Y-48560D01*
X79775Y-48530D01*
X79760Y-48515D01*
X79730Y-48500D01*
X79670Y-48500D01*
X79640Y-48515D01*
X79625Y-48530D01*
X79610Y-48560D01*
X79610Y-48635D01*
X79625Y-48665D01*
X79640Y-48680D01*
X79670Y-48695D01*
X79730Y-48695D01*
X79760Y-48680D01*
X79775Y-48665D01*
X79790Y-48635D01*
X77654Y-50015D02*
X77549Y-49865D01*
X77474Y-50015D02*
X77474Y-49700D01*
X77594Y-49700D01*
X77624Y-49715D01*
X77639Y-49730D01*
X77654Y-49760D01*
X77654Y-49805D01*
X77639Y-49835D01*
X77624Y-49850D01*
X77594Y-49865D01*
X77474Y-49865D01*
X77759Y-49700D02*
X77954Y-49700D01*
X77849Y-49820D01*
X77894Y-49820D01*
X77924Y-49835D01*
X77939Y-49850D01*
X77954Y-49880D01*
X77954Y-49955D01*
X77939Y-49985D01*
X77924Y-50000D01*
X77894Y-50015D01*
X77804Y-50015D01*
X77774Y-50000D01*
X77759Y-49985D01*
X78149Y-49700D02*
X78179Y-49700D01*
X78209Y-49715D01*
X78224Y-49730D01*
X78239Y-49760D01*
X78254Y-49820D01*
X78254Y-49895D01*
X78239Y-49955D01*
X78224Y-49985D01*
X78209Y-50000D01*
X78179Y-50015D01*
X78149Y-50015D01*
X78119Y-50000D01*
X78104Y-49985D01*
X78089Y-49955D01*
X78074Y-49895D01*
X78074Y-49820D01*
X78089Y-49760D01*
X78104Y-49730D01*
X78119Y-49715D01*
X78149Y-49700D01*
G54D19*
X68908Y-63924D02*
X68908Y-64115D01*
X68919Y-64137D01*
X68931Y-64148D01*
X68953Y-64160D01*
X68998Y-64160D01*
X69021Y-64148D01*
X69032Y-64137D01*
X69043Y-64115D01*
X69043Y-63924D01*
X69279Y-64160D02*
X69144Y-64160D01*
X69211Y-64160D02*
X69211Y-63924D01*
X69189Y-63957D01*
X69166Y-63980D01*
X69144Y-63991D01*
G54D20*
X70202Y-63199D02*
X70022Y-63199D01*
X70112Y-63199D02*
X70112Y-62884D01*
X70082Y-62929D01*
X70052Y-62959D01*
X70022Y-62974D01*
G54D17*
X78145Y-67697D02*
X78145Y-67952D01*
X78160Y-67982D01*
X78175Y-67997D01*
X78205Y-68012D01*
X78265Y-68012D01*
X78295Y-67997D01*
X78310Y-67982D01*
X78325Y-67952D01*
X78325Y-67697D01*
X78445Y-67697D02*
X78640Y-67697D01*
X78535Y-67817D01*
X78580Y-67817D01*
X78610Y-67832D01*
X78625Y-67847D01*
X78640Y-67877D01*
X78640Y-67952D01*
X78625Y-67982D01*
X78610Y-67997D01*
X78580Y-68012D01*
X78490Y-68012D01*
X78460Y-67997D01*
X78445Y-67982D01*
X82920Y-56522D02*
X82920Y-56777D01*
X82935Y-56807D01*
X82950Y-56822D01*
X82980Y-56837D01*
X83040Y-56837D01*
X83070Y-56822D01*
X83085Y-56807D01*
X83100Y-56777D01*
X83100Y-56522D01*
X83385Y-56627D02*
X83385Y-56837D01*
X83310Y-56507D02*
X83235Y-56732D01*
X83430Y-56732D01*
X80800Y-48500D02*
X80800Y-48755D01*
X80815Y-48785D01*
X80830Y-48800D01*
X80860Y-48815D01*
X80920Y-48815D01*
X80950Y-48800D01*
X80965Y-48785D01*
X80980Y-48755D01*
X80980Y-48500D01*
X81265Y-48500D02*
X81205Y-48500D01*
X81175Y-48515D01*
X81160Y-48530D01*
X81130Y-48575D01*
X81115Y-48635D01*
X81115Y-48755D01*
X81130Y-48785D01*
X81145Y-48800D01*
X81175Y-48815D01*
X81235Y-48815D01*
X81265Y-48800D01*
X81280Y-48785D01*
X81295Y-48755D01*
X81295Y-48680D01*
X81280Y-48650D01*
X81265Y-48635D01*
X81235Y-48620D01*
X81175Y-48620D01*
X81145Y-48635D01*
X81130Y-48650D01*
X81115Y-48680D01*
X88264Y-48412D02*
X88264Y-48667D01*
X88279Y-48697D01*
X88294Y-48712D01*
X88324Y-48727D01*
X88384Y-48727D01*
X88414Y-48712D01*
X88429Y-48697D01*
X88444Y-48667D01*
X88444Y-48412D01*
X88564Y-48412D02*
X88774Y-48412D01*
X88639Y-48727D01*
G54D20*
X89347Y-48264D02*
X89212Y-48264D01*
X89279Y-48264D02*
X89279Y-48028D01*
X89257Y-48061D01*
X89234Y-48084D01*
X89212Y-48095D01*
X89448Y-48241D02*
X89459Y-48252D01*
X89448Y-48264D01*
X89437Y-48252D01*
X89448Y-48241D01*
X89448Y-48264D01*
X89594Y-48129D02*
X89571Y-48117D01*
X89560Y-48106D01*
X89549Y-48084D01*
X89549Y-48072D01*
X89560Y-48050D01*
X89571Y-48039D01*
X89594Y-48028D01*
X89639Y-48028D01*
X89661Y-48039D01*
X89673Y-48050D01*
X89684Y-48072D01*
X89684Y-48084D01*
X89673Y-48106D01*
X89661Y-48117D01*
X89639Y-48129D01*
X89594Y-48129D01*
X89571Y-48140D01*
X89560Y-48151D01*
X89549Y-48174D01*
X89549Y-48219D01*
X89560Y-48241D01*
X89571Y-48252D01*
X89594Y-48264D01*
X89639Y-48264D01*
X89661Y-48252D01*
X89673Y-48241D01*
X89684Y-48219D01*
X89684Y-48174D01*
X89673Y-48151D01*
X89661Y-48140D01*
X89639Y-48129D01*
G54D17*
X84720Y-49164D02*
X84720Y-49419D01*
X84735Y-49449D01*
X84750Y-49464D01*
X84780Y-49479D01*
X84840Y-49479D01*
X84870Y-49464D01*
X84885Y-49449D01*
X84900Y-49419D01*
X84900Y-49164D01*
X85095Y-49299D02*
X85065Y-49284D01*
X85050Y-49269D01*
X85035Y-49239D01*
X85035Y-49224D01*
X85050Y-49194D01*
X85065Y-49179D01*
X85095Y-49164D01*
X85155Y-49164D01*
X85185Y-49179D01*
X85200Y-49194D01*
X85215Y-49224D01*
X85215Y-49239D01*
X85200Y-49269D01*
X85185Y-49284D01*
X85155Y-49299D01*
X85095Y-49299D01*
X85065Y-49314D01*
X85050Y-49329D01*
X85035Y-49359D01*
X85035Y-49419D01*
X85050Y-49449D01*
X85065Y-49464D01*
X85095Y-49479D01*
X85155Y-49479D01*
X85185Y-49464D01*
X85200Y-49449D01*
X85215Y-49419D01*
X85215Y-49359D01*
X85200Y-49329D01*
X85185Y-49314D01*
X85155Y-49299D01*
G54D20*
X85732Y-48956D02*
X85878Y-48956D01*
X85799Y-49045D01*
X85833Y-49045D01*
X85855Y-49057D01*
X85867Y-49068D01*
X85878Y-49090D01*
X85878Y-49147D01*
X85867Y-49169D01*
X85855Y-49180D01*
X85833Y-49192D01*
X85765Y-49192D01*
X85743Y-49180D01*
X85732Y-49169D01*
X85979Y-49169D02*
X85990Y-49180D01*
X85979Y-49192D01*
X85968Y-49180D01*
X85979Y-49169D01*
X85979Y-49192D01*
X86069Y-48956D02*
X86215Y-48956D01*
X86136Y-49045D01*
X86170Y-49045D01*
X86192Y-49057D01*
X86204Y-49068D01*
X86215Y-49090D01*
X86215Y-49147D01*
X86204Y-49169D01*
X86192Y-49180D01*
X86170Y-49192D01*
X86102Y-49192D01*
X86080Y-49180D01*
X86069Y-49169D01*
X86282Y-48956D02*
X86361Y-49192D01*
X86440Y-48956D01*
G54D17*
X85744Y-64196D02*
X85744Y-64451D01*
X85759Y-64481D01*
X85774Y-64496D01*
X85804Y-64511D01*
X85864Y-64511D01*
X85894Y-64496D01*
X85909Y-64481D01*
X85924Y-64451D01*
X85924Y-64196D01*
X86089Y-64511D02*
X86149Y-64511D01*
X86179Y-64496D01*
X86194Y-64481D01*
X86224Y-64436D01*
X86239Y-64376D01*
X86239Y-64256D01*
X86224Y-64226D01*
X86209Y-64211D01*
X86179Y-64196D01*
X86119Y-64196D01*
X86089Y-64211D01*
X86074Y-64226D01*
X86059Y-64256D01*
X86059Y-64331D01*
X86074Y-64361D01*
X86089Y-64376D01*
X86119Y-64391D01*
X86179Y-64391D01*
X86209Y-64376D01*
X86224Y-64361D01*
X86239Y-64331D01*
X91875Y-46472D02*
X91875Y-46727D01*
X91890Y-46757D01*
X91905Y-46772D01*
X91935Y-46787D01*
X91995Y-46787D01*
X92025Y-46772D01*
X92040Y-46757D01*
X92055Y-46727D01*
X92055Y-46472D01*
X92370Y-46787D02*
X92190Y-46787D01*
X92280Y-46787D02*
X92280Y-46472D01*
X92250Y-46517D01*
X92220Y-46547D01*
X92190Y-46562D01*
X92565Y-46472D02*
X92595Y-46472D01*
X92625Y-46487D01*
X92640Y-46502D01*
X92655Y-46532D01*
X92670Y-46592D01*
X92670Y-46667D01*
X92655Y-46727D01*
X92640Y-46757D01*
X92625Y-46772D01*
X92595Y-46787D01*
X92565Y-46787D01*
X92535Y-46772D01*
X92520Y-46757D01*
X92505Y-46727D01*
X92490Y-46667D01*
X92490Y-46592D01*
X92505Y-46532D01*
X92520Y-46502D01*
X92535Y-46487D01*
X92565Y-46472D01*
G54D20*
X92553Y-46386D02*
X92418Y-46386D01*
X92485Y-46386D02*
X92485Y-46150D01*
X92463Y-46183D01*
X92440Y-46206D01*
X92418Y-46217D01*
X92654Y-46363D02*
X92665Y-46374D01*
X92654Y-46386D01*
X92643Y-46374D01*
X92654Y-46363D01*
X92654Y-46386D01*
X92755Y-46172D02*
X92766Y-46161D01*
X92789Y-46150D01*
X92845Y-46150D01*
X92867Y-46161D01*
X92879Y-46172D01*
X92890Y-46194D01*
X92890Y-46217D01*
X92879Y-46251D01*
X92744Y-46386D01*
X92890Y-46386D01*
X92957Y-46150D02*
X93036Y-46386D01*
X93115Y-46150D01*
G54D17*
X66842Y-51396D02*
X66842Y-51651D01*
X66857Y-51681D01*
X66872Y-51696D01*
X66902Y-51711D01*
X66962Y-51711D01*
X66992Y-51696D01*
X67007Y-51681D01*
X67022Y-51651D01*
X67022Y-51396D01*
X67337Y-51711D02*
X67157Y-51711D01*
X67247Y-51711D02*
X67247Y-51396D01*
X67217Y-51441D01*
X67187Y-51471D01*
X67157Y-51486D01*
X67457Y-51426D02*
X67472Y-51411D01*
X67502Y-51396D01*
X67577Y-51396D01*
X67607Y-51411D01*
X67622Y-51426D01*
X67637Y-51456D01*
X67637Y-51486D01*
X67622Y-51531D01*
X67442Y-51711D01*
X67637Y-51711D01*
X91281Y-64137D02*
X91281Y-64392D01*
X91296Y-64422D01*
X91311Y-64437D01*
X91341Y-64452D01*
X91401Y-64452D01*
X91431Y-64437D01*
X91446Y-64422D01*
X91461Y-64392D01*
X91461Y-64137D01*
X91716Y-64287D02*
X91611Y-64287D01*
X91611Y-64452D02*
X91611Y-64137D01*
X91761Y-64137D01*
X91866Y-64167D02*
X91881Y-64152D01*
X91911Y-64137D01*
X91986Y-64137D01*
X92016Y-64152D01*
X92031Y-64167D01*
X92046Y-64197D01*
X92046Y-64227D01*
X92031Y-64272D01*
X91851Y-64452D01*
X92046Y-64452D01*
X72625Y-56687D02*
X72625Y-56837D01*
X72520Y-56522D02*
X72625Y-56687D01*
X72730Y-56522D01*
X73000Y-56837D02*
X72820Y-56837D01*
X72910Y-56837D02*
X72910Y-56522D01*
X72880Y-56567D01*
X72850Y-56597D01*
X72820Y-56612D01*
X76850Y-57482D02*
X76850Y-57632D01*
X76745Y-57317D02*
X76850Y-57482D01*
X76955Y-57317D01*
X77045Y-57347D02*
X77060Y-57332D01*
X77090Y-57317D01*
X77165Y-57317D01*
X77195Y-57332D01*
X77210Y-57347D01*
X77225Y-57377D01*
X77225Y-57407D01*
X77210Y-57452D01*
X77030Y-57632D01*
X77225Y-57632D01*
G54D15*
X92762Y-63764D02*
X93048Y-63764D01*
X93105Y-63784D01*
X93143Y-63822D01*
X93162Y-63879D01*
X93162Y-63917D01*
X92762Y-63612D02*
X92762Y-63364D01*
X92914Y-63498D01*
X92914Y-63440D01*
X92933Y-63402D01*
X92952Y-63383D01*
X92990Y-63364D01*
X93086Y-63364D01*
X93124Y-63383D01*
X93143Y-63402D01*
X93162Y-63440D01*
X93162Y-63555D01*
X93143Y-63593D01*
X93124Y-63612D01*
X92762Y-63117D02*
X92762Y-63078D01*
X92781Y-63040D01*
X92800Y-63021D01*
X92838Y-63002D01*
X92914Y-62983D01*
X93010Y-62983D01*
X93086Y-63002D01*
X93124Y-63021D01*
X93143Y-63040D01*
X93162Y-63078D01*
X93162Y-63117D01*
X93143Y-63155D01*
X93124Y-63174D01*
X93086Y-63193D01*
X93010Y-63212D01*
X92914Y-63212D01*
X92838Y-63193D01*
X92800Y-63174D01*
X92781Y-63155D01*
X92762Y-63117D01*
X93162Y-62602D02*
X93162Y-62831D01*
X93162Y-62717D02*
X92762Y-62717D01*
X92819Y-62755D01*
X92857Y-62793D01*
X92876Y-62831D01*
G54D13*
M02*
