G04 (created by PCBNEW-RS274X (2011-03-30 BZR 2932)-stable) date 11/06/2011 13:06:09*
G01*
G70*
G90*
%MOIN*%
G04 Gerber Fmt 3.4, Leading zero omitted, Abs format*
%FSLAX34Y34*%
G04 APERTURE LIST*
%ADD10C,0.006000*%
%ADD11R,0.080000X0.080000*%
%ADD12C,0.080000*%
%ADD13R,0.082000X0.082000*%
%ADD14C,0.082000*%
%ADD15C,0.334000*%
%ADD16C,0.086000*%
%ADD17C,0.096000*%
%ADD18C,0.054000*%
%ADD19C,0.058000*%
%ADD20C,0.154000*%
G04 APERTURE END LIST*
G54D10*
G54D11*
X79930Y-44480D03*
G54D12*
X79930Y-45480D03*
X80930Y-44480D03*
X80930Y-45480D03*
X81930Y-44480D03*
X81930Y-45480D03*
X82930Y-44480D03*
X82930Y-45480D03*
G54D13*
X84039Y-44480D03*
G54D14*
X84039Y-45480D03*
G54D11*
X62902Y-51701D03*
G54D12*
X61902Y-51701D03*
X62902Y-56701D03*
X61902Y-52701D03*
X62902Y-57701D03*
X61902Y-53701D03*
X62902Y-58701D03*
X61902Y-54701D03*
X62902Y-59701D03*
X61902Y-55701D03*
X62902Y-60701D03*
X61902Y-56701D03*
X62902Y-61701D03*
X61902Y-57701D03*
X62902Y-62701D03*
X61902Y-58701D03*
X62902Y-63701D03*
X61902Y-59701D03*
X62902Y-64701D03*
X61902Y-60701D03*
X62902Y-65701D03*
X61902Y-61701D03*
X62902Y-66701D03*
X61902Y-62701D03*
X61902Y-63701D03*
X62902Y-67701D03*
X61902Y-64701D03*
X61902Y-66701D03*
X61902Y-67701D03*
X61902Y-68701D03*
X61902Y-69701D03*
X62902Y-68701D03*
X62902Y-69701D03*
X62902Y-52701D03*
X62902Y-53701D03*
X62902Y-54701D03*
X62902Y-55701D03*
X62902Y-70701D03*
X61902Y-70701D03*
X61902Y-65701D03*
G54D15*
X62479Y-73281D03*
X62489Y-45189D03*
X95031Y-44969D03*
X95046Y-73286D03*
G54D16*
X84500Y-74400D03*
X86270Y-74400D03*
G54D17*
X84000Y-73420D03*
X86760Y-73420D03*
G54D16*
X88900Y-74450D03*
X90670Y-74450D03*
G54D17*
X88400Y-73470D03*
X91160Y-73470D03*
G54D18*
X76500Y-44690D03*
X73350Y-44690D03*
G54D19*
X67550Y-45530D03*
X65820Y-45530D03*
G54D13*
X66100Y-50250D03*
G54D14*
X67100Y-50250D03*
G54D20*
X87170Y-45650D03*
X87170Y-48150D03*
X85670Y-47150D03*
G54D16*
X61654Y-47913D03*
X61654Y-49683D03*
G54D17*
X62634Y-47413D03*
X62634Y-50173D03*
G54D11*
X95000Y-53750D03*
G54D12*
X94000Y-53750D03*
X95000Y-58750D03*
X94000Y-54750D03*
X95000Y-59750D03*
X94000Y-55750D03*
X95000Y-60750D03*
X94000Y-56750D03*
X95000Y-61750D03*
X94000Y-57750D03*
X95000Y-62750D03*
X94000Y-58750D03*
X95000Y-63750D03*
X94000Y-59750D03*
X95000Y-64750D03*
X94000Y-60750D03*
X95000Y-65750D03*
X94000Y-61750D03*
X95000Y-66750D03*
X94000Y-62750D03*
X95000Y-67750D03*
X94000Y-63750D03*
X94000Y-64750D03*
X94000Y-65750D03*
X94000Y-66750D03*
X95000Y-54750D03*
X95000Y-55750D03*
X95000Y-56750D03*
X95000Y-57750D03*
X94000Y-67750D03*
M02*
